<?xml version="1.0" encoding="utf-8"?>
<!-- Generator: Adobe Illustrator 20.1.0, SVG Export Plug-In . SVG Version: 6.00 Build 0)  -->
<svg version="1.1" id="Layer_1" xmlns="http://www.w3.org/2000/svg" xmlns:xlink="http://www.w3.org/1999/xlink" x="0px" y="0px"
	 viewBox="0 0 136.5 190.5" style="enable-background:new 0 0 136.5 190.5;" xml:space="preserve">
<style type="text/css">
	.st0{fill:#F7922D;}
</style>
<g id="XMLID_706_">
	<g id="XMLID_316_">
		<path id="XMLID_350_" class="st0" d="M32.2,88.4c0.1-0.1,0.1-0.2,0.2-0.3c0-0.3-0.3,0-0.4-0.2c0.1-0.1,0.3-0.3,0.5-0.4
			c-0.4-0.6-0.1-1.3-0.6-1.9c0.5-0.9,0.4-1.3-0.2-1.4c0.2-0.2-0.2-0.6,0.3-0.7c-0.3-1,0.1-2.1-0.2-3.1c-0.2-0.1-0.3,0.1-0.4,0.1
			c-0.2-0.3-0.2-1.2,0.1-1.4c-0.5-0.3-0.5-0.8-0.5-1.3c0.1-0.6-0.1-1.2-0.3-1.8c0.2,0,0.3-0.1,0.4-0.1c0-0.4-0.3-0.4-0.6-0.4
			c0.7-0.6,0.5-1.4,0.4-2c-0.2-0.9-0.3-1.9-0.3-2.8c-0.8,0.1-0.8,0.1-0.8-0.8c0.4-0.1,0.1,0.3,0.4,0.4c0.3-0.5,0-1.3-0.5-1.6
			c0.2-0.2,0.5,0,0.6-0.3c-0.4-0.3,0.1-1.1-0.8-1.3c0-0.3,0.3,0,0.5-0.3c-0.2-0.5-0.4-1-0.5-1.5l0,0c0,0,0.2-0.1,0-0.1l0,0
			c0.1-0.9-0.6-1.6-0.9-2.4c-0.1-0.3-0.2-0.5-0.1-0.7c0-0.4-0.1-0.7-0.4-0.8c-0.2-1.3-1-2.2-1.2-3.3c-0.4,0-0.2,0.3-0.4,0.3
			c-0.3-1.4-0.4-2.8-0.4-4.2c0-2.3,0.1-4.5,0-6.8c0-0.6,0-1.2,0-1.9c0-1.2-0.1-2.4,0-3.5c0.1-1.4,0.2-2.8,0.3-4.2
			c0.1-1.6,0-3.2,0.2-4.8c0.1-1,0.1-1.9,0.3-2.9c0.1-0.6,0-1.2,0-1.8c0.1-1.4,0.5-2.8,0.6-4.1c0.1-2.4,0.8-4.7,1.1-7
			c0.2-1.5,0.6-3,1.3-4.5c0.3-0.6,0.4-1.3,0.7-1.9c0.6-1.4,1.3-2.7,2.7-3.6c0.5-0.3,0.8-0.8,1.2-1.2c1-1.2,2.3-1.8,3.7-2.3
			C39.1,2.8,40,2.5,41,2.5c0.7,0,1.3-0.3,2,0c0.1,0.1,0.2,0,0.3-0.1c0.3-0.2,0.7-0.1,0.9,0.1c0.4,0.5,0.7,0.3,1.1-0.1
			c0.5,0.6,1.4,0.3,2,0.9c0.7-0.5,1.7,0,2,1c0.3,0,0.1-0.4,0.4-0.4c0,0.5,0.4,0.3,0.7,0.2c-0.1,0.5-0.1,0.8-0.2,1.2
			c0.3-0.3,0.5-0.5,0.7-0.7C51,4.9,51.4,5,51.5,5.4c0,0.3-0.4,0.5-0.2,0.9c0.3-0.1,0.5-0.3,0.7,0.2c0.5,1.3,1,2.6,1.3,3.9
			c0.4,2.2,0.5,4.4,0.5,6.7c0,1.2,0,2.3-0.1,3.5c0,1.1,0,2.1,0,3.2c0,0.4,0.2,0.8,0.2,1.2c0,1.7-0.2,3.4,0,5.1
			c0.1,1-0.2,2.1-0.1,3.1c0.1,1.6,0.2,3.3,0.3,4.9c0.1,1.6,0,3.1,0.3,4.7c0.1,0.6-0.3,1-0.2,1.6c0.1,1.6,0.1,3.1,0.1,4.7
			c0.1,1.5,0,3,0.1,4.5c0.1,0.7,0,1.5,0,2.3c0,1.5,0,2.9,0,4.4c0,1.4-0.3,1.8-1.8,1.9c-0.6,0-1.5-0.1-1.9,0.7c-0.5-0.3-1,0-1.6,0
			c0.1,0.5-0.1,0.7-0.6,0.7c-0.3-0.1-0.1-0.4-0.4-0.5c-0.2,0-0.4,0.1-0.6,0.1c-0.8,0-1.5,0.3-2.3,0.5c-0.5,0.2-0.9,0.8-1.6,0.6
			c-0.3-0.1-0.2,0.3-0.2,0.5c-1.1-0.4-1.9,0.2-2.9,0.4c-0.3,0-0.2,0.3-0.2,0.5c-0.4-0.3-0.8-0.4-1.2,0.1c-0.2,0.3-0.7,0.3-0.9,0.3
			c-0.5,0-0.8,0.3-1.1,0.4c-1.1,0.5-2,1.2-2.5,2.3c-0.3,0.6,0.3,0.9,0.6,1.1c0.4,0.3,0.6-0.1,0.8-0.3c0.4-0.3,0.9-0.4,1.4-0.6
			c1.5-0.5,2.9-0.9,4.4-1.3c1.5-0.5,3-1,4.5-1.4c2.1-0.5,4.3-0.9,6.4-1.3c2.2-0.4,4.4-0.6,6.6-0.6c1.3,0,2.7,0,4-0.1
			c1.4-0.1,2.7,0,4.1-0.1c0.7-0.1,1.5,0.1,2.3,0.1c1.2,0,2.5,0.2,3.7,0.3c1.1,0.1,2.3,0.1,3.4,0.2c0.8,0.1,1.6,0,2.3,0.1
			c1.2,0.2,2.3,0.3,3.5,0.3c1,0,2,0.4,3,0.5c1,0.1,2.1,0.5,3.1,0.7c1.1,0.2,2.1,0.5,3.2,0.7c1.8,0.4,3.6,0.9,5.3,1.5
			c1.1,0.4,2.2,0.5,3.3,0.9c0.9,0.3,1.7,0.6,2.6,0.8c1,0.2,1.9,0.9,3,0.8c0.2,0,0.4,0.2,0.6,0.3c0.9,0.4,2,0.5,2.9,0.9
			c1.4,0.6,2.8,0.9,4.2,1.5c1.8,0.7,3.4,1.6,5.2,2.3c0.4,0.2,0.8,0.4,1.2,0.7c0.5,0.5,0.9,0,1.2-0.2c0.3-0.2,0.5-0.6,0.2-0.9
			c-0.2-0.3-0.2-0.6-0.3-0.9c-0.2-0.5-0.4-0.9-1.1-0.7c0-0.8-0.7-0.9-1.2-1.2c-0.2-0.1-0.1,0.1-0.1,0.2l0,0
			c-0.6-0.3-1.2-0.7-1.7-1.1c-0.5-0.4-1.2-1.2-2.2-0.8c-0.2,0.1-0.8-0.5-1.2-0.8c-0.2-0.2-0.4-0.3-0.7-0.3c-0.6,0.1-1.1-0.2-1.5-0.5
			c-0.5-0.3-1-0.4-1.6-0.5c-0.7-0.1-1.7,0.1-2-0.8c0.3-0.3,0.3-0.8,0.3-1.2c0-0.8-0.2-1.6,0.1-2.4c0.2-0.8-0.1-1.6-0.2-2.4
			c-0.2-1.3-0.1-2.6-0.1-3.8c0-0.6,0.2-1.4-0.5-1.9c0.8-0.9,0.4-2,0.4-3c0-0.6-0.1-1.1-0.1-1.7c0.1-0.9,0.1-1.9-0.1-2.9
			c-0.1-0.5,0-1-0.1-1.4c-0.1-1,0.4-1.9,0.2-2.9c-0.1-0.2-0.1-0.4-0.3-0.5c0.6-0.7,0.6-1.3-0.1-1.6c0.4-0.1,0.5-0.3,0.4-0.7
			c-0.1-0.5,0-1.1,0.1-1.6c0-0.9,0-1.8-0.1-2.7c0-0.3,0.1-0.5,0.1-0.7c0.2-0.8,0.1-1.8-0.1-2.5c-0.2-0.8,0.2-1.6-0.1-2.4
			c0,0,0-0.1,0-0.1c0.8-0.6,0-1.1-0.1-1.7c0.8-0.1,0.4-0.6,0.4-1.1c0-1,0-2-0.1-3.1c-0.1-0.9-0.2-1.8-0.3-2.7
			c-0.1-0.4,0.3-0.9-0.2-1.2c0,0,0-0.3,0.3-0.4c0.4-0.1,0.3-0.4,0.4-0.8c-0.3,0.2-0.6,0.1-0.9-0.1c0.6-0.9,0.8-1.9,0.4-3
			c-0.7-0.1-0.8-0.3-0.2-1c0.1-0.1,0.2-0.3,0.1-0.4c-0.4-0.9,0-1.9-0.1-2.8c0-0.1,0.1-0.3,0-0.4c-0.8-1,0-1.9,0.4-2.7
			c0.5-1.1,1.2-2.2,1.8-3.3c1.5-2.4,3.8-3.8,6.8-4c1-0.1,2-0.1,3,0.3c0.7,0.3,1.7,0.2,2.2,0.8c0.5,0.5,0.8,1.3,1.5,1.7
			c0.2,0.1-0.2,0.3,0,0.5c1-0.5,1.1,0.6,1.8,0.9c-0.2,0.3,0,0.5,0.2,0.7c0.8,0.9,1.5,1.8,1.6,3c0.1,0.4-0.2,0.6-0.2,0.8
			c0.3,0.3,0.5-0.1,0.8,0c-0.1,0.3,0,0.5,0.3,0.8c0.3,0.3,0.6,0.6,0.4,1.1c-0.1,0.2-0.1,0.5,0.3,0.6c0.4,0.1,0.1,0.5,0,0.7
			c-0.2,0.6-0.1,1.1,0.3,1.6c0.3,0.5,0.6,1.2,0.1,1.9c-0.2,0.3-0.1,0.8,0,1.1c0.2,0.6,0.2,1.3,0.4,1.9c0.1,0.2,0,0.4,0,0.6
			c0.1,0.3,0.4,0,0.5,0.2c0,0.2-0.3,0.2-0.4,0.4c0,0,0,0.1,0,0.1c0.6,0.2,1.2,1.1,0.9,1.5c-0.6,0.7,0,1.5-0.2,2.2
			c-0.1,0.6,0.3,1.3-0.2,1.9c0.4,0.1,0.8,0.5,0.7,0.6c-0.4,0.6,0.7,1.4-0.4,1.9c0.2,0.6-0.1,1.1,0,1.7c0.3,0.1,0.2-0.2,0.3-0.3
			c0.6,0.3,0.3,0.6,0,0.9c0.7,0.2,0.3,0.8,0.6,1.2c-0.7,0.1-0.4,0.7-0.6,1c-0.4,0.4,0.5,1-0.5,1.1c1.1,0.5,1.1,0.5,0.9,1.6
			c0,0.2-0.2,0.4,0,0.6c0.5,0.5,0.2,0.7-0.3,0.9c0.1,0.3,0.4,0.5,0.6,0.7c0.1,0.2,0.1,0.6,0.1,0.9c-0.5,0.2-0.9,0.4-0.4,0.9
			c0.2,0.2,0,0.5,0,0.7c0,0.6,0.1,1.2-0.2,1.7c0.7,0,0.7,0,0.7,0.7c-0.2,0.1-0.2-0.3-0.4-0.2c0,0.8,0.1,1.3,0.4,1.6
			c-0.1,0.3-0.3,0-0.5,0.1c-0.1,0.9-0.2,1.9,0,2.9c0.3,1.3,0.6,2.5,0.3,3.8c-0.2,0.6,0.4,1.3-0.1,2c-0.1,0.1,0.3,0.2,0.3,0.4
			c0,0.3-0.3,0.2-0.4,0.4c0,0,0,0.1,0,0.1c0.5,0.3,0.5,0.7,0.2,1.2c-0.2,0.3-0.3,0.6,0.2,0.9c0.3,0.2,0.3,0.5,0.3,0.8
			c-0.1,0.2-0.4,0-0.6,0.3c0.2,0.2,0.4,0.5,0,0.7c-0.1,0.1-0.2,0.3-0.1,0.4c0.6,0.5,0.2,1.2,0.6,1.6c-0.1,0.3-0.4-0.1-0.5,0.2
			c-0.1,0.4,0.2,0.5,0.5,0.6c-0.5,0.8,0.2,1.4,0.2,2.2c0,0.7,0.3,1.4,0.2,2.1c-0.1,0.8,0,1.6-0.2,2.3c-0.1,0.3,0.2,0.5,0.2,0.8
			c0.1,0.6-0.1,1.2,0.4,1.8c0.2,0.2,0.1,0.9-0.1,1.3c-0.1,0.4,0,0.6,0.2,0.8c-0.1,0.1-0.3,0-0.3,0.2c0,0,0,0.1,0,0.1
			c0.5,0.3,0.8,0.5,0.5,1.2c-0.1,0.3,0.3,0.7,0.2,1.2c-0.1,0.8,0.1,1.5,0.2,2.3c0,0.3-0.4,0.2-0.4,0.5c0.4,0.4,0.4,0.9,0.2,1.5
			c-0.1,0.4,0.4,0.8,0.3,1.2c0,0.2,0.1,0.5-0.2,0.6c-0.1,0-0.1,0.2-0.1,0.2c0.5,0.8,0,1.7,0.4,2.5c0.3,0.7,0.2,1.4,0.1,2
			c0,0.4-0.1,0.8,0,1.3c0.2,1,0.2,2-0.4,2.9c-0.2,0.3-0.1,0.5,0.5,0.7c0,0.2-0.3,0.1-0.4,0.3c0.1,0.2,0.2,0.5-0.1,0.8
			c0.2,0.4,1,0.8,0.2,1.3c0.5,0.2,0.5,0.6,0.3,0.9c-0.4,0.8-0.4,1.6-0.3,2.4c0.1,0.4-0.1,0.5-0.4,0.7c0.6,0.3,0.5,0.6,0.2,1
			c-0.4,0.5-0.1,0.9,0.1,1.4c0.1,0.2,0.1,0.4,0.2,0.6c0.2,0.5,0,0.8-0.4,1.1c0.1,0.3,0.4,0.2,0.5,0.4c0,0,0,0.1,0,0.1
			c-0.3,0.4-0.2,0.8-0.2,1.3c0,0.8,0.4,1.7-0.1,2.6c-0.2,0.3,0,1-0.1,1.5c-0.1,0.5,0,1-0.4,1.6c-0.2,0.3,0,0.8,0.1,1.2
			c0,0.2,0.2,0.3,0,0.4c-0.5,0.2-0.4,0.7-0.3,1c0.1,0.6,0,1.2-0.2,1.7c-0.2,0.5-0.3,0.9-0.1,1.4c0.1,0.2-0.2,0.6-0.4,0.9
			c-0.1,0.3,0,0.3,0.2,0.4l0,0c-0.4,1.9-0.3,3.8-1,5.7c0,0.1-0.1,0.3-0.1,0.3c0.8,0.6,0.1,1.2-0.1,1.8c0,0.1-0.1,0.3,0,0.4
			c0.2,1-0.4,1.8-0.6,2.7c0,0.2-0.1,0.4,0,0.6c0.2,0.3-0.1,0.4-0.4,0.6c0.9,0.1,0.4,0.7,0.3,0.9c-0.4,0.6-0.4,1.4-0.4,1.9
			c0,1-0.6,1.6-0.9,2.4c0,0.1-0.2,0.1-0.2,0.2c0.1,0.7-0.8,1.2-0.5,1.9c0.1,0.1-0.1,0.1-0.1,0.2c-0.4,0.1-0.4,0.6-0.3,0.7
			c0.4,0.7,0,1.2-0.3,1.7c-0.7,1.1-1,2.4-1.4,3.6c-0.3,1.1-0.5,2.4-1,3.4c-0.4,0.8-0.6,1.6-0.9,2.4c-0.3,1-0.5,2-0.9,2.9
			c-0.6,1.3-1.2,2.6-1.6,4c-0.5,1.6-1.4,3-2.4,4.3c-1.1,1.4-2.2,2.9-3.4,4.2c-1.2,1.3-2.2,2.7-3.4,4c-1.1,1.2-2.3,2.5-3.6,3.5
			c-1.2,0.9-2.2,2-3.4,3c-0.7,0.6-1.4,1.3-2.2,1.9c-0.6,0.4-1.1,1-1.7,1.5c-1.8,1.4-3.8,2.4-6,3.1c-1.8,0.5-3.4,1.4-4.9,2.3
			c-0.8,0.5-1.8,0.9-2.7,1.2c-1.1,0.4-2.2,0.9-3.4,1.2c-2,0.4-4,0.4-5.9,0.6c-1.7,0.2-3.4,0.1-5.1,0.3c-1.6,0.1-3.3,0.3-4.9,0.2
			c-0.7,0-1.5-0.2-2.3,0c-0.1,0-0.3,0-0.4,0c-2.1-0.2-4.1-0.6-6.1-1.1c-1.3-0.4-2.7-0.6-4.1-0.9c-0.5-0.1-0.9-0.2-1.4-0.5
			c-1-0.6-2-0.9-3.2-0.9c-1,0-1.9-0.5-2.9-0.7c-2.3-0.6-4.6-1.3-6.7-2.5c-0.9-0.5-1.9-1.1-3-1.4c-0.2-0.1-0.4-0.3-0.6-0.4
			c-1.5-1.1-3.3-1.7-4.8-2.9c-0.8-0.6-1.7-1.1-2.5-1.8c-1.3-1.1-2.7-2-4-3.2c-1.5-1.5-3.1-2.8-4.4-4.4c-1.2-1.5-2.5-3-3.6-4.6
			c-1.3-1.7-2.4-3.6-3.6-5.4c-0.7-1.1-1.3-2.3-1.8-3.5c-0.6-1.4-1.3-2.8-1.7-4.2c-0.5-1.6-1.2-3.1-1.5-4.8c-0.3-1.5-0.7-2.9-1.2-4.3
			c-0.4-1.1-0.6-2.4-0.8-3.5c-0.2-1.6-0.7-3.2-0.9-4.9c-0.1-0.8-0.2-1.6-0.2-2.4c0-0.3-0.1-0.6-0.1-0.8c-0.1-1-0.4-2-0.5-3
			c-0.3-1.8-0.6-3.7-0.7-5.5c-0.1-1.2-0.3-2.4-0.4-3.6c-0.1-0.9-0.2-1.9-0.2-2.8c0.1-1.3-0.4-2.6-0.4-3.9c0-0.5,0-1.1-0.1-1.6
			c-0.3-1.4-0.3-2.8-0.4-4.2c-0.1-1.4-0.3-2.8-0.3-4.3c0-1.2-0.1-2.5,0-3.7c0.1-1.5-0.2-3-0.2-4.5C2.3,89.8,2,88,2,86.2
			c0-1.8-0.1-3.7-0.1-5.5c0-3.3,0-6.5,0-9.8c0-1.2,0.1-2.4,0.4-3.6c0.2-0.9,0.3-1.9,0.5-2.9c0.3-1.6,0.7-3.2,1.3-4.7
			c0.5-1.5,1.5-2.6,2.7-3.6c1.2-1,2.5-1.8,3.9-2.3c0.6-0.2,1.3-0.3,2-0.3c0.4,0,0.7-0.2,1-0.2c0.3,0,0.7-0.1,0.7,0.4
			c1.5-0.6,2.7,0.2,3.9,0.7c0,0.3,0.1,0.6,0.2,0.8c0.3,0,0.3-0.3,0.5-0.3c0,0,0.1,0,0.1,0c0.4,0.6,1.1,1.1,1.6,1.5
			c0.6,0.5,0.9,1.1,1.2,1.7c0.2,0.4,0.5,0.7,1,0.8c0,0.4-0.4,0.2-0.4,0.4c1,0.6,1.6,1.5,2.1,2.5c0.2,0.3-0.1,0.6-0.1,0.9
			c0,0.4,0,0.5,0.3,0.9c0.2,0,0.3-0.2,0.5-0.5c0.1,0.7,0.2,1.2,0.3,1.7c0.1,0.3,0.4,0.3,0.5,0.7c0.3,1,0.4,2,0.7,3
			c0.3,1.3,0.3,2.7,0.5,4c0.3,2.1,0.3,4.2,0.9,6.3c0,0.1,0.1,0.2,0.1,0.3c-0.4,1.3-0.1,2.5,0.1,3.8c0.2,1.5,0.2,3.1,0.5,4.6
			c0.2,1,0,2.1,0.3,3.2c0.4,1.4,0.2,2.9,0.5,4.3c0.3,1.2,0.3,2.5,0.5,3.7c0,0.4,0.1,0.7,0.3,1c0.3,0.5,0,1,0.1,1.6
			c0.4,1.8,0.3,3.6,0.6,5.3c0.2,1.2,0,2.5,0.1,3.8c0,1,0.2,2,0.1,3.1c0,0.3,0.1,0.7,0.2,1c0.2,0.4,1.4,0.5,1.8,0.1
			c0.9-0.9,1.6-1.9,1.4-3.3c-0.2-1.1-0.4-2.3-0.2-3.4c0.1-0.6-0.4-1.2,0-1.8c0.2-0.3-0.2-0.4-0.2-0.6c0.1-0.2,0.3,0,0.4-0.1
			c0-0.3-0.4-0.3-0.5-0.5c0.4-0.8,0.1-2.4-0.5-2.7c1.2-1.3,0-2.7,0.3-4.2c0.4-0.1,0.8,0.1,1.3,0.3c0.5,0.2,1,0.5,1.7,0.4
			c0.1,0,0.2,0,0.3,0.1c0.4,0.5,1,0.6,1.5,0.8c1.3,0.5,2.3,1.2,3.4,1.9c1.3,0.8,2.7,1.6,3.9,2.5c0.4,0.3,0.8,0.8,1.3,1.1
			c0.7,0.5,1.2,1.2,2,1.7c0.4,0.3,0.9,0.7,1.2,1.2c0.5,0.7,1.3,1,1.7,1.7c0.4,0.8,1.1,1.3,1.6,2c0.3,0.5,0.7,1,1.2,1.3l0,0
			c0.4,0.7,0.8,1.5,1.4,2.1c0.7,0.6,1,1.5,1.4,2.2c0.8,1.3,1.4,2.7,2.2,4c0.4,0.6,0.7,1.3,1,2c0.4,1,0.6,2.2,1.1,3.2
			c0.6,1.2,0.7,2.5,1.2,3.7c0.6,1.7,0.9,3.4,1.3,5.1c0.3,1.4,0.4,2.8,0.7,4.2c0.1,0.5,0.1,0.9,0.2,1.4c0,0.5,0.2,0.9,0.6,1.2
			c0.3,0.3,0.6,0.4,0.9-0.1c0.1-0.1,0.1-0.2,0.2-0.3c1.2-0.6,1.6-1.3,1.2-2.4c-0.2-0.6,0-1.1-0.1-1.7c-0.2-1-0.3-1.9-0.7-2.9
			c-0.2-0.4-0.1-0.7-0.1-1.1c0-1.2-0.2-2.3-0.4-3.4c-0.1-0.3,0-0.7-0.5-0.8c-0.2-0.1-0.2-0.7-0.3-1c-0.2-1.1-0.4-2.1-0.8-3.2
			c-0.5,0.1,0,0.4-0.2,0.7c-0.1,0.1-0.3-0.1-0.5-0.2c0.8-0.6-0.4-1.4,0.4-2.1c-0.4-0.1-0.7-0.3-0.3-0.7c0.1-0.1-0.2-0.7-0.4-1.1
			c-0.3-0.5-0.3-1.1-0.9-1.4c0.3-0.7-0.7-1.2-0.4-1.9c0.1-0.3-0.5-0.7-1.1-0.7c0.1-0.7,0-1.4-0.4-2c-0.4-0.5-0.7-1-1-1.5
			c-0.3-0.5-0.5-1-1.1-1.4c-0.2-0.1-0.1-0.8-0.5-1c-0.2-0.2-0.4-0.3-0.7-0.5c-0.4-0.2-0.1-0.4,0.1-0.6c-0.6,0.3-0.2-1-1-0.4
			c0.2-0.6-0.4-0.7-0.6-1.1c-0.3-0.8-1.2-1.3-1.6-2.2c-0.2-0.4-0.5-0.9-1.3-0.8c-0.4,0.1-0.5-0.5-0.5-0.8c-0.1-0.5-0.3-0.8-0.8-0.8
			c-0.3,0-0.4-0.2-0.5-0.4c-0.1-0.3-0.3-0.6-0.7-0.6c-0.2,0-0.3-0.1-0.3-0.2c0.1-0.7-0.5-0.7-0.9-0.7c-1-0.9-1.7-2.2-3.4-2.3
			c0.1-0.7-1.2-1.7-1.8-1.5c-0.8-1.1-2.3-1.1-3-2.1c-0.4,0.1-0.2,0.4-0.4,0.5c-0.2-0.3-0.2-0.3-0.2-0.7c-0.4-0.2-0.8-0.2-1.2-0.3
			c-0.4-0.1-0.9-0.3-1.3-0.5c-0.4-0.2-0.7-0.3-1.2-0.2c-0.1,0-0.5-0.1-0.8-0.2c-0.9-0.4-1.9-0.6-3-0.6c-0.1,0-0.3,0-0.4-0.2
			c-0.2-0.5-0.4-1.1-0.4-1.6c0-0.7-0.3-1.4-0.2-2.1c0-0.8-0.8-1.5-0.2-2.4C32.7,88.9,32.9,88.4,32.2,88.4
			C32.3,88.4,32.2,88.4,32.2,88.4z M41.3,105.4c-0.2-0.3-0.5-0.5-0.7-0.8c-0.3,0.1-0.7,0.6-0.9-0.1c0-0.2-0.4-0.2-0.5-0.2
			c-0.4,0-0.7,0.2-1,0.3c-0.2,0.1-0.4,0.2-0.3,0.4c0.1,0.2,0.2,0.2,0.4,0.3c0.7,0.1,1.6,0.4,1.9,0.8c0.5,0.6,1.2,0.9,1.7,1.5
			c0.4,0.4,0.9,0.7,1.3,1.2c0.3,0.4,0.6,1,1.2,1.1c0.9,0.2,1.7-0.7,1.6-1.6c-0.3,0-0.4,0.4-0.7,0.4c0.1-0.4,0-0.8-0.1-1.2
			c-0.3-0.1-0.8,0.1-0.9-0.4c-0.1-0.5-0.5-0.7-0.9-0.9c-0.1,0.2,0.1,0.2,0,0.3c-0.4,0.2-0.6-0.1-0.6-0.3c-0.1-0.9-0.8-1-1.4-1.3
			C41.4,105.1,41.3,105.3,41.3,105.4L41.3,105.4z M51.1,114.5L51.1,114.5c-0.1-0.5-0.6-0.8-1.1-1.2c0,0.4,0,0.7-0.3,0.8
			c0-0.3-0.4-0.4-0.4-0.6c0-0.4,0-0.7-0.5-0.8c-0.4-0.1-0.7-0.3-1.3-0.1c0.3,0.2,0.2,0.5,0.1,0.7c-0.3,0.4,0,0.9,0.2,1
			c0.4,0.2,0.6,0.6,0.8,0.8c0.7,0.9,1.6,1.6,2.2,2.5c0.3,0.5,0.7,0.9,1.3,1.2c0.3,0.1,0.4,0,0.5-0.2c-0.1,0-0.2-0.1-0.6-0.2
			c1.4-0.3,1.6-1,1-2.1c-0.3-0.1-0.8,0-0.6-0.7c0.1-0.2-0.2-0.3-0.5-0.3c-0.4,0-0.8,0-1-0.4c0.1-0.1,0.4-0.1,0.4-0.3
			C51.4,114.4,51.2,114.5,51.1,114.5z M76.3,95.8c-0.5,0-0.7,0.5-1.2,0.5c0.1,0.4,0.4,0.9,0.8,1c0.5,0.1,0.7,0.4,1,0.6
			c1.3,1.1,2.8,1.8,4.2,2.6c0.1,0.1,0.3,0,0.4,0c0.6-0.2,1.2-1.7,0.4-2.2c-0.9-0.5-1.8-0.9-2.8-1.4c0,0.3-0.1,0.5-0.1,0.7
			c-0.3-0.5-0.2-1.4-1.2-1.2c-0.1-0.2,0.2-0.3,0.1-0.4c-0.4-0.3-0.6,0.5-1.1,0.1c0.1-0.2,0.3-0.3,0.3-0.6
			C77,95.6,76.6,95.2,76.3,95.8C76.4,95.7,76.4,95.7,76.3,95.8z M114.1,44.9c0.2-0.1,0.4-0.3,0.6,0.1c-0.4,0-0.6,0.7-1.1,0.2
			c0.2,0.6-0.8,0.6-0.5,1.2c0.2,0,0.4-0.2,0.7-0.1c1.4,0.4,2.9,0.2,4.3,0.2c0.7,0,1.3,0.2,2,0c0.3-0.1,0.6-0.1,0.9,0
			c0.9,0.3,1.7,0,1.9-0.8c0.2-0.7-0.7-1.8-1.3-1.6c-0.7,0.2-1.3,0.3-2,0.1c-0.1,0-0.3,0-0.5,0c-1,0.1-1.9,0.4-2.9,0.2
			c-0.1,0-0.2,0-0.2,0.1c-0.3,0.4-0.7,0.2-1.1,0.2C114.4,44.5,114.2,44.6,114.1,44.9C114.1,44.9,114.1,44.9,114.1,44.9
			C114,45,114,45,114.1,44.9C114.1,45,114.1,44.9,114.1,44.9z M40.3,42.8C40.3,42.8,40.3,42.7,40.3,42.8c-0.4-0.4-1.7-0.4-2.2-0.1
			c-0.6-0.6-1.4,0.1-1.9-0.1c-0.7-0.2-1.3,0.1-1.9-0.1c-0.2,0.2-0.1,0.6-0.4,0.7c-0.6,0.1-0.4,0.5-0.4,0.7c0,0.4,0.4,0.5,0.8,0.5
			c1.3,0.1,2.7,0.1,4,0.2c1.3,0.1,2.6,0.1,3.9,0.2c0.9,0.1,1.8,0,2.7,0.1c0.4,0.1,0.8-0.1,0.9-0.5c0.1-0.5,0.4-1,0-1.5
			c0-0.1-0.1-0.1-0.2-0.1c-1.2-0.5-2.4-0.1-3.6-0.3c0,0.3-0.1,0.5-0.1,0.8C41.5,42.6,41,42.3,40.3,42.8z M52.7,89.3
			c-0.2-0.1,0-0.4-0.1-0.6c-0.2-0.1-0.4,0-0.5-0.1c-0.3,0-0.7,0-0.9-0.4c-0.3-0.7-0.7-0.8-1.4-0.6c-0.2-0.2-0.3-0.8-0.8-0.4
			c-0.3-0.5-0.6-0.9-1.3-1c0.1-0.4,0-0.7-0.6-0.5c-0.1-0.7-0.4-0.8-0.8-0.4c-0.2-0.7-0.8-1.1-1.5-0.9c-0.1-1.1-1.3-0.5-1.7-1.2
			c-0.2,0.3,0.1,0.4-0.1,0.5c-0.6,0.1-0.6-0.4-0.8-0.6c-0.4,0-0.3,0.5-0.7,0.5c-0.2-1-0.7-0.4-1.2-0.3c0.1,0.8,0.1,0.8-0.4,0.8
			c-0.1-0.2,0.2-0.5-0.2-0.7c-0.1,0.1-0.1,0.1-0.2,0.2c-0.3,0.5-0.2,0.7,0.4,0.8c0.2,0,0.5,0,0.7,0.2c1,1,2.2,1.7,3.2,2.6
			c0.5,0.4,1.2,0.5,1.6,1c0.8,0.8,2.1,1,2.8,1.9c0,0,0.1,0,0.1,0c1.3,0.8,2.7,1.5,3.9,2.4c1.7,1.2,3.6,2.1,5.2,3.3
			c0.5,0.4,1.1,0.6,1.6,1c1,0.8,2.1,1.5,3.1,2.2c0.6,0.5,1.3,0.8,1.9,1.2c0.6,0.4,1.2,0.8,1.8,1.2c0.9,0.6,1.9,1,2.7,1.7
			c1.4,1.1,3.1,1.8,4.4,3c0.4,0.3,0.9,0.8,1.6,0.6c0.1,0.3,0.2,0.4,0.5,0.6c0.8,0.4,1.7,0.8,2.4,1.4c0.8,0.6,1.8,1,2.6,1.5
			c0.4,0.2,0.6,0.7,1.1,0.9c1.2,0.4,2.1,1.3,3,2c1.3,1,2.5,2,4,2.7c0.1,0,0.2,0.1,0.3,0.2c0.5,0.4,1,0.9,1.6,1.2
			c0.8,0.4,1.6,0.8,2.2,1.3c0.8,0.6,1.5,1.2,2.3,1.9c0.7,0.7,1.3,0.9,2,0.4c0.7-0.4,0.1-1.4,0.8-1.8c0.1-0.1,0.1-0.4-0.1-0.6
			c-0.3-0.3-0.6-0.5-0.6-0.9c-0.4,0.1-0.2,0.5-0.4,0.6c-0.5-0.3,0-0.8-0.3-1.1c-0.2,0.1,0,0.3-0.4,0.4c0-0.8-0.7-1.1-1.3-1.5
			c-0.1,0.2-0.2,0.4-0.6,0.4c0-1.3-1.1-1.8-2-2.5c-0.1,0.3,0.1,0.6-0.2,0.8c-0.7-1-1.6-1.9-2.6-2.7c0.1,0.2,0,0.3-0.3,0.4
			c-0.1-0.5-0.5-0.7-0.9-0.8c-0.1-0.2,0.3-0.2,0.1-0.4c-0.3-0.1-0.4,0.1-0.7,0.1c0-0.6-0.9-0.6-0.8-1.3c-0.3,0-0.3,0.3-0.6,0.1
			c-0.1-0.1,0-0.3-0.2-0.4c-0.5,0.1-0.9-0.1-0.9-0.6c0-0.1-0.2-0.3-0.2-0.3c-0.8,0.3-0.9-0.4-1.3-0.8c-0.2,0.5-0.6,0.1-0.9,0.1
			c-0.3,0-0.2,0-0.2-0.4c0-0.4,0.2-0.9-0.5-1.1c-0.2,0.2,0.2,0.6-0.3,0.6c-0.1-0.4,0-0.9-0.5-1c-0.9-0.2-1.4-0.8-2-1.3
			c-0.5,0.1-0.2,0.5-0.5,0.7c-0.3-0.1-0.1-0.5-0.4-0.6c-0.2,0.1-0.1,0.4-0.5,0.2c-0.4-0.2-0.6-0.4-0.2-0.9c-0.9-0.1-0.9-1.2-1.8-1.4
			c0,0.3,0.3,0.4,0.1,0.7c-0.5-0.2-0.7-0.6-0.7-1c-0.3-0.1-0.5,0-0.7,0.2c-0.1-0.6-0.2-1.1-0.9-1.2c-0.2,0.2,0,0.5-0.4,0.7
			c0-0.4-0.3-0.7-0.6-0.8c-0.1-0.1-0.3-0.2-0.1-0.3c0.4-0.2,0-0.3-0.1-0.3c-0.4-0.2-0.7-0.7-1.1-0.7c-0.4,0-0.2,0.5-0.7,0.4
			c0.4-0.6,0.3-1.2-0.4-1.4c-0.2,0.1-0.2,0.3-0.4,0.4c-0.1,0.1-0.4,0.1-0.3-0.2c0.1-0.4-0.1-0.6-0.5-0.5c-0.4,0.1-0.6-0.1-0.9-0.3
			c-0.1-0.1,0-0.3-0.2-0.2c-0.5,0.1-0.7-0.3-1-0.4c0-0.4,0.3-0.1,0.4-0.3c-0.3-0.5-1-0.4-1.2-0.9c-0.2,0.1-0.3,0.3-0.6,0.2
			c0-0.7-0.6-0.9-1.1-1.3c-0.1,0.1,0.1,0.4-0.2,0.4c-0.3-0.4-0.1-1.2-1-1.2c-0.1-0.6-0.6-0.5-1.1-0.6c-0.2,0-0.4-0.1-0.4-0.4
			c0-0.3-0.2-0.4-0.5-0.4c-0.3,0-0.7,0-0.8-0.4c-0.2-0.7-0.7-1-1.4-1.1c-0.3-0.1-0.5-0.1-0.7-0.3c-1.2-0.8-2.2-1.9-3.8-2.1
			c-0.2,0-0.2-0.1-0.3-0.2c-0.2-0.4-0.8-0.6-1.1-0.5C52.8,89.2,52.7,89.2,52.7,89.3z M74.7,88.3c0,0-0.1-0.1-0.1-0.1
			c-0.2-0.5-1-1-1.6-0.9c-0.2,0-0.3,0-0.4-0.2c-0.4-0.8-1.1-1.4-1.9-1.6c-0.7-0.2-1.1-1.2-1.9-0.5c-0.4-0.2,0.1-0.5-0.3-0.6
			c-0.5,0.2,0.1,0.7-0.3,0.9c-0.5-0.5,0.2-1.5-0.9-1.7c-0.1,0.1-0.1,0.3-0.4,0.2c0.2-0.6-0.5-0.5-0.8-0.9c-0.3-0.4-0.6-0.5-1.1-0.5
			c-0.3,0-0.8-0.1-0.9-0.5c-0.3-0.8-0.8-1-1.6-0.6c0-0.4-0.1-0.7-0.6-0.7c-0.1,0.1,0,0.3-0.2,0.3c-0.5-0.2-0.6-0.8-1.2-1
			c-0.6-0.2-1.1,0.2-1.6-0.1c0-1-0.1-0.9-1-1.2c-0.7-0.2-1.5-0.4-1.8-1.2c0,0-0.1,0-0.2,0c0,0.2,0,0.3,0,0.4c-0.2,0-0.4,0-0.5-0.1
			c0-0.2,0.3-0.4,0-0.5c-0.4-0.1-0.8,0-1,0.4c-0.3-0.4,0.1-0.9-0.4-1.1c-0.5-0.2-0.2,0.5-0.6,0.5c-0.3-0.4-0.1-1.2-0.9-1.3
			c0.1-0.2,0-0.4-0.3-0.4c-0.3,0-0.3,0.3-0.3,0.5c-0.1,0-0.1,0.1-0.2,0.1c-0.3-0.2-0.7-0.1-0.8-0.5c-0.3-0.8-0.3-0.8-1-0.4
			c-0.2-0.6-0.9-0.9-1.7-0.7c-0.3-0.7-0.6-0.7-0.8,0.1c-0.2,0-0.4,0-0.5-0.2c0,0.1,0,0.2-0.1,0.2c-0.4,0.5-0.3,0.9,0.3,1.2
			c0.1,0.1,0.2,0.2,0.3,0.3c0.4,0.5,1,0.8,1.6,1.1c0.8,0.3,1.7,0.8,2.3,1.3c1.5,1.2,3.3,1.8,4.8,2.9c0.5,0.3,1.1,0.5,1.6,0.8
			c1,0.9,2.3,1.3,3.5,2c1,0.6,2,1.2,3,1.8c1.5,0.8,3,1.7,4.3,2.7c0.3,0.3,0.7,0.3,1.1,0.5c0.8,0.5,1.5,1.1,2.3,1.6
			c0.2,0.2,0.5,0,0.7,0.2c1.1,1.3,2.7,1.8,4.2,2.7c0.9,0.6,1.9,0.9,2.8,1.4c1,0.6,2.1,0.9,3,1.6c0.4,0.3,0.8,0.3,1.1,0.4
			c0.8,0.4,1.4,1.1,2.2,1.4c0.3,0.1,0.6,0.2,0.8,0.4c0.7,0.8,1.8,1,2.7,1.7c0.6,0.5,1.4,0.8,2.1,1.1c0.9,0.4,1.7,0.9,2.6,1.4
			c0.8,0.4,1.6,0.9,2.3,1.4c1.4,1.1,3,2,4.7,2.7c1.5,0.7,3,1.4,4.3,2.3c0.8,0.6,1.8,0.3,2.2-0.6c0.2-0.5,0-1-0.1-1.5
			c0-0.3-0.1-0.4,0.3-0.3l0,0l0,0c-0.4-0.3-0.7-0.6-1.4-0.6c-0.3,0-0.7-0.3-0.7-0.6c-0.1-0.3-0.3-0.5-0.6-0.5
			c-0.2,0-0.3-0.1-0.3-0.2c-0.2-0.4-0.6-0.5-1-0.6c-0.5-0.1-0.9-0.4-1.3-0.6c0,0.1-0.1,0.2-0.2,0.2c-0.2,0-0.4-0.2-0.4-0.4
			c-0.1-0.3-0.2-0.7-0.7-0.3c-0.1-0.3-0.2-0.6-0.6-0.7c-0.6-0.2-1.3,0-1.6-0.7c0,0-0.1,0-0.2,0c-0.6,0-1-0.1-0.8-0.8
			c-0.2,0.1-0.5,0.3-0.6,0.2c-0.3-0.3-0.7-0.5-0.7-1c-0.2,0.4-0.5,0.4-0.9,0.3c0-0.5-0.8-1.4-1.3-1.5c-0.5-0.1-1.1-0.1-1.3-0.7
			c0-0.1-0.2-0.3-0.2-0.3c-0.7,0.4-0.6-0.4-1-0.5c0,0.2,0.1,0.4-0.2,0.5c-0.1-0.1-0.2-0.2-0.2-0.4c0-0.6-0.3-0.8-0.9-0.7
			c-0.4,0-0.8-0.3-0.9-0.5c-0.2-0.6-0.5-0.3-0.8-0.3c-0.1-0.4-0.4-0.6-0.6-0.9c-0.3,0-0.4,0.3-0.7,0.2c0.1-0.6-0.6-0.5-0.9-0.8
			c-0.8-1-2.1-1.4-3.3-1.9c-0.6-0.2-1.4-0.1-1.7-0.9c-0.1,0.3,0,0.6-0.4,0.6c0-0.5,0-0.8-0.6-1.1c-0.2-0.1-0.6-0.2-0.8-0.3
			c-0.5-0.3-0.9-0.8-1.5-1c-0.4-0.2-1-0.1-1.3-0.6c-0.3-0.4-0.9-1-1.7-0.7c-0.3,0.1-0.5-0.1-0.5-0.4C74.9,88.4,74.9,88.3,74.7,88.3z
			 M36.9,29.8c-0.8,0.1-1.1-0.8-2-0.5c-0.7,0.3-1.1,0.8-1.7,1.1c0.3,0.4,0.6,0.7,1.1,0.6c0.1,0,0.3-0.2,0.4-0.1
			c0.6,0.4,1.4,0.2,2.1,0.3c1.2,0.2,2.5,0.1,3.7,0.2c1.5,0.1,3,0.1,4.4,0.5c0.8,0.2,1.7-0.1,1.9-0.7c0.2-0.7-0.1-1.2-0.8-1.4
			c-0.3-0.1,0-0.4-0.3-0.5c-0.8,0.6-1.6-0.3-2.4-0.1c-0.3,0.2,0.1,0.6-0.4,0.6c-0.3,0.1-0.3-0.3-0.4-0.3c-0.3-0.1-0.5-0.4-0.8-0.4
			c-0.3,0.1,0.1,0.5-0.3,0.6c-0.4-0.1-0.5-0.6-0.8-0.7c-0.3,0.2-0.2,0.5-0.5,0.6C40,29.3,40,28.9,39.5,29c0.1,0.4,0.1,0.7-0.5,0.9
			c0-0.3,0.3-0.8,0-0.8c-0.6,0-1.2-0.4-1.7,0c-0.1,0.2,0.2,0.2,0.3,0.3C37.2,29.4,37,29.6,36.9,29.8z M119.6,31.1
			c-0.2-0.4-0.5-0.5-0.9-0.5c-0.3,0-0.6,0.1-1,0c-0.5-0.2-1-0.3-1,0.4c-0.7,0.1-0.7-0.9-1.4-0.5c-0.4,0.2-1.1-0.6-1.1,0.4
			c-0.8-0.6-0.9-0.5-1.3,0c-0.6-0.2-0.7-0.2-1.1,0.4c-0.2,0.4-0.2,0.8,0.1,1.1c0.3,0.2,0.7,0.2,1,0.2c1.5,0,2.9-0.1,4.4,0
			c0.3,0,0.6-0.1,0.8,0c0.9,0.4,1.9,0.1,2.8,0.4c0.1,0,0.2,0,0.3-0.1c0.5-0.3,0.6-1.4,0.3-1.9c-0.2-0.3-1.5-0.5-1.8-0.3
			C119.7,30.8,119.7,30.9,119.6,31.1z M63.3,104.8c0.2,0.1,0.3,0.3,0.4,0.5c0.2,0.3,0.3,0.7,0.6,0.8c0.6,0.1,0.8,0.5,1.1,0.9
			c0.5,0.6,1.3,0.8,1.8,1.4c0.4,0.4,1.1,0.5,1.5,1.1c0,0.1,0.2,0.2,0.2,0.1c0.7-0.1,0.9,0.3,1.1,0.7c0.4,0.5,0.6,0.5,1.1,0
			c0.4-0.4,0.4-0.6,0.1-1.1c-0.2-0.3-0.3-0.6-0.4-1c-0.1-0.4-1.1-1.1-1.5-1.1c-0.1-0.3-0.3-0.6-0.5-0.8c-0.3-0.1-0.3,0.3-0.6,0.2
			c0.1-1-1-1-1.4-1.5c-0.3,0-0.2,0.3-0.4,0.3c-0.4-0.9-0.4-0.9-2-0.8c-0.2-0.1,0.2-0.7-0.3-0.4C63.8,104.4,63.4,104.4,63.3,104.8z
			 M80.7,114.3c-0.4-0.9-1.1-1.3-1.7-1c-0.3-0.5-0.7-0.9-1.5-0.9c0.4,0.3,0.4,0.3,0.2,0.7c-0.3-0.2-0.5-0.1-1.3-0.3
			c-0.4-0.1-0.6-0.1-0.7,0.2c-0.1,0.3,0,0.8,0.3,0.8c0.6,0.1,0.8,0.6,1.2,0.8c1.2,0.7,2.5,1.5,3.6,2.4c0.3,0.3,0.6,0.5,0.9,0.8
			c0.4,0.4,0.8,0.7,1.4,0.3c0.4-0.2,0.5-0.6,0.6-0.9c0.1-0.2,0.4-0.6,0-0.8c-0.4-0.2-0.7-0.6-1.2-0.2c-0.6-0.6-0.6-1.4-1.2-1.9
			C81.1,114.1,80.9,114.1,80.7,114.3z M56.4,125.9c0,0,0-0.1,0-0.1c-0.2-0.9-0.7-1.7-1.2-2.5c-0.2-0.4-0.7-0.5-1.2-0.7
			c-0.3-0.1-0.6-0.2-0.9,0c-0.2,0.2-0.4,0.5-0.2,0.7c0.6,0.7,0.4,1.6,0.9,2.4c0.6,1,0.9,2.1,1.2,3.3c0.1,0.4,0.3,0.8,0.7,1
			c0.5,0.2,0.8-0.2,1.1-0.6c0.3-0.3,0.7-0.7,0.4-1.1c-0.4-0.6,0-1.5-0.8-2C56.2,126.1,56.2,126,56.4,125.9z M94.7,105.5
			c-1.1,0-1.5-1-2.4-1.4c0,0.4-0.4,0.5-0.5,0.2c-0.2-0.4-0.6-0.4-0.9-0.7c-0.6-0.5-1.2-0.5-1.9,0c-0.5,0.3-0.5,0.6-0.2,1
			c0.3,0.4,0.9,0.5,1.1,0.8c1.1,1.1,2.7,1.4,3.7,2.4c0.3,0.2,0.7,0.4,1.1,0c0.5-0.5,0.6-1.4,0.2-2c-0.2,0-0.4,0.4-0.6,0
			C94.4,105.6,94.7,105.8,94.7,105.5z M47.1,112.5c-0.5,0.5-0.4,0.6,0.1,0.9C47.4,113.1,47.2,112.8,47.1,112.5z M75.3,88.4
			C75.3,88.4,75.3,88.5,75.3,88.4C75.3,88.5,75.3,88.4,75.3,88.4C75.3,88.4,75.3,88.4,75.3,88.4C75.3,88.4,75.3,88.4,75.3,88.4z
			 M31.7,80C31.7,79.9,31.7,79.9,31.7,80c-0.1,0-0.1,0-0.1,0C31.6,80,31.7,80,31.7,80C31.7,80,31.7,80,31.7,80z"/>
		<path id="XMLID_346_" class="st0" d="M80.7,34c-0.1,0-0.2,0-0.3,0c0.1-0.3,0.3-0.3,0.5-0.5c-0.3-0.1-0.5-0.4-0.7-0.7
			c0.5-0.4,0.4-0.6-0.2-0.8c0.9-0.2,0.1-0.8,0.3-1.2c0-0.1-0.2-0.3-0.2-0.5c-0.1-0.4-0.3-0.9,0.3-1.2c0.1,0,0.2-0.2,0.2-0.3
			c-0.2-0.3-0.5,0-0.7-0.1c0.2-0.3,0.5-0.3,0.7-0.5c0.4-0.3,0.4-0.8-0.1-1c-0.4-0.2-0.4-0.6-0.5-0.9c-0.2-0.6,0.1-1.3-0.4-1.9
			c0.3-0.4,0.6-0.7,0.2-1.1c-0.2-0.2,0-0.5,0-0.5c0.4-0.4,0.2-0.9,0.1-1.3c0-0.1-0.4-0.4,0.1-0.5c0.2-0.1,0.1-0.4,0-0.6
			c-0.3-0.4-0.1-0.9-0.2-1.3c-0.1-0.3,0.2-0.2,0.4-0.2c0,0,0,0,0,0c0,0,0,0,0,0c-0.5-0.5-0.1-1-0.1-1.5c0.3-0.1,0.3,0.2,0.4,0.2
			c0.4-0.3,0.1-0.5,0-0.7c-0.1-0.3-0.3-0.5-0.1-0.8c0.1-0.2,0.5-0.3,0.3-0.6c-0.1-0.2-0.3-0.5,0.3-0.4c0-0.6-0.2-1.4,0.8-1.7
			c-0.4-0.2-0.5-0.4-0.6-0.6c0.5-0.6,0.9-1.2,0.9-2c0-0.3,0-0.6,0.3-0.9c0.4-0.4,0.2-1,0.5-1.4c0.7-1,1.7-1.7,2.5-2.5
			c0.6-0.7,1.4-1.2,2-1.9C88.6,3,90,2.8,91.6,2.6c1.1-0.1,2.1,0,3.2,0.1c0.5,0,1.1,0.3,1.4,0.2c0.7-0.2,1,0.4,1.4,0.6
			c0.2,0.1,0.3,0.4,0.6,0c0.1-0.1,0.4,0,0.4,0.1c0,0.6,0.6,0.5,0.9,0.7c0.5,0.4,1,0.8,1.2,1.3c0.5,0.9,0.6,1.9,1.2,2.7
			c0.6,1,0.8,2.1,1.2,3.2c0.3,0.9,0.2,1.9,0.3,2.9c0.1,1.5,0.1,3,0.3,4.5c0.2,1,0.2,2,0.2,3c0.1,1.2-0.1,2.5,0.2,3.7
			c0.1,0.4-0.2,0.9-0.2,1.3c0.1,1.6-0.1,3.3,0.2,4.9c0.1,0.5-0.1,1.1-0.1,1.6c-0.1,1.2,0.1,2.4,0.1,3.6c-0.1,1.2,0.1,2.4,0,3.7
			c-0.1,1.1,0,2.3,0,3.4c0,0.9,0,1.7,0,2.6c0,1.7-0.2,3.4-0.1,5.1c0.2,2.3,0.1,4.7,0.2,7c0,2,0.2,4,0.4,6c0.1,0.9,0,1.9,0,2.8
			c-0.5,0.3-1.1-0.8-1.6,0c-0.3-0.2-0.5-0.9-1.1-0.5c-0.4-0.8-1.4-0.5-2-0.8c-0.6-0.3-1.3-0.8-2.1-0.7c-0.3,0-0.7-0.3-1.1-0.5
			c-0.3,0.2-0.6,0.5-0.9-0.1c0-0.1-0.2-0.1-0.3-0.1c-0.5-0.2-1.1-0.2-1.6-0.7c-0.2-0.2-0.5-0.1-0.7,0c-0.4,0.2-0.7,0.2-1-0.2
			c-0.1-0.2-0.6-0.2-0.9-0.3c-0.2-0.1-0.5,0-0.8-0.1c-0.4-0.2-0.2,0.3-0.4,0.5c-0.2-0.9-1.2-0.6-1.7-1c-0.2,0.1,0,0.3-0.1,0.4
			c0,0-0.1,0-0.1,0c-0.2-0.7-0.8-0.7-1.4-0.6c-0.2,0-0.3-0.2-0.5-0.3c-0.5-0.2-1.3,0-1.5,0.4c-0.5,0.1-0.6-1.2-1.3-0.3
			c0-0.2,0-0.5-0.5-0.3c-0.2,0.1-0.6,0.2-0.6,0.1c-0.3-0.7-1-0.4-1.5-0.5c-0.4-0.1-0.8-0.1-0.4-0.7c0.3-0.5,0-1.3-0.5-1.6
			c0.7-1.1,0.7-3.1,0-3.3c0.5-0.3,0.5-0.7,0.5-1.2c0.1-0.9-0.2-1.8,0-2.7c0-0.2,0.1-0.5-0.2-0.5c0.1-0.6,0.5-1.2,0-1.8
			c-0.1-0.1-0.2-0.3-0.1-0.4c0.4-0.6,0.3-1.2,0.3-1.9c0-0.5-0.4-0.9-0.1-1.4c-0.1,0-0.2,0-0.3-0.1c0.4-0.4,0.5-0.7-0.2-1
			c1.1-0.9,0-2.1,0.6-2.9c0.7-0.9,0.1-2,0.6-2.9c-0.2-0.1-0.3-0.1-0.6-0.2c1-0.4-0.6-0.9,0.1-1.4c0.1-0.1,0-0.2-0.1-0.2
			c-0.3-0.4-0.3-0.7-0.1-1.2c0.1,0.1,0.2,0.1,0.4,0.2C80.7,35.8,80.4,34.9,80.7,34c0,0,0.1,0,0.1,0C80.7,34,80.7,34,80.7,34
			C80.7,34,80.7,34,80.7,34z M90.7,30.5C90.7,30.5,90.7,30.5,90.7,30.5C90.7,30.5,90.6,30.5,90.7,30.5
			C90.7,30.5,90.7,30.5,90.7,30.5c-0.1,0.2-0.3,0.3-0.4,0.1c-0.2-0.4-0.6-0.2-0.7-0.1c-0.6,0.3-1.5,0.2-1.9,0.8
			c0,0.4,0.7,0.4,0.4,0.9c1.4,0.4,2.8,0.2,4.2,0.3c1.2,0,2.5-0.2,3.7,0.3c0.1,0,0.3,0,0.4,0c0.3-0.1,0.8-0.1,0.8-0.6
			c-0.1-0.5,0.2-1.2-0.5-1.6c-0.2,0-0.2,0.3-0.4,0.3c0-0.3,0-0.5-0.5-0.4c-0.2,0.1-0.5,0.3-0.7,0.1c-0.4-0.3-1-0.1-1.5-0.4
			c0.2,0.4,0,0.7-0.2,0.6C92.5,30.3,91.6,30.4,90.7,30.5z M95.7,43.2c0,0,0,0.4-0.4,0.3c-0.5-0.1-1,0-1.5-0.1c-0.4,0-0.8,0.5-1.1,0
			c0,0-0.1,0-0.1,0c-0.1,0.6-0.5,0.1-0.7,0.1c-0.6,0-1.2-0.2-1.8,0c-0.2,0-0.2,0.3-0.5,0.2c-0.6-0.1-1.2-0.1-1.8,0
			C87.4,43.8,87,44,87,44.4c0,0.4-0.3,0.5-0.7,0.7c0.3,0.2,0,0.7,0.4,0.6c0.5-0.1,1,0.2,1.5,0.2c2.7,0,5.4,0.2,8.1-0.2
			c0.5-0.1,0.8-0.4,0.8-0.9C97.1,44.1,96.9,43.4,95.7,43.2z"/>
		<path id="XMLID_342_" class="st0" d="M72.2,61.5c-0.3,0-0.5,0.4-0.9,0.3c-0.1-0.2,0.1-0.4-0.3-0.5c-0.7-0.1-1.3-0.1-1.8,0.2
			c-0.2,0.1-0.2,0.1-0.3-0.1c-0.5-0.3-0.8,0.1-1.1,0.5c0-0.6-0.3-0.8-0.8-0.5c-0.4,0.2-0.8-0.2-1.3-0.1c-0.3,0.1-0.6,0-0.7,0.5
			c-0.1-0.6-0.5-0.7-0.9-0.5c-0.4,0.2-0.9,0-1.3,0.3c-0.2-0.1-0.1-0.2-0.1-0.4c-0.4,0-1-0.2-1,0.4c-0.3,0-0.3-0.3-0.5-0.3
			c-0.2,0-0.3,0.3-0.4,0.4c-0.8-0.6-1.9-0.4-2,0.4c-0.3-0.3-0.4-0.6-0.9-0.6c-0.3,0-0.2-0.4-0.1-0.6c0.1-1.2-0.1-2.4,0-3.6
			c0-0.4-0.1-0.6-0.5-0.9c0.4-0.2,0.5-0.5,0.4-0.9c-0.2-1.1-0.1-2.2-0.1-3.3c0.1-1.1,0.2-2.2-0.2-3.3c-0.1-0.2,0.1-0.3,0.1-0.6
			c0.1-0.6-0.2-1.1-0.5-1.6c-0.1-0.1-0.2-0.3-0.1-0.4c0.4-0.4,0.2-1,0.4-1.5c0.1-0.4-0.1-0.9-0.3-1.3c0.6-0.4,0.8-1.5,0.3-1.9
			c-0.4-0.3-0.3-0.6-0.2-0.9c0.1-0.2,0.1-0.4-0.3-0.4c0.5-0.1,0.6-0.4,0.6-0.6l0,0c-0.1-0.4-0.2-0.8-0.3-1.2
			c-0.1-0.2-0.2-0.3,0.1-0.6c0.3-0.2,0.2-0.6-0.1-0.9c0.7-0.6,0.4-1.2,0.2-1.8c-0.2-0.5-0.2-0.9-0.1-1.4c0.2-0.8,0.4-1.7-0.4-2.4
			c-0.4-0.3-0.2-0.7-0.5-1.1c0.4-0.1,0.3,0.2,0.4,0.3c0.7-0.5-0.3-1.4,0.5-1.8c0.1-1.3,0-2.5-0.3-3.7c0.2,0,0.2,0.2,0.4,0.1
			c-0.2-0.5-0.1-1.2-0.1-1.7c0.2-1.7-0.4-3.4-0.1-5.1c0.1-0.5-0.1-0.9-0.1-1.3c0-0.8,0.5-1.5,0.1-2.2c-0.4-0.7-0.1-1.4,0-2
			c0.2-0.9-0.5-1.6-0.3-2.5c0.1-0.3-0.4-0.3-0.3-0.8C57.3,8,58.7,6.7,60,5.5C61.7,4,63.7,3,66,2.6c1.2-0.2,2.5-0.3,3.7-0.2
			c0.7,0.1,1.6-0.1,2.2,0.3c0.5,0.3,1,0.7,1.4,1.1c0.6,0.5,0.9,1.2,1.4,1.7c0.5,0.6,0.4,1.2,0.8,1.7c0.4,0.6,0.2,1.3,0.6,1.9
			c0.2,0.3,0.1,0.9,0.1,1.3c0,0.5,0.1,0.9,0.5,1.2c0,0.2-0.3,0-0.3,0.2c0.3,0.7,0.4,1.4,0.5,2.1c0.1,0.8,0.1,1.6,0.1,2.4
			c0,0.8,0.3,1.6,0.3,2.4c0,0.5-0.3,0.9-0.2,1.4c0.1,1,0,2.1,0.3,3.1c0.1,0.3,0,0.4,0,0.7c-0.2,0.6-0.5,1.2,0.1,1.8
			c0.1,0.1,0,0.3,0,0.4c-0.2,1.6,0,3.2-0.1,4.8c0,0.8-0.2,1.6-0.1,2.4c0.2,2.3-0.1,4.5,0.1,6.8c0.2,1.8,0,3.6-0.2,5.4
			c-0.1,1.3,0.2,2.5,0,3.7c-0.2,1.6-0.1,3.3,0,4.9c0.1,1.6-0.1,3.3-0.1,4.9c0,0.9,0.1,1.9,0,2.8c0,0.2,0.1,0.5-0.2,0.7
			c-0.4-0.2,0-0.5-0.2-0.8c-0.4-0.2-0.9-0.1-1.4-0.3c-0.4-0.1-0.8-0.1-0.9,0.5c0-0.4-0.2-0.6-0.5-0.7c-1.1-0.3-1.2-0.3-1.7,0.2
			C72.2,61.7,72.2,61.5,72.2,61.5C72.2,61.5,72.3,61.5,72.2,61.5C72.2,61.4,72.2,61.4,72.2,61.5z M68.2,44.1
			c-1.6-0.6-3.2-0.7-4.8-0.4c0,0.3,0.4,0.2,0.4,0.5c-0.5,0.4-0.7-0.4-1.2-0.4c-0.3,0.5-1.1,0.7-1.3,1.3c0.4,0.6,1,0.6,1.6,0.6
			c0.2,0,0.3-0.4,0.5-0.2c0.4,0.4,1,0.2,1.5,0.3c1.6,0.4,3.4,0.1,5,0.3c0.4,0.1,0.8,0,1.2,0c0.4-0.1,0.8-1.1,0.6-1.6
			c-0.1-0.5-0.4-1-1.1-0.9c-0.6,0.1-1.2,0.1-1.6,0C68.5,43.5,68.4,43.7,68.2,44.1z M68.4,29.7c0.1-0.2,0.3-0.3,0-0.4
			c-0.3-0.1-0.8-0.3-1.1,0c-0.3,0.3-0.7,0.3-1,0.6c-0.2,0.2-0.5,0-0.5-0.1c0.1-0.4-0.3-0.3-0.4-0.6c-0.2,0.3,0,0.6-0.3,0.6
			c-0.2-0.3-0.6-0.5-0.7-0.8c-0.4,0.1-0.6,0.7-1,0.1c-0.1-0.1-0.5-0.1-0.7,0.1c0,0.2,0.3,0.1,0.3,0.3c-0.2,0-0.5,0-0.6,0.2
			c-0.2,0.3-0.7,0.4-0.5,0.8c0.1,0.4,0.4,0.6,0.9,0.6c0.9,0,1.8-0.1,2.8,0.2c0.6,0.1,1.3,0.3,2,0.1c0.2-0.1,0.3,0,0.5,0.1
			c0.5,0.3,1.1,0.1,1.6,0.4c0.1,0.1,0.3-0.1,0.4-0.2c0.6-0.7,0.6-1.3,0-2.3C69.5,29.5,69,29.6,68.4,29.7z"/>
		<path id="XMLID_341_" class="st0" d="M29.7,67.5c0.3,0.1,0.2,0.3,0.3,0.5C29.8,67.9,29.7,67.8,29.7,67.5z"/>
		<path id="XMLID_340_" class="st0" d="M30.5,72.9c0.4,0,0.3,0.2,0.3,0.3C30.5,73.2,30.5,73.1,30.5,72.9z"/>
		<path id="XMLID_339_" class="st0" d="M32.3,88.4c0,0.1,0,0.2-0.2,0.2c-0.1,0-0.1-0.1-0.1-0.1C32,88.3,32.1,88.4,32.3,88.4
			C32.2,88.4,32.3,88.4,32.3,88.4z"/>
		<path id="XMLID_338_" class="st0" d="M48,101.9c-0.2-0.1-0.2-0.2-0.2-0.4c0.1,0,0.1-0.1,0.1-0.1C48.1,101.6,48.3,101.8,48,101.9z"
			/>
		<path id="XMLID_337_" class="st0" d="M57.4,39.7c-0.1,0.1-0.2,0.1-0.2,0c0,0,0-0.1,0-0.1C57.3,39.5,57.4,39.6,57.4,39.7L57.4,39.7
			z"/>
		<path id="XMLID_336_" class="st0" d="M29.5,65.1c-0.1,0-0.1,0-0.4-0.1c0.2,0,0.3,0,0.4,0l0,0C29.5,65,29.5,65,29.5,65.1L29.5,65.1
			z"/>
		<path id="XMLID_335_" class="st0" d="M54.9,113C55,113,55,112.9,54.9,113C55,112.9,55,112.9,54.9,113C55,113,55,113,54.9,113
			L54.9,113z"/>
		<path id="XMLID_334_" class="st0" d="M130.8,118.8C130.8,118.8,130.8,118.7,130.8,118.8C130.8,118.7,130.8,118.7,130.8,118.8
			C130.8,118.7,130.8,118.8,130.8,118.8L130.8,118.8z"/>
		<path id="XMLID_333_" class="st0" d="M118.4,73.6C118.4,73.6,118.5,73.6,118.4,73.6C118.5,73.6,118.5,73.7,118.4,73.6
			C118.4,73.6,118.4,73.6,118.4,73.6L118.4,73.6z"/>
		<path id="XMLID_332_" class="st0" d="M74.7,88.3c-0.1,0.1-0.3,0.1-0.4,0.1c0,0-0.1-0.1-0.1-0.1c0.1-0.1,0.3-0.1,0.5-0.1
			C74.6,88.2,74.6,88.3,74.7,88.3z"/>
		<path id="XMLID_331_" class="st0" d="M84.6,93.6c0,0-0.1,0.1-0.1,0.1c-0.1,0-0.2-0.1-0.2-0.2c0,0,0.1-0.1,0.2-0.1
			C84.5,93.4,84.5,93.5,84.6,93.6z"/>
		<path id="XMLID_330_" class="st0" d="M102.5,104.4c-0.1,0-0.1,0-0.1-0.1c0-0.1,0-0.2,0.1-0.2c0.1,0,0.1,0,0.1,0.1
			C102.7,104.4,102.6,104.4,102.5,104.4z"/>
		<path id="XMLID_329_" class="st0" d="M52,75.8c0.1,0.1,0.2,0.2,0.1,0.3c-0.2,0-0.2-0.1-0.2-0.2C51.9,75.9,52,75.8,52,75.8z"/>
		<path id="XMLID_328_" class="st0" d="M74.3,88.4c-0.1,0.1-0.1,0.1-0.2,0c0,0,0-0.1,0.1-0.1C74.2,88.3,74.2,88.4,74.3,88.4z"/>
		<path id="XMLID_327_" class="st0" d="M72.7,87.5C72.7,87.5,72.7,87.5,72.7,87.5C72.7,87.5,72.6,87.5,72.7,87.5
			C72.6,87.5,72.7,87.4,72.7,87.5C72.7,87.4,72.7,87.5,72.7,87.5z"/>
		<path id="XMLID_326_" class="st0" d="M52.3,88.9c-0.1,0.2-0.2,0.1-0.3,0c0,0,0-0.1,0-0.1C52.1,88.8,52.2,88.8,52.3,88.9z"/>
		<path id="XMLID_325_" class="st0" d="M62.2,94.8c-0.1-0.1-0.1-0.2,0-0.3c0.1-0.1,0.1,0,0.2,0C62.3,94.7,62.2,94.7,62.2,94.8z"/>
		<path id="XMLID_324_" class="st0" d="M52.8,89.1c0.1,0,0.2,0.1,0.1,0.2c-0.1,0.1-0.2,0-0.2-0.1C52.7,89.2,52.8,89.2,52.8,89.1z"/>
		<path id="XMLID_323_" class="st0" d="M67.5,98.6C67.5,98.5,67.5,98.5,67.5,98.6C67.5,98.5,67.5,98.5,67.5,98.6
			C67.5,98.5,67.5,98.5,67.5,98.6C67.6,98.5,67.5,98.5,67.5,98.6z"/>
		<path id="XMLID_322_" class="st0" d="M40.3,42.8c0,0.1,0.1,0.3-0.1,0.4C40.1,43,40.1,42.8,40.3,42.8
			C40.3,42.7,40.3,42.8,40.3,42.8z"/>
		<path id="XMLID_321_" class="st0" d="M76.4,95.7c0.1,0.1,0.1,0.1,0,0.2C76.4,95.9,76.4,95.8,76.4,95.7
			C76.4,95.7,76.4,95.7,76.4,95.7z"/>
		<path id="XMLID_320_" class="st0" d="M51.1,114.5C51,114.5,51,114.5,51.1,114.5C51,114.5,51,114.5,51.1,114.5
			C51,114.5,51,114.5,51.1,114.5L51.1,114.5z"/>
		<path id="XMLID_319_" class="st0" d="M41.3,105.5c0.1,0,0.2,0.1,0.1,0.2c0,0.1-0.1,0.1-0.2,0C41.2,105.6,41.2,105.5,41.3,105.5
			L41.3,105.5z"/>
		<path id="XMLID_318_" class="st0" d="M43.9,106.8c0,0,0.1,0,0.1,0c0,0,0,0,0,0.1C43.9,106.8,43.9,106.8,43.9,106.8L43.9,106.8z"/>
		<path id="XMLID_317_" class="st0" d="M43.9,106.8c-0.1,0-0.1,0-0.1-0.1c0,0,0.1,0,0.1,0C43.9,106.7,43.9,106.8,43.9,106.8
			L43.9,106.8z"/>
	</g>
</g>
</svg>
