<?xml version="1.0" encoding="utf-8"?>
<!-- Generator: Adobe Illustrator 19.2.1, SVG Export Plug-In . SVG Version: 6.00 Build 0)  -->
<svg version="1.1" id="Layer_1" xmlns="http://www.w3.org/2000/svg" xmlns:xlink="http://www.w3.org/1999/xlink" x="0px" y="0px"
	 viewBox="0 0 76 76" style="enable-background:new 0 0 76 76;" xml:space="preserve">
<style type="text/css">
	.st0{fill:#FFFFFF;}
</style>
<g>
	<path class="st0" d="M65,1H11C5.5,1,1,5.5,1,11v54c0,5.5,4.5,10,10,10h26.7V48.6h-6.9c-0.9,0-1.6-0.7-1.6-1.6v-8.5
		c0-0.9,0.7-1.6,1.6-1.6h6.9v-8.2c0-9.6,5.8-14.8,14.4-14.8h7c0.9,0,1.6,0.7,1.6,1.6v7.2c0,0.9-0.7,1.6-1.6,1.6h-4.3
		c-4.6,0-5.5,2.2-5.5,5.4v7.1h10.2c1,0,1.7,0.8,1.6,1.8l-1,8.5c-0.1,0.8-0.8,1.4-1.6,1.4h-9.1v26.4H65c5.5,0,10-4.5,10-10V11
		C75,5.5,70.5,1,65,1z"/>
</g>
</svg>
