<?xml version="1.0" encoding="utf-8"?>
<!-- Generator: Adobe Illustrator 19.0.0, SVG Export Plug-In . SVG Version: 6.00 Build 0)  -->
<svg version="1.1" id="Layer_1" xmlns="http://www.w3.org/2000/svg" xmlns:xlink="http://www.w3.org/1999/xlink" x="0px" y="0px"
	 viewBox="-492.6 511.4 37.2 58.2" style="enable-background:new -492.6 511.4 37.2 58.2;" xml:space="preserve">
<g id="Layer_1_1_">
	<path class="st0" d="M-463.8,513.5c-6.5-3-13.2-2.6-19,0.4c-5.9,3-7.9,7.1-8.9,10.1c-2.5,7.9,0.5,13.5,3.7,20.7
		c3.2,7.2,11.4,24.6,13.7,24.9c2.3,0.3,4.5-5,7.8-11.5c3.4-6.5,9.9-19.7,10.9-26.9C-454.6,523.9-457.4,516.5-463.8,513.5
		L-463.8,513.5z M-456.9,531.5c-0.5-0.3-6.7-7.8-7.1-7.9c-0.4-0.1-1,0.1-0.5,0.5c0.5,0.4,7.3,8.2,7.3,8.6c0,0.4-0.3,2.3-0.6,2
		c-0.3-0.3-6-8.2-6.5-8.2c-0.5-0.1-0.7,0.7-0.4,1c0.4,0.4,6.3,7.9,6.3,8.3c0,0.4,0.1,1.2-0.3,1.1c-0.3-0.1-5.6-7.5-6.2-7.4
		c-0.6,0.2-0.5,0.5-0.4,0.9c0.2,0.4,6,7.5,6,7.5s-0.5,1.8-0.9,1.6c-0.4-0.1-4.8-6.5-5.4-6.5c-0.5,0-1.1,0.4-0.6,1
		c0.5,0.5,5.5,6.6,5.4,6.9c-0.1,0.4-1.1,3.1-1.4,2.7c-0.2-0.4-4.8-7.9-5.4-7.9c-0.5-0.1-0.6,0.1-0.4,0.7c0.3,0.6,5.4,7.3,5.4,7.9
		c0,0.6-0.2,1.6-0.6,1.3c-0.5-0.4-5.2-7.5-5.7-7.5c-0.5-0.1-0.9,0.1-0.5,0.5c0.4,0.5,5.8,7.4,5.6,7.7c-0.2,0.4-0.3,2-0.5,1.5
		c-0.3-0.5-5-7.4-5.5-7.4s-1.1,0.4-0.6,0.8c0.5,0.5,5.6,7.1,5.5,7.4c-0.2,0.3-0.5,2-0.9,1.6c-0.4-0.4-4.3-6.1-4.8-6.3
		c-0.5-0.1-1,0.3-0.6,0.9c0.4,0.6,5,5.9,4.8,6.3c-0.2,0.4,0.1,2-0.7,1.4c-0.9-0.7-4.1-5.5-4.8-5.5c-0.7,0-1,0.5-0.6,1
		s4.6,5.7,4.6,5.7s-0.5,1.4-0.6,1.2c-0.2-0.2-3.8-5.6-4.5-5.6c-0.6-0.1-0.9,0.2-0.7,0.5c0.2,0.3,4.5,5.4,4.5,5.9s-0.1,2.5-0.7,1.8
		s-3.7-4.5-4.1-4.4c-0.4,0.1-0.8,0.1-0.5,0.7c0.4,0.6,3.9,4.1,3.7,4.5c-0.1,0.5-0.5,1.2-0.7,1.2c-0.3-0.1-2.9-3.8-3.4-3.7
		c-0.5,0.1-0.5,0.3-0.5,0.7c0.1,0.5,3.3,3.5,3.2,3.9c-0.1,0.4-0.3,1.1-0.7,0.6s-2.5-3.1-2.7-3.1c-0.3,0-0.9,0.4-0.5,0.7
		c0.4,0.4,3.2,3.5,2.9,3.7c-0.2,0.4-0.8,1.8-1.4,1.3c-0.5-0.5-8.4-14.9-12-21.8c-3.6-6.9-5.8-11.7-4.4-17c1.4-5.3,4.4-7.7,5.8-8.5
		c3.1-2,7-3.9,12.3-3.7c5.3,0.2,8.3,1.7,9,2.2c0.7,0.5,0.5,0.9,0.7,1.1c0.2,0.2,4.7,5.4,5.1,5.6c0.4,0.3,0.7,2.5,0.2,2
		s-6.8-8.2-7.6-8.3c-0.9-0.1-0.9,0.7-0.5,1c0.4,0.2,8.4,8.3,8.8,9c0.5,0.7,0.6,3.5,0.1,2.6c-0.5-0.8-6.5-8.4-7.3-8.8
		c-0.8-0.5-1.1,0.7-0.6,1s7.7,8.7,8.1,9.4C-456.7,530.4-456.5,531.7-456.9,531.5L-456.9,531.5z M-485.9,520.3
		c-1.3,0.4-3.7,4.1-4.1,7.2s0.8,6.3,1.4,6.6c0.3,0.1,0.8,0.2,0.9-0.5c0.1-0.7-1.2-4.3-1.1-6.3s2.6-5.3,3.4-5.8
		C-484.8,521-484.6,520-485.9,520.3L-485.9,520.3z M-477.9,521.4c-2.5,2-2.4,5.5-0.8,7.3c1.5,1.7,5.5,2.5,7.1,1
		c1.6-1.4,2.6-4.8,1-7.2C-472.2,520.1-475.6,519.7-477.9,521.4L-477.9,521.4z M-473.9,528.7c-1.7,0.5-2.5-0.8-2.9-2.6
		c-0.3-1.8,0.7-2,1.7-2.5c1.5-0.7,3.4,0.2,3.7,1.5C-471,526.6-472.2,528.3-473.9,528.7L-473.9,528.7z"/>
	<g id="Layer_2">
		<path class="st0" d="M-457.7,526.5c0.4-0.6,0.5-1.4,0.2-2.3c-0.6-2.3-1.8-3.7-3.8-5c-0.1-0.3-0.2-0.7-0.5-1
			c-1.6-2.3-5.1-3.6-7.7-4.5c-3.7-1.2-7.9-1-11.3,0.7c-0.7,0.4-1.4,0.8-1.9,1.3c-0.8-0.1-1.7,0.2-2.5,0.9c-5.5,4.9-5.8,13-4.1,19.6
			c1,3.8,4.2,7.6,6.2,11c2.5,4.2,5.3,8.2,6,13.1c0.4,2.8,4.7,3.1,5.9,0.8c2-3.7,3.7-7.6,5.1-11.6c0.8-0.1,1.6-0.6,2.1-1.5
			c1.2-2.3,2.2-4.6,3.1-7.1c0.1-0.4,0.2-0.8,0.2-1.1c0.5-1.1,0.9-2.1,1.4-3.2c0.4-0.9,0.6-1.8,0.8-2.8c0.5-0.4,0.8-0.9,1-1.8
			C-457.1,530-457.2,528.3-457.7,526.5z M-469.9,527.7c0,0.1,0,0.2,0,0.3c-0.9,0.7-1.7,1.3-2.3,2.2c-0.4,0-0.7,0-1.1,0.1
			c-0.6,0-1.2,0-1.8,0.1c-0.2,0-0.5,0-0.7,0c-0.4-0.4-0.9-0.6-1.4-0.6c-0.2-0.1-0.4-0.2-0.7-0.3c-0.5-1.7-1-5.4,0-6.4
			c0.8-0.9,5.1-0.2,4.7-2.1c0.4,1.6,1.6,2.3,2.9,2.3c0.2,0.5,0.5,1,0.7,1.5C-469.9,525.7-470,526.4-469.9,527.7z"/>
	</g>
	<path d="M-463.9,514.3c-6.1-2.8-12.5-2.5-18,0.3c-5.6,2.8-7.5,6.7-8.5,9.6c-2.4,7.5,0.4,12.9,3.5,19.7c3.1,6.8,10.8,23.4,13,23.6
		s4.2-4.7,7.4-11c3.3-6.1,9.5-18.6,10.4-25.5C-455.1,524.2-457.8,517.2-463.9,514.3L-463.9,514.3z M-457.4,531.4
		c-0.4-0.3-6.4-7.4-6.7-7.5c-0.3-0.1-0.9,0.1-0.5,0.4c0.4,0.3,6.9,7.8,6.9,8.2s-0.3,2.2-0.6,1.9c-0.3-0.3-5.7-7.8-6.2-7.8
		c-0.5-0.1-0.7,0.7-0.3,0.9c0.3,0.3,5.9,7.5,5.9,7.9c0,0.3,0.1,1.1-0.3,1c-0.3-0.1-5.3-7.2-5.9-7c-0.6,0.2-0.5,0.5-0.3,0.9
		c0.2,0.3,5.7,7.1,5.7,7.1s-0.5,1.7-0.9,1.6c-0.3-0.1-4.6-6.2-5.1-6.2s-1,0.3-0.6,0.9c0.4,0.5,5.2,6.3,5.1,6.6s-1,2.9-1.3,2.6
		c-0.2-0.3-4.6-7.5-5.1-7.5c-0.5-0.1-0.6,0.1-0.3,0.7c0.3,0.6,5.1,6.9,5.1,7.5c0,0.6-0.2,1.6-0.6,1.2c-0.4-0.3-4.9-7.1-5.4-7.2
		c-0.5-0.1-0.9,0.1-0.5,0.5c0.3,0.5,5.5,7,5.3,7.3c-0.2,0.3-0.3,1.9-0.5,1.5c-0.3-0.4-4.7-7-5.2-7s-1,0.3-0.6,0.8
		c0.5,0.4,5.3,6.7,5.2,7c-0.2,0.3-0.5,1.9-0.9,1.6c-0.3-0.3-4.1-5.8-4.6-6c-0.5-0.1-0.9,0.3-0.6,0.9c0.3,0.6,4.7,5.6,4.6,6
		c-0.2,0.3,0.1,1.9-0.7,1.3c-0.9-0.7-3.9-5.2-4.6-5.2c-0.7,0-0.9,0.5-0.6,0.9c0.3,0.5,4.4,5.4,4.4,5.4s-0.4,1.3-0.6,1.1
		c-0.2-0.2-3.6-5.3-4.2-5.3c-0.6-0.1-0.9,0.2-0.7,0.5c0.2,0.3,4.3,5.1,4.2,5.6c-0.1,0.5-0.1,2.4-0.7,1.7s-3.5-4.2-3.9-4.1
		c-0.3,0.1-0.8,0.1-0.4,0.7c0.3,0.6,3.7,3.9,3.5,4.3c-0.1,0.4-0.5,1.1-0.7,1.1c-0.3-0.1-2.8-3.6-3.2-3.5c-0.5,0.1-0.5,0.3-0.4,0.7
		c0.1,0.5,3.1,3.4,3,3.7c-0.1,0.3-0.3,1-0.7,0.6c-0.3-0.4-2.3-2.9-2.6-2.9c-0.3,0-0.9,0.3-0.5,0.7s3,3.3,2.8,3.5
		c-0.2,0.3-0.8,1.7-1.3,1.2s-7.9-14.2-11.3-20.7s-5.6-11.1-4.2-16.1s4.1-7.3,5.5-8.1c2.9-1.9,6.6-3.7,11.6-3.5s7.8,1.6,8.5,2.1
		c0.7,0.4,0.5,0.9,0.7,1c0.2,0.2,4.5,5.1,4.8,5.3c0.3,0.3,0.7,2.3,0.2,1.9c-0.5-0.4-6.5-7.8-7.2-7.9c-0.9-0.1-0.9,0.7-0.5,0.9
		c0.4,0.2,8,7.9,8.4,8.6s0.6,3.3,0.1,2.5s-6.1-7.9-6.9-8.4c-0.8-0.4-1,0.7-0.6,0.9c0.4,0.3,7.3,8.3,7.7,8.9
		C-457.2,530.4-457,531.6-457.4,531.4L-457.4,531.4z M-484.9,520.8c-1.2,0.3-3.5,3.9-3.9,6.8c-0.4,2.9,0.8,6,1.3,6.3
		c0.3,0.1,0.8,0.2,0.9-0.5c0.1-0.7-1.1-4.1-1-6c0.1-1.9,2.5-5,3.2-5.5C-483.9,521.5-483.7,520.5-484.9,520.8L-484.9,520.8z
		 M-477.3,521.8c-2.4,1.9-2.2,5.3-0.8,6.9c1.5,1.6,5.2,2.3,6.7,0.9c1.6-1.3,2.5-4.6,0.9-6.8C-471.9,520.6-475.1,520.2-477.3,521.8
		L-477.3,521.8z M-473.5,528.8c-1.6,0.5-2.4-0.8-2.8-2.5c-0.3-1.7,0.7-1.9,1.6-2.3c1.4-0.7,3.2,0.2,3.5,1.5
		C-470.8,526.7-471.9,528.4-473.5,528.8L-473.5,528.8z"/>
</g>
<g id="Layer_3">
	<path class="st0" d="M-457.1,531c0.2-2.8,0-5.6-1.1-8.3c0-0.1,0-0.2-0.1-0.3c0-0.1-0.1-0.3-0.2-0.3l0,0c-0.1-0.2-0.2-0.3-0.4-0.4
		c-0.3-0.7-1-1.4-1.5-1.9c-1.1-1.3-2.2-2.9-3.8-3.6h-0.1c-0.5-0.3-0.9-0.7-1.4-0.9c-0.8-0.5-1.5,0.5-1.1,1.1
		c-1.7,0.5-2.8,2.5-1.2,3.9c1.2,1,1.7,2.4,2.4,3.7c-0.2,0.7-0.3,1.5-0.3,2.2c0,0.2,0,1,0,1.6c-0.4-0.7-1-1.2-2-1.2
		c-3.1,0-3.1,4.8,0,4.8c0.1,0,0.2,0,0.3,0c-0.1,0.1-0.2,0.2-0.2,0.3c-0.7,1-1.4,2.1-2,3.1c-1,0.2-1.9,0.9-1.9,2.3c0,0.5,0,1,0,1.6
		l0,0c0,0.1,0,0.2-0.1,0.3c-0.1,0.5,0,1,0.1,1.4c-0.2,0.8-0.5,1.7-0.8,2.5c-0.1,0.4-0.2,0.8-0.1,1.2c0,0.1,0,0.1,0,0.2
		c-0.4,1.3-0.8,2.6-1,3.9c-0.4,0.9-0.7,1.7-1.1,2.6c-0.1,0.2,0,0.4,0.2,0.5c-0.1,0.7-0.2,1.3-0.3,2c-0.2,0-0.4,0.1-0.4,0.4
		c0,0.7,0,1.4,0,2.2c-0.1,0.2-0.1,0.5-0.1,0.7c0-0.1-0.1-0.2-0.1-0.4c-0.1-0.5-0.8-0.3-0.8,0.1c-0.1,1.2,0,2.3,0.4,3.4
		c0.1,0.4,0.8,0.4,0.8-0.1c0-0.2,0-0.5,0-0.7c0.1,0.1,0.3,0,0.4-0.1c0,0.2-0.1,0.3-0.1,0.5c-0.1,0.4,0.4,0.6,0.7,0.4
		c0,0.1,0,0.3,0,0.4c0,0.1,0,0.2,0.1,0.2c0,0.1-0.1,0.2-0.1,0.3l0,0c0,0.1-0.1,0.2-0.1,0.3c-0.1,0.4,0.4,0.7,0.7,0.4
		c1.2-1.2,2.1-2.8,3-4.3c0.2-0.2,0.4-0.3,0.5-0.6c0.2-0.3,0.3-0.5,0.5-0.8c1.1-1.8,2.5-3.3,3.4-5.2c0.8-1.8,1.7-3.5,2.7-5.3
		c0.1-0.1,0.2-0.1,0.2-0.2c0.3-0.4,0.5-0.8,0.6-1.3c0.5-0.8,1.2-1.6,1.3-2.6l0,0c0.2-0.4,0.5-0.9,0.7-1.3c0.1-0.1,0.1-0.1,0.2-0.2
		c1.4-2.6,2.5-5.4,3.4-8.2C-457.1,531.3-457.1,531.2-457.1,531C-457.2,531-457.1,531-457.1,531z"/>
</g>
</svg>
