<?xml version="1.0" encoding="utf-8"?>
<!-- Generator: Adobe Illustrator 20.0.0, SVG Export Plug-In . SVG Version: 6.00 Build 0)  -->
<svg version="1.1" xmlns="http://www.w3.org/2000/svg" xmlns:xlink="http://www.w3.org/1999/xlink" x="0px" y="0px"
	 viewBox="0 0 60 60"  xml:space="preserve">
<g id="Layer_1">
	<path class="st0" d="M43.2,4.5c-6.5-3-13.2-2.6-19,0.4c-5.9,3-7.9,7.1-8.9,10.1c-2.5,7.9,0.5,13.5,3.7,20.7s11.4,24.6,13.7,24.9
		s4.5-5,7.8-11.5c3.4-6.5,9.9-19.7,10.9-26.9C52.4,14.9,49.6,7.5,43.2,4.5L43.2,4.5z M50.1,22.5c-0.5-0.3-6.7-7.8-7.1-7.9
		c-0.4-0.1-1,0.1-0.5,0.5c0.5,0.4,7.3,8.2,7.3,8.6s-0.3,2.3-0.6,2c-0.3-0.3-6-8.2-6.5-8.2c-0.5-0.1-0.7,0.7-0.4,1
		c0.4,0.4,6.3,7.9,6.3,8.3s0.1,1.2-0.3,1.1c-0.3-0.1-5.6-7.5-6.2-7.4c-0.6,0.2-0.5,0.5-0.4,0.9c0.2,0.4,6,7.5,6,7.5
		s-0.5,1.8-0.9,1.6c-0.4-0.1-4.8-6.5-5.4-6.5c-0.5,0-1.1,0.4-0.6,1c0.5,0.5,5.5,6.6,5.4,6.9c-0.1,0.4-1.1,3.1-1.4,2.7
		c-0.2-0.4-4.8-7.9-5.4-7.9c-0.5-0.1-0.6,0.1-0.4,0.7c0.3,0.6,5.4,7.3,5.4,7.9c0,0.6-0.2,1.6-0.6,1.3c-0.5-0.4-5.2-7.5-5.7-7.5
		c-0.5-0.1-0.9,0.1-0.5,0.5c0.4,0.5,5.8,7.4,5.6,7.7c-0.2,0.4-0.3,2-0.5,1.5c-0.3-0.5-5-7.4-5.5-7.4c-0.5,0-1.1,0.4-0.6,0.8
		c0.5,0.5,5.6,7.1,5.5,7.4c-0.2,0.3-0.5,2-0.9,1.6c-0.4-0.4-4.3-6.1-4.8-6.3c-0.5-0.1-1,0.3-0.6,0.9c0.4,0.6,5,5.9,4.8,6.3
		s0.1,2-0.7,1.4c-0.9-0.7-4.1-5.5-4.8-5.5s-1,0.5-0.6,1c0.4,0.5,4.6,5.7,4.6,5.7s-0.5,1.4-0.6,1.2c-0.2-0.2-3.8-5.6-4.5-5.6
		c-0.6-0.1-0.9,0.2-0.7,0.5s4.5,5.4,4.5,5.9s-0.1,2.5-0.7,1.8c-0.6-0.7-3.7-4.5-4.1-4.4c-0.4,0.1-0.8,0.1-0.5,0.7
		c0.4,0.6,3.9,4.1,3.7,4.5c-0.1,0.5-0.5,1.2-0.7,1.2c-0.3-0.1-2.9-3.8-3.4-3.7c-0.5,0.1-0.5,0.3-0.5,0.7c0.1,0.5,3.3,3.5,3.2,3.9
		c-0.1,0.4-0.3,1.1-0.7,0.6c-0.4-0.5-2.5-3.1-2.7-3.1c-0.3,0-0.9,0.4-0.5,0.7c0.4,0.4,3.2,3.5,2.9,3.7c-0.2,0.4-0.8,1.8-1.4,1.3
		c-0.5-0.5-8.4-14.9-12-21.8s-5.8-11.7-4.4-17s4.4-7.7,5.8-8.5c3.1-2,7-3.9,12.3-3.7c5.3,0.2,8.3,1.7,9,2.2c0.7,0.5,0.5,0.9,0.7,1.1
		c0.2,0.2,4.7,5.4,5.1,5.6c0.4,0.3,0.7,2.5,0.2,2c-0.5-0.5-6.8-8.2-7.6-8.3c-0.9-0.1-0.9,0.7-0.5,1c0.4,0.2,8.4,8.3,8.8,9
		c0.5,0.7,0.6,3.5,0.1,2.6c-0.5-0.8-6.5-8.4-7.3-8.8c-0.8-0.5-1.1,0.7-0.6,1c0.5,0.3,7.7,8.7,8.1,9.4C50.3,21.4,50.5,22.7,50.1,22.5
		L50.1,22.5z M21.1,11.3c-1.3,0.4-3.7,4.1-4.1,7.2s0.8,6.3,1.4,6.6c0.3,0.1,0.8,0.2,0.9-0.5c0.1-0.7-1.2-4.3-1.1-6.3
		c0.1-2,2.6-5.3,3.4-5.8C22.2,12,22.4,11,21.1,11.3L21.1,11.3z M29.1,12.4c-2.5,2-2.4,5.5-0.8,7.3c1.5,1.7,5.5,2.5,7.1,1
		c1.6-1.4,2.6-4.8,1-7.2C34.8,11.1,31.4,10.7,29.1,12.4L29.1,12.4z M33.1,19.7c-1.7,0.5-2.5-0.8-2.9-2.6c-0.3-1.8,0.7-2,1.7-2.5
		c1.5-0.7,3.4,0.2,3.7,1.5C36,17.6,34.8,19.3,33.1,19.7L33.1,19.7z"/>
	<g id="Layer_2">
		<path class="st0" d="M49.3,17.5c0.4-0.6,0.5-1.4,0.2-2.3c-0.6-2.3-1.8-3.7-3.8-5c-0.1-0.3-0.2-0.7-0.5-1c-1.6-2.3-5.1-3.6-7.7-4.5
			c-3.7-1.2-7.9-1-11.3,0.7c-0.7,0.4-1.4,0.8-1.9,1.3c-0.8-0.1-1.7,0.2-2.5,0.9c-5.5,4.9-5.8,13-4.1,19.6c1,3.8,4.2,7.6,6.2,11
			c2.5,4.2,5.3,8.2,6,13.1c0.4,2.8,4.7,3.1,5.9,0.8c2-3.7,3.7-7.6,5.1-11.6c0.8-0.1,1.6-0.6,2.1-1.5c1.2-2.3,2.2-4.6,3.1-7.1
			c0.1-0.4,0.2-0.8,0.2-1.1c0.5-1.1,0.9-2.1,1.4-3.2c0.4-0.9,0.6-1.8,0.8-2.8c0.5-0.4,0.8-0.9,1-1.8C49.9,21,49.8,19.3,49.3,17.5z
			 M37.1,18.7c0,0.1,0,0.2,0,0.3c-0.9,0.7-1.7,1.3-2.3,2.2c-0.4,0-0.7,0-1.1,0.1c-0.6,0-1.2,0-1.8,0.1c-0.2,0-0.5,0-0.7,0
			c-0.4-0.4-0.9-0.6-1.4-0.6c-0.2-0.1-0.4-0.2-0.7-0.3c-0.5-1.7-1-5.4,0-6.4c0.8-0.9,5.1-0.2,4.7-2.1c0.4,1.6,1.6,2.3,2.9,2.3
			c0.2,0.5,0.5,1,0.7,1.5C37.1,16.7,37,17.4,37.1,18.7z"/>
	</g>
	<path d="M43.1,5.3c-6.1-2.8-12.5-2.5-18,0.3c-5.6,2.8-7.5,6.7-8.5,9.6c-2.4,7.5,0.4,12.9,3.5,19.7s10.8,23.4,13,23.6
		s4.2-4.7,7.4-11C43.8,41.4,50,28.9,50.9,22C51.9,15.2,49.2,8.2,43.1,5.3L43.1,5.3z M49.6,22.4c-0.4-0.3-6.4-7.4-6.7-7.5
		c-0.3-0.1-0.9,0.1-0.5,0.4c0.4,0.3,6.9,7.8,6.9,8.2s-0.3,2.2-0.6,1.9c-0.3-0.3-5.7-7.8-6.2-7.8c-0.5-0.1-0.7,0.7-0.3,0.9
		c0.3,0.3,5.9,7.5,5.9,7.9c0,0.3,0.1,1.1-0.3,1c-0.3-0.1-5.3-7.2-5.9-7c-0.6,0.2-0.5,0.5-0.3,0.9c0.2,0.3,5.7,7.1,5.7,7.1
		s-0.5,1.7-0.9,1.6c-0.3-0.1-4.6-6.2-5.1-6.2s-1,0.3-0.6,0.9c0.4,0.5,5.2,6.3,5.1,6.6c-0.1,0.3-1,2.9-1.3,2.6
		c-0.2-0.3-4.6-7.5-5.1-7.5c-0.5-0.1-0.6,0.1-0.3,0.7c0.3,0.6,5.1,6.9,5.1,7.5s-0.2,1.6-0.6,1.2c-0.4-0.3-4.9-7.1-5.4-7.2
		c-0.5-0.1-0.9,0.1-0.5,0.5c0.3,0.5,5.5,7,5.3,7.3c-0.2,0.3-0.3,1.9-0.5,1.5c-0.3-0.4-4.7-7-5.2-7s-1,0.3-0.6,0.8
		c0.5,0.4,5.3,6.7,5.2,7c-0.2,0.3-0.5,1.9-0.9,1.6c-0.3-0.3-4.1-5.8-4.6-6c-0.5-0.1-0.9,0.3-0.6,0.9c0.3,0.6,4.7,5.6,4.6,6
		c-0.2,0.3,0.1,1.9-0.7,1.3c-0.9-0.7-3.9-5.2-4.6-5.2s-0.9,0.5-0.6,0.9c0.3,0.5,4.4,5.4,4.4,5.4s-0.4,1.3-0.6,1.1
		c-0.2-0.2-3.6-5.3-4.2-5.3c-0.6-0.1-0.9,0.2-0.7,0.5c0.2,0.3,4.3,5.1,4.2,5.6c-0.1,0.5-0.1,2.4-0.7,1.7c-0.6-0.7-3.5-4.2-3.9-4.1
		c-0.3,0.1-0.8,0.1-0.4,0.7c0.3,0.6,3.7,3.9,3.5,4.3c-0.1,0.4-0.5,1.1-0.7,1.1c-0.3-0.1-2.8-3.6-3.2-3.5c-0.5,0.1-0.5,0.3-0.4,0.7
		c0.1,0.5,3.1,3.4,3,3.7s-0.3,1-0.7,0.6c-0.3-0.4-2.3-2.9-2.6-2.9s-0.9,0.3-0.5,0.7s3,3.3,2.8,3.5c-0.2,0.3-0.8,1.7-1.3,1.2
		C32,52.7,24.6,39,21.2,32.5S15.6,21.4,17,16.4s4.1-7.3,5.5-8.1c2.9-1.9,6.6-3.7,11.6-3.5c5,0.2,7.8,1.6,8.5,2.1
		c0.7,0.4,0.5,0.9,0.7,1c0.2,0.2,4.5,5.1,4.8,5.3c0.3,0.3,0.7,2.3,0.2,1.9c-0.5-0.4-6.5-7.8-7.2-7.9c-0.9-0.1-0.9,0.7-0.5,0.9
		C41,8.3,48.6,16,49,16.7c0.4,0.7,0.6,3.3,0.1,2.5c-0.5-0.8-6.1-7.9-6.9-8.4c-0.8-0.4-1,0.7-0.6,0.9c0.4,0.3,7.3,8.3,7.7,8.9
		C49.8,21.4,50,22.6,49.6,22.4L49.6,22.4z M22.1,11.8c-1.2,0.3-3.5,3.9-3.9,6.8s0.8,6,1.3,6.3c0.3,0.1,0.8,0.2,0.9-0.5
		c0.1-0.7-1.1-4.1-1-6c0.1-1.9,2.5-5,3.2-5.5C23.1,12.5,23.3,11.5,22.1,11.8L22.1,11.8z M29.7,12.8c-2.4,1.9-2.2,5.3-0.8,6.9
		c1.5,1.6,5.2,2.3,6.7,0.9c1.6-1.3,2.5-4.6,0.9-6.8C35.1,11.6,31.9,11.2,29.7,12.8L29.7,12.8z M33.5,19.8c-1.6,0.5-2.4-0.8-2.8-2.5
		c-0.3-1.7,0.7-1.9,1.6-2.3c1.4-0.7,3.2,0.2,3.5,1.5C36.2,17.7,35.1,19.4,33.5,19.8L33.5,19.8z"/>
</g>
<g id="Layer_3">
	<path class="st0" d="M49.9,22c0.2-2.8,0-5.6-1.1-8.3c0-0.1,0-0.2-0.1-0.3c0-0.1-0.1-0.3-0.2-0.3c0,0,0,0,0,0
		c-0.1-0.2-0.2-0.3-0.4-0.4c-0.3-0.7-1-1.4-1.5-1.9c-1.1-1.3-2.2-2.9-3.8-3.6c0,0-0.1,0-0.1,0c-0.5-0.3-0.9-0.7-1.4-0.9
		c-0.8-0.5-1.5,0.5-1.1,1.1c-1.7,0.5-2.8,2.5-1.2,3.9c1.2,1,1.7,2.4,2.4,3.7c-0.2,0.7-0.3,1.5-0.3,2.2c0,0.2,0,1,0,1.6
		c-0.4-0.7-1-1.2-2-1.2c-3.1,0-3.1,4.8,0,4.8c0.1,0,0.2,0,0.3,0c-0.1,0.1-0.2,0.2-0.2,0.3c-0.7,1-1.4,2.1-2,3.1
		c-1,0.2-1.9,0.9-1.9,2.3c0,0.5,0,1,0,1.6c0,0,0,0,0,0c0,0.1,0,0.2-0.1,0.3c-0.1,0.5,0,1,0.1,1.4c-0.2,0.8-0.5,1.7-0.8,2.5
		c-0.1,0.4-0.2,0.8-0.1,1.2c0,0.1,0,0.1,0,0.2c-0.4,1.3-0.8,2.6-1,3.9c-0.4,0.9-0.7,1.7-1.1,2.6c-0.1,0.2,0,0.4,0.2,0.5
		c-0.1,0.7-0.2,1.3-0.3,2c-0.2,0-0.4,0.1-0.4,0.4c0,0.7,0,1.4,0,2.2c-0.1,0.2-0.1,0.5-0.1,0.7c0-0.1-0.1-0.2-0.1-0.4
		c-0.1-0.5-0.8-0.3-0.8,0.1c-0.1,1.2,0,2.3,0.4,3.4c0.1,0.4,0.8,0.4,0.8-0.1c0-0.2,0-0.5,0-0.7c0.1,0.1,0.3,0,0.4-0.1
		c0,0.2-0.1,0.3-0.1,0.5c-0.1,0.4,0.4,0.6,0.7,0.4c0,0.1,0,0.3,0,0.4c0,0.1,0,0.2,0.1,0.2c0,0.1-0.1,0.2-0.1,0.3c0,0,0,0,0,0
		c0,0.1-0.1,0.2-0.1,0.3c-0.1,0.4,0.4,0.7,0.7,0.4c1.2-1.2,2.1-2.8,3-4.3c0.2-0.2,0.4-0.3,0.5-0.6c0.2-0.3,0.3-0.5,0.5-0.8
		c1.1-1.8,2.5-3.3,3.4-5.2c0.8-1.8,1.7-3.5,2.7-5.3c0.1-0.1,0.2-0.1,0.2-0.2c0.3-0.4,0.5-0.8,0.6-1.3c0.5-0.8,1.2-1.6,1.3-2.6
		c0,0,0,0,0,0c0.2-0.4,0.5-0.9,0.7-1.3c0.1-0.1,0.1-0.1,0.2-0.2c1.4-2.6,2.5-5.4,3.4-8.2C49.9,22.3,49.9,22.2,49.9,22
		C49.8,22,49.9,22,49.9,22z"/>
</g>
</svg>
