<svg id="20b21119-e28a-45ab-8a00-042b4e7080d6" data-name="Layer 1" xmlns="http://www.w3.org/2000/svg" viewBox="0 0 41.07 64"><title>address</title><path d="M33.3,2.2a23.26,23.26,0,0,0-20.9.4C5.9,5.9,3.7,10.4,2.6,13.7c-2.8,8.7.5,14.9,4.1,22.8S19.2,63.6,21.8,63.9s4.9-5.5,8.6-12.7,10.9-21.7,12-29.6-2-16.1-9.1-19.4ZM40.9,22c-.5-.3-7.4-8.6-7.8-8.7s-1.1.1-.6.5,8,9,8,9.5-.3,2.5-.7,2.2-6.6-9-7.2-9-.8.8-.4,1.1,6.9,8.7,6.9,9.1.1,1.3-.3,1.2-6.2-8.3-6.8-8.1-.6.6-.4,1S38.2,29,38.2,29s-.6,2-1,1.8-5.3-7.2-5.9-7.2-1.2.4-.7,1.1,6,7.3,5.9,7.6-1.2,3.4-1.5,3-5.3-8.7-5.9-8.7-.7.1-.4.8,5.9,8,5.9,8.7-.2,1.8-.7,1.4-5.7-8.2-6.3-8.3-1,.1-.6.6,6.4,8.1,6.2,8.5-.3,2.2-.6,1.7-5.5-8.1-6-8.1-1.2.4-.7.9,6.2,7.8,6,8.1-.6,2.2-1,1.8-4.7-6.7-5.3-6.9-1.1.3-.7,1,5.5,6.5,5.3,6.9.1,2.2-.8,1.5-4.5-6-5.3-6-1.1.6-.7,1.1,5.1,6.3,5.1,6.3-.5,1.5-.7,1.3-4.2-6.2-4.9-6.2-1,.2-.8.6,5,5.9,4.9,6.5-.1,2.8-.8,2-4.1-4.9-4.5-4.8-.9.1-.5.8,4.3,4.5,4.1,5-.6,1.3-.8,1.3-3.2-4.2-3.7-4.1-.6.3-.5.8,3.6,3.9,3.5,4.3-.3,1.2-.8.7-2.7-3.4-3-3.4-1,.4-.6.8,3.5,3.8,3.2,4.1-.9,2-1.5,1.4-9.2-16.4-13.2-24S1.5,20.8,3.1,15,7.9,6.5,9.5,5.6A22.57,22.57,0,0,1,23,1.5c5.8.2,9.1,1.9,9.9,2.4s.6,1,.8,1.2,5.2,5.9,5.6,6.2.8,2.7.2,2.2-7.5-9-8.4-9.1-1,.8-.6,1.1,9.2,9.1,9.7,9.9.7,3.8.1,2.9-7.1-9.2-8-9.7-1.2.8-.7,1.1,8.5,9.6,8.9,10.3c.6.8.9,2.2.4,2ZM9,9.7c-1.4.4-4.1,4.5-4.5,7.9s.9,6.9,1.5,7.3c.3.1.9.2,1-.6s-1.3-4.7-1.2-6.9S8.7,11.6,9.5,11s.9-1.6-.5-1.3Zm8.8,1.2a5.68,5.68,0,0,0-.9,8c1.7,1.9,6,2.7,7.8,1.1s2.9-5.3,1.1-7.9a5.63,5.63,0,0,0-8-1.2ZM22.2,19c-1.9.6-2.8-.9-3.2-2.9s.8-2.2,1.9-2.7A3,3,0,0,1,25,15.1c.4,1.5-.9,3.4-2.8,3.9Z" transform="translate(-1.55 0.08)"/></svg>