<?xml version="1.0" encoding="utf-8"?>
<!-- Generator: Adobe Illustrator 20.1.0, SVG Export Plug-In . SVG Version: 6.00 Build 0)  -->
<svg version="1.1" id="_x38_f3e145b-0b90-4db5-a99f-1b4d1cbcb2ac"
	 xmlns="http://www.w3.org/2000/svg" xmlns:xlink="http://www.w3.org/1999/xlink" x="0px" y="0px" viewBox="0 0 850.4 1914.5"
	 style="enable-background:new 0 0 850.4 1914.5;" xml:space="preserve">
<style type="text/css">
	.st0{fill:#F2F2F2;}
</style>
<title>back</title>
<path class="st0" d="M194.3,593.5c-1.8,0-3.4-1-4.1-2.6c-3.7-8-0.7-18.2,6.9-23.2c5.9-3.9,11.3-2.5,16.5-1.1
	c4.9,1.3,6.8,1.2,9.3-0.4c2.5-1.6,5.7-4.8,3.1-11.8c-3.4-9.3-1-17.3,7.1-22.6c5.9-3.9,11.3-2.5,16.5-1.1c4.9,1.3,6.8,1.2,9.3-0.4
	c3.4-2.2,5.2-3.9,3-12.1c-2.8-10.2-0.5-17.1,7.2-22.2c5.9-3.9,11.3-2.5,16.5-1.1c4.9,1.3,6.8,1.2,9.3-0.4c2.5-1.6,5.7-4.8,3.1-11.8
	c-0.9-2.3,0.3-5,2.7-5.9c2.3-0.9,5,0.3,5.8,2.6c0,0,0,0,0,0c3.4,9.2,1,17.4-6.6,22.5c-6,4-11.3,3-16.6,1.6c-5.3-1.4-6.9-1.6-9.2-0.1
	c-4.8,3.2-4.9,6.5-3.4,12.3c2.9,10.6,0.9,17-6.7,22.1c-6,3.9-11.3,3-16.6,1.6c-5.3-1.4-6.9-1.6-9.2-0.1c-4.5,3-5.6,6.5-3.6,11.8
	c3.4,9.2,1,17.4-6.6,22.5c-6,4-11.3,3-16.6,1.6s-6.9-1.6-9.2-0.1c-3.9,2.5-5.5,7.8-3.6,11.8c1.1,2.2,0.1,4.9-2.1,6c0,0,0,0-0.1,0
	C195.7,593.3,195,593.5,194.3,593.5z"/>
<path id="_x34_72a6d11-8388-4719-9e9e-1450b4744fcd" class="st0" d="M236,1778.3c-1.8,0-3.4-1-4.1-2.6c-3.7-8-0.7-18.2,6.9-23.2
	c5.9-3.9,11.3-2.5,16.5-1.1c4.9,1.3,6.8,1.2,9.3-0.4c2.5-1.6,5.7-4.8,3.1-11.8c-3.4-9.3-1-17.3,7.1-22.6c5.9-3.9,11.3-2.5,16.5-1.1
	c4.9,1.3,6.8,1.2,9.3-0.4c3.4-2.2,5.2-3.9,3-12.1c-2.8-10.2-0.5-17.1,7.2-22.2c5.9-3.9,11.3-2.5,16.5-1.1c4.9,1.3,6.8,1.2,9.3-0.4
	c2.5-1.6,5.7-4.8,3.1-11.8c-0.9-2.3,0.3-5,2.7-5.9c2.4-0.9,5,0.3,5.9,2.7c3.4,9.2,1,17.4-6.6,22.5c-6,4-11.3,3-16.6,1.6
	c-5.3-1.4-6.9-1.6-9.2-0.1c-4.8,3.2-4.9,6.5-3.4,12.3c2.9,10.6,0.9,17-6.7,22.1c-6,3.9-11.3,3-16.6,1.6c-5.3-1.4-6.9-1.6-9.2-0.1
	c-4.5,3-5.6,6.5-3.6,11.8c3.4,9.2,1,17.4-6.6,22.5c-6,4-11.3,3-16.6,1.6c-5.3-1.4-6.9-1.6-9.2-0.1c-3.9,2.5-5.5,7.8-3.6,11.8
	c1.1,2.2,0.1,4.9-2.1,6c0,0,0,0-0.1,0C237.4,1778.1,236.7,1778.3,236,1778.3z"/>
<path id="a7a3b928-14a1-4b7d-ae25-ec092960f9e5" class="st0" d="M239.6,226.8c0,3.5-2,6.7-5.2,8.2c-16.1,7.5-36.5,1.5-46.5-13.7
	c-7.8-11.9-5-22.6-2.3-33c2.6-9.9,2.4-13.6-0.8-18.6c-3.4-5.1-9.5-11.3-23.5-6.2c-18.5,6.9-34.6,1.9-45.1-14.1
	c-7.8-11.9-5-22.6-2.3-33c2.6-9.9,2.4-13.6-0.8-18.6c-4.5-6.8-7.8-10.3-24.3-5.9c-20.5,5.6-34.2,1.1-44.4-14.4
	c-7.8-11.9-5-22.6-2.3-33c2.6-10,2.4-13.6-0.8-18.6c-3.4-5.1-9.5-11.3-23.5-6.2c-4.7,1.7-9.9-0.6-11.6-5.3l0,0
	C4.4,10,6.8,4.8,11.5,3.1C30-3.8,46.3,1,56.4,16.2c7.9,12,6,22.6,3.3,33.2c-2.8,10.6-3.1,13.9-0.1,18.4c6.4,9.7,13,10,24.5,6.9
	c21.3-5.7,34.1-1.9,44.2,13.4c7.9,12,6,22.6,3.3,33.2s-3.1,13.9-0.1,18.4c5.9,8.9,13,11.1,23.7,7.1c18.5-6.9,34.9-2.1,45,13.2
	c7.9,12,6,22.6,3.3,33.2s-3.1,13.9-0.1,18.4c5.1,7.7,15.8,11,23.7,7.3c4.5-2.1,9.9-0.2,12.1,4.3
	C239.4,224.4,239.6,225.6,239.6,226.8z"/>
<path class="st0" d="M595.8,34.3c-3.4,3.3-3.6,8.7-0.5,12.3c33,39.1,31.4,98.7-5.7,135.8s-96.7,38.7-135.9,5.7
	c-3.9-3.2-9.6-2.7-12.8,1.2c-3.2,3.8-2.7,9.5,1,12.7c47.1,40,117,37.1,160.6-6.6c43.9-43.9,46.4-113.9,6.6-160.6
	c-3.3-3.8-9-4.2-12.9-1C596.2,33.9,596,34.1,595.8,34.3z"/>
<path id="_x34_a33fd22-6687-4e11-a92c-a75e7eac5010" class="st0" d="M663.4,1740.1c-4.1,2.4-5.6,7.6-3.6,11.8
	c22.3,46.1,6.1,103.4-39,130.2c-45.1,26.7-103.3,13.5-133-28.1c-2.8-4.2-8.5-5.3-12.7-2.5c-4.2,2.8-5.3,8.5-2.5,12.7
	c0.1,0.1,0.2,0.2,0.3,0.4c38,53.4,112.1,65.9,165.5,27.9c47.3-33.6,63.3-96.5,37.9-148.7c-2.3-4.5-7.7-6.4-12.3-4.1
	C663.8,1739.9,663.5,1740,663.4,1740.1z"/>
<path id="c8460cb3-cf62-4cd1-9f86-334485513c62" class="st0" d="M637.3,697.5c-1.7-1.6-4.4-1.6-6.2-0.1c-19,17-48.6,17-67.6-0.8
	c-19-17.9-20.6-47.6-4.8-67.4c1.6-2,1.2-4.8-0.7-6.4c-1.9-1.6-4.8-1.3-6.3,0.7c-20.3,25.5-16.2,62.6,9.3,82.9
	c22.5,18,54.8,17.1,76.2-2.2c1.8-1.7,2-4.5,0.3-6.4c0,0,0,0,0,0C637.5,697.7,637.4,697.6,637.3,697.5z"/>
<path id="_x30_41c6b78-03a7-45e0-9e1b-8ed6b6f970e8" class="st0" d="M424.7,1089.2c1.1-2.1,0.5-4.6-1.4-6
	c-21-14.4-28.1-43.2-15.3-65.8c12.9-22.7,41.2-31.3,64.3-20.7c2.3,1,5-0.1,6-2.4c0.9-2.2,0-4.7-2.1-5.8
	c-29.6-13.7-64.7-0.8-78.4,28.7c-12.1,26.2-3.5,57.3,20.3,73.6c2.1,1.4,4.9,0.8,6.2-1.2c0,0,0,0,0,0
	C424.6,1089.5,424.7,1089.4,424.7,1089.2z"/>
<path class="st0" d="M307.8,128.1c-10,0-18.1-8.1-18.1-18.1s8.1-18.1,18.1-18.1s18.1,8.1,18.1,18.1S317.8,128.1,307.8,128.1z
	 M307.8,101c-5,0-9.1,4.1-9.1,9.1c0,5,4.1,9.1,9.1,9.1s9.1-4.1,9.1-9.1C316.9,105,312.8,101,307.8,101z"/>
<path id="a9716d27-b73e-4dbd-bddc-e7bed93651ac" class="st0" d="M773.1,47.9c-10,0-18.1-8.1-18.1-18.1s8.1-18.1,18.1-18.1
	s18.1,8.1,18.1,18.1S783.1,47.9,773.1,47.9L773.1,47.9z M773.1,20.7c-5,0-9.1,4.1-9.1,9.1s4.1,9.1,9.1,9.1s9.1-4.1,9.1-9.1
	S778.1,20.7,773.1,20.7L773.1,20.7z"/>
<path id="c3fc986a-d1a8-469d-9653-330f8409cd66" class="st0" d="M655.4,553c-10,0-18.1-8.1-18.1-18.1s8.1-18.1,18.1-18.1
	c10,0,18.1,8.1,18.1,18.1S665.4,553,655.4,553L655.4,553z M655.4,525.9c-5,0-9.1,4.1-9.1,9.1s4.1,9.1,9.1,9.1c5,0,9.1-4.1,9.1-9.1
	S660.4,525.9,655.4,525.9L655.4,525.9z"/>
<path id="_x33_db27753-f164-4da3-8c29-8ed124e7f6c2" class="st0" d="M289.7,784.8c-10,0-18.1-8.1-18.1-18.1s8.1-18.1,18.1-18.1
	s18.1,8.1,18.1,18.1S299.7,784.8,289.7,784.8L289.7,784.8z M289.7,757.6c-5,0-9.1,4.1-9.1,9.1s4.1,9.1,9.1,9.1c5,0,9.1-4.1,9.1-9.1
	l0,0l0,0C298.7,761.7,294.7,757.6,289.7,757.6z"/>
<path id="_x33_e1825c2-4e81-4bd3-89d9-960d42c538a2" class="st0" d="M736.9,935.1c-10,0-18.1-8.1-18.1-18.1c0-10,8.1-18.1,18.1-18.1
	c10,0,18.1,8.1,18.1,18.1l0,0l0,0C755,927,746.9,935.1,736.9,935.1z M736.9,907.9c-5,0-9.1,4.1-9.1,9.1c0,5,4.1,9.1,9.1,9.1
	c5,0,9.1-4.1,9.1-9.1C746,912,741.9,907.9,736.9,907.9L736.9,907.9z"/>
<path id="_x37_6d6d26d-dabe-4a48-b1b2-223cca4866c8" class="st0" d="M95.3,1129.4c-10,0-18.1-8.1-18.1-18.1c0-10,8.1-18.1,18.1-18.1
	s18.1,8.1,18.1,18.1C113.5,1121.3,105.3,1129.4,95.3,1129.4L95.3,1129.4z M95.3,1102.3c-5,0-9.1,4.1-9.1,9.1c0,5,4.1,9.1,9.1,9.1
	c5,0,9.1-4.1,9.1-9.1C104.4,1106.3,100.3,1102.3,95.3,1102.3L95.3,1102.3z"/>
<path id="_x32_52343a5-7409-4e79-88a2-69d88bef9d99" class="st0" d="M260.1,1323.2c-10,0-18.1-8.1-18.1-18.1
	c0-10,8.1-18.1,18.1-18.1c10,0,18.1,8.1,18.1,18.1l0,0l0,0C278.2,1315.1,270.1,1323.2,260.1,1323.2z M260.1,1296
	c-5,0-9.1,4.1-9.1,9.1c0,5,4.1,9.1,9.1,9.1c5,0,9.1-4.1,9.1-9.1C269.2,1300.1,265.1,1296,260.1,1296L260.1,1296z"/>
<path id="e7224908-f19b-47a8-a411-026046cc05a1" class="st0" d="M637.9,1514.5c-10,0-18.1-8.1-18.1-18.1s8.1-18.1,18.1-18.1
	c10,0,18.1,8.1,18.1,18.1l0,0l0,0C656,1506.4,647.9,1514.5,637.9,1514.5z M637.9,1487.3c-5,0-9.1,4.1-9.1,9.1c0,5,4.1,9.1,9.1,9.1
	c5,0,9.1-4.1,9.1-9.1C647,1491.4,642.9,1487.3,637.9,1487.3L637.9,1487.3z"/>
<path id="_x35_9313b26-aea6-4c50-a049-370b5cc7b5cb" class="st0" d="M36.8,1606.2c-10,0-18.1-8.1-18.1-18.1c0-10,8.1-18.1,18.1-18.1
	s18.1,8.1,18.1,18.1C54.9,1598.1,46.8,1606.2,36.8,1606.2L36.8,1606.2z M36.8,1579.1c-5,0-9.1,4.1-9.1,9.1c0,5,4.1,9.1,9.1,9.1
	s9.1-4.1,9.1-9.1C45.9,1583.1,41.8,1579.1,36.8,1579.1L36.8,1579.1z"/>
<path id="_x37_c46b793-58c0-432f-8600-3dd0a0a6b74e" class="st0" d="M117.1,811.4c0,1.8-1,3.4-2.6,4.1c-8,3.7-18.2,0.7-23.2-6.8
	c-3.9-5.9-2.5-11.3-1.1-16.4c1.3-4.9,1.2-6.8-0.4-9.3s-4.8-5.7-11.8-3.1c-9.3,3.4-17.3,1-22.6-7.1c-3.9-5.9-2.5-11.3-1.1-16.4
	c1.3-4.9,1.2-6.8-0.4-9.3c-2.2-3.4-3.9-5.2-12.1-3c-10.2,2.8-17.1,0.5-22.2-7.2c-3.9-5.9-2.5-11.3-1.1-16.4c1.3-4.9,1.2-6.8-0.4-9.3
	c-1.6-2.5-4.8-5.7-11.8-3.1c-2.3,0.9-5-0.3-5.9-2.7c-0.9-2.3,0.3-4.9,2.6-5.8c0,0,0,0,0,0l0,0c9.2-3.4,17.4-1,22.5,6.6
	c3.9,6,3,11.2,1.6,16.5c-1.4,5.3-1.6,6.9-0.1,9.2c3.2,4.8,6.5,4.9,12.3,3.4c10.6-2.9,17-1,22.1,6.7c3.9,6,3,11.2,1.6,16.5
	s-1.6,6.9-0.1,9.2c3,4.5,6.5,5.6,11.8,3.6c9.2-3.4,17.4-1,22.5,6.6c3.9,6,3,11.2,1.6,16.5c-1.4,5.3-1.6,6.9-0.1,9.2
	c2.5,3.9,7.8,5.5,11.8,3.6c2.2-1.1,4.9-0.1,6,2.1c0,0,0,0,0,0.1C116.9,810.1,117.1,810.7,117.1,811.4z"/>
<path id="_x36_18988b3-3278-479a-a30c-374880db6942" class="st0" d="M850.4,1423.4c0,3.5-2,6.7-5.2,8.2
	c-16.1,7.5-36.5,1.5-46.5-13.7c-7.8-11.9-5-22.6-2.3-33c2.6-9.9,2.4-13.6-0.8-18.6c-3.4-5.1-9.5-11.3-23.5-6.2
	c-18.5,6.9-34.6,1.9-45.1-14.1c-7.8-11.9-5-22.6-2.3-33c2.6-9.9,2.4-13.6-0.8-18.6c-4.5-6.8-7.8-10.3-24.3-5.9
	c-20.5,5.6-34.2,1.1-44.4-14.4c-7.8-11.9-5-22.6-2.3-33c2.6-9.9,2.4-13.6-0.8-18.6c-3.4-5.1-9.5-11.3-23.5-6.2
	c-4.7,1.7-9.9-0.6-11.7-5.3c-1.8-4.7,0.6-9.9,5.3-11.7c18.5-6.9,34.9-2.1,45,13.2c7.9,12,6,22.6,3.3,33.2
	c-2.8,10.6-3.1,13.9-0.1,18.3c6.4,9.7,13,10,24.5,6.9c21.2-5.7,34-1.9,44.2,13.4c7.9,12,6,22.6,3.3,33.2s-3.1,13.9-0.1,18.3
	c5.9,8.9,13,11.1,23.7,7.1c18.5-6.9,34.9-2.1,45,13.2c7.9,12,6,22.6,3.3,33.2c-2.8,10.6-3.1,13.9-0.1,18.4c5.1,7.7,15.8,11,23.7,7.3
	c4.5-2.1,9.9-0.2,12.1,4.3C850.1,1420.8,850.4,1422.1,850.4,1423.4z"/>
</svg>
