<svg xmlns="http://www.w3.org/2000/svg" width="1440" height="3858" viewBox="0 0 1440 3858">
  <defs>
    <style>
      .cls-1 {
        fill: #f2f2f2;
        fill-rule: evenodd;
      }
    </style>
  </defs>
  <path class="cls-1" d="M347.034,1261a7.51,7.51,0,0,1-6.8-4.32c-6.235-13.28-1.247-30.21,11.356-38.53,9.828-6.48,18.7-4.14,27.284-1.89,8.215,2.15,11.235,2.01,15.39-.72,4.236-2.8,9.385-7.87,5.078-19.48-5.706-15.36-1.554-28.65,11.692-37.4,9.827-6.47,18.7-4.14,27.283-1.89,8.215,2.16,11.236,2.02,15.391-.72,5.582-3.68,8.566-6.44,4.868-20.12-4.579-16.95-.909-28.28,11.9-36.75,9.827-6.47,18.7-4.14,27.283-1.89,8.219,2.16,11.237,2.02,15.391-.72,4.237-2.8,9.385-7.87,5.079-19.47a7.506,7.506,0,1,1,14.072-5.23c5.694,15.34,1.724,28.91-10.891,37.24-9.946,6.55-18.663,5.02-27.46,2.71-8.774-2.3-11.482-2.55-15.213-.1-8.045,5.32-8.24,10.78-5.671,20.29,4.765,17.63,1.548,28.23-11.1,36.59-9.95,6.54-18.666,5.01-27.462,2.7-8.776-2.3-11.482-2.55-15.212-.09-7.41,4.89-9.172,10.76-5.882,19.62,5.694,15.34,1.725,28.91-10.889,37.25-9.947,6.55-18.664,5.01-27.46,2.71-8.774-2.31-11.481-2.56-15.214-.1-6.406,4.23-9.116,13.03-6.03,19.6a7.512,7.512,0,0,1-3.6,9.99A7.406,7.406,0,0,1,347.034,1261Z"/>
  <path id="Shape_3_copy_2" data-name="Shape 3 copy 2" class="cls-1" d="M416.034,3224a7.51,7.51,0,0,1-6.8-4.32c-6.236-13.28-1.247-30.21,11.356-38.53,9.828-6.48,18.7-4.14,27.284-1.89,8.215,2.15,11.234,2.01,15.39-.72,4.236-2.8,9.385-7.87,5.078-19.48-5.706-15.36-1.554-28.65,11.692-37.4,9.827-6.47,18.7-4.14,27.283-1.89,8.215,2.16,11.236,2.02,15.391-.72,5.582-3.68,8.566-6.44,4.868-20.12-4.579-16.95-.909-28.28,11.9-36.75,9.827-6.47,18.7-4.14,27.283-1.89,8.219,2.16,11.237,2.02,15.391-.72,4.237-2.8,9.385-7.87,5.079-19.47a7.506,7.506,0,1,1,14.072-5.23c5.694,15.34,1.724,28.91-10.891,37.24-9.946,6.55-18.663,5.02-27.46,2.71-8.774-2.3-11.482-2.55-15.213-.1-8.044,5.32-8.24,10.78-5.671,20.29,4.765,17.63,1.548,28.23-11.1,36.59-9.95,6.54-18.666,5.01-27.462,2.7-8.776-2.3-11.482-2.55-15.212-.09-7.41,4.89-9.172,10.76-5.882,19.62,5.694,15.34,1.725,28.92-10.889,37.25-9.947,6.55-18.664,5.01-27.46,2.71-8.774-2.31-11.481-2.56-15.214-.1-6.406,4.23-9.116,13.03-6.03,19.6a7.512,7.512,0,0,1-3.6,9.99A7.406,7.406,0,0,1,416.034,3224Z"/>
  <path id="Shape_3_copy" data-name="Shape 3 copy" class="cls-1" d="M279.991,535.038a15.029,15.029,0,0,1-8.636,13.61c-26.556,12.483-60.4,2.5-77.049-22.733-12.942-19.676-8.28-37.441-3.778-54.621,4.312-16.445,4.028-22.49-1.442-30.808-5.6-8.482-15.738-18.788-38.936-10.166-30.732,11.423-57.293,3.11-74.789-23.407-12.942-19.672-8.282-37.439-3.779-54.618,4.312-16.445,4.03-22.492-1.441-30.811-7.374-11.174-12.886-17.147-40.244-9.746C-4,320.907-26.66,313.56-43.583,287.912c-12.942-19.671-8.284-37.44-3.779-54.617,4.315-16.455,4.027-22.5-1.441-30.812C-54.4,194-64.543,183.7-87.738,192.315a15.018,15.018,0,0,1-19.31-8.853,15.026,15.026,0,0,1,8.85-19.317c30.668-11.4,57.812-3.451,74.476,21.8,13.094,19.911,10.032,37.362,5.415,54.973-4.6,17.565-5.109,22.985-.2,30.455,10.628,16.1,21.548,16.5,40.559,11.352,35.259-9.538,56.456-3.1,73.165,22.218,13.095,19.918,10.031,37.368,5.417,54.975-4.605,17.569-5.11,22.986-.2,30.454,9.787,14.834,21.529,18.36,39.249,11.775,30.668-11.4,57.813-3.453,74.477,21.8,13.093,19.912,10.03,37.362,5.417,54.972-4.609,17.565-5.11,22.984-.2,30.457,8.464,12.825,26.053,18.249,39.2,12.071A15.031,15.031,0,0,1,279.991,535.038Z"/>
  <path class="cls-1" d="M1012.24,334.456a15.111,15.111,0,0,0-.86,20.443c54.69,64.759,52.14,163.533-9.38,225.047-61.55,61.536-160.327,64.061-225.1,9.384a15.134,15.134,0,0,0-19.653,23.019,196.575,196.575,0,0,0,266.139-11.016c72.81-72.8,76.78-188.663,11.01-266.083A15.1,15.1,0,0,0,1012.24,334.456Z"/>
  <path id="Shape_1_copy_3" data-name="Shape 1 copy 3" class="cls-1" d="M1124.09,3160.76a15.114,15.114,0,0,0-5.88,19.6c36.98,76.27,10.1,171.35-64.72,215.74-74.854,44.41-171.189,22.44-220.432-46.55A15.135,15.135,0,0,0,808.324,3367a196.629,196.629,0,0,0,337.046-199.99A15.113,15.113,0,0,0,1124.09,3160.76Z"/>
  <path id="Shape_1_copy" data-name="Shape 1 copy" class="cls-1" d="M1080.9,1433.29a7.51,7.51,0,0,0-10.17-.13c-31.4,28.1-80.528,28.25-111.979-1.45s-34.131-78.76-7.884-111.73a7.525,7.525,0,0,0-11.721-9.44,97.762,97.762,0,0,0,141.674,133.78A7.513,7.513,0,0,0,1080.9,1433.29Z"/>
  <path id="Shape_1_copy_2" data-name="Shape 1 copy 2" class="cls-1" d="M728.72,2082.43a7.515,7.515,0,0,0-2.3-9.91c-34.781-23.79-46.641-71.46-25.3-109.09s68.348-51.93,106.627-34.3a7.523,7.523,0,0,0,6.371-13.63,97.76,97.76,0,0,0-96.126,169.49A7.507,7.507,0,0,0,728.72,2082.43Z"/>
  <path class="cls-1" d="M535,490a30,30,0,1,1,30-30A30.034,30.034,0,0,1,535,490Zm0-45a15,15,0,1,0,15,15A15.017,15.017,0,0,0,535,445Z"/>
  <path id="Shape_2_copy" data-name="Shape 2 copy" class="cls-1" d="M1306,357a30,30,0,1,1,30-30A30.035,30.035,0,0,1,1306,357Zm0-45a15,15,0,1,0,15,15A15.018,15.018,0,0,0,1306,312Z"/>
  <path id="Shape_2_copy_2" data-name="Shape 2 copy 2" class="cls-1" d="M1111,1194a30,30,0,1,1,30-30A30.037,30.037,0,0,1,1111,1194Zm0-45a15,15,0,1,0,15,15A15.018,15.018,0,0,0,1111,1149Z"/>
  <path id="Shape_2_copy_3" data-name="Shape 2 copy 3" class="cls-1" d="M505,1578a30,30,0,1,1,30-30A30.035,30.035,0,0,1,505,1578Zm0-45a15,15,0,1,0,15,15A15.018,15.018,0,0,0,505,1533Z"/>
  <path id="Shape_2_copy_4" data-name="Shape 2 copy 4" class="cls-1" d="M1246,1827a30,30,0,1,1,30-30A30.037,30.037,0,0,1,1246,1827Zm0-45a15,15,0,1,0,15,15A15.018,15.018,0,0,0,1246,1782Z"/>
  <path id="Shape_2_copy_5" data-name="Shape 2 copy 5" class="cls-1" d="M183,2149a30,30,0,1,1,30-30A30.035,30.035,0,0,1,183,2149Zm0-45a15,15,0,1,0,15,15A15.018,15.018,0,0,0,183,2104Z"/>
  <path id="Shape_2_copy_6" data-name="Shape 2 copy 6" class="cls-1" d="M456,2470a30,30,0,1,1,30-30A30.035,30.035,0,0,1,456,2470Zm0-45a15,15,0,1,0,15,15A15.018,15.018,0,0,0,456,2425Z"/>
  <path id="Shape_2_copy_7" data-name="Shape 2 copy 7" class="cls-1" d="M1082,2787a30,30,0,1,1,30-30A30.037,30.037,0,0,1,1082,2787Zm0-45a15,15,0,1,0,15,15A15.018,15.018,0,0,0,1082,2742Z"/>
  <path id="Shape_2_copy_8" data-name="Shape 2 copy 8" class="cls-1" d="M86,2939a30,30,0,1,1,30-30A30.035,30.035,0,0,1,86,2939Zm0-45a15,15,0,1,0,15,15A15.018,15.018,0,0,0,86,2894Z"/>
  <path id="Shape_3_copy_3" data-name="Shape 3 copy 3" class="cls-1" d="M153,1538.54a7.5,7.5,0,0,1-4.318,6.79c-13.277,6.23-30.2,1.25-38.524-11.34-6.471-9.81-4.14-18.68-1.889-27.24,2.156-8.21,2.014-11.22-.721-15.37-2.8-4.23-7.869-9.37-19.468-5.07-15.366,5.69-28.647,1.55-37.395-11.68-6.471-9.81-4.141-18.67-1.89-27.24,2.156-8.21,2.015-11.22-.721-15.37-3.687-5.58-6.443-8.56-20.122-4.86-16.947,4.57-28.278.91-36.74-11.89-6.471-9.81-4.142-18.67-1.89-27.24,2.158-8.21,2.013-11.22-.72-15.37-2.8-4.23-7.869-9.37-19.467-5.07a7.517,7.517,0,0,1-9.655-4.42,7.482,7.482,0,0,1,4.425-9.63c15.334-5.69,28.906-1.73,37.238,10.87,6.547,9.93,5.016,18.64,2.708,27.42-2.3,8.76-2.554,11.47-.1,15.19,5.314,8.04,10.774,8.23,20.28,5.67,17.629-4.76,28.228-1.55,36.582,11.08,6.547,9.93,5.015,18.64,2.709,27.42-2.3,8.76-2.555,11.47-.1,15.19,4.894,7.4,10.765,9.16,19.624,5.87,15.334-5.68,28.907-1.72,37.238,10.88,6.547,9.93,5.016,18.64,2.709,27.42-2.305,8.76-2.555,11.46-.1,15.19,4.232,6.4,13.027,9.1,19.6,6.02a7.514,7.514,0,0,1,9.99,3.6A7.436,7.436,0,0,1,153,1538.54Z"/>
  <path id="Shape_3_copy_4" data-name="Shape 3 copy 4" class="cls-1" d="M1468.99,2670.04a15.026,15.026,0,0,1-8.64,13.61c-26.55,12.48-60.39,2.49-77.04-22.73-12.95-19.68-8.28-37.45-3.78-54.63,4.31-16.44,4.03-22.49-1.44-30.8-5.6-8.49-15.74-18.79-38.94-10.17-30.73,11.42-57.29,3.11-74.79-23.41-12.94-19.67-8.28-37.44-3.78-54.61,4.31-16.45,4.03-22.5-1.44-30.82-7.37-11.17-12.88-17.14-40.24-9.74-33.9,9.17-56.56,1.82-73.48-23.83-12.95-19.67-8.29-37.44-3.78-54.62,4.31-16.45,4.02-22.49-1.44-30.81-5.6-8.48-15.74-18.79-38.94-10.16a15.025,15.025,0,0,1-10.46-28.17c30.67-11.4,57.81-3.46,74.48,21.8,13.09,19.91,10.03,37.36,5.41,54.97-4.6,17.57-5.11,22.98-.19,30.45,10.62,16.11,21.54,16.5,40.56,11.36,35.25-9.54,56.45-3.1,73.16,22.22,13.1,19.91,10.03,37.36,5.42,54.97-4.61,17.57-5.11,22.99-.2,30.45,9.79,14.84,21.53,18.36,39.25,11.78,30.67-11.4,57.81-3.45,74.48,21.8,13.09,19.91,10.03,37.36,5.41,54.97-4.61,17.56-5.11,22.98-.19,30.46,8.46,12.82,26.05,18.25,39.19,12.07A15.03,15.03,0,0,1,1468.99,2670.04Z"/>
</svg>
