<?xml version="1.0" encoding="utf-8"?>
<!-- Generator: Adobe Illustrator 20.1.0, SVG Export Plug-In . SVG Version: 6.00 Build 0)  -->
<svg version="1.1" id="Layer_1" xmlns="http://www.w3.org/2000/svg" xmlns:xlink="http://www.w3.org/1999/xlink" x="0px" y="0px"
	 viewBox="0 0 1440 3858" style="enable-background:new 0 0 1440 3858;" xml:space="preserve">
<style type="text/css">
	.st0{fill:#F2F2F2;}
</style>
<path class="st0" d="M347,1261c-2.9,0-5.6-1.7-6.8-4.3c-6.2-13.3-1.2-30.2,11.4-38.5c9.8-6.5,18.7-4.1,27.3-1.9
	c8.2,2.2,11.2,2,15.4-0.7c4.2-2.8,9.4-7.9,5.1-19.5c-5.7-15.4-1.6-28.7,11.7-37.4c9.8-6.5,18.7-4.1,27.3-1.9
	c8.2,2.2,11.2,2,15.4-0.7c5.6-3.7,8.6-6.4,4.9-20.1c-4.6-16.9-0.9-28.3,11.9-36.8c9.8-6.5,18.7-4.1,27.3-1.9
	c8.2,2.2,11.2,2,15.4-0.7c4.2-2.8,9.4-7.9,5.1-19.5c-1.4-3.9,0.5-8.2,4.4-9.7s8.2,0.5,9.7,4.4c5.7,15.3,1.7,28.9-10.9,37.2
	c-9.9,6.6-18.7,5-27.5,2.7c-8.8-2.3-11.5-2.6-15.2-0.1c-8,5.3-8.2,10.8-5.7,20.3c4.8,17.6,1.5,28.2-11.1,36.6
	c-10,6.5-18.7,5-27.5,2.7c-8.8-2.3-11.5-2.6-15.2-0.1c-7.4,4.9-9.2,10.8-5.9,19.6c5.7,15.3,1.7,28.9-10.9,37.2
	c-9.9,6.6-18.7,5-27.5,2.7c-8.8-2.3-11.5-2.6-15.2-0.1c-6.4,4.2-9.1,13-6,19.6c1.8,3.8,0.2,8.2-3.6,10
	C349.2,1260.8,348.1,1261,347,1261z"/>
<path id="Shape_3_copy_2" class="st0" d="M416,3224c-2.9,0-5.6-1.7-6.8-4.3c-6.2-13.3-1.2-30.2,11.4-38.5c9.8-6.5,18.7-4.1,27.3-1.9
	c8.2,2.1,11.2,2,15.4-0.7c4.2-2.8,9.4-7.9,5.1-19.5c-5.7-15.4-1.6-28.6,11.7-37.4c9.8-6.5,18.7-4.1,27.3-1.9
	c8.2,2.2,11.2,2,15.4-0.7c5.6-3.7,8.6-6.4,4.9-20.1c-4.6-16.9-0.9-28.3,11.9-36.8c9.8-6.5,18.7-4.1,27.3-1.9
	c8.2,2.2,11.2,2,15.4-0.7c4.2-2.8,9.4-7.9,5.1-19.5c-1.4-3.9,0.5-8.2,4.4-9.7c3.9-1.4,8.2,0.5,9.7,4.4c5.7,15.3,1.7,28.9-10.9,37.2
	c-9.9,6.6-18.7,5-27.5,2.7c-8.8-2.3-11.5-2.6-15.2-0.1c-8,5.3-8.2,10.8-5.7,20.3c4.8,17.6,1.5,28.2-11.1,36.6
	c-10,6.5-18.7,5-27.5,2.7c-8.8-2.3-11.5-2.6-15.2-0.1c-7.4,4.9-9.2,10.8-5.9,19.6c5.7,15.3,1.7,28.9-10.9,37.2
	c-9.9,6.6-18.7,5-27.5,2.7c-8.8-2.3-11.5-2.6-15.2-0.1c-6.4,4.2-9.1,13-6,19.6c1.8,3.8,0.2,8.2-3.6,10
	C418.2,3223.8,417.1,3224,416,3224z"/>
<path id="Shape_3_copy" class="st0" d="M422,653.5c0,5.8-3.4,11.1-8.6,13.6c-26.6,12.5-60.4,2.5-77-22.7
	c-12.9-19.7-8.3-37.4-3.8-54.6c4.3-16.4,4-22.5-1.4-30.8c-5.6-8.5-15.7-18.8-38.9-10.2c-30.7,11.4-57.3,3.1-74.8-23.4
	c-12.9-19.7-8.3-37.4-3.8-54.6c4.3-16.4,4-22.5-1.4-30.8c-7.4-11.2-12.9-17.1-40.2-9.7c-33.9,9.2-56.6,1.8-73.5-23.8
	c-12.9-19.7-8.3-37.4-3.8-54.6c4.3-16.5,4-22.5-1.4-30.8c-5.6-8.5-15.7-18.8-38.9-10.2c-7.8,2.9-16.4-1.1-19.3-8.8c0,0,0,0,0,0
	c-2.9-7.8,1.1-16.4,8.8-19.3c30.7-11.4,57.8-3.5,74.5,21.8c13.1,19.9,10,37.4,5.4,55c-4.6,17.6-5.1,23-0.2,30.5
	c10.6,16.1,21.5,16.5,40.6,11.4c35.3-9.5,56.5-3.1,73.2,22.2c13.1,19.9,10,37.4,5.4,55c-4.6,17.6-5.1,23-0.2,30.5
	c9.8,14.8,21.5,18.4,39.2,11.8c30.7-11.4,57.8-3.5,74.5,21.8c13.1,19.9,10,37.4,5.4,55c-4.6,17.6-5.1,23-0.2,30.5
	c8.5,12.8,26.1,18.2,39.2,12.1c7.5-3.5,16.5-0.3,20,7.2C421.5,649.1,422,651.3,422,653.5z"/>
<path class="st0" d="M1012.2,334.5c-5.6,5.6-5.9,14.4-0.9,20.4c54.7,64.8,52.1,163.5-9.4,225c-61.5,61.5-160.3,64.1-225.1,9.4
	c-6.4-5.4-15.9-4.6-21.3,1.8c-5.3,6.3-4.6,15.8,1.7,21.2c78.1,66.2,193.8,61.4,266.1-11c72.8-72.8,76.8-188.7,11-266.1
	c-5.4-6.3-15-7-21.3-1.6C1012.8,333.9,1012.5,334.2,1012.2,334.5z"/>
<path id="Shape_1_copy_3" class="st0" d="M1124.1,3160.8c-6.8,4-9.3,12.5-5.9,19.6c37,76.3,10.1,171.4-64.7,215.7
	c-74.9,44.4-171.2,22.4-220.4-46.6c-4.8-6.8-14.3-8.4-21.1-3.6c-6.8,4.8-8.4,14.2-3.6,21.1c62.9,88.5,185.7,109.2,274.2,46.3
	c78.3-55.7,104.9-159.8,62.8-246.3c-3.7-7.5-12.8-10.5-20.3-6.8C1124.8,3160.4,1124.4,3160.6,1124.1,3160.8z"/>
<path id="Shape_1_copy" class="st0" d="M1080.9,1433.3c-2.8-2.7-7.3-2.7-10.2-0.1c-31.4,28.1-80.5,28.2-112-1.4
	s-34.1-78.8-7.9-111.7c2.6-3.3,2-8-1.2-10.6c-3.2-2.6-7.9-2.1-10.5,1.1c-33.7,42.2-26.8,103.7,15.4,137.4
	c37.3,29.8,90.7,28.3,126.3-3.6c3.1-2.8,3.3-7.5,0.5-10.6C1081.2,1433.6,1081,1433.4,1080.9,1433.3z"/>
<path id="Shape_1_copy_2" class="st0" d="M728.7,2082.4c1.9-3.4,0.9-7.7-2.3-9.9c-34.8-23.8-46.6-71.5-25.3-109.1
	s68.3-51.9,106.6-34.3c3.8,1.7,8.2,0.1,10-3.7c1.7-3.7,0.1-8.1-3.6-9.9c-49-22.7-107.1-1.3-129.8,47.7
	c-20.1,43.4-5.8,94.9,33.6,121.8c3.4,2.3,8.1,1.4,10.4-2.1C728.5,2082.8,728.6,2082.6,728.7,2082.4z"/>
<path class="st0" d="M535,490c-16.6,0-30-13.4-30-30s13.4-30,30-30s30,13.4,30,30C565,476.6,551.6,490,535,490z M535,445
	c-8.3,0-15,6.7-15,15s6.7,15,15,15s15-6.7,15-15C550,451.7,543.3,445,535,445z"/>
<path id="Shape_2_copy" class="st0" d="M1306,357c-16.6,0-30-13.4-30-30s13.4-30,30-30s30,13.4,30,30
	C1336,343.6,1322.6,357,1306,357z M1306,312c-8.3,0-15,6.7-15,15s6.7,15,15,15s15-6.7,15-15C1321,318.7,1314.3,312,1306,312z"/>
<path id="Shape_2_copy_2" class="st0" d="M1111,1194c-16.6,0-30-13.4-30-30s13.4-30,30-30s30,13.4,30,30
	C1141,1180.6,1127.6,1194,1111,1194z M1111,1149c-8.3,0-15,6.7-15,15s6.7,15,15,15s15-6.7,15-15C1126,1155.7,1119.3,1149,1111,1149z
	"/>
<path id="Shape_2_copy_3" class="st0" d="M505,1578c-16.6,0-30-13.4-30-30s13.4-30,30-30s30,13.4,30,30
	C535,1564.6,521.6,1578,505,1578z M505,1533c-8.3,0-15,6.7-15,15s6.7,15,15,15c8.3,0,15-6.7,15-15l0,0
	C520,1539.7,513.3,1533,505,1533z"/>
<path id="Shape_2_copy_4" class="st0" d="M1246,1827c-16.6,0-30-13.4-30-30s13.4-30,30-30s30,13.4,30,30l0,0
	C1276,1813.6,1262.6,1827,1246,1827z M1246,1782c-8.3,0-15,6.7-15,15s6.7,15,15,15s15-6.7,15-15C1261,1788.7,1254.3,1782,1246,1782z
	"/>
<path id="Shape_2_copy_5" class="st0" d="M183,2149c-16.6,0-30-13.4-30-30s13.4-30,30-30s30,13.4,30,30
	C213,2135.6,199.6,2149,183,2149z M183,2104c-8.3,0-15,6.7-15,15s6.7,15,15,15s15-6.7,15-15C198,2110.7,191.3,2104,183,2104z"/>
<path id="Shape_2_copy_6" class="st0" d="M456,2470c-16.6,0-30-13.4-30-30s13.4-30,30-30s30,13.4,30,30l0,0
	C486,2456.6,472.6,2470,456,2470z M456,2425c-8.3,0-15,6.7-15,15s6.7,15,15,15s15-6.7,15-15C471,2431.7,464.3,2425,456,2425z"/>
<path id="Shape_2_copy_7" class="st0" d="M1082,2787c-16.6,0-30-13.4-30-30s13.4-30,30-30s30,13.4,30,30l0,0
	C1112,2773.6,1098.6,2787,1082,2787z M1082,2742c-8.3,0-15,6.7-15,15s6.7,15,15,15s15-6.7,15-15C1097,2748.7,1090.3,2742,1082,2742z
	"/>
<path id="Shape_2_copy_8" class="st0" d="M86,2939c-16.6,0-30-13.4-30-30s13.4-30,30-30s30,13.4,30,30
	C116,2925.6,102.6,2939,86,2939z M86,2894c-8.3,0-15,6.7-15,15s6.7,15,15,15s15-6.7,15-15C101,2900.7,94.3,2894,86,2894z"/>
<path id="Shape_3_copy_3" class="st0" d="M219,1622c0,2.9-1.7,5.6-4.3,6.8c-13.3,6.2-30.2,1.2-38.5-11.3c-6.5-9.8-4.1-18.7-1.9-27.2
	c2.2-8.2,2-11.2-0.7-15.4c-2.8-4.2-7.9-9.4-19.5-5.1c-15.4,5.7-28.6,1.6-37.4-11.7c-6.5-9.8-4.1-18.7-1.9-27.2
	c2.2-8.2,2-11.2-0.7-15.4c-3.7-5.6-6.4-8.6-20.1-4.9c-16.9,4.6-28.3,0.9-36.7-11.9c-6.5-9.8-4.1-18.7-1.9-27.2
	c2.2-8.2,2-11.2-0.7-15.4c-2.8-4.2-7.9-9.4-19.5-5.1c-3.9,1.4-8.2-0.5-9.7-4.4c-1.4-3.9,0.5-8.2,4.4-9.6c0,0,0,0,0,0
	c15.3-5.7,28.9-1.7,37.2,10.9c6.5,9.9,5,18.6,2.7,27.4c-2.3,8.8-2.6,11.5-0.1,15.2c5.3,8,10.8,8.2,20.3,5.7
	c17.6-4.8,28.2-1.6,36.6,11.1c6.5,9.9,5,18.6,2.7,27.4c-2.3,8.8-2.6,11.5-0.1,15.2c4.9,7.4,10.8,9.2,19.6,5.9
	c15.3-5.7,28.9-1.7,37.2,10.9c6.5,9.9,5,18.6,2.7,27.4c-2.3,8.8-2.6,11.5-0.1,15.2c4.2,6.4,13,9.1,19.6,6c3.8-1.8,8.2-0.2,10,3.6
	C218.8,1619.9,219,1620.9,219,1622z"/>
<path id="Shape_3_copy_4" class="st0" d="M1434,2636c0,5.8-3.4,11.1-8.6,13.6c-26.6,12.5-60.4,2.5-77-22.7
	c-12.9-19.7-8.3-37.4-3.8-54.6c4.3-16.4,4-22.5-1.4-30.8c-5.6-8.5-15.7-18.8-38.9-10.2c-30.7,11.4-57.3,3.1-74.8-23.4
	c-12.9-19.7-8.3-37.4-3.8-54.6c4.3-16.4,4-22.5-1.4-30.8c-7.4-11.2-12.9-17.1-40.2-9.7c-33.9,9.2-56.6,1.8-73.5-23.8
	c-12.9-19.7-8.3-37.4-3.8-54.6c4.3-16.4,4-22.5-1.4-30.8c-5.6-8.5-15.7-18.8-38.9-10.2c-7.8,2.8-16.4-1.2-19.3-9
	c-2.8-7.7,1.1-16.3,8.8-19.2c30.7-11.4,57.8-3.5,74.5,21.8c13.1,19.9,10,37.4,5.4,55c-4.6,17.6-5.1,23-0.2,30.4
	c10.6,16.1,21.5,16.5,40.6,11.4c35.2-9.5,56.4-3.1,73.2,22.2c13.1,19.9,10,37.4,5.4,55c-4.6,17.6-5.1,23-0.2,30.4
	c9.8,14.8,21.5,18.4,39.2,11.8c30.7-11.4,57.8-3.4,74.5,21.8c13.1,19.9,10,37.4,5.4,55c-4.6,17.6-5.1,23-0.2,30.5
	c8.5,12.8,26.1,18.2,39.2,12.1c7.5-3.5,16.5-0.3,20,7.2C1433.5,2631.7,1434,2633.8,1434,2636z"/>
</svg>
