<svg id="cb01faaa-4e6a-41ee-9561-2f76dc61324c" data-name="Layer 1" xmlns="http://www.w3.org/2000/svg" viewBox="0 0 152.9 180.96"><title>ear</title><g id="50511081-70f3-4190-b3cc-fbc25d91db4a" data-name="&lt;Group&gt;"><g id="4f977b91-87e5-40dd-addd-8c719364edc5" data-name="&lt;Group&gt;"><path id="2b5ba578-8b10-4d20-a853-7cef3323cec9" data-name="&lt;Compound Path&gt;" d="M11.2,14.3c-.2-.4-.1-.5.3-.8a5.53,5.53,0,0,0,1.4-1.2c.2-.5.8-.6,1.1-.9a5.55,5.55,0,0,0,.6-.8.76.76,0,0,1,.9-.2h0a4.57,4.57,0,0,1,2.6-2.1c.4-.1.5-.5.8-.7.5-.5.8-.6,1.3-.4.4-.2.3-.7.7-.9.7-.3,1.4-.7,2.1-1a17,17,0,0,1,1.4-1,9.82,9.82,0,0,0,1.8-.8c.8-.5,1.9-.7,2.6-1.4A2.14,2.14,0,0,1,30,1.7,8.26,8.26,0,0,0,32.2.9,8.81,8.81,0,0,1,33.9.7,9.67,9.67,0,0,1,37.3.2c.8.1,1.6-.1,2.4,0A20.9,20.9,0,0,0,42.2.1c1.1.1,2.2-.2,3.3,0a18.21,18.21,0,0,0,3.3.1c1.5-.2,3,.3,4.5.2a7.89,7.89,0,0,1,3,.5,7.17,7.17,0,0,0,2.1.5,17.23,17.23,0,0,1,2.1.7c1.1.3,2.1.8,3.2,1,.9.2,1.6.7,2.4.9s1.8.7,2.7,1.1a5,5,0,0,1,2.1,1.2c.1.2.7.3,1.1.5a7.1,7.1,0,0,0,1.8.8A6,6,0,0,1,76.4,9c1.4,1,3,1.9,4.5,2.8.8.5,1.6,1,2.4,1.6A11.22,11.22,0,0,1,85.5,15c1,1,2.3,1.9,3.4,2.8a37.27,37.27,0,0,0,3,2.6c.5.4.8,1,1.3,1.4a2.09,2.09,0,0,0,.6.4A4.56,4.56,0,0,1,95,23.4a12.13,12.13,0,0,1,1,1.4,14.31,14.31,0,0,0,1.9,2.4,37,37,0,0,0,2.1,3.3c.2.2,0,.5.3.8a6.45,6.45,0,0,1,1.8,2.8A8.18,8.18,0,0,0,103,36a6.07,6.07,0,0,0,.7,1,1.5,1.5,0,0,1,.4,1.1c0,.1-.1.2,0,.3.6.5.7,1.3,1.1,1.9a25.38,25.38,0,0,1,2.7,6.9c.1.5.3,1,.4,1.4,0,.2.1.3,0,.6s0,.7.6.6c-.2.3.1.7-.3,1,.3.2.4,0,.6,0,.1.5-.1.9.1,1.4.2.1.4-.1.6.1s-.2.1-.3.3.2,0,.3.1a1.13,1.13,0,0,0,.2,1.1,1.13,1.13,0,0,1,.3,1.1c-.1.8.6.9.9,1.4,0,.1-.2,0-.3.1.2.1.5.3,0,.6.9-.2.6.5.7.7a1.07,1.07,0,0,1-.5,1.1c.3.4.6-.1.8,0-.2.5-.2.5-.7.5a1.09,1.09,0,0,0-.1.5c.8.2,1.1.5.9,1.1.2.1.3.2.5.2,0,.3-.3.2-.4.3s.3.1.4.2c-.1,0-.1.1-.2.1-.4.1-.4.3-.3.6a8.52,8.52,0,0,1,.3,2.3.73.73,0,0,0,.2.6c.2.2-.1.5-.3.8.5.4.5.7.1,1,.1.2.4.1.4.4-.2,1.3.4,2.6.4,4a1.64,1.64,0,0,1-.2,1c0,.1-.1.2,0,.3a2.39,2.39,0,0,1,.4,2.1c-.2.6.3,1.2,0,1.8,0,.1.1.2.2.4a.6.6,0,0,1,0,.7c-.2.2-.3.5.1.7s.1.3.1.5c0,1-.1,2-.1,3-.2.1-.3.2-.2.5.1-.2.1-.3.2-.5.3.3.1.6.1,1-.1.6.2,1.2-.2,1.9-.1.2.2.8.2,1.2-.1,1.4.2,2.8-.2,4.1a5.93,5.93,0,0,0,0,2.3,14.92,14.92,0,0,1-.2,2.1c0,.2.1.5.1.7.1.5-.3,1-.3,1.5a15.53,15.53,0,0,1-.3,3.1c-.3,1.5-.6,2.9-.8,4.4a9.86,9.86,0,0,0-.3,2.4v.1c-.6,1.2-.3,2.6-.5,3.9a11.08,11.08,0,0,0-.2,1.9c0,.2,0,.6-.5.6.2.3.5.6,0,.9-.2.2-.1.5-.1.7a3.29,3.29,0,0,1-.6,1.9,3.18,3.18,0,0,0-.2,1.4.91.91,0,0,1-.3.7c-.1.1-.2.2-.2.3-.2,1.3-1.2,2.3-1.6,3.5-.2.7-.1,1.5-.8,2,.2,1.3-1.1,2.2-1.2,3.4-.1,1.6-1.4,2.7-1.7,4.1-.1.5-.6.9-.9,1.3,0,.1-.1.1-.2.2a13.48,13.48,0,0,1-2.2,4.3c-.5.7-1.2,1.4-1.6,2.1-.3.5-1.2.8-1.1,1.6-.6.2-.4.9-.7,1.1-.8.5-.9,1.4-1.5,2a17.68,17.68,0,0,0-1.6,2.2,6.73,6.73,0,0,1-1.4,1.5c-.9.9-1.5,2-2.4,2.8a11.51,11.51,0,0,1-1.7,1.4,7.64,7.64,0,0,0-.9.9c-.8.8-1.7,1.5-2.6,2.3l-.7.7c-1.1.9-2,2.1-3.1,2.9-.7.5-1.2,1.2-2,1.7a21.42,21.42,0,0,1-1.9,1.3c-.3.1-.3.7-.9.6h0c.1.2.3.2.5.3-.2.1-.6-.1-.6.4a1.76,1.76,0,0,1-.4-.5.86.86,0,0,0-.3.6,1,1,0,0,1-.4.5c-.6.2-1,.8-1.5,1a3,3,0,0,0-1.3.9c-.2.1-.2-.1-.3-.2-.4.8-1.4.9-1.8,1.7a.85.85,0,0,0-1.2.5,1.78,1.78,0,0,1-1.1.8,3.75,3.75,0,0,0-1.9,1.6c-.1.1-.2.3-.4.3-.6-.1-.5.2-.4.6-.4-.1-.8-.2-.9.3-.6-.2-.9.3-1.2.5-.5.3-1.1.4-1.5.9-.3.3-.6.1-1,.2,0,.3.4.1.4.3-.2.2-.4-.1-.6,0s.1.3,0,.3c-.4,0-.4-.3-.7-.5.1.7-.4.9-1,1a.91.91,0,0,0-.7.3,4.35,4.35,0,0,1-1.9,1c-.5.2-1.1.1-1.4.5a1.67,1.67,0,0,1-1.1.4c-.7,0-1.1.8-1.8.6-.2,0-.2.1-.3.2s-.2.2-.3.2c-.8-.2-1.3.5-2,.5-.2,0-.2.3-.4.3-.4-.4-.6-.2-1,.1a4.36,4.36,0,0,1-1.7.7,4.87,4.87,0,0,0-1.1.4c-.3.2-.5.1-.6-.2-.3.2-.2.5-.5.6-.3-.1-.7-.1-1.2-.2-.2.6-.6.7-1,.2-.4.4-.7.6-1,.1a3.64,3.64,0,0,1-2.7.4c-.5.6-1.1.2-1.7.3-1.3.4-2.6,0-4,0-.7,0-1.4-.3-2,0-.1.1-.3,0-.4-.1-.2-.3-.3,0-.5,0h0c-.1.4-.5.3-.7.2a6.47,6.47,0,0,0-2.4-.1c-.4.1-.6-.2-.9-.3a10.08,10.08,0,0,1-2.5-.5c-.7-.3-1.5-.2-2.2-.6a7.75,7.75,0,0,0-2.3-.6,9.87,9.87,0,0,1-2.8-1.2,7.61,7.61,0,0,0-2.1-.8c-.5-.1-.6-.4-.9-.6s-.3,0-.5,0-.1-.1-.1-.2c0-.5-.7-.3-.9-.7-.3-.6-.4-.6-1-.5-.1-.1,0-.4-.2-.4-.7,0-1.1-.6-1.8-.7a4.57,4.57,0,0,1-2-.9,10.63,10.63,0,0,1-1.1-.9.6.6,0,0,1-.1-.4h0v.1c-.6,0-1.2-.1-1.1-.7-1-.4-1.4-1.2-2.1-1.8A5.46,5.46,0,0,1,0,167c-.4,0-.7-.1-.6-.6,0-.3-.4-.3-.6-.6.4-.3-.2-.4-.2-.6l.1-.1h0a.51.51,0,0,1-.6-.5,1.68,1.68,0,0,0-.7-1.5,2.72,2.72,0,0,1-.8-1.6c0-.4-.3,0-.4-.2.6-.6-.1-1.1-.1-1.6a1.93,1.93,0,0,0-.7-1.5c.1-.2.3-.1.4-.2a15.67,15.67,0,0,1-.5-3c0-.2.3-.1.3-.3-.1,0-.2-.1-.3-.1a5.79,5.79,0,0,1,.3-2.9c-.1-.1-.3.2-.4,0,.1-.2.5-.1.6-.4s-.3,0-.4-.1a3.36,3.36,0,0,1,.4-2.4,3.33,3.33,0,0,0,.1-1.4c-.1-.5.3-.8.4-1.2a18.24,18.24,0,0,0,.7-2.5h0l-.1.1c-.1,0-.1-.1-.1-.2a3.33,3.33,0,0,0,.9-2.1,1.34,1.34,0,0,1,.6-.7c-.1-.1-.2-.1-.3-.2.5-.2.4-.8.5-1.1a17.38,17.38,0,0,1,1-1.9,1.21,1.21,0,0,1,.5-.5,1.9,1.9,0,0,0,.8-1.5c.1-.3.2-.5.5-.6,0-.2-.3-.1-.3-.2a2.27,2.27,0,0,0,1.1-1.6c.1-.2.4-.4.4-.6.4,0,.2-.3.3-.4.3-.2.2-.8.8-.8.2,0,.2-.6.4-1a19.17,19.17,0,0,1,1.8-2.2c.6-.7,1.4-1.3,1.9-2a1.37,1.37,0,0,1,.8-.5c.5-.3.5-1.2,1.4-1h0l-.1-.1c0-.5.6-.7.8-1.1s.9-.9,1.3-1.3A14.46,14.46,0,0,1,14,120c.2-.2.2-.5.3-.6.3-.2.6.1.9-.1-.4-.5.2-.9.4-.9.4-.1.4-.5.7-.7a.1.1,0,0,0,.1-.1c-.2-1,.9-1.4,1-2.2,0-.3.4-.3.6-.4,0-.2-.2-.1-.3-.3.5-.4.5-1.3,1-1.7s.3-1.3,1-1.7c.2-.1,0-.2-.2-.2h0c.1-.5.1-1,.8-1.2,0-.3-.2-.2-.4-.3.3-.5.5-1.1.8-1.6a4.76,4.76,0,0,0,.5-1.4c.1-.3.3-.5,0-.8s.2-.4.4-.5c-.1,0-.2-.1-.4-.1,0-.3.3-.3.5-.4-.5-.3-.2-1.7.4-2.1,0-.2-.2-.1-.2-.2.1-.9-.2-1.8-.1-2.7.1-.6-.1-.8-.5-1.2.2-.3.5-.4.6-.7-.1-.3-.4-.1-.6-.3s.2-.1.2-.3c-.2-.1-.5-.2-.3-.5a.47.47,0,0,0-.1-.6l-.1-.1c.2-.6-.2-1-.3-1.5a11.76,11.76,0,0,0-.7-2c-.3-.4-.3-.7.2-.9-.3-.5-.8-.8-.9-1.4a2.89,2.89,0,0,0-.9-1.6,5.93,5.93,0,0,1-1.2-2c-.1-.2-.3-.3-.4-.5.2-.5-.3-.8-.6-1.2s-.9-.4-.7-1h0c-.7-.5-.9-1.3-1.4-1.9a10.1,10.1,0,0,1-1.3-1.6c-.2-.4-.2-.9-.6-1.2a2.9,2.9,0,0,1-.9-1.5c-.1-.2-.4,0-.6-.4a9,9,0,0,0-1.4-2c-.1-.1-.4-.5.1-.7-.6-.1-.9-.3-.8-.9,0-.2-.5-.7-.8-.9a1,1,0,0,1-.4-.5,5.94,5.94,0,0,0-1.3-1.8,5.42,5.42,0,0,1-.6-1.1c-.2-.3-.2-.7-.6-.9a.71.71,0,0,1-.3-.6,3.54,3.54,0,0,0-1.4-2.4c-.3-.2-.1-.5-.2-.7v0c-.3-.2-.4-.6-.6-.9s-.2-.8-.7-1.1c-.2-.1.1-.2.1-.2,0-.2.1-.4-.2-.5-.1,0-.2-.1-.2-.3A4.38,4.38,0,0,0,.7,60a1.8,1.8,0,0,1-.2-1c-.1-.7-.8-1.2-.5-1.9.1-.2-.4-.2-.1-.4l.1-.1c-.5-.3-.7-.8-.3-1.2-.1-.2-.3,0-.4-.2.3-.2.3-.5.6-.8-.4-.1-.7-.2-.6-.7.1-.3-.2-.4-.3-.5a1.69,1.69,0,0,1-.1-1.4c-.1-.1-.3.1-.4,0a5,5,0,0,1,.1-2.1h-.4c.1-.2.2-.5-.2-.6.1-.3.4-.1.6-.3-.5-.3.1-.9-.2-1.3a1.48,1.48,0,0,1-.2-1.3.65.65,0,0,0-.5-.2c0-.3.3-.1.4-.3-.4-.4.1-.9-.3-1.3.1-.2.3.1.4-.1a3.12,3.12,0,0,1,.3-2.8c-.8-.2.2-.9-.2-1.1.3-1,.1-2,.8-2.7-.1-.4-.4-.1-.5-.3.1-.2.3-.2.5-.3-.1-.1-.4-.1-.3-.3s.4.1.6.2c.2-.3-.2-.4-.3-.6s.3-.1.4-.3c-.2-.2,0-.6-.4-.8.2-.2.4,0,.6-.3a5.72,5.72,0,0,1-.1-1.4c.1-.1.4.1.5-.2,0-.1-.2,0-.3-.1.8-.7.8-1.8,1.4-2.5-.4-.8.4-1.4.4-2.2.2-.1.4.2.6,0-.2-.3-.7-.7,0-1-.2-1.3,1.1-1.9,1.5-2.9A9.8,9.8,0,0,1,5,22.5a.73.73,0,0,1,.6-.2c0-.7.4-1.4.8-1.4.1-.1-.3-.3,0-.5a.76.76,0,0,0,.3-.8c-.1-.2.2-.1.3-.2H7c-.1-.1-.2-.3-.1-.4a14.91,14.91,0,0,0,1.5-2c.7-.9,1.4-1.7,2.2-2.6.2-.2.4,0,.6-.1Zm65.6,61a.37.37,0,0,0-.1.3c-.4-.1-.9-.3-1.3-.4.1-.7,0-.7-1.1-.8a.83.83,0,0,1-.9-1c.2-.7.1-.8-.7-.9,0,.1-.1.2-.1.4s-.1.7-.5.5-.2-.5-.1-.7.1-.1.1-.2c-.1-.3-.1-.5-.4-.6s-.3.2-.3.3c-.5,0-.6-.5-1.2-.4-1,.3-1,.2-1.6-.6s-.9-.7-1.4-.1a.31.31,0,0,0-.2.1c-.1-.5-.4-.4-.8-.3s-1.1,0-1.3.6a.35.35,0,0,1-.2.1c-.8,0-.7.4-.4.8-.2.2-.3-.2-.5,0-.2.8.8.4,1,.9h-.6c.3.2.5.7.9.5a.82.82,0,0,1,.7.1,9.5,9.5,0,0,0,1.7,1A7.68,7.68,0,0,1,70,76.3c.1,0,.1-.3.3-.2.2.7.1.7.9.6a1.17,1.17,0,0,0,1,.9c.6.1.1.3.1.5a13.08,13.08,0,0,1,2.3,2.4c.2.3.3.6.5.9.3.5.9.9,1,1.5h0v-.1c.5.5.3,1.1.4,1.7a8.78,8.78,0,0,0,.7,2.3c.3.7.1,1.6.8,2.2.2.2.4.7.7,1a.52.52,0,0,0,.4.2c.3-.1,0-.3.2-.4.1.3.4.3.6.4a6,6,0,0,1,1.5-.9,1.43,1.43,0,0,0,1.1-.5,1.13,1.13,0,0,0-.2-1.9c.1-.3.2-.6.7-.5.1-.5-.4-.9-.1-1.4-.2-.2-.3.1-.5-.1a10.48,10.48,0,0,0-.1-2.5c.1,0,.2.1.1-.1l-.1.1c-.2-.1-.2-.2-.1-.4.1-.6-.5-.8-.6-1.3-.1.2,0,.5-.3.7a2.84,2.84,0,0,1-.9-1.7c.4.1.5-.1.8-.3-1.2,0-.8-.8-1-1.3-.4.1-.5.3-.6.7-.4-1.1-1.7-1.3-2.4-2.2.1-.4-.5-.8-.5-1.3.1.2.1.1.1,0ZM17.2,117.2c-.1,0-.2-.1-.2.1.1,0,.1-.1.2-.1ZM67.1,78.5c0,.1-.2.2,0,.4.2-.2.5-.3,0-.4-.1-.4-.3-.2-.7-.2.2.2,0,.4,0,.6C66.8,78.9,66.8,78.5,67.1,78.5Zm9,58.1c-.5.2-.3.4-.1.6s.4.5.3.9.1.5.4.5.7-.1.6-.5a4.33,4.33,0,0,1-.1-.5c.6.1.3-.4.5-.6s.3.2.5.1a9.22,9.22,0,0,1,.5-.8c.4-.3.7-.7.4-1.2s-1.1-1.3-1.7-1.3-.5.6-.6.9c0,.1-.1.2-.2.3-.1.6-.8.9-.5,1.6ZM43.8,21.3h0c-.1.1-.2,0-.3.1-.5.1-1.1-.4-1.5.3-.4-.5-.7,0-.9.2l-.6-.3c-.2.2-.2.5-.5.3-.7-.3-1.2.1-1.8.2-.4.1-.5.5-.9.5a4.76,4.76,0,0,0-2.3.7,4.7,4.7,0,0,1-.9.6,5,5,0,0,0-1.3.4A24.37,24.37,0,0,1,30,25.7a12.11,12.11,0,0,0-2.8,1.8c-1.2.9-1.6,2.2-2.7,3.2a4.19,4.19,0,0,0-1.1,1.6h0a3.41,3.41,0,0,1-1.1,1.8c-.5.4-.5,1.2-.9,1.8-.1.2.2.3.3.4-.8.1-.6.7-.6,1s-.2.8.1,1.3c-.2.1-.4.1-.6.2a3.94,3.94,0,0,0-.1,2.4,1.69,1.69,0,0,1-.1,1.4,2.79,2.79,0,0,0-.1,1.8c0,.2-.3.5,0,.6.4.3.1.6,0,.8a.76.76,0,0,0-.2.4,4.53,4.53,0,0,1,.3,1.6,4.92,4.92,0,0,0,.6,1.7c.2.5,0,.9.2,1.3.7,1.3.9,2.7,1.8,3.9.1.1.3.2.3.4a7.58,7.58,0,0,0,1.9,3.2c.1,0,.1.2.1.2-.1.3.1.5.3.7.7,1,1.2,2.1,2,3.1a13.73,13.73,0,0,1,1.3,2c.5.9,1.5,1.5,1.8,2.6,0,.2.1.8.7.8h0a3.77,3.77,0,0,1,.9,1.5,2.47,2.47,0,0,0,.4.9,9.66,9.66,0,0,1,2.2,3.2c.3.5.3,1.1.8,1.5a4.72,4.72,0,0,0,1,2A12,12,0,0,1,38,79.9a17.55,17.55,0,0,1,1.2,3.2c.2,1,.6,2,.8,3,.1.5.1,1.1.8,1.4-.2.6-.2.6.2,1.2.2.3.2.5-.3.5h.1l.1.1c.1.8.5,1.6.2,2.4.3.3.4.3.6.3h0c-.1.7.2,1.4,0,2.1a13.59,13.59,0,0,0-.7,3.5,4.16,4.16,0,0,1-.2,2.2,7.27,7.27,0,0,0-.6,2.1c-.3,1.2-.9,2.3-1.3,3.5-.2.5-.7.9-.4,1.5h-.4c0,.3.3.5,0,.7a4.92,4.92,0,0,0-1,1.5c-1,1.6-1.5,3.4-2.5,4.9-.4.7-.4,1.5-.9,2.1a20.71,20.71,0,0,0-1.7,2.4c-.2.3-.2.7-.6.9a4.15,4.15,0,0,0-1.1,1.2c-1.2,1.4-2.3,2.8-3.5,4.2a9.43,9.43,0,0,0-1,1,8.23,8.23,0,0,1-1.6,2.2c-.7.6-1,1.4-1.7,2a26.92,26.92,0,0,0-2.7,3.2,20.51,20.51,0,0,0-2.4,3.6,7.94,7.94,0,0,0-1,2.7c-.2.7.2,1.4-.3,2-.1.1.1.2.1.4a4,4,0,0,0,.7,1.8,9.41,9.41,0,0,0,1.2,2.2c1.1,1.1,2.3,2.3,4.2,2.3h0l.1-.1c.3.4.4-.3.7-.1a.65.65,0,0,0,1.1,0,.63.63,0,0,0,.8.3,12.23,12.23,0,0,1,1.7-.3c.8.1,1.5-.4,2.3-.4a6.31,6.31,0,0,0,2.3-.8c.3-.1.7-.1.9-.4h0a1.49,1.49,0,0,0,.9-.4c.6-.4.8-1.1,1.5-1.3a3.14,3.14,0,0,0,1.4-1.1,11.86,11.86,0,0,0,2.6-3.3c0-.1.2-.2.2-.2.4.1.4-.2.5-.4s.4-.5.6-.8.5-.5.3-.9c-.3-.6.3-.4.5-.5v-.1c0-.4.3-.7.4-1a14,14,0,0,1,1-1.6,4,4,0,0,0,.7-1.8.67.67,0,0,1,.4-.7.73.73,0,0,0,.6-.8,1.43,1.43,0,0,1,.6-1.2c.8-.5,1.1-1.4,1.7-2a1.28,1.28,0,0,0,.4-1,.64.64,0,0,1,.5-.7,3.17,3.17,0,0,0,.6-.5c.5-.5.9-1,1.4-1.5.8-.8,1.7-1.4,2.5-2.2.6-.6,1.3-1.2,2-1.8l.2-.2a12,12,0,0,0,2.8-1.3c.7-.3,1.1-.9,1.8-1.2.3-.1.7.1.9-.3s.4-.4.7-.6.9-.3,1.1-.8l.2-.1c.4,0,.5-.2.7-.4s.2-.4.5-.5c.8-.2,1.2-1,1.9-1.3s1.1-1,1.7-1.4c1.2-.8,1.7-2,2.8-2.7.1-.1.2-.2.1-.3-.1-.4-.1-.5.4-.7a1.08,1.08,0,0,0,.7-1.1c0-.2,0-.5.1-.5.8-.1.6-.8.8-1.2.1-.2-.1-.6.4-.7s.5-.4.5-.7a2.05,2.05,0,0,1,.5-1.7c.1-.2.4-.3.3-.5h0l-.1.1a.76.76,0,0,1-.5-.2c.1-.5.5-.1.8-.3.5-.3,0-.7.2-1.1.6-.7.5-1.7.8-2.5.2-.6.1-1-.7-1.1.2-.4.9-.2.8-.8-.2-.1-.6,0-.6-.3a.22.22,0,0,1,.2-.2c.5-.1.5-.3.3-.7a6.47,6.47,0,0,1-.4-1.3.1.1,0,0,0,.1-.1c.1.1.1.3.2.5.1-.2.4-.3.3-.4-.2-.4-.2-1-.8-1.2a2.34,2.34,0,0,1,.7-.7c-.7-.3-.1-.9-.3-1.2-.4-.2-.4.3-.7.2,0-.2.2-.4,0-.6-.2,0-.2.2-.4.2.2-.6-.4-1.3.1-1.9.2-.1.4.2.6,0s-.3-.5-.1-.9c-.2.2-.4-.1-.6.1s.3.2.2.4c-.2-.1-.4,0-.6-.2.3-.4,0-1,.1-1.4s-.4-.9-.1-1.4c-.2-.1-.4.1-.6,0a1.11,1.11,0,0,0-.6-1.6c.5-.2.3-.5.2-.8a.79.79,0,0,0-.8-.5c.2-.3.5,0,.7-.2a.89.89,0,0,1-.5-.8c-.2.3-.2.5-.3.6-.7-.1-.7-.1-.1-.9-.6,0-.2-.7-.6-.8-.6-.2-.8-1-1.7-.8l-.2-.2c-.5-.6-.6-.5-.9.1-.8-.7-.8-.7-.9-1.4-.2-.2-.4.1-.6,0s0-.4-.2-.5c-.5.2-.9-.1-1-.8s-.6-.6-1-.8-.1.4-.4.6c-.5-.3-1.1-.4-1.1-1.2a1.22,1.22,0,0,0-.9.3c-.3.2-.4.3-.5-.2,0-.2-.3-.5-.5-.3a.62.62,0,0,1-.9-.1c-.4-.4-1.1-.1-1.5-.6H57c-.4.6-.6,0-1-.2a1.18,1.18,0,0,1-1.7.3c-.4-.1-.8-.3-1.2-.1a2.17,2.17,0,0,1-2.2.2c-.2-.1-.5-.2-.6,0a.5.5,0,0,1-.7.1c-.7-.3-1.4.1-2.1.1s-1.1.4-1.7.4a3.86,3.86,0,0,0-2,.6c.1-.7-1.4-.7-.7-1.6-.6-.3-1.3-.2-1.7-.6,0-.2.3-.1.3-.3-.6-.1-.2-.6-.4-1h0a.9.9,0,0,0,.5-.1c-.2-.5-.4-1-1.1-1.1-.2,0-.3-.3-.3-.4a1.17,1.17,0,0,0-.9-1.1c.1-.2.2-.1.4-.1h-.1c0-.4-.5-.3-.7-.5a1.1,1.1,0,0,0,0-.8h0a3.54,3.54,0,0,0,.6.1c-.5-.5-.4-1.2-1.2-1.3-.2,0-.5-.1-.5-.4s-.3-.5-.4-.8c.2,0,.4,0,.4-.3s-.2-.3-.4-.4c0,.2.1.5,0,.7-.7-.2-.9-.7-.5-1.2-.7-.4-.8-1.2-1-1.8-.2-.4-.3-.8-.6-1s-.4,0-.5-.2c-.1-.8-.9-1.1-1.2-1.8-.3-.5-.4-1.1-1-1.5a.55.55,0,0,1-.3-.5.9.9,0,0,0-.6-.6c-.2.2.2.6-.3.6V57c.1-.1.3.2.4-.1-.5-.2-.6-.7-.8-1s-.1-.6-.5-.6c-.9,0-.3-1.2-1.2-1.3h0c0-.3.3-.1.3-.1-.2-1.4-.5-2.6-1.9-3.3-.1-.3.5-.2.3-.5s-.6.1-.9-.3c.6-.6-.4-.5-.5-.8.2-.2.8-.2.5-.7a.62.62,0,0,1-.7.1,2.77,2.77,0,0,0-.3-2h0c0-.2-.1-.4.2-.6.2.1.4.3.7.2.1-.5-.2-.9-.3-1.3,0-.2-.1-.8-.7-.8-.3,0-.5-.5-.4-.8s.4.1.6-.1a9.46,9.46,0,0,1-.5-1.8c.5.2.5-.1.6-.4.3-.8-.3-1.7.2-2.5a.85.85,0,0,0,0-.7c-.5-.8,0-1.1.6-1.5a1.21,1.21,0,0,0,.5-.5,2.19,2.19,0,0,1,.8-2.6,2.26,2.26,0,0,0,1.5-1.9.55.55,0,0,1,.3-.5c.7-.4,1.1-1.1,1.8-1.5a9.17,9.17,0,0,1,2.1-1.3c.7-.1,1-.7,1.6-.9,1.1-.4,2.1-.8,3.1-1.2a10.16,10.16,0,0,1,3.4-.6c1.2-.1,2.4-.1,3.5-.2a13.33,13.33,0,0,1,2,0,7.46,7.46,0,0,1,2.6.4c1.2.4,2.5.7,3.6,1.2.8.3,1.6.9,2.4,1.3a11.61,11.61,0,0,1,2.2,1.3c.3.2.6.5.9.7a8.26,8.26,0,0,1,2.2,1.4c.4.4,1,.6,1.4,1,.8.7,1.4,1.5,2.2,2.1s1.4,1.5,2.4,2.1a9.24,9.24,0,0,1,1.4,1.4,5.73,5.73,0,0,0,1.9,1l.1.1h0c.3-.2.4,0,.5.2s0,.2.2.2c.7-.1.5.4.5.7,0,.1-.1.3,0,.3.7.2.6,1.2,1.4,1.3.3,0,.1.3.2.5.3-.2.6.1,1,0a2.86,2.86,0,0,0,.1,1.6c.3,0,.6-.1.8,0-.1.2-.1.3-.2.4h0V44c.2.1.3.3.4.4.3.5.5.4.9-.1a17.16,17.16,0,0,0,.4,2.4c.2,0,.4-.2.5-.1.5.3,0,.8.4.9s.9.5.9,1a.22.22,0,0,0,.2.2.43.43,0,0,1,.4.6c-.2.3,0,.4.1.5a9.31,9.31,0,0,1,1.8,2.6c.2-.1.4,0,.5-.2-.1-.2-.4,0-.4-.3.5-.1,1.2.3,1.1.6-.1.1-.3,0-.3.2a3.7,3.7,0,0,0,1.9,3.4c-.9.3,0,.9-.4,1.3a1.27,1.27,0,0,0,.6.1.6.6,0,0,0,.1.4c0,.5.5.9.4,1.3-.1.7.5.9.8,1.1.7.4,1,.8.8,1.5a.63.63,0,0,0,.1.7c.2-.2.2-.4.3-.6.3.3.4.5,0,.8-.1.1-.2.3-.3.4v0c.2.1.3.1.5.2-.3.8.1,1.5.2,2.3.2,0,.5-.3.6,0s-.1.7.1,1a5.39,5.39,0,0,0,.3,1c.1,0,.1,0,.1-.1.1-.3.4-.6.7-.4s.1.4,0,.6,0,.6,0,.9c.6-.6.6-.6.7-.1-.3.1-.7-.2-.8.2s-.4,1-.1,1.6c.4-.2,0-.5.1-.7s.5-.2.6.1-.1.6-.4.8c.3,0,.8,0,.7.3-.1.5.5.9,0,1.4-.1.1.1.5.5.7,0-.4-.3-.9.5-1a1.48,1.48,0,0,0,0,1.3c0,.1.1.2,0,.2-.5.2-.1.4-.1.7.2-.1.1-.3.2-.3.1.4.5.9-.3,1.2a.9.9,0,0,0,.5.1c-.4.7-.2,1.2.9,1.9-.8-.3-.3.3-.6.3-.8.1-.1.7-.4,1,.7.3.1,1,.5,1.4.2.2.1.6.7.6a.63.63,0,0,0-.3.9c.1.2.4.6-.1.8,0-.1.1-.3-.2-.3-.1.2.1.2.2.3a2.3,2.3,0,0,0,.4,1.4c.2.4.1.5-.2.7a1.59,1.59,0,0,0-.9-.9c.1.3.1.5.3.6.4.4.7.8.3,1.3s-.3.9-.4,1.4c-.1,0-.2.1,0,.2v-.2a.27.27,0,0,1,.3.3c-.1.9-.1.9.8,1a1.6,1.6,0,0,0-.4,1.5c.3-.4.6-.3.7.1.1.2.2.5-.1.7s-.2.4-.1.6.1.5,0,.9-.7.8-.4,1.3c.3-.1.4-.4.7-.4a1.48,1.48,0,0,1,.1.7c-.7.1-.9.3-.6,1,.1.2,0,.3,0,.4a1.15,1.15,0,0,0,.1,1c-.1.2-.4.1-.5.4s.4.5.7.6h0c0,.4-.5.1-.5.5.7.4.7.6.2,1,.1.1.4,0,.4.3-.7-.1-.9.2-.6.8v.3a14.08,14.08,0,0,0-.1,2,1.59,1.59,0,0,1-.4,1.2c.2.1.3.9.1,1s-.3,0-.4-.1.1-.3-.3-.2a1.09,1.09,0,0,1-.3,1.3v.1c.3.6,0,1.2.2,1.7.2.9.1,1-.7.9.1.7-.3,1.3-.4,2s-.5,1.2-.1,1.8h0c-.4,0-.5.1-.5.5,0,.2.1.5-.1.7-.4.3-.3.7-.3,1a.84.84,0,0,1-.2.7c.1.3.4.1.5.4-.3,0-.3.3-.5.4s-.2-.3-.5-.2a1.42,1.42,0,0,1-.2.6c-.1.3-.4.6-.3.9s-.2.8,0,1.3a.32.32,0,0,1-.3.3c-.7,0-.7.5-.9.9a5,5,0,0,0-.3,1.3c-.6.1-.7.2-.4.9a3.93,3.93,0,0,0-1.3,2.9c-.5-.1-.8.1-.7.6a1,1,0,0,1-.3,1.2c-.2,0-.1-.4-.5-.3,0,.4-.7.6-.3,1.1h0c-.1,0-.3,0-.3.1-.4.7-1.1,1.3-1.1,2.2a.63.63,0,0,1-.5.6c-.1.1-.4.2-.4.3.1.7-.9,1.1-.6,1.9.8.4.8.4.7.8-.2,0-.4-.3-.6.1,0-.4-.1-.6-.5-.7-.7.3-.9.9-1.3,1.3s-.1,1.1.6,1.2c.1-.2-.3-.3-.1-.5a3.64,3.64,0,0,1,1.4,1.6,1.22,1.22,0,0,0,.4-.9c.2-.1.5,0,.6-.4a2.43,2.43,0,0,1,1-1.3.62.62,0,0,0,.4-.6c0-.3.2-.4.4-.6a2.92,2.92,0,0,0,1.1-2.1c.8,0,.6-1,1.3-1.2,0-.8,1-1.1,1.2-1.8.1-.4.8-.6.3-1.1-.1-.1,0-.2.2-.3a1.77,1.77,0,0,0,.9-1.7c.3.2.3.2.4.1.4-.3.1-.6,0-1,.7.1.1-.5.4-.6h0c.1-.1.3.1.4-.1.3-.6.6-1.3.9-1.9a13.31,13.31,0,0,0,1.5-3.2c.3-1.3,1.2-2.5,1.1-3.9a.72.72,0,0,1,.4-.6h0a.92.92,0,0,1-.1-1h0a1,1,0,0,0,.7-1.1.9.9,0,0,1,.1-.5,2.08,2.08,0,0,0,.5-2c.3.1.4,0,.4-.2a9.26,9.26,0,0,1,.4-2.3c.2-.5-.1-.9.1-1.4a2.1,2.1,0,0,0,.2-1.4.45.45,0,0,1,0-.5,3.54,3.54,0,0,0,.3-1.1c-.2-.1-.4.2-.5-.2.5-.2.9-.6.7-1.1s.1-.8-.2-1.2a.25.25,0,0,1,.1-.4c.4-.2.4-.3.3-.5s-.2-.2-.1-.3c.4-.6.2-1.2.2-1.9a1.23,1.23,0,0,1,1.2-.2,10.68,10.68,0,0,1-.1-2.5,12.79,12.79,0,0,0,.1-3.4,8.55,8.55,0,0,1,0-1.6c0-.6-.3-1.1-.2-1.6a15.06,15.06,0,0,0-.2-3.7c0-.6-.4-1.1-.5-1.7-.1-.9-.1-1.8-.2-2.6-.1-.5-.1-1.1-.2-1.6a26.35,26.35,0,0,1-.7-3c0-.6.2-1.2-.2-1.7a.78.78,0,0,1-.2-.8c.1-1-.4-1.8-.5-2.8a27.58,27.58,0,0,0-.8-2.7c-.1-.2-.4-.2-.4-.6a2.32,2.32,0,0,0-.4-1.8c-.2-.3-.5-.6-.5-.9h0c.1,0,.2,0,.2-.2a15.39,15.39,0,0,1-.8-1.9c-.3-1-1.1-1.8-1.3-2.8a3.1,3.1,0,0,0-.6-1.3,5.3,5.3,0,0,1-.6-1c-.3-.6-.2-1.4-1.1-1.8a.89.89,0,0,1-.4-.8c0-.8-.8-1.3-1-2-.1-.5-.7-.8-.9-1.3a10.09,10.09,0,0,0-1.5-2.1,19.22,19.22,0,0,1-1.3-1.7,2.19,2.19,0,0,0-.3-.5c-.9-1-1.9-1.9-2.7-2.9-1.5-1.8-3.2-3.4-4.8-5.1-.4-.4-1-.6-1.1-1.1s-.3-.5-.4-.7c-.2.1,0,.4-.4.3.4-.6-.3-.8-.5-1.1h0c-.1-.3-.2-.6-.6-.5-.2,0-.2-.1-.3-.1a22,22,0,0,0-2.3-2c-.3-.2-1.1-.2-.8-1l-.2-.2c-.8-.3-1.3-1.2-2.4-.9a.1.1,0,0,1-.1-.1c.2-.8-.9-1.8-1.9-1.7,0-.4-.8-1.1-1.2-1.1a.53.53,0,0,1-.7-.4,2.28,2.28,0,0,0-.8-.9c-.9-.5-1.9-.3-2.8-.7-.2-.7-1-.9-1.6-1.2-.1.1-.1.2-.2.4-.1-.7-1-.7-1.4-1a3.77,3.77,0,0,0-2.4-.2c0-.6-.5-.5-1-.5a15.44,15.44,0,0,1-3-.4c-.5-.2-.7.4-1.2.1s-.7-.1-.8.4c-.5-.5-.5-.5-1.5-.4-.4,0-.8-.1-1.1.3A2.51,2.51,0,0,1,43.8,21.3ZM74,139.1c.3.4.5.4.7.2s.4.1.3.1c-.3.2,0,.5-.2.8.1-.5.9.1.9-.5,0-.3-.1-.7-.9-.9,1.2-.3.9-.9.7-1.5-.4,0-.5.2-.6.5s.2.2.3.3C74.7,138.3,74.8,139.2,74,139.1Zm-.9,2.4c.3-.3.5-.2.8,0a1.06,1.06,0,0,0,.2-1.3c.1-.2.4,0,.4-.4-.3-.2-.6,0-.9.1.2.4.6.7,0,1.1-.2,0-.3-.3-.5-.1A.44.44,0,0,0,73.1,141.5ZM90.8,77.6c.5-.3.5-.8.6-1.5C90.8,76.6,91.1,77.2,90.8,77.6ZM73.3,89.5c-.7.3-.7.4.1.9C73.7,90,72.9,89.9,73.3,89.5ZM91.5,79.1c0-.2.1-.4-.1-.6s-.3-.1-.4.2C91,78.8,91.2,79,91.5,79.1Zm-13-1.7c0-.1,0-.1-.1-.1h-.1a.1.1,0,0,0,.1.1C78.4,77.5,78.5,77.4,78.5,77.4Zm-1.3-1.8c0-.1.1-.1,0,0,0-.1,0-.1-.1-.1s-.1.1,0,.1ZM76,75.1c0-.1-.1-.1,0,0Z" transform="translate(4.8 -0.03)"/><path id="cc0f820c-5736-458d-9b4b-96e4cc649d3b" data-name="&lt;Compound Path&gt;" d="M135.4,26.1c-.2,0-.4-.1-.6-.1-.2.9-1,1.2-1.9,1.4.4.6-.3.8-.3,1.3-.6-.4-.8-.2-.9.3-.1.7-.9.9-1.4,1.3-.3.2-.3-.3-.6-.2a18.48,18.48,0,0,1-1.4,1.4c-.3.2-.6.6-1,.1a4.9,4.9,0,0,1-1.7,1.8c-1,.7-2.2,1.1-3.2,1.8-.2.1-.8.6-1-.1l.1-.1-.1.1c-.3,0-.5,0-.6.3-.3.9-1.2.9-2,1.1a3.18,3.18,0,0,1-1.3.2c-.6-.3-1.4-.4-1.8-1.1-.2-.3-.7-.8.2-1,.2,0-.1-.4.2-.4-.1-.3-.3-.2-.5-.4.5-.1.5-.6.8-.8,1.5-.9,2.5-2.3,3.9-3.2a9.24,9.24,0,0,0,2.2-1.7c.6-.6,1.3-1.1,1.9-1.7.3-.2.5-.5.9-.6a2.77,2.77,0,0,0,1.6-1.4,2.73,2.73,0,0,1,1.2-.9c.7-.4,1.1-1,1.9-1.3a2.53,2.53,0,0,1,1.7-.2c.4.2.7,0,.9,0,1.1.7,2.6.5,3.3,1.8a.31.31,0,0,0-.2.4c.2.3.6.2.9.4.1.1,0,.2-.1.4-.2,0-.1-.4-.5-.2.4.4-.2.8-.6,1.3Zm-3.2,1.7c-.2,0-.3.1-.1.3C132.1,28,132.2,27.9,132.2,27.8Z" transform="translate(4.8 -0.03)"/><path id="f6c7eceb-79d5-4073-9945-78b3d6e6342a" data-name="&lt;Path&gt;" d="M104.1,179.5a3.6,3.6,0,0,1-4.4-.1c-.2-.1-.4-.6-.7-.1a27.25,27.25,0,0,1-2.3-2.5c-.5-.6-1.3-1-1.5-1.6-.3-.8-1.1-1.2-1.6-1.7a28,28,0,0,1-2.5-3.5,9.62,9.62,0,0,0-1.8-2.2c-.3-.2-.1-1.4.2-1.7a3.14,3.14,0,0,1,3.1-.2,2.17,2.17,0,0,0,1.4.5c.4.1.3.6.7.8.4-.5.7-.2.9.1a9,9,0,0,0,1.6,1.8.4.4,0,0,1,.1.5,1.93,1.93,0,0,0,0,1.3c.3-.3.6-.5.9,0s.3,1,.8,1.3c.1.1,0,.1,0,.2s0,.5.1.5c.8.1,1,.6,1.2,1.1.1.3.6.4.6.8l-.1.1h0c0-.1.1-.1.1-.2.2.1.4-.1.5-.1.2.2,0,.3-.1.4.6,0,1,.1,1,.7a1,1,0,0,0,.1.3c.7-.2.5.8,1.1.7,0,.5.8.5.8,1.1a.45.45,0,0,0,.3.3c.5.1.5.5.6.9-.6.1-.7.6-1.1.5,0-.1,0-.2-.1-.2l-.1.1A.31.31,0,0,1,104.1,179.5Z" transform="translate(4.8 -0.03)"/><path id="698098e6-be08-4c87-872b-85df699aa51a" data-name="&lt;Path&gt;" d="M127,92.9c-.8.3-.8.2-1.5-1.2.3-.2.6-.3.9-.5-.1-.3-.6-.4-.3-.9s.6-.6,1-.5c1.1.2,2.2-.3,3.3-.2,1.5.2,3-.1,4.5,0,1,.1,2.1-.3,3.1.2,2-.4,3.9,0,5.8.1a3.19,3.19,0,0,1,2.4.8c.3-.2.7-.4,1,0a1.05,1.05,0,0,0,.9.5c0,.3-.2.4-.1.7.3.7-.2,1.4-.6,1.9a2.4,2.4,0,0,1-1.5.2,13.61,13.61,0,0,0-2.1.2,45.33,45.33,0,0,1-5.2-.3c-1.1-.2-2.1,0-3.2-.1a18.48,18.48,0,0,0-2.3.1c-1.1-.1-2.1.1-3.2,0a6.34,6.34,0,0,0-2.4-.3C127.3,93.6,127.3,93.1,127,92.9Z" transform="translate(4.8 -0.03)"/><path id="94ee03c1-0b3b-4371-866f-422456df9f14" data-name="&lt;Path&gt;" d="M133,27.4Z" transform="translate(4.8 -0.03)"/><path id="f361c3b8-fa5c-42e4-b2bd-7d1993bbd50a" data-name="&lt;Path&gt;" d="M19.7,111.1Z" transform="translate(4.8 -0.03)"/><path id="1be0ebbb-8497-46cf-845b-e964aef1a2ba" data-name="&lt;Path&gt;" d="M47.6,89.3c-.1-.1-.2-.3-.4-.5-.2.2-.3.6-.6.2,0-.1.2-.2.3-.3s0-.5-.3-.4c-.5.2-.5-.3-.5-.4.1-.8-.3-1.7,0-2.5.2-.5-.2-1.1-.8-1.4l.5-.5c.1.4.2.8.7.8a1.5,1.5,0,0,0-1.3-1.5h0c-.1-.6.5,0,.6-.3,0-.6-.9-.7-1-1.2h0c.2,0,.5.1.6-.1a1.4,1.4,0,0,0,0-1.1c-.4.1-.5.7-1.1.5-.3-1.2.5-1.9,1.9-1.7a3.61,3.61,0,0,0,1.8-.3c1-.3,2,0,2.9-.4.2-.1.3.4.5.3.5-.4,1,.1,1.4,0a4.3,4.3,0,0,1,1.6,0c.2,0,.3-.2.5-.3s0,.3.3.3c1-.1,1.8.4,2.7.4a2.84,2.84,0,0,1,1.2.4,4.59,4.59,0,0,0,1.6.7,2.33,2.33,0,0,1,1.1.9c.4.4.9.7,1.2.6.1.1,0,.3,0,.3,1,.2.8,1.2,1.5,1.6.4.3.5,1,1.2.8a4.47,4.47,0,0,0,.8,1.7,1.74,1.74,0,0,1,.5,1.4c.4.2.5.7.6,1.2s-.3,1.3.5,1.8c-.2.5.1,1,.2,1.5s.6.8.1,1.3c.5.6,0,1.4.4,2.1a.9.9,0,0,1,0,1.1.64.64,0,0,0,0,.6c.5.5.3,1,.1,1.5-.3,1-.1,2.1-.6,3a13.35,13.35,0,0,0-.7,1.8,8,8,0,0,1-.8,1.6,3.26,3.26,0,0,0-.4,1.3,6.59,6.59,0,0,1-1.4,2.6c-.3.4-.4,1-.9,1.3-.9.6-1.6,1.5-2.5,2.1-1.3.9-2.7,1.8-4,2.8a7.46,7.46,0,0,1-1.2.7h-.1c-.1.7-1,.8-1.5,1s-1,.9-1.8,1a2.16,2.16,0,0,0-1.4.9c-.1.1-.1.1-.2.1a6.24,6.24,0,0,0-1.6,1,8.52,8.52,0,0,0-1.7,1.6c-.1.1-.1.3-.2.3a7,7,0,0,0-2.7,2.4c-1,1.3-2.1,2.6-3,4-.3.5-.9.9-1.1,1.4-.4.8-.9,1.4-1.4,2.2a23.26,23.26,0,0,1-1.7,2.6,11.57,11.57,0,0,0-1.4,2.4c-.4.9-1.1,1.7-1.5,2.5a9,9,0,0,1-1.5,1.9,8.3,8.3,0,0,0-1.5,1.7.6.6,0,0,1-.4.1c-.3,0-.4.1-.6.4a1.21,1.21,0,0,1-1.8.4c-.6-.3-.5.4-.8.6-.2-.2-.6-.1-.8-.5s-.4-.1-.5.1c-.3.2-.7.5-1.1.1-.2.9-.6.4-1,.2.1-.1.3,0,.2-.3-.3-.2-.5-.1-.7.2-.4-.3-.5.1-.8.2-.2-.4,0-.9-.1-1.4,0-.3-.2-.5-.3-.8s-.5.2-.7-.1c-.3.4-.5-.1-.7,0a4.56,4.56,0,0,1,.5-2.3c-.4-.3-1,.1-1-.4s-.5-.9.2-1.1c.2,0,.2.2.3.4.1-.1.2-.1.1-.2-.1-.4.2-.7.2-1,0-1.2,1.2-1.6,1.6-2.6a10.39,10.39,0,0,1,1.7-2.4c.3-.4.9-.9,1.2-1.3.4-.6,1.4-.6,1.4-1.6,0-.3.4-.8,1-1.1s.7-.8,1-1.2.3-1.2,1.1-1.4c.1,0,0-.3.1-.4s.1-.6.6-.4c.2.1.4-.3.6-.5a18.08,18.08,0,0,0,1.9-2.9c.1-.3.3-.5.4-.8s.3.2.6.1c.2-.5.1-1.2.7-1.4a7.05,7.05,0,0,0,.9-.7c.2-.2.6-.4.3-.8-.1-.1.1-.5.2-.6.4-.3.6-.8.9-1.1.4-.5.3-1.1.6-1.6.1-.2,0-.6.5-.4-.1-.5,1.3-.5.5-1.2,0,0,.1-.2.2-.2h0c.2,0,.4,0,.5-.2-.4-.2-.5-.4-.2-.8s.4-.9,1.1-1.2c.4-.1-.1-.5-.3-.8.5-.2.1-.8.5-1.1.2.1-.1.4.2.4s.2-.5.4-.7c.6-.5.9-1.2,1.5-1.7.2-.1-.1-.3,0-.5.8-.3.8-.3.3-1.3h0a3.88,3.88,0,0,0,1.1-.6c-.2-.3-.5-.1-.7-.2l.6-.3c.2-.1.2-.4.6-.4-.6-.3-.1-.7-.2-1.1s.7-.3.8-.7a.72.72,0,0,0-.7-.4c.5-.4.5-.4.1-1,.4-.2.4-.2.6-.5.3.1.4.3.5.6.3-.2.1-.3.2-.5.1-.4-.4-.9.2-1.3.1-.1-.2-.4-.1-.6.2-.8-.3-1.5-.3-2.3,0-.2-.3-.2-.3-.4.6-.3.6-.7.3-1.2.4.1.6-.1.5-.3-.1-.5,0-.9-.1-1.3-.1-.8.1-1.7-.6-2.5,0-.1,0-.1-.1-.3.3.2.6.1.9-.2Z" transform="translate(4.8 -0.03)"/><path id="ca6d3d3a-6fd4-4366-833b-9dbc95bb7bbb" data-name="&lt;Path&gt;" d="M25.8,44.2c.3.3,0,.8.6,1-.5.3-.8.3-1-.1s0-.7.4-.9Z" transform="translate(4.8 -0.03)"/><path id="bef1790e-48a7-43b6-9f06-5f740b3c78cd" data-name="&lt;Path&gt;" d="M78.8,47.4c-.2-.3-.4-.7.1-1C79.5,46.9,79.5,47.1,78.8,47.4Z" transform="translate(4.8 -0.03)"/><path id="a5569c72-1a05-4e21-ae61-6b4bd0f1bcb1" data-name="&lt;Path&gt;" d="M26,46.2c-.1.2-.5.1-.6.3-.1-.4-.9-.6-.5-1.2.4.2.3,1,1.1.9Z" transform="translate(4.8 -0.03)"/><path id="57e3b254-238f-43fa-a755-bc5a874f3103" data-name="&lt;Path&gt;" d="M92.8,96.4c.1-.3-.2-.8.5-1.1,0,.4-.7.6,0,.9a.55.55,0,0,1-.5.2Z" transform="translate(4.8 -0.03)"/><path id="8bdfe152-5380-4f87-aa55-52517709703d" data-name="&lt;Path&gt;" d="M93,93.6a1.18,1.18,0,0,1,.1.8C93,94.3,93,94.2,93,93.6Z" transform="translate(4.8 -0.03)"/><path id="61d44e3e-d8df-4cd7-9537-cb4cbb7191aa" data-name="&lt;Path&gt;" d="M41,72.5a4.33,4.33,0,0,0-.5-.1,2.18,2.18,0,0,1,.4-.5c.3.1,0,.4.1.6Z" transform="translate(4.8 -0.03)"/><path id="a252d08c-a18c-40cc-9aa0-b391a7edc32c" data-name="&lt;Path&gt;" d="M45.1,83.5c-.1,0-.1-.1-.1-.2s0-.2.1-.2a.22.22,0,0,1,.2.2C45.3,83.5,45.2,83.5,45.1,83.5Z" transform="translate(4.8 -0.03)"/><path id="9d4047d7-2adc-4a67-b252-8d61c44a5991" data-name="&lt;Path&gt;" d="M89.8,111c.2,0,.4,0,.5.4-.3-.1-.5-.2-.5-.4Z" transform="translate(4.8 -0.03)"/><path id="28c979a5-71c5-47dd-81c8-32e6119b0678" data-name="&lt;Path&gt;" d="M84.6,57.6a.6.6,0,0,0-.1-.4v-.4h0C84.7,57.1,84.9,57.3,84.6,57.6Z" transform="translate(4.8 -0.03)"/><path id="651726fc-672a-4c46-8350-c723fdc40b88" data-name="&lt;Path&gt;" d="M26.1,144.4c.1.2,0,.3-.1.5C25.9,144.6,25.9,144.5,26.1,144.4Z" transform="translate(4.8 -0.03)"/><path id="869400e7-4ecb-4fd5-bfaf-729949b4aa08" data-name="&lt;Path&gt;" d="M44.8,82.3c.1.3,0,.4-.2.5C44.6,82.6,44.7,82.5,44.8,82.3Z" transform="translate(4.8 -0.03)"/><path id="45aea4fb-6674-4d92-a32b-21fa4ad9688b" data-name="&lt;Path&gt;" d="M89.4,66.3c-.1,0-.2-.1-.1-.2s.1,0,.2.1A.1.1,0,0,0,89.4,66.3Z" transform="translate(4.8 -0.03)"/><path id="bad120c6-ea3a-4e4f-96b6-d8780320ced2" data-name="&lt;Path&gt;" d="M38.8,68.3a.35.35,0,0,1-.2-.1c0-.1,0-.1.1-.1a.35.35,0,0,0,.1.2Z" transform="translate(4.8 -0.03)"/><path id="c79ca7d5-8853-4f61-b7a3-415dcb885767" data-name="&lt;Path&gt;" d="M23.5,32.2c.1,0,.2,0,.2.2h-.1c-.1,0-.1-.1-.1-.2Z" transform="translate(4.8 -0.03)"/><path id="d39e51af-dfa1-4fea-830e-f500e23b8ede" data-name="&lt;Path&gt;" d="M44.7,83.4v-.3C44.8,83.2,44.7,83.3,44.7,83.4Z" transform="translate(4.8 -0.03)"/><path id="0265a3b6-06f4-49f8-b13c-02c657a840d9" data-name="&lt;Path&gt;" d="M25.8,44.2c0-.1,0-.2.1-.2a.1.1,0,0,1,.1.1c0,.1-.1.1-.2.1Z" transform="translate(4.8 -0.03)"/><path id="ae2c28fb-d935-46ae-9a9e-73b918e9c5d4" data-name="&lt;Path&gt;" d="M45.2,82.8c0,.1,0,.2-.2.2a.22.22,0,0,1,.2-.2Z" transform="translate(4.8 -0.03)"/><path id="84992b7d-7d08-4db7-b6c2-3f7d98d36526" data-name="&lt;Path&gt;" d="M84.3,125.1Z" transform="translate(4.8 -0.03)"/><path id="59a4807b-0c75-4e05-865d-8c503aa893b8" data-name="&lt;Path&gt;" d="M46.5,89.3c0,.1-.1.1,0,0-.1.1-.1,0,0,0Z" transform="translate(4.8 -0.03)"/><path id="c659c0b9-a505-47b2-9359-c482937247ed" data-name="&lt;Path&gt;" d="M41.7,92c0-.1,0-.1.1-.2h0l-.1.2Z" transform="translate(4.8 -0.03)"/><path id="5c408dbb-2458-41ab-ae4e-73414938a822" data-name="&lt;Path&gt;" d="M95.4,97Z" transform="translate(4.8 -0.03)"/><path id="477dc7fb-5743-4d7c-a29c-119bfd311500" data-name="&lt;Path&gt;" d="M91.5,114.5Z" transform="translate(4.8 -0.03)"/><path id="5c2b52c3-64d2-48b0-88d8-fd46bd69fa88" data-name="&lt;Path&gt;" d="M92.7,110.6h-.2v-.1c.1,0,.1,0,.2.1Z" transform="translate(4.8 -0.03)"/><path id="694aaf2e-7358-4f8e-afcc-089a987a48a6" data-name="&lt;Path&gt;" d="M84.5,56.9l-.1-.1h0c0-.1.1,0,.1.1Z" transform="translate(4.8 -0.03)"/><path id="16e3ed3c-4b5e-4d2a-b7c2-cf0f749705bd" data-name="&lt;Path&gt;" d="M87.1,60.6l-.1-.1h.1v.1Z" transform="translate(4.8 -0.03)"/><path id="c5ff8a1f-ca26-4913-b84a-b7339dfb3ed9" data-name="&lt;Path&gt;" d="M87.1,60.6l.1.1h-.1c.1,0,.1,0,0-.1Z" transform="translate(4.8 -0.03)"/><path id="7c31f622-0dba-4fbb-86db-262f68b20dad" data-name="&lt;Path&gt;" d="M82.7,126.1c.1,0,.1,0,.2.1h0c-.1,0-.1-.1-.2-.1Z" transform="translate(4.8 -0.03)"/><path id="f53e6e96-3b7e-45e1-82eb-aa55b860bdb5" data-name="&lt;Path&gt;" d="M40.2,112.8Z" transform="translate(4.8 -0.03)"/><path id="befdf91c-e746-4aac-b5fa-9e30df38be05" data-name="&lt;Path&gt;" d="M32,146.7Z" transform="translate(4.8 -0.03)"/><path id="75c6074c-ca79-498d-b7cf-1c44caa282f8" data-name="&lt;Path&gt;" d="M88.5,121.3Z" transform="translate(4.8 -0.03)"/><path id="a647c58c-bf92-4a55-90aa-be43b1912cb3" data-name="&lt;Path&gt;" d="M31.6,67.9Z" transform="translate(4.8 -0.03)"/><path id="019ce9fa-c9fd-4ede-b1c8-14b8ddd4ce3b" data-name="&lt;Path&gt;" d="M91.9,61.6c-.1,0-.1-.1,0,0h0c-.1-.1-.1,0,0,0Z" transform="translate(4.8 -0.03)"/><path id="b8d087fc-5c54-4af0-a98e-48ac52fdf009" data-name="&lt;Path&gt;" d="M72.3,33.5Z" transform="translate(4.8 -0.03)"/><path id="a65ea738-149d-41d9-9acd-6fc291a4ceab" data-name="&lt;Path&gt;" d="M44.3,104.9Z" transform="translate(4.8 -0.03)"/><path id="9e381a10-c707-478f-bbb5-dc4562a8a539" data-name="&lt;Path&gt;" d="M44.7,81.3Z" transform="translate(4.8 -0.03)"/><path id="b9d1d46f-8ef5-40d5-93f8-9cfb50cda772" data-name="&lt;Path&gt;" d="M36,75Z" transform="translate(4.8 -0.03)"/><path id="be52babf-1556-4c8c-b95a-f10b21cfd2e3" data-name="&lt;Path&gt;" d="M71.6,72.2c.1.1.2.1.1.3C71.5,72.4,71.5,72.4,71.6,72.2Z" transform="translate(4.8 -0.03)"/><path id="eae78f41-8b5f-4d93-a85a-8d4632b1b208" data-name="&lt;Path&gt;" d="M64.5,72.3c.2-.1.3,0,.3.1C64.6,72.5,64.6,72.4,64.5,72.3Z" transform="translate(4.8 -0.03)"/><path id="231cd2c9-71db-46ba-9451-168a73afdc03" data-name="&lt;Path&gt;" d="M76.1,136.6c.8.1.8.2.5.9.1-.4-.3-.6-.5-.9Z" transform="translate(4.8 -0.03)"/></g></g></svg>