<?xml version="1.0" encoding="utf-8"?>
<!-- Generator: Adobe Illustrator 20.1.0, SVG Export Plug-In . SVG Version: 6.00 Build 0)  -->
<svg version="1.1" id="Layer_1" xmlns="http://www.w3.org/2000/svg" xmlns:xlink="http://www.w3.org/1999/xlink" x="0px" y="0px"
	 viewBox="0 0 233.3 103.4" style="enable-background:new 0 0 233.3 103.4;" xml:space="preserve">
<style type="text/css">
	.st0{fill:#CA5D85;}
</style>
<g id="XMLID_139_">
	<g id="XMLID_148_">
		<path id="XMLID_162_" class="st0" d="M121.9,0c0.1,0,0.2,0,0.3,0c0.6,1,1.7,0.1,2.5,0.5c0.8,0.4,1.6,1.5,2.5,0.1
			c1.1,0.7,2.5,0,3.7,0.6c1.2,0.6,2.9-0.4,3.9,1.1c0,0,0.1,0,0.1,0c2.8-0.4,5.5,0.6,8.3,0.8c0.3,0,0.8,0.2,0.9,0.4
			c0.4,0.8,1.2,0.6,1.7,0.5c0.6-0.1,1.2,0,1.8,0c2.1,0.3,4,1.2,6,1.6c3.1,0.7,5.2,2.8,7,5.2c4.4,5.9,7.4,12.4,9.5,19.3
			c2.7,8.7,3.5,17.6,3.3,26.7c-0.1,3.6-0.8,7.2-1.4,10.8c-0.3,1.7-0.8,3.6-1.5,5.4c-1,2.5-1.6,5.3-2.7,7.8c-1.2,2.9-2.7,5.7-4,8.6
			c-0.4,1-0.9,2-1.6,2.9c-0.6,0.8-1.2,1.7-1.7,2.7c-1.2,2.8-2.8,5.5-6.7,5.5c-0.5,0-0.9,0.1-1.4,0.2c-3.4,0.4-6.8,0.6-10.1,1.3
			c-2.5,0.5-5,0.4-7.5,0.8c-0.7,0.1-1.5,0.3-2.2,0.1c-0.8-0.2-1.2-0.1-1.7,0.5c-3.1,0-6.2,0-9.3,0c-0.3-0.3-0.6-0.5-1.1-0.5
			c-2,0.1-4,0.1-6,0.2c-1.7,0.1-3.3-0.6-5-0.5c-1.9,0-3.8,0.3-5.8,0.2c-0.9-0.1-1.9-0.5-2.8-0.3c-1.5,0.2-2.9,0-4.4-0.1
			c-1.7-0.1-3.3-0.4-5-0.8c-1.5-0.4-3.1-0.4-4.7-1c-0.8-0.3-1.6-0.8-2.7-0.6c-1.8,0.3-3.3-0.5-4.5-1.9c-1.9-2.2-3.4-4.6-4.9-7
			c-3.8-6-6.4-12.6-8.2-19.4c-1.2-5-2-10-2.1-15.2c-0.1-3.9,0.5-7.8,0.4-11.8c0-1.4,1.1-2.3,1.3-3.5c0.7-5.7,2.9-10.9,5.1-16.2
			c1.9-4.4,4.5-8.6,7.3-12.5c2.3-3.2,5-6,8-8.7c0.7-0.7,1.8-1.2,2.8-1.3c1.8-0.2,3.5-0.9,5.3-0.4c0.2,0,0.5-0.1,0.6-0.3
			c0.5-0.5,1.2-0.5,1.8-0.6c2.6-0.4,5.4,0.3,8-0.9c0.3-0.1,0.6,0.1,0.8,0c1.4-0.3,2.9,0.2,4.2-0.4c0.7,0,1.3,0,2,0
			c0.9,0.6,1.9,1,2.8,0c0.2,0,0.4,0,0.6,0C117.6,1.1,119.7,0.7,121.9,0z M140.8,54.5c-0.3,0.1-0.5,0.1-0.5,0.2
			c-4.5,5.6-14.4,6-19.5,0.2c-2-2.3-2.9-5.1-3.1-8c-0.1-1.3,0.1-2.7,0.6-3.9c0.8-2,2.2-3.5,4.1-4.6c2.1-1.3,4.2-2.8,6.8-3.4
			c-0.3-0.2-0.4-0.3-0.5-0.4c-3.3-1.8-7-1.7-10.6-1.6c-7.8,0.2-13.7,3.4-17.5,9.9c-1.3,2.3-2.6,4.7-2.8,7.2
			c-0.4,3.9-0.8,7.8,0.8,11.6c1,2.4,1.6,4.9,3.9,6.7c1.4,1.1,2.9,2.1,4.4,3.1c2.3,1.6,4.8,2.8,7.7,3.1c5,0.6,9.6-0.5,14.2-2
			c5.6-1.9,9.2-5.6,11.1-10.9C140.7,59.4,141,57,140.8,54.5z"/>
		<path id="XMLID_161_" class="st0" d="M233.3,58.2c-0.6,0.8-1.2,1.3-2.4,1.4c-0.5,0-1.5,0.1-1.5,1.3c0,1-1.1,1.3-1.9,1.5
			c-0.3,0.1-0.8,0.1-0.8,0.3c-0.2,1.3-1.5,1.2-2.2,1.9c-0.5,0.5-1.1,0.8-1.5,1.4c-0.4,0.6-0.9,1.5-2,0.6c-1.1,2-2.5,3.2-4.6,3.8
			c-1.2,0.3-1.5,1.8-2.8,2.1c-1.4,0.3-2.1,1.4-3.1,2.2c-1.2,0.9-2.5,1.5-3.9,2.2c-0.4,0.2-0.9,0-1.5,0c0.2,0.3,0.3,0.6,0.4,0.9
			c-1,0.6-2,1-3.1,1.5c-1.1,0.4-2.5,0.7-3.2,1.9c-0.2,0.3-0.4,0.7-0.7,0.8c-1.3,0.5-2.3,1.2-3.5,1.9c-0.9,0.6-1.8,1.5-2.7,1.7
			c-2.7,0.5-4.1,3.4-7,3.3c-0.6,0-0.4,1-1.2,1.1c-2.2,0.4-4,2-6,2.8c-2.9,1.2-5.8,2.4-8.9,3.3c-0.6,0.2-0.9-0.3-1.7,0
			c16.7-28.7,15.9-57.2,0.2-85.8c0.9-0.1,2,0.2,2.7,0.8c1.4,1.2,3.1,1.3,4.7,1.8c1.5,0.5,3,1.1,4.3,1.9c1.1,0.6,2.3,0.4,3.3,1.3
			c1.1,0.9,2.6,1.2,3.6,2.3c0.5,0.5,1.7,0.4,2.2,1c1.9,2,4.6,2.8,6.9,4.2c1.1,0.7,1.7,1.8,2.9,2.4c0.5,0.3,0.9,0.7,1.5,1
			c2.3,1.1,4.3,2.7,6.3,4.2c1.6,1.2,3.5,2.2,4.8,3.7c1.5,1.7,3.5,2.8,5,4.6c1.6,1.9,3.4,3.7,5.3,5.3c2.8,2.4,5.5,5,8,7.7
			c0.6,0.6,1.4,1.3,0.8,2.3c1.8,0.4,2.8,1.9,2,3c0.4,0.1,0.7,0.3,1.1,0.4C233.3,58,233.3,58.1,233.3,58.2z"/>
		<path id="XMLID_126_" class="st0" d="M26.6,33.3c-0.2-1.4,1-2.1,2-2.6c1.4-0.7,2.5-2,4.3-2.3c0.6-0.1,1.2-0.8,1.8-1.2
			c0.6-0.3,0.9-0.7,1.7-0.2c0.5,0.4,0.9-0.6,1.5-0.4c0.2-0.7-0.6-0.4-0.6-0.6c-0.1-1,4.4-2.9,5.5-2.7c0.2-1.2,3.1-3,4.9-3
			c0.2-1.5,4.1-3.5,5.5-2.8c0.4-0.8,0.3-2.3,1.9-1.2c1.2-1.8,2.8-2.6,4.9-2.2c0.3-0.2,0-0.6,0.5-0.8c0.5,0.8,1.1,0.4,1.7,0
			c1.3-0.8,2.7-1.7,3.8-2.6c1.4-1.3,2.9-1.5,4.4-2.2c-0.2,0.9-0.5,1.7-1,2.4c-1.8,2.4-3.1,5-4.4,7.6c-1.7,3.5-3.2,7.2-4.2,10.9
			c-1.4,5.2-2.7,10.5-3.1,15.8c-0.2,2.5-0.8,5-0.7,7.5c0.1,2.4,0,4.9,0.5,7.4c0.2,1,0.1,2.2,0.3,3.3c0.7,4,1.3,8,2.4,11.9
			c0.8,2.8,1.8,5.4,2.9,8.1c0.5,1.1,1.3,2.2,2,3.3c0.8,1.2,1.7,2.3,2.3,3.6c0.9,2,2.4,3.7,3.4,5.7c-0.6,0.2-1.1,0.1-1.6-0.2
			c-1.8-0.8-3.6-1.6-5.4-2.3c-2.1-0.8-4.2-1.7-6.2-2.8c-0.5-0.3-1.2,0-1.7-0.3c-0.8-0.6-1.8-1-2.7-1.4c-1.3-0.6-3-0.7-4-2.2
			C49,86.6,48,85.9,47.3,86c-1.5,0.1-2.5-1-3.6-1.6c-1.2-0.8-2.4-1.6-3.8-2.1c-0.3-0.1-0.5-0.2-0.7-0.4c-1.4-1.5-3.3-2-5-2.8
			c-0.8-0.4-1.8-0.6-1.9-1.9c0-0.5-0.9-0.5-1.4-0.6c-0.3-0.1-0.8,0.2-0.9-0.1c-0.6-1.3-1.8-1.5-2.9-2c-0.4-0.2-0.9-0.5-0.9-1.2
			c0-0.6-0.8-1.1-1.2-1.1c-1.7,0.2-2.4-1.3-3.6-1.8c-1-0.4-1.6-1.3-2.4-2c-0.5-0.4,0.3-0.8-0.1-1c-0.6-0.3-0.5,0.4-1,0.2
			c-0.6-0.8-2-1.1-1.8-2.6c0-0.1-0.4-0.4-0.6-0.4c-0.7-0.1-0.3,0.7-0.8,1c-1.2-1.2-3-1.6-3.8-3.3c-0.1-0.3-0.5-0.5-0.8-0.4
			c-0.4,0-0.8-0.2-0.9-0.5c-0.6-1.6-2-2.1-3.5-2.5c-0.9-0.2-1-1.2-1.4-1.8c-0.3-0.5-0.6-0.9-1.2-0.9c-1.3-0.1-1.8-0.7-1.6-2
			c0.1-0.4-0.1-0.9-0.2-1.4c-1.1,0.2-1.3-0.3-0.9-1.1c0.7-0.3,0.6,0.4,1,0.6c0.5-0.4,0.8-0.8,0.2-1.4c-0.1-0.1-0.1-0.2-0.1-0.3
			c0.5-0.7,1.2-1,2.1-0.7c0.3-1.5,2.3-1.3,2.5-2.7C6.4,47,6.6,47.6,7,47.6c0.4,0,0.6-0.4,0.8-0.7c1.2-2.1,2.4-4.1,5-4.8
			c0.7-0.2,0.7-1.1,1.3-1.5c1.1-1,2.6-1.1,3.6-2.2c1.1-1.3,2.6-1.9,3.9-2.9c0.6-0.5,1.1-1.1,2.1-0.8c0.6,0.2,0.7-0.5,1.1-0.8
			C25.3,33.6,25.6,32.4,26.6,33.3C26.6,33.3,26.7,33.3,26.6,33.3L26.6,33.3z"/>
	</g>
</g>
</svg>
