<?xml version="1.0" encoding="utf-8"?>
<!-- Generator: Adobe Illustrator 20.1.0, SVG Export Plug-In . SVG Version: 6.00 Build 0)  -->
<svg version="1.1" id="Layer_1" xmlns="http://www.w3.org/2000/svg" xmlns:xlink="http://www.w3.org/1999/xlink" x="0px" y="0px"
	 viewBox="0 0 136.5 190.5" style="enable-background:new 0 0 136.5 190.5;" xml:space="preserve">
<style type="text/css">
	.st0{fill:#F7922D;}
</style>
<g id="XMLID_706_">
	<g id="XMLID_316_">
		<path id="XMLID_350_" class="st0" d="M33.4,88.4c0.1-0.1,0.1-0.2,0.2-0.3c0-0.3-0.3,0-0.4-0.2c0.1-0.1,0.3-0.3,0.5-0.4
			c-0.4-0.6-0.1-1.3-0.6-1.9c0.5-0.9,0.4-1.3-0.2-1.4c0.2-0.2-0.2-0.6,0.3-0.7c-0.3-1,0.1-2.1-0.2-3.1c-0.2-0.1-0.3,0.1-0.4,0.1
			c-0.2-0.3-0.2-1.2,0.1-1.4c-0.5-0.3-0.5-0.8-0.5-1.3c0.1-0.6-0.1-1.2-0.3-1.8c0.2,0,0.3-0.1,0.4-0.1c0-0.4-0.3-0.4-0.6-0.4
			c0.7-0.6,0.5-1.4,0.4-2c-0.2-0.9-0.3-1.9-0.3-2.8C31,70.6,31,70.6,31,69.7c0.4-0.1,0.1,0.3,0.4,0.4c0.3-0.5,0-1.3-0.5-1.6
			c0.2-0.2,0.5,0,0.6-0.3c-0.4-0.3,0.1-1.1-0.8-1.3c0-0.3,0.3,0,0.5-0.3c-0.2-0.5-0.4-1-0.5-1.5l0,0c0,0,0.2-0.1,0-0.1l0,0
			c0.1-0.9-0.6-1.6-0.9-2.4c-0.1-0.3-0.2-0.5-0.1-0.7c0-0.4-0.1-0.7-0.4-0.8c-0.2-1.3-1-2.2-1.2-3.3c-0.4,0-0.2,0.3-0.4,0.3
			c-0.3-1.4-0.4-2.8-0.4-4.2c0-2.3,0.1-4.5,0-6.8c0-0.6,0-1.2,0-1.9c0-1.2-0.1-2.4,0-3.5c0.1-1.4,0.2-2.8,0.3-4.2
			c0.1-1.6,0-3.2,0.2-4.8c0.1-1,0.1-1.9,0.3-2.9c0.1-0.6,0-1.2,0-1.8c0.1-1.4,0.5-2.8,0.6-4.1c0.1-2.4,0.8-4.7,1.1-7
			c0.2-1.5,0.6-3,1.3-4.5c0.3-0.6,0.4-1.3,0.7-1.9c0.6-1.4,1.3-2.7,2.7-3.6c0.5-0.3,0.8-0.8,1.2-1.2c1-1.2,2.3-1.8,3.7-2.3
			c0.9-0.3,1.9-0.7,2.9-0.6c0.7,0,1.3-0.3,2,0c0.1,0.1,0.2,0,0.3-0.1c0.3-0.2,0.7-0.1,0.9,0.1C45.7,3,46,2.8,46.4,2.4
			c0.5,0.6,1.4,0.3,2,0.9c0.7-0.5,1.7,0,2,1c0.3,0,0.1-0.4,0.4-0.4c0,0.5,0.4,0.3,0.7,0.2c-0.1,0.5-0.1,0.8-0.2,1.2
			C51.6,5,51.8,4.9,52,4.7c0.2,0.2,0.6,0.3,0.6,0.7c0,0.3-0.4,0.5-0.2,0.9c0.3-0.1,0.5-0.3,0.7,0.2c0.5,1.3,1,2.6,1.3,3.9
			c0.4,2.2,0.5,4.4,0.5,6.7c0,1.2,0,2.3-0.1,3.5c0,1.1,0,2.1,0,3.2c0,0.4,0.2,0.8,0.2,1.2c0,1.7-0.2,3.4,0,5.1
			c0.1,1-0.2,2.1-0.1,3.1c0.1,1.6,0.2,3.3,0.3,4.9c0.1,1.6,0,3.1,0.3,4.7c0.1,0.6-0.3,1-0.2,1.6c0.1,1.6,0.1,3.1,0.1,4.7
			c0.1,1.5,0,3,0.1,4.5c0.1,0.7,0,1.5,0,2.3c0,1.5,0,2.9,0,4.4c0,1.4-0.3,1.8-1.8,1.9c-0.6,0-1.5-0.1-1.9,0.7c-0.5-0.3-1,0-1.6,0
			c0.1,0.5-0.1,0.7-0.6,0.7c-0.3-0.1-0.1-0.4-0.4-0.5c-0.2,0-0.4,0.1-0.6,0.1c-0.8,0-1.5,0.3-2.3,0.5c-0.5,0.2-0.9,0.8-1.6,0.6
			c-0.3-0.1-0.2,0.3-0.2,0.5c-1.1-0.4-1.9,0.2-2.9,0.4c-0.3,0-0.2,0.3-0.2,0.5c-0.4-0.3-0.8-0.3-1.2,0.1c-0.2,0.3-0.7,0.3-0.9,0.3
			c-0.5,0-0.8,0.3-1.1,0.4c-1.1,0.5-2,1.2-2.5,2.3c-0.3,0.6,0.3,0.9,0.6,1.1c0.4,0.3,0.6-0.1,0.8-0.3c0.4-0.3,0.9-0.4,1.4-0.6
			c1.5-0.5,2.9-0.9,4.4-1.3c1.5-0.5,3-1,4.5-1.4c2.1-0.5,4.3-0.9,6.4-1.3c2.2-0.4,4.4-0.6,6.6-0.6c1.3,0,2.7,0,4-0.1
			c1.4-0.1,2.7,0,4.1-0.1c0.7-0.1,1.5,0.1,2.3,0.1c1.2,0,2.5,0.2,3.7,0.3c1.1,0.1,2.3,0.1,3.4,0.2c0.8,0.1,1.6,0,2.3,0.1
			c1.2,0.2,2.3,0.3,3.5,0.3c1,0,2,0.4,3,0.5c1,0.1,2.1,0.5,3.1,0.7c1.1,0.2,2.1,0.5,3.2,0.7c1.8,0.4,3.6,0.9,5.3,1.5
			c1.1,0.4,2.2,0.5,3.3,0.9c0.9,0.3,1.7,0.6,2.6,0.8c1,0.2,1.9,0.9,3,0.8c0.2,0,0.4,0.2,0.6,0.3c0.9,0.4,2,0.5,2.9,0.9
			c1.4,0.6,2.8,0.9,4.2,1.5c1.8,0.7,3.4,1.6,5.2,2.3c0.4,0.2,0.8,0.4,1.2,0.7c0.5,0.5,0.9,0,1.2-0.2c0.3-0.2,0.5-0.6,0.2-0.9
			c-0.2-0.3-0.2-0.6-0.3-0.9c-0.2-0.5-0.4-0.9-1.1-0.7c0-0.8-0.7-0.9-1.2-1.2c-0.2-0.1-0.1,0.1-0.1,0.2l0,0
			c-0.6-0.3-1.2-0.7-1.7-1.1c-0.5-0.4-1.2-1.2-2.2-0.8c-0.2,0.1-0.8-0.5-1.2-0.8c-0.2-0.2-0.4-0.3-0.7-0.3c-0.6,0.1-1.1-0.2-1.5-0.5
			c-0.5-0.3-1-0.4-1.6-0.5c-0.7-0.1-1.7,0.1-2-0.8c0.3-0.3,0.3-0.8,0.3-1.2c0-0.8-0.2-1.6,0.1-2.4c0.2-0.8-0.1-1.6-0.2-2.4
			c-0.2-1.3-0.1-2.6-0.1-3.8c0-0.6,0.2-1.4-0.5-1.9c0.8-0.9,0.4-2,0.4-3c0-0.6-0.1-1.1-0.1-1.7c0.1-0.9,0.1-1.9-0.1-2.9
			c-0.1-0.5,0-1-0.1-1.4c-0.1-1,0.4-1.9,0.2-2.9c-0.1-0.2-0.1-0.4-0.3-0.5c0.6-0.7,0.6-1.3-0.1-1.6c0.4-0.1,0.5-0.3,0.4-0.7
			c-0.1-0.5,0-1.1,0.1-1.6c0-0.9,0-1.8-0.1-2.7c0-0.3,0.1-0.5,0.1-0.7c0.2-0.8,0.1-1.8-0.1-2.5c-0.2-0.8,0.2-1.6-0.1-2.4
			c0,0,0-0.1,0-0.1c0.8-0.6,0-1.1-0.1-1.7c0.8-0.1,0.4-0.6,0.4-1.1c0-1,0-2-0.1-3.1c-0.1-0.9-0.2-1.8-0.3-2.7
			c-0.1-0.4,0.3-0.9-0.2-1.2c0,0,0-0.3,0.3-0.4c0.4-0.1,0.3-0.4,0.4-0.8c-0.3,0.2-0.6,0.1-0.9-0.1c0.6-0.9,0.8-1.9,0.4-3
			c-0.7-0.1-0.8-0.3-0.2-1c0.1-0.1,0.2-0.3,0.1-0.4c-0.4-0.9,0-1.9-0.1-2.8c0-0.1,0.1-0.3,0-0.4c-0.8-1,0-1.9,0.4-2.7
			c0.5-1.1,1.2-2.2,1.8-3.3c1.5-2.4,3.8-3.8,6.8-4c1-0.1,2-0.1,3,0.3c0.7,0.3,1.7,0.2,2.2,0.8c0.5,0.5,0.8,1.3,1.5,1.7
			c0.2,0.1-0.2,0.3,0,0.5c1-0.5,1.1,0.6,1.8,0.9c-0.2,0.3,0,0.5,0.2,0.7c0.8,0.9,1.5,1.8,1.6,3c0.1,0.4-0.2,0.6-0.2,0.8
			c0.3,0.3,0.5-0.1,0.8,0c-0.1,0.3,0,0.5,0.3,0.8c0.3,0.3,0.6,0.6,0.4,1.1c-0.1,0.2-0.1,0.5,0.3,0.6c0.4,0.1,0.1,0.5,0,0.7
			c-0.2,0.6-0.1,1.1,0.3,1.6c0.3,0.5,0.6,1.2,0.1,1.9c-0.2,0.3-0.1,0.8,0,1.1c0.2,0.6,0.2,1.3,0.4,1.9c0.1,0.2,0,0.4,0,0.6
			c0.1,0.3,0.4,0,0.5,0.2c0,0.2-0.3,0.2-0.4,0.4c0,0,0,0.1,0,0.1c0.6,0.2,1.2,1.1,0.9,1.5c-0.6,0.7,0,1.5-0.2,2.2
			c-0.1,0.6,0.3,1.3-0.2,1.9c0.4,0.1,0.8,0.5,0.7,0.6c-0.4,0.6,0.7,1.4-0.4,1.9c0.2,0.6-0.1,1.1,0,1.7c0.3,0.1,0.2-0.2,0.3-0.3
			c0.6,0.3,0.3,0.6,0,0.9c0.7,0.2,0.3,0.8,0.6,1.2c-0.7,0.1-0.4,0.7-0.6,1c-0.4,0.4,0.5,1-0.5,1.1c1.1,0.5,1.1,0.5,0.9,1.6
			c0,0.2-0.2,0.4,0,0.6c0.5,0.5,0.2,0.7-0.3,0.9c0.1,0.3,0.4,0.5,0.6,0.7c0.1,0.2,0.1,0.6,0.1,0.9c-0.5,0.2-0.9,0.4-0.4,0.9
			c0.2,0.2,0,0.5,0,0.7c0,0.6,0.1,1.2-0.2,1.7c0.7,0,0.7,0,0.7,0.7c-0.2,0.1-0.2-0.3-0.4-0.2c0,0.8,0.1,1.3,0.4,1.6
			c-0.1,0.3-0.3,0-0.5,0.1c-0.1,0.9-0.2,1.9,0,2.9c0.3,1.3,0.6,2.5,0.3,3.8c-0.2,0.6,0.4,1.3-0.1,2c-0.1,0.1,0.3,0.2,0.3,0.4
			c0,0.3-0.3,0.2-0.4,0.4c0,0,0,0.1,0,0.1c0.5,0.3,0.5,0.7,0.2,1.2c-0.2,0.3-0.3,0.6,0.2,0.9c0.3,0.2,0.3,0.5,0.3,0.8
			c-0.1,0.2-0.4,0-0.6,0.3c0.2,0.2,0.4,0.5,0,0.7c-0.1,0.1-0.2,0.3-0.1,0.4c0.6,0.5,0.2,1.2,0.6,1.6c-0.1,0.3-0.4-0.1-0.5,0.2
			c-0.1,0.4,0.2,0.5,0.5,0.6c-0.5,0.8,0.2,1.4,0.2,2.2c0,0.7,0.3,1.4,0.2,2.1c-0.1,0.8,0,1.6-0.2,2.3c-0.1,0.3,0.2,0.5,0.2,0.8
			c0.1,0.6-0.1,1.2,0.4,1.8c0.2,0.2,0.1,0.9-0.1,1.3c-0.1,0.4,0,0.6,0.2,0.8c-0.1,0.1-0.3,0-0.3,0.2c0,0,0,0.1,0,0.1
			c0.5,0.3,0.8,0.5,0.5,1.2c-0.1,0.3,0.3,0.7,0.2,1.2c-0.1,0.8,0.1,1.5,0.2,2.3c0,0.3-0.4,0.2-0.4,0.5c0.4,0.4,0.4,0.9,0.2,1.5
			c-0.1,0.4,0.4,0.8,0.3,1.2c0,0.2,0.1,0.5-0.2,0.6c-0.1,0-0.1,0.2-0.1,0.2c0.5,0.8,0,1.7,0.4,2.5c0.3,0.7,0.2,1.4,0.1,2
			c0,0.4-0.1,0.8,0,1.3c0.2,1,0.2,2-0.4,2.9c-0.2,0.3-0.1,0.5,0.5,0.7c0,0.2-0.3,0.1-0.4,0.3c0.1,0.2,0.2,0.5-0.1,0.8
			c0.2,0.4,1,0.8,0.2,1.3c0.5,0.2,0.5,0.6,0.3,0.9c-0.4,0.8-0.4,1.6-0.3,2.4c0.1,0.4-0.1,0.5-0.4,0.7c0.6,0.3,0.5,0.6,0.2,1
			c-0.4,0.5-0.1,0.9,0.1,1.4c0.1,0.2,0.1,0.4,0.2,0.6c0.2,0.5,0,0.8-0.4,1.1c0.1,0.3,0.4,0.2,0.5,0.4c0,0,0,0.1,0,0.1
			c-0.3,0.4-0.2,0.8-0.2,1.3c0,0.8,0.4,1.7-0.1,2.6c-0.2,0.3,0,1-0.1,1.5c-0.1,0.5,0,1-0.4,1.6c-0.2,0.3,0,0.8,0.1,1.2
			c0,0.2,0.2,0.3,0,0.4c-0.5,0.2-0.4,0.7-0.3,1c0.1,0.6,0,1.2-0.2,1.7c-0.2,0.5-0.3,0.9-0.1,1.4c0.1,0.2-0.2,0.6-0.4,0.9
			c-0.1,0.3,0,0.3,0.2,0.4l0,0c-0.4,1.9-0.3,3.8-1,5.7c0,0.1-0.1,0.3-0.1,0.3c0.8,0.6,0.1,1.2-0.1,1.8c0,0.1-0.1,0.3,0,0.4
			c0.2,1-0.4,1.8-0.6,2.7c0,0.2-0.1,0.4,0,0.6c0.2,0.3-0.1,0.4-0.4,0.6c0.9,0.1,0.4,0.7,0.3,0.9c-0.4,0.6-0.4,1.4-0.4,1.9
			c0,1-0.6,1.6-0.9,2.4c0,0.1-0.2,0.1-0.2,0.2c0.1,0.7-0.8,1.2-0.5,1.9c0.1,0.1-0.1,0.1-0.1,0.2c-0.4,0.1-0.4,0.6-0.3,0.7
			c0.4,0.7,0,1.2-0.3,1.7c-0.7,1.1-1,2.4-1.4,3.6c-0.3,1.1-0.5,2.4-1,3.4c-0.4,0.8-0.6,1.6-0.9,2.4c-0.3,1-0.5,2-0.9,2.9
			c-0.6,1.3-1.2,2.6-1.6,4c-0.5,1.6-1.4,3-2.4,4.3c-1.1,1.4-2.2,2.9-3.4,4.2c-1.2,1.3-2.2,2.7-3.4,4c-1.1,1.2-2.3,2.5-3.6,3.5
			c-1.2,0.9-2.2,2-3.4,3c-0.7,0.6-1.4,1.3-2.2,1.9c-0.6,0.4-1.1,1-1.7,1.5c-1.8,1.4-3.8,2.4-6,3.1c-1.8,0.5-3.4,1.4-4.9,2.3
			c-0.8,0.5-1.8,0.9-2.7,1.2c-1.1,0.4-2.2,0.9-3.4,1.2c-2,0.4-4,0.4-5.9,0.6c-1.7,0.2-3.4,0.1-5.1,0.3c-1.6,0.1-3.3,0.3-4.9,0.2
			c-0.7,0-1.5-0.2-2.3,0c-0.1,0-0.3,0-0.4,0c-2.1-0.2-4.1-0.6-6.1-1.1c-1.3-0.4-2.7-0.6-4.1-0.9c-0.5-0.1-0.9-0.2-1.4-0.5
			c-1-0.6-2-0.9-3.2-0.9c-1,0-1.9-0.5-2.9-0.7c-2.3-0.6-4.6-1.3-6.7-2.5c-0.9-0.5-1.9-1.1-3-1.4c-0.2-0.1-0.4-0.3-0.6-0.4
			c-1.5-1.1-3.3-1.7-4.8-2.9c-0.8-0.6-1.7-1.1-2.5-1.8c-1.3-1.1-2.7-2-4-3.2c-1.5-1.5-3.1-2.8-4.4-4.4c-1.2-1.5-2.5-3-3.6-4.6
			c-1.3-1.7-2.4-3.6-3.6-5.4c-0.7-1.1-1.3-2.3-1.8-3.5c-0.6-1.4-1.3-2.8-1.7-4.2c-0.5-1.6-1.2-3.1-1.5-4.8c-0.3-1.5-0.7-2.9-1.2-4.3
			c-0.4-1.1-0.6-2.4-0.8-3.5c-0.2-1.6-0.7-3.2-0.9-4.9c-0.1-0.8-0.2-1.6-0.2-2.4c0-0.3-0.1-0.6-0.1-0.8c-0.1-1-0.4-2-0.5-3
			c-0.3-1.8-0.6-3.7-0.7-5.5c-0.1-1.2-0.3-2.4-0.4-3.6c-0.1-0.9-0.2-1.9-0.2-2.8c0.1-1.3-0.4-2.6-0.4-3.9c0-0.5,0-1.1-0.1-1.6
			C4,107,4,105.5,3.9,104.1c-0.1-1.4-0.3-2.8-0.3-4.3c0-1.2-0.1-2.5,0-3.7c0.1-1.5-0.2-3-0.2-4.5c0-1.8-0.2-3.7-0.2-5.5
			c0-1.8-0.1-3.7-0.1-5.5c0-3.3,0-6.5,0-9.8c0-1.2,0.1-2.4,0.4-3.6c0.2-0.9,0.3-1.9,0.5-2.9c0.3-1.6,0.7-3.2,1.3-4.7
			c0.5-1.5,1.5-2.6,2.7-3.6c1.2-1,2.5-1.8,3.9-2.3c0.6-0.2,1.3-0.3,2-0.3c0.4,0,0.7-0.2,1-0.2c0.3,0,0.7-0.1,0.7,0.4
			c1.5-0.6,2.7,0.2,3.9,0.7c0,0.3,0.1,0.6,0.2,0.8c0.3,0,0.3-0.3,0.5-0.3c0,0,0.1,0,0.1,0c0.4,0.6,1.1,1.1,1.6,1.5
			c0.6,0.5,0.9,1.1,1.2,1.7c0.2,0.4,0.5,0.7,1,0.8c0,0.4-0.4,0.2-0.4,0.4c1,0.6,1.6,1.5,2.1,2.5c0.2,0.3-0.1,0.6-0.1,0.9
			c0,0.4,0,0.5,0.3,0.9c0.2,0,0.3-0.2,0.5-0.5c0.1,0.7,0.2,1.2,0.3,1.7c0.1,0.3,0.4,0.3,0.5,0.7c0.3,1,0.4,2,0.7,3
			c0.3,1.3,0.3,2.7,0.5,4c0.3,2.1,0.3,4.2,0.9,6.3c0,0.1,0.1,0.2,0.1,0.3c-0.4,1.3-0.1,2.5,0.1,3.8c0.2,1.5,0.2,3.1,0.5,4.6
			c0.2,1,0,2.1,0.3,3.2c0.4,1.4,0.2,2.9,0.5,4.3c0.3,1.2,0.3,2.5,0.5,3.7c0,0.4,0.1,0.7,0.3,1c0.3,0.5,0,1,0.1,1.6
			c0.4,1.8,0.3,3.6,0.6,5.3c0.2,1.2,0,2.5,0.1,3.8c0,1,0.2,2,0.1,3.1c0,0.3,0.1,0.7,0.2,1c0.2,0.4,1.4,0.5,1.8,0.1
			c0.9-0.9,1.6-1.9,1.4-3.3c-0.2-1.1-0.4-2.3-0.2-3.4c0.1-0.6-0.4-1.2,0-1.8c0.2-0.3-0.2-0.4-0.2-0.6c0.1-0.2,0.3,0,0.4-0.1
			c0-0.3-0.4-0.3-0.5-0.5c0.4-0.8,0.1-2.4-0.5-2.7c1.2-1.3,0-2.7,0.3-4.2c0.4-0.1,0.8,0.1,1.3,0.3c0.5,0.2,1,0.5,1.7,0.4
			c0.1,0,0.2,0,0.3,0.1c0.4,0.5,1,0.6,1.5,0.8c1.3,0.5,2.3,1.2,3.4,1.9c1.3,0.8,2.7,1.6,3.9,2.5c0.4,0.3,0.8,0.8,1.3,1.1
			c0.7,0.5,1.2,1.2,2,1.7c0.4,0.3,0.9,0.7,1.2,1.2c0.5,0.7,1.3,1,1.7,1.7c0.4,0.8,1.1,1.3,1.6,2c0.3,0.5,0.7,1,1.2,1.3l0,0
			c0.4,0.7,0.8,1.5,1.4,2.1c0.7,0.6,1,1.5,1.4,2.2c0.8,1.3,1.4,2.7,2.2,4c0.4,0.6,0.7,1.3,1,2c0.4,1,0.6,2.2,1.1,3.2
			c0.6,1.2,0.7,2.5,1.2,3.7c0.6,1.7,0.9,3.4,1.3,5.1c0.3,1.4,0.4,2.8,0.7,4.2c0.1,0.5,0.1,0.9,0.2,1.4c0,0.5,0.2,0.9,0.6,1.2
			c0.3,0.3,0.6,0.4,0.9-0.1c0.1-0.1,0.1-0.2,0.2-0.3c1.2-0.6,1.6-1.3,1.2-2.4c-0.2-0.6,0-1.1-0.1-1.7c-0.2-1-0.3-1.9-0.7-2.9
			c-0.2-0.4-0.1-0.7-0.1-1.1c0-1.2-0.2-2.3-0.4-3.4c-0.1-0.3,0-0.7-0.5-0.8c-0.2-0.1-0.2-0.7-0.3-1c-0.2-1.1-0.4-2.1-0.8-3.2
			c-0.5,0.1,0,0.4-0.2,0.7c-0.1,0.1-0.3-0.1-0.5-0.2c0.8-0.6-0.4-1.4,0.4-2.1c-0.4-0.1-0.7-0.3-0.3-0.7c0.1-0.1-0.2-0.7-0.4-1.1
			c-0.3-0.5-0.3-1.1-0.9-1.4c0.3-0.7-0.7-1.2-0.4-1.9c0.1-0.3-0.5-0.7-1.1-0.7c0.1-0.7,0-1.4-0.4-2c-0.4-0.5-0.7-1-1-1.5
			c-0.3-0.5-0.5-1-1.1-1.4c-0.2-0.1-0.1-0.8-0.5-1c-0.2-0.2-0.4-0.3-0.7-0.5c-0.4-0.2-0.1-0.4,0.1-0.6c-0.6,0.3-0.2-1-1-0.4
			c0.2-0.6-0.4-0.7-0.6-1.1c-0.3-0.8-1.2-1.3-1.6-2.2c-0.2-0.4-0.5-0.9-1.3-0.8c-0.4,0.1-0.5-0.5-0.5-0.8c-0.1-0.5-0.3-0.8-0.8-0.8
			c-0.3,0-0.4-0.2-0.5-0.4c-0.1-0.3-0.3-0.6-0.7-0.6c-0.2,0-0.3-0.1-0.3-0.2c0.1-0.7-0.5-0.7-0.9-0.7c-1-0.9-1.7-2.2-3.4-2.3
			c0.1-0.7-1.2-1.7-1.8-1.5c-0.8-1.1-2.3-1.1-3-2.1c-0.4,0.1-0.2,0.4-0.4,0.5c-0.2-0.3-0.2-0.3-0.2-0.7c-0.4-0.2-0.8-0.2-1.2-0.3
			c-0.4-0.1-0.9-0.3-1.3-0.5c-0.4-0.2-0.7-0.3-1.2-0.2c-0.1,0-0.5-0.1-0.8-0.2c-0.9-0.4-1.9-0.6-3-0.6c-0.1,0-0.3,0-0.4-0.2
			c-0.2-0.5-0.4-1.1-0.4-1.6c0-0.7-0.3-1.4-0.2-2.1c0-0.8-0.8-1.5-0.2-2.4C33.8,88.9,34.1,88.4,33.4,88.4
			C33.4,88.4,33.4,88.4,33.4,88.4z M42.4,105.5c-0.2-0.3-0.5-0.5-0.7-0.8c-0.3,0.1-0.7,0.6-0.9-0.1c0-0.2-0.4-0.2-0.5-0.2
			c-0.4,0-0.7,0.2-1,0.3c-0.2,0.1-0.4,0.2-0.3,0.4c0.1,0.2,0.2,0.2,0.4,0.3c0.7,0.1,1.6,0.4,1.9,0.8c0.5,0.6,1.2,0.9,1.7,1.5
			c0.4,0.4,0.9,0.7,1.3,1.2c0.3,0.4,0.6,1,1.2,1.1c0.9,0.2,1.7-0.7,1.6-1.6c-0.3,0-0.4,0.4-0.7,0.4c0.1-0.4,0-0.8-0.1-1.2
			c-0.3-0.1-0.8,0.1-0.9-0.4c-0.1-0.5-0.5-0.7-0.9-0.9c-0.1,0.2,0.1,0.2,0,0.3c-0.4,0.2-0.6-0.1-0.6-0.3c-0.1-0.9-0.8-1-1.4-1.3
			C42.5,105.1,42.5,105.3,42.4,105.5L42.4,105.5z M52.2,114.5L52.2,114.5c-0.1-0.5-0.6-0.8-1.1-1.2c0,0.4,0,0.7-0.3,0.8
			c0-0.3-0.4-0.4-0.4-0.6c0-0.4,0-0.7-0.5-0.8c-0.4-0.1-0.7-0.3-1.3-0.1c0.3,0.2,0.2,0.5,0.1,0.7c-0.3,0.4,0,0.9,0.2,1
			c0.4,0.2,0.6,0.6,0.8,0.8c0.7,0.9,1.6,1.6,2.2,2.5c0.3,0.5,0.7,0.9,1.3,1.2c0.3,0.1,0.4,0,0.5-0.2c-0.1,0-0.2-0.1-0.6-0.2
			c1.4-0.3,1.6-1,1-2.1c-0.3-0.1-0.8,0-0.6-0.7c0.1-0.2-0.2-0.3-0.5-0.3c-0.4,0-0.8,0-1-0.4c0.1-0.1,0.4-0.1,0.4-0.3
			C52.5,114.4,52.3,114.5,52.2,114.5z M77.5,95.8c-0.5,0-0.7,0.5-1.2,0.5c0.1,0.4,0.4,0.9,0.8,1c0.5,0.1,0.7,0.4,1,0.6
			c1.3,1.1,2.8,1.8,4.2,2.6c0.1,0.1,0.3,0,0.4,0c0.6-0.2,1.2-1.7,0.4-2.2c-0.9-0.5-1.8-0.9-2.8-1.4c0,0.3-0.1,0.5-0.1,0.7
			c-0.3-0.5-0.2-1.4-1.2-1.2c-0.1-0.2,0.2-0.3,0.1-0.4c-0.4-0.3-0.6,0.5-1.1,0.1c0.1-0.2,0.3-0.3,0.3-0.6
			C78.1,95.6,77.7,95.2,77.5,95.8C77.5,95.7,77.5,95.8,77.5,95.8z M115.2,44.9c0.2-0.1,0.4-0.3,0.6,0.1c-0.4,0-0.6,0.7-1.1,0.2
			c0.2,0.6-0.8,0.6-0.5,1.2c0.2,0,0.4-0.2,0.7-0.1c1.4,0.4,2.9,0.2,4.3,0.2c0.7,0,1.3,0.2,2,0c0.3-0.1,0.6-0.1,0.9,0
			c0.9,0.3,1.7,0,1.9-0.8c0.2-0.7-0.7-1.8-1.3-1.6c-0.7,0.2-1.3,0.3-2,0.1c-0.1,0-0.3,0-0.5,0c-1,0.1-1.9,0.4-2.9,0.2
			c-0.1,0-0.2,0-0.2,0.1c-0.3,0.4-0.7,0.2-1.1,0.2C115.5,44.5,115.3,44.6,115.2,44.9C115.2,44.9,115.2,44.9,115.2,44.9
			C115.2,45,115.2,45,115.2,44.9C115.2,45,115.2,45,115.2,44.9z M41.4,42.8C41.4,42.8,41.4,42.8,41.4,42.8c-0.4-0.4-1.7-0.4-2.2-0.1
			c-0.6-0.6-1.4,0.1-1.9-0.1c-0.7-0.2-1.3,0.1-1.9-0.1c-0.2,0.2-0.1,0.6-0.4,0.7c-0.6,0.1-0.4,0.5-0.4,0.7c0,0.4,0.4,0.5,0.8,0.5
			c1.3,0.1,2.7,0.1,4,0.2c1.3,0.1,2.6,0.1,3.9,0.2c0.9,0.1,1.8,0,2.7,0.1c0.4,0.1,0.8-0.1,0.9-0.5c0.1-0.5,0.4-1,0-1.5
			c0-0.1-0.1-0.1-0.2-0.1c-1.2-0.5-2.4-0.1-3.6-0.3c0,0.3-0.1,0.5-0.1,0.8C42.6,42.6,42.1,42.3,41.4,42.8z M53.8,89.3
			c-0.2-0.1,0-0.4-0.1-0.6c-0.2-0.1-0.4,0-0.5-0.1c-0.3,0-0.7,0-0.9-0.4c-0.3-0.7-0.7-0.8-1.4-0.6c-0.2-0.2-0.3-0.8-0.8-0.4
			c-0.3-0.5-0.6-0.9-1.3-1c0.1-0.4,0-0.7-0.6-0.5c-0.1-0.7-0.4-0.8-0.8-0.4c-0.2-0.7-0.8-1.1-1.5-0.9c-0.1-1.1-1.3-0.5-1.7-1.2
			c-0.2,0.3,0.1,0.4-0.1,0.5c-0.6,0.1-0.6-0.4-0.8-0.6c-0.4,0-0.3,0.5-0.7,0.5c-0.2-1-0.7-0.4-1.2-0.3c0.1,0.8,0.1,0.8-0.4,0.8
			c-0.1-0.2,0.2-0.5-0.2-0.7c-0.1,0.1-0.1,0.1-0.2,0.2c-0.3,0.5-0.2,0.7,0.4,0.8c0.2,0,0.5,0,0.7,0.2c1,1,2.2,1.7,3.2,2.6
			c0.5,0.4,1.2,0.5,1.6,1c0.8,0.8,2.1,1,2.8,1.9c0,0,0.1,0,0.1,0c1.3,0.8,2.7,1.5,3.9,2.4c1.7,1.2,3.6,2.1,5.2,3.3
			c0.5,0.4,1.1,0.6,1.6,1c1,0.8,2.1,1.5,3.1,2.2c0.6,0.5,1.3,0.8,1.9,1.2c0.6,0.4,1.2,0.8,1.8,1.2c0.9,0.6,1.9,1,2.7,1.7
			c1.4,1.1,3.1,1.8,4.4,3c0.4,0.3,0.9,0.8,1.6,0.6c0.1,0.3,0.2,0.4,0.5,0.6c0.8,0.4,1.7,0.8,2.4,1.4c0.8,0.6,1.8,1,2.6,1.5
			c0.4,0.2,0.6,0.7,1.1,0.9c1.2,0.4,2.1,1.3,3,2c1.3,1,2.5,2,4,2.7c0.1,0,0.2,0.1,0.3,0.2c0.5,0.4,1,0.9,1.6,1.2
			c0.8,0.4,1.6,0.8,2.2,1.3c0.8,0.6,1.5,1.2,2.3,1.9c0.7,0.7,1.3,0.9,2,0.4c0.7-0.4,0.1-1.4,0.8-1.8c0.1-0.1,0.1-0.4-0.1-0.6
			c-0.3-0.3-0.6-0.5-0.6-0.9c-0.4,0.1-0.2,0.5-0.4,0.6c-0.5-0.3,0-0.8-0.3-1.1c-0.2,0.1,0,0.3-0.4,0.4c0-0.8-0.7-1.1-1.3-1.5
			c-0.1,0.2-0.2,0.4-0.6,0.4c0-1.3-1.1-1.8-2-2.5c-0.1,0.3,0.1,0.6-0.2,0.8c-0.7-1-1.6-1.9-2.6-2.7c0.1,0.2,0,0.3-0.3,0.4
			c-0.1-0.5-0.5-0.7-0.9-0.8c-0.1-0.2,0.3-0.2,0.1-0.4c-0.3-0.1-0.4,0.1-0.7,0.1c0-0.6-0.9-0.6-0.8-1.3c-0.3,0-0.3,0.3-0.6,0.1
			c-0.1-0.1,0-0.3-0.2-0.4c-0.5,0.1-0.9-0.1-0.9-0.6c0-0.1-0.2-0.3-0.2-0.3c-0.8,0.3-0.9-0.4-1.3-0.8c-0.2,0.5-0.6,0.1-0.9,0.1
			c-0.3,0-0.2,0-0.2-0.4c0-0.4,0.2-0.9-0.5-1.1c-0.2,0.2,0.2,0.6-0.3,0.6c-0.1-0.4,0-0.9-0.5-1c-0.9-0.2-1.4-0.8-2-1.3
			c-0.5,0.1-0.2,0.5-0.5,0.7c-0.3-0.1-0.1-0.5-0.4-0.6c-0.2,0.1-0.1,0.4-0.5,0.2c-0.4-0.2-0.6-0.4-0.2-0.9c-0.9-0.1-0.9-1.2-1.8-1.4
			c0,0.3,0.3,0.4,0.1,0.7c-0.5-0.2-0.7-0.6-0.7-1c-0.3-0.1-0.5,0-0.7,0.2c-0.1-0.6-0.2-1.1-0.9-1.2c-0.2,0.2,0,0.5-0.4,0.7
			c0-0.4-0.3-0.7-0.6-0.8c-0.1-0.1-0.3-0.2-0.1-0.3c0.4-0.2,0-0.3-0.1-0.3c-0.4-0.2-0.7-0.7-1.1-0.7c-0.4,0-0.2,0.5-0.7,0.4
			c0.4-0.6,0.3-1.2-0.4-1.4c-0.2,0.1-0.2,0.3-0.4,0.4c-0.1,0.1-0.4,0.1-0.3-0.2c0.1-0.4-0.1-0.6-0.5-0.5c-0.4,0.1-0.6-0.1-0.9-0.3
			c-0.1-0.1,0-0.3-0.2-0.2c-0.5,0.1-0.7-0.3-1-0.4c0-0.4,0.3-0.1,0.4-0.3c-0.3-0.5-1-0.4-1.2-0.9c-0.2,0.1-0.3,0.3-0.6,0.2
			c0-0.7-0.6-0.9-1.1-1.3c-0.1,0.1,0.1,0.4-0.2,0.4c-0.3-0.4-0.1-1.2-1-1.2c-0.1-0.6-0.6-0.5-1.1-0.6c-0.2,0-0.4-0.1-0.4-0.4
			c0-0.3-0.2-0.4-0.5-0.4c-0.3,0-0.7,0-0.8-0.4c-0.2-0.7-0.7-1-1.4-1.1c-0.3-0.1-0.5-0.1-0.7-0.3c-1.2-0.8-2.2-1.9-3.8-2.1
			c-0.2,0-0.2-0.1-0.3-0.2c-0.2-0.4-0.8-0.6-1.1-0.5C53.9,89.2,53.9,89.2,53.8,89.3z M75.8,88.3c0,0-0.1-0.1-0.1-0.1
			c-0.2-0.5-1-1-1.6-0.9c-0.2,0-0.3,0-0.4-0.2c-0.4-0.8-1.1-1.4-1.9-1.6c-0.7-0.2-1.1-1.2-1.9-0.5c-0.4-0.2,0.1-0.5-0.3-0.6
			c-0.5,0.2,0.1,0.7-0.3,0.9c-0.5-0.5,0.2-1.5-0.9-1.7c-0.1,0.1-0.1,0.3-0.4,0.2c0.2-0.6-0.5-0.5-0.8-0.9c-0.3-0.4-0.6-0.5-1.1-0.5
			c-0.3,0-0.8-0.1-0.9-0.5c-0.3-0.8-0.8-1-1.6-0.6c0-0.4-0.1-0.7-0.6-0.7c-0.1,0.1,0,0.3-0.2,0.3c-0.5-0.2-0.6-0.8-1.2-1
			c-0.6-0.2-1.1,0.2-1.6-0.1c0-1-0.1-0.9-1-1.2c-0.7-0.2-1.5-0.4-1.8-1.2c0,0-0.1,0-0.2,0c0,0.2,0,0.3,0,0.4c-0.2,0-0.4,0-0.5-0.1
			c0-0.2,0.3-0.4,0-0.5c-0.4-0.1-0.8,0-1,0.4c-0.3-0.4,0.1-0.9-0.4-1.1c-0.5-0.2-0.2,0.5-0.6,0.5c-0.3-0.4-0.1-1.2-0.9-1.3
			c0.1-0.2,0-0.4-0.3-0.4c-0.3,0-0.3,0.3-0.3,0.5c-0.1,0-0.1,0.1-0.2,0.1c-0.3-0.2-0.7-0.1-0.8-0.5c-0.3-0.8-0.3-0.8-1-0.4
			c-0.2-0.6-0.9-0.9-1.7-0.7c-0.3-0.7-0.6-0.7-0.8,0.1c-0.2,0-0.4,0-0.5-0.2c0,0.1,0,0.2-0.1,0.2c-0.4,0.5-0.3,0.9,0.3,1.2
			c0.1,0.1,0.2,0.2,0.3,0.3c0.4,0.5,1,0.8,1.6,1.1c0.8,0.3,1.7,0.8,2.3,1.3c1.5,1.2,3.3,1.8,4.8,2.9c0.5,0.3,1.1,0.5,1.6,0.8
			c1,0.9,2.3,1.3,3.5,2c1,0.6,2,1.2,3,1.8c1.5,0.8,3,1.7,4.3,2.7c0.3,0.3,0.7,0.3,1.1,0.5c0.8,0.5,1.5,1.1,2.3,1.6
			c0.2,0.2,0.5,0,0.7,0.2c1.1,1.3,2.7,1.8,4.2,2.7c0.9,0.6,1.9,0.9,2.8,1.4c1,0.6,2.1,0.9,3,1.6c0.4,0.3,0.8,0.3,1.1,0.4
			c0.8,0.4,1.4,1.1,2.2,1.4c0.3,0.1,0.6,0.2,0.8,0.4c0.7,0.8,1.8,1,2.7,1.7c0.6,0.5,1.4,0.8,2.1,1.1c0.9,0.4,1.7,0.9,2.6,1.4
			c0.8,0.4,1.6,0.9,2.3,1.4c1.4,1.1,3,2,4.7,2.7c1.5,0.7,3,1.4,4.3,2.3c0.8,0.6,1.8,0.3,2.2-0.6c0.2-0.5,0-1-0.1-1.5
			c0-0.3-0.1-0.4,0.3-0.3l0,0l0,0c-0.4-0.3-0.7-0.6-1.4-0.6c-0.3,0-0.7-0.3-0.7-0.6c-0.1-0.3-0.3-0.5-0.6-0.5
			c-0.2,0-0.3-0.1-0.3-0.2c-0.2-0.4-0.6-0.5-1-0.6c-0.5-0.1-0.9-0.4-1.3-0.6c0,0.1-0.1,0.2-0.2,0.2c-0.2,0-0.4-0.2-0.4-0.4
			c-0.1-0.3-0.2-0.7-0.7-0.3c-0.1-0.3-0.2-0.6-0.6-0.7c-0.6-0.2-1.3,0-1.6-0.7c0,0-0.1,0-0.2,0c-0.6,0-1-0.1-0.8-0.8
			c-0.2,0.1-0.5,0.3-0.6,0.2c-0.3-0.3-0.7-0.5-0.7-1c-0.2,0.4-0.5,0.4-0.9,0.3c0-0.5-0.8-1.4-1.3-1.5c-0.5-0.1-1.1-0.1-1.3-0.7
			c0-0.1-0.2-0.3-0.2-0.3c-0.7,0.4-0.6-0.4-1-0.5c0,0.2,0.1,0.4-0.2,0.5c-0.1-0.1-0.2-0.2-0.2-0.4c0-0.6-0.3-0.8-0.9-0.7
			c-0.4,0-0.8-0.3-0.9-0.5c-0.2-0.6-0.5-0.3-0.8-0.3c-0.1-0.4-0.4-0.6-0.6-0.9c-0.3,0-0.4,0.3-0.7,0.2c0.1-0.6-0.6-0.5-0.9-0.8
			c-0.8-1-2.1-1.4-3.3-1.9c-0.6-0.2-1.4-0.1-1.7-0.9c-0.1,0.3,0,0.6-0.4,0.6c0-0.5,0-0.8-0.6-1.1c-0.2-0.1-0.6-0.2-0.8-0.3
			c-0.5-0.3-0.9-0.8-1.5-1c-0.4-0.2-1-0.1-1.3-0.6c-0.3-0.4-0.9-1-1.7-0.7c-0.3,0.1-0.5-0.1-0.5-0.4C76,88.4,76,88.3,75.8,88.3z
			 M38.1,29.8c-0.8,0.1-1.1-0.8-2-0.5c-0.7,0.3-1.1,0.8-1.7,1.1c0.3,0.4,0.6,0.7,1.1,0.6c0.1,0,0.3-0.2,0.4-0.1
			c0.6,0.4,1.4,0.2,2.1,0.3c1.2,0.2,2.5,0.1,3.7,0.2c1.5,0.1,3,0.1,4.4,0.5c0.8,0.2,1.7-0.1,1.9-0.7c0.2-0.7-0.1-1.2-0.8-1.4
			c-0.3-0.1,0-0.4-0.3-0.5c-0.8,0.6-1.6-0.3-2.4-0.1c-0.3,0.2,0.1,0.6-0.4,0.6c-0.3,0.1-0.3-0.3-0.4-0.3c-0.3-0.1-0.5-0.4-0.8-0.4
			c-0.3,0.1,0.1,0.5-0.3,0.6c-0.4-0.1-0.5-0.6-0.8-0.7c-0.3,0.2-0.2,0.5-0.5,0.6c-0.2-0.2-0.2-0.6-0.7-0.5c0.1,0.4,0.1,0.7-0.5,0.9
			c0-0.3,0.3-0.8,0-0.8c-0.6,0-1.2-0.4-1.7,0c-0.1,0.2,0.2,0.2,0.3,0.3C38.3,29.4,38.2,29.7,38.1,29.8z M120.7,31.1
			c-0.2-0.4-0.5-0.5-0.9-0.5c-0.3,0-0.6,0.1-1,0c-0.5-0.2-1-0.3-1,0.4c-0.7,0.1-0.7-0.9-1.4-0.5c-0.4,0.2-1.1-0.6-1.1,0.4
			c-0.8-0.6-0.9-0.5-1.3,0c-0.6-0.2-0.7-0.2-1.1,0.4c-0.2,0.4-0.2,0.8,0.1,1.1c0.3,0.2,0.7,0.2,1,0.2c1.5,0,2.9-0.1,4.4,0
			c0.3,0,0.6-0.1,0.8,0c0.9,0.4,1.9,0.1,2.8,0.4c0.1,0,0.2,0,0.3-0.1c0.5-0.3,0.6-1.4,0.3-1.9c-0.2-0.3-1.5-0.5-1.8-0.3
			C120.8,30.8,120.8,30.9,120.7,31.1z M64.4,104.8c0.2,0.1,0.3,0.3,0.4,0.5c0.2,0.3,0.3,0.7,0.6,0.8c0.6,0.1,0.8,0.5,1.1,0.9
			c0.5,0.6,1.3,0.8,1.8,1.4c0.4,0.4,1.1,0.5,1.5,1.1c0,0.1,0.2,0.2,0.2,0.1c0.7-0.1,0.9,0.3,1.1,0.7c0.4,0.5,0.6,0.5,1.1,0
			c0.4-0.4,0.4-0.6,0.1-1.1c-0.2-0.3-0.3-0.6-0.4-1c-0.1-0.4-1.1-1.1-1.5-1.1c-0.1-0.3-0.3-0.6-0.5-0.8c-0.3-0.1-0.3,0.3-0.6,0.2
			c0.1-1-1-1-1.4-1.5c-0.3,0-0.2,0.3-0.4,0.3c-0.4-0.9-0.4-0.9-2-0.8c-0.2-0.1,0.2-0.7-0.3-0.4C64.9,104.4,64.6,104.4,64.4,104.8z
			 M81.8,114.3c-0.4-0.9-1.1-1.3-1.7-1c-0.3-0.5-0.7-0.9-1.5-0.9c0.4,0.3,0.4,0.3,0.2,0.7c-0.3-0.2-0.5-0.1-1.3-0.3
			c-0.4-0.1-0.6-0.1-0.7,0.2c-0.1,0.3,0,0.8,0.3,0.8c0.6,0.1,0.8,0.6,1.2,0.8c1.2,0.7,2.5,1.5,3.6,2.4c0.3,0.3,0.6,0.5,0.9,0.8
			c0.4,0.4,0.8,0.7,1.4,0.3c0.4-0.2,0.5-0.6,0.6-0.9c0.1-0.2,0.4-0.6,0-0.8c-0.4-0.2-0.7-0.6-1.2-0.2c-0.6-0.6-0.6-1.4-1.2-1.9
			C82.2,114.1,82,114.1,81.8,114.3z M57.5,125.9c0,0,0-0.1,0-0.1c-0.2-0.9-0.7-1.7-1.2-2.5c-0.2-0.4-0.7-0.5-1.2-0.7
			c-0.3-0.1-0.6-0.2-0.9,0c-0.2,0.2-0.4,0.5-0.2,0.7c0.6,0.7,0.4,1.6,0.9,2.4c0.6,1,0.9,2.1,1.2,3.3c0.1,0.4,0.3,0.8,0.7,1
			c0.5,0.2,0.8-0.2,1.1-0.6c0.3-0.3,0.7-0.7,0.4-1.1c-0.4-0.6,0-1.5-0.8-2C57.4,126.2,57.4,126,57.5,125.9z M95.9,105.5
			c-1.1,0-1.5-1-2.4-1.4c0,0.4-0.4,0.5-0.5,0.2c-0.2-0.4-0.6-0.4-0.9-0.7c-0.6-0.5-1.2-0.5-1.9,0c-0.5,0.3-0.5,0.6-0.2,1
			c0.3,0.4,0.9,0.5,1.1,0.8c1.1,1.1,2.7,1.4,3.7,2.4c0.3,0.2,0.7,0.4,1.1,0c0.5-0.5,0.6-1.4,0.2-2c-0.2,0-0.4,0.4-0.6,0
			C95.5,105.7,95.9,105.8,95.9,105.5z M48.3,112.5c-0.5,0.5-0.4,0.6,0.1,0.9C48.5,113.1,48.3,112.8,48.3,112.5z M76.5,88.5
			C76.5,88.5,76.5,88.5,76.5,88.5C76.5,88.5,76.5,88.5,76.5,88.5C76.4,88.4,76.4,88.4,76.5,88.5C76.5,88.4,76.5,88.4,76.5,88.5z
			 M32.9,80C32.8,80,32.8,79.9,32.9,80c-0.1,0-0.1,0-0.1,0C32.8,80,32.8,80,32.9,80C32.8,80,32.9,80,32.9,80z"/>
		<path id="XMLID_346_" class="st0" d="M81.8,34c-0.1,0-0.2,0-0.3,0c0.1-0.3,0.3-0.3,0.5-0.5c-0.3-0.1-0.5-0.4-0.7-0.7
			c0.5-0.4,0.4-0.6-0.2-0.8c0.9-0.2,0.1-0.8,0.3-1.2c0-0.1-0.2-0.3-0.2-0.5c-0.1-0.4-0.3-0.9,0.3-1.2c0.1,0,0.2-0.2,0.2-0.3
			c-0.2-0.3-0.5,0-0.7-0.1c0.2-0.3,0.5-0.3,0.7-0.5c0.4-0.3,0.4-0.8-0.1-1c-0.4-0.2-0.4-0.6-0.5-0.9c-0.2-0.6,0.1-1.3-0.4-1.9
			c0.3-0.4,0.6-0.7,0.2-1.1c-0.2-0.2,0-0.5,0-0.5c0.4-0.4,0.2-0.9,0.1-1.3c0-0.1-0.4-0.4,0.1-0.5c0.2-0.1,0.1-0.4,0-0.6
			C81,19.9,81.1,19.4,81,19c-0.1-0.3,0.2-0.2,0.4-0.2c0,0,0,0,0,0c0,0,0,0,0,0c-0.5-0.5-0.1-1-0.1-1.5c0.3-0.1,0.3,0.2,0.4,0.2
			c0.4-0.3,0.1-0.5,0-0.7c-0.1-0.3-0.3-0.5-0.1-0.8c0.1-0.2,0.5-0.3,0.3-0.6c-0.1-0.2-0.3-0.5,0.3-0.4c0-0.6-0.2-1.4,0.8-1.7
			c-0.4-0.2-0.5-0.4-0.6-0.6c0.5-0.6,0.9-1.2,0.9-2c0-0.3,0-0.6,0.3-0.9c0.4-0.4,0.2-1,0.5-1.4c0.7-1,1.7-1.7,2.5-2.5
			c0.6-0.7,1.4-1.2,2-1.9c1.1-1.1,2.6-1.3,4.2-1.5c1.1-0.1,2.1,0,3.2,0.1c0.5,0,1.1,0.3,1.4,0.2c0.7-0.2,1,0.4,1.4,0.6
			c0.2,0.1,0.3,0.4,0.6,0c0.1-0.1,0.4,0,0.4,0.1c0,0.6,0.6,0.5,0.9,0.7c0.5,0.4,1,0.8,1.2,1.3c0.5,0.9,0.6,1.9,1.2,2.7
			c0.6,1,0.8,2.1,1.2,3.2c0.3,0.9,0.2,1.9,0.3,2.9c0.1,1.5,0.1,3,0.3,4.5c0.2,1,0.2,2,0.2,3c0.1,1.2-0.1,2.5,0.2,3.7
			c0.1,0.4-0.2,0.9-0.2,1.3c0.1,1.6-0.1,3.3,0.2,4.9c0.1,0.5-0.1,1.1-0.1,1.6c-0.1,1.2,0.1,2.4,0.1,3.6c-0.1,1.2,0.1,2.4,0,3.7
			c-0.1,1.1,0,2.3,0,3.4c0,0.9,0,1.7,0,2.6c0,1.7-0.2,3.4-0.1,5.1c0.2,2.3,0.1,4.7,0.2,7c0,2,0.2,4,0.4,6c0.1,0.9,0,1.9,0,2.8
			c-0.5,0.3-1.1-0.8-1.6,0c-0.3-0.2-0.5-0.9-1.1-0.5c-0.4-0.8-1.4-0.5-2-0.8c-0.6-0.3-1.3-0.8-2.1-0.7c-0.3,0-0.7-0.3-1.1-0.5
			c-0.3,0.2-0.6,0.5-0.9-0.1c0-0.1-0.2-0.1-0.3-0.1c-0.5-0.2-1.1-0.2-1.6-0.7c-0.2-0.2-0.5-0.1-0.7,0c-0.4,0.2-0.7,0.2-1-0.2
			c-0.1-0.2-0.6-0.2-0.9-0.3c-0.2-0.1-0.5,0-0.8-0.1c-0.4-0.2-0.2,0.3-0.4,0.5c-0.2-0.9-1.2-0.6-1.7-1c-0.2,0.1,0,0.3-0.1,0.4
			c0,0-0.1,0-0.1,0c-0.2-0.7-0.8-0.7-1.4-0.6c-0.2,0-0.3-0.2-0.5-0.3c-0.5-0.2-1.3,0-1.5,0.4c-0.5,0.1-0.6-1.2-1.3-0.3
			c0-0.2,0-0.5-0.5-0.3c-0.2,0.1-0.6,0.2-0.6,0.1c-0.3-0.7-1-0.4-1.5-0.5c-0.4-0.1-0.8-0.1-0.4-0.7c0.3-0.5,0-1.3-0.5-1.6
			c0.7-1.1,0.7-3.1,0-3.3c0.5-0.3,0.5-0.7,0.5-1.2c0.1-0.9-0.2-1.8,0-2.7c0-0.2,0.1-0.5-0.2-0.5c0.1-0.6,0.5-1.2,0-1.8
			c-0.1-0.1-0.2-0.3-0.1-0.4c0.4-0.6,0.3-1.2,0.3-1.9c0-0.5-0.4-0.9-0.1-1.4c-0.1,0-0.2,0-0.3-0.1c0.4-0.4,0.5-0.7-0.2-1
			c1.1-0.9,0-2.1,0.6-2.9c0.7-0.9,0.1-2,0.6-2.9c-0.2-0.1-0.3-0.1-0.6-0.2c1-0.4-0.6-0.9,0.1-1.4c0.1-0.1,0-0.2-0.1-0.2
			c-0.3-0.4-0.3-0.7-0.1-1.2c0.1,0.1,0.2,0.1,0.4,0.2C81.8,35.8,81.5,34.9,81.8,34c0,0,0.1,0,0.1,0C81.9,34,81.9,34,81.8,34
			C81.8,34,81.8,34,81.8,34z M91.8,30.6C91.8,30.5,91.8,30.5,91.8,30.6C91.8,30.5,91.8,30.5,91.8,30.6
			C91.8,30.5,91.8,30.5,91.8,30.6c-0.1,0.2-0.3,0.3-0.4,0.1c-0.2-0.4-0.6-0.2-0.7-0.1c-0.6,0.3-1.5,0.2-1.9,0.8
			c0,0.4,0.7,0.4,0.4,0.9c1.4,0.4,2.8,0.2,4.2,0.3c1.2,0,2.5-0.2,3.7,0.3c0.1,0,0.3,0,0.4,0c0.3-0.1,0.8-0.1,0.8-0.6
			c-0.1-0.5,0.2-1.2-0.5-1.6c-0.2,0-0.2,0.3-0.4,0.3c0-0.3,0-0.5-0.5-0.4c-0.2,0.1-0.5,0.3-0.7,0.1c-0.4-0.3-1-0.1-1.5-0.4
			c0.2,0.4,0,0.7-0.2,0.6C93.6,30.3,92.7,30.4,91.8,30.6z M96.9,43.2c0,0,0,0.4-0.4,0.3c-0.5-0.1-1,0-1.5-0.1c-0.4,0-0.8,0.5-1.1,0
			c0,0-0.1,0-0.1,0c-0.1,0.6-0.5,0.1-0.7,0.1c-0.6,0-1.2-0.2-1.8,0c-0.2,0-0.2,0.3-0.5,0.2c-0.6-0.1-1.2-0.1-1.8,0
			c-0.4,0.1-0.8,0.3-0.8,0.7c0,0.4-0.3,0.5-0.7,0.7c0.3,0.2,0,0.7,0.4,0.6c0.5-0.1,1,0.2,1.5,0.2c2.7,0,5.4,0.2,8.1-0.2
			c0.5-0.1,0.8-0.4,0.8-0.9C98.2,44.1,98,43.4,96.9,43.2z"/>
		<path id="XMLID_342_" class="st0" d="M73.3,61.5c-0.3,0-0.5,0.4-0.9,0.3c-0.1-0.2,0.1-0.4-0.3-0.5c-0.7-0.1-1.3-0.1-1.8,0.2
			c-0.2,0.1-0.2,0.1-0.3-0.1c-0.5-0.3-0.8,0.1-1.1,0.5c0-0.6-0.3-0.8-0.8-0.5c-0.4,0.2-0.8-0.2-1.3-0.1c-0.3,0.1-0.6,0-0.7,0.5
			c-0.1-0.6-0.5-0.7-0.9-0.5c-0.4,0.2-0.9,0-1.3,0.3c-0.2-0.1-0.1-0.2-0.1-0.4c-0.4,0-1-0.2-1,0.4c-0.3,0-0.3-0.3-0.5-0.3
			c-0.2,0-0.3,0.3-0.4,0.4c-0.8-0.6-1.9-0.4-2,0.4c-0.3-0.3-0.4-0.6-0.9-0.6c-0.3,0-0.2-0.4-0.1-0.6c0.1-1.2-0.1-2.4,0-3.6
			c0-0.4-0.1-0.6-0.5-0.9c0.4-0.2,0.5-0.5,0.4-0.9c-0.2-1.1-0.1-2.2-0.1-3.3c0.1-1.1,0.2-2.2-0.2-3.3c-0.1-0.2,0.1-0.3,0.1-0.6
			c0.1-0.6-0.2-1.1-0.5-1.6c-0.1-0.1-0.2-0.3-0.1-0.4c0.4-0.4,0.2-1,0.4-1.5c0.1-0.4-0.1-0.9-0.3-1.3c0.6-0.4,0.8-1.5,0.3-1.9
			c-0.4-0.3-0.3-0.6-0.2-0.9c0.1-0.2,0.1-0.4-0.3-0.4c0.5-0.1,0.6-0.4,0.6-0.6l0,0c-0.1-0.4-0.2-0.8-0.3-1.2
			c-0.1-0.2-0.2-0.3,0.1-0.6c0.3-0.2,0.2-0.6-0.1-0.9c0.7-0.6,0.4-1.2,0.2-1.8c-0.2-0.5-0.2-0.9-0.1-1.4c0.2-0.8,0.4-1.7-0.4-2.4
			c-0.4-0.3-0.2-0.7-0.5-1.1c0.4-0.1,0.3,0.2,0.4,0.3c0.7-0.5-0.3-1.4,0.5-1.8c0.1-1.3,0-2.5-0.3-3.7c0.2,0,0.2,0.2,0.4,0.1
			c-0.2-0.5-0.1-1.2-0.1-1.7c0.2-1.7-0.4-3.4-0.1-5.1c0.1-0.5-0.1-0.9-0.1-1.3c0-0.8,0.5-1.5,0.1-2.2c-0.4-0.7-0.1-1.4,0-2
			c0.2-0.9-0.5-1.6-0.3-2.5c0.1-0.3-0.4-0.3-0.3-0.8c0.6-1.8,1.9-3.1,3.3-4.4C62.8,4,64.8,3,67.1,2.6c1.2-0.2,2.5-0.3,3.7-0.2
			c0.7,0.1,1.6-0.1,2.2,0.3c0.5,0.3,1,0.7,1.4,1.1c0.6,0.5,0.9,1.2,1.4,1.7c0.5,0.6,0.4,1.2,0.8,1.7c0.4,0.6,0.2,1.3,0.6,1.9
			c0.2,0.3,0.1,0.9,0.1,1.3c0,0.5,0.1,0.9,0.5,1.2c0,0.2-0.3,0-0.3,0.2c0.3,0.7,0.4,1.4,0.5,2.1c0.1,0.8,0.1,1.6,0.1,2.4
			c0,0.8,0.3,1.6,0.3,2.4c0,0.5-0.3,0.9-0.2,1.4c0.1,1,0,2.1,0.3,3.1c0.1,0.3,0,0.4,0,0.7c-0.2,0.6-0.5,1.2,0.1,1.8
			c0.1,0.1,0,0.3,0,0.4c-0.2,1.6,0,3.2-0.1,4.8c0,0.8-0.2,1.6-0.1,2.4c0.2,2.3-0.1,4.5,0.1,6.8c0.2,1.8,0,3.6-0.2,5.4
			c-0.1,1.3,0.2,2.5,0,3.7c-0.2,1.6-0.1,3.3,0,4.9c0.1,1.6-0.1,3.3-0.1,4.9c0,0.9,0.1,1.9,0,2.8c0,0.2,0.1,0.5-0.2,0.7
			c-0.4-0.2,0-0.5-0.2-0.8c-0.4-0.2-0.9-0.1-1.4-0.3c-0.4-0.1-0.8-0.1-0.9,0.5c0-0.4-0.2-0.6-0.5-0.7c-1.1-0.3-1.2-0.3-1.7,0.2
			C73.3,61.7,73.4,61.5,73.3,61.5C73.3,61.5,73.4,61.5,73.3,61.5C73.4,61.4,73.3,61.4,73.3,61.5z M69.3,44.2
			c-1.6-0.6-3.2-0.7-4.8-0.4c0,0.3,0.4,0.2,0.4,0.5c-0.5,0.4-0.7-0.4-1.2-0.4c-0.3,0.5-1.1,0.7-1.3,1.3c0.4,0.6,1,0.6,1.6,0.6
			c0.2,0,0.3-0.4,0.5-0.2c0.4,0.4,1,0.2,1.5,0.3c1.6,0.4,3.4,0.1,5,0.3c0.4,0.1,0.8,0,1.2,0c0.4-0.1,0.8-1.1,0.6-1.6
			c-0.1-0.5-0.4-1-1.1-0.9c-0.6,0.1-1.2,0.1-1.6,0C69.7,43.5,69.5,43.7,69.3,44.2z M69.5,29.8c0.1-0.2,0.3-0.3,0-0.4
			c-0.3-0.1-0.8-0.3-1.1,0c-0.3,0.3-0.7,0.3-1,0.6c-0.2,0.2-0.5,0-0.5-0.1c0.1-0.4-0.3-0.3-0.4-0.6c-0.2,0.3,0,0.6-0.3,0.6
			c-0.2-0.3-0.6-0.5-0.7-0.8c-0.4,0.1-0.6,0.7-1,0.1c-0.1-0.1-0.5-0.1-0.7,0.1c0,0.2,0.3,0.1,0.3,0.3c-0.2,0-0.5,0-0.6,0.2
			c-0.2,0.3-0.7,0.4-0.5,0.8c0.1,0.4,0.4,0.6,0.9,0.6c0.9,0,1.8-0.1,2.8,0.2c0.6,0.1,1.3,0.3,2,0.1c0.2-0.1,0.3,0,0.5,0.1
			c0.5,0.3,1.1,0.1,1.6,0.4c0.1,0.1,0.3-0.1,0.4-0.2c0.6-0.7,0.6-1.3,0-2.3C70.6,29.6,70.1,29.7,69.5,29.8z"/>
		<path id="XMLID_341_" class="st0" d="M30.8,67.6c0.3,0.1,0.2,0.3,0.3,0.5C30.9,67.9,30.8,67.8,30.8,67.6z"/>
		<path id="XMLID_340_" class="st0" d="M31.6,72.9c0.4,0,0.3,0.2,0.3,0.3C31.7,73.3,31.6,73.1,31.6,72.9z"/>
		<path id="XMLID_339_" class="st0" d="M33.4,88.4c0,0.1,0,0.2-0.2,0.2c-0.1,0-0.1-0.1-0.1-0.1C33.1,88.4,33.2,88.4,33.4,88.4
			C33.4,88.4,33.4,88.4,33.4,88.4z"/>
		<path id="XMLID_338_" class="st0" d="M49.1,102c-0.2-0.1-0.2-0.2-0.2-0.4c0.1,0,0.1-0.1,0.1-0.1C49.2,101.7,49.4,101.8,49.1,102z"
			/>
		<path id="XMLID_337_" class="st0" d="M58.5,39.7c-0.1,0.1-0.2,0.1-0.2,0c0,0,0-0.1,0-0.1C58.5,39.5,58.5,39.6,58.5,39.7L58.5,39.7
			z"/>
		<path id="XMLID_336_" class="st0" d="M30.6,65.1c-0.1,0-0.1,0-0.4-0.1c0.2,0,0.3,0,0.4,0l0,0C30.6,65,30.6,65.1,30.6,65.1
			L30.6,65.1z"/>
		<path id="XMLID_335_" class="st0" d="M56.1,113C56.1,113,56.1,113,56.1,113C56.1,112.9,56.1,113,56.1,113
			C56.1,113,56.1,113,56.1,113L56.1,113z"/>
		<path id="XMLID_334_" class="st0" d="M131.9,118.8C131.9,118.8,131.9,118.8,131.9,118.8C131.9,118.7,132,118.7,131.9,118.8
			C132,118.8,131.9,118.8,131.9,118.8L131.9,118.8z"/>
		<path id="XMLID_333_" class="st0" d="M119.5,73.6C119.6,73.6,119.6,73.6,119.5,73.6C119.6,73.7,119.6,73.7,119.5,73.6
			C119.6,73.6,119.6,73.6,119.5,73.6L119.5,73.6z"/>
		<path id="XMLID_332_" class="st0" d="M75.8,88.3c-0.1,0.1-0.3,0.1-0.4,0.1c0,0-0.1-0.1-0.1-0.1c0.1-0.1,0.3-0.1,0.5-0.1
			C75.7,88.2,75.8,88.3,75.8,88.3z"/>
		<path id="XMLID_331_" class="st0" d="M85.7,93.6c0,0-0.1,0.1-0.1,0.1c-0.1,0-0.2-0.1-0.2-0.2c0,0,0.1-0.1,0.2-0.1
			C85.6,93.4,85.6,93.5,85.7,93.6z"/>
		<path id="XMLID_330_" class="st0" d="M103.6,104.4c-0.1,0-0.1,0-0.1-0.1c0-0.1,0-0.2,0.1-0.2c0.1,0,0.1,0,0.1,0.1
			C103.8,104.4,103.7,104.4,103.6,104.4z"/>
		<path id="XMLID_329_" class="st0" d="M53.2,75.8c0.1,0.1,0.2,0.2,0.1,0.3c-0.2,0-0.2-0.1-0.2-0.2C53.1,75.9,53.1,75.8,53.2,75.8z"
			/>
		<path id="XMLID_328_" class="st0" d="M75.4,88.4c-0.1,0.1-0.1,0.1-0.2,0c0,0,0-0.1,0.1-0.1C75.3,88.4,75.3,88.4,75.4,88.4z"/>
		<path id="XMLID_327_" class="st0" d="M73.9,87.5C73.8,87.5,73.8,87.5,73.9,87.5C73.8,87.5,73.8,87.5,73.9,87.5
			C73.8,87.5,73.8,87.5,73.9,87.5C73.8,87.5,73.8,87.5,73.9,87.5z"/>
		<path id="XMLID_326_" class="st0" d="M53.4,89c-0.1,0.2-0.2,0.1-0.3,0c0,0,0-0.1,0-0.1C53.3,88.8,53.4,88.8,53.4,89z"/>
		<path id="XMLID_325_" class="st0" d="M63.3,94.9c-0.1-0.1-0.1-0.2,0-0.3c0.1-0.1,0.1,0,0.2,0C63.4,94.7,63.4,94.8,63.3,94.9z"/>
		<path id="XMLID_324_" class="st0" d="M53.9,89.2c0.1,0,0.2,0.1,0.1,0.2c-0.1,0.1-0.2,0-0.2-0.1C53.9,89.2,53.9,89.2,53.9,89.2z"/>
		<path id="XMLID_323_" class="st0" d="M68.7,98.6C68.6,98.6,68.6,98.5,68.7,98.6C68.6,98.5,68.6,98.5,68.7,98.6
			C68.6,98.5,68.7,98.5,68.7,98.6C68.7,98.5,68.7,98.5,68.7,98.6z"/>
		<path id="XMLID_322_" class="st0" d="M41.4,42.8c0,0.1,0.1,0.3-0.1,0.4C41.2,43,41.2,42.9,41.4,42.8
			C41.4,42.8,41.4,42.8,41.4,42.8z"/>
		<path id="XMLID_321_" class="st0" d="M77.5,95.7c0.1,0.1,0.1,0.1,0,0.2C77.5,95.9,77.5,95.8,77.5,95.7
			C77.5,95.8,77.5,95.7,77.5,95.7z"/>
		<path id="XMLID_320_" class="st0" d="M52.2,114.5C52.2,114.5,52.1,114.5,52.2,114.5C52.1,114.5,52.1,114.5,52.2,114.5
			C52.1,114.5,52.2,114.5,52.2,114.5L52.2,114.5z"/>
		<path id="XMLID_319_" class="st0" d="M42.4,105.5c0.1,0,0.2,0.1,0.1,0.2c0,0.1-0.1,0.1-0.2,0C42.3,105.6,42.3,105.5,42.4,105.5
			L42.4,105.5z"/>
		<path id="XMLID_318_" class="st0" d="M45,106.8c0,0,0.1,0,0.1,0c0,0,0,0,0,0.1C45.1,106.9,45,106.8,45,106.8L45,106.8z"/>
		<path id="XMLID_317_" class="st0" d="M45,106.8c-0.1,0-0.1,0-0.1-0.1c0,0,0.1,0,0.1,0C45.1,106.7,45,106.8,45,106.8L45,106.8z"/>
	</g>
</g>
</svg>
