<?xml version="1.0" encoding="utf-8"?>
<!-- Generator: Adobe Illustrator 20.1.0, SVG Export Plug-In . SVG Version: 6.00 Build 0)  -->
<svg version="1.1" id="Layer_1" xmlns="http://www.w3.org/2000/svg" xmlns:xlink="http://www.w3.org/1999/xlink" x="0px" y="0px"
	 viewBox="0 0 181.3 234.7" style="enable-background:new 0 0 181.3 234.7;" xml:space="preserve">
<style type="text/css">
	.st0{fill:#159B56;}
</style>
<g id="XMLID_133_">
	<g id="XMLID_957_">
		<path id="XMLID_1049_" class="st0" d="M48.2,13.1c-0.1,0-0.2,0-0.2,0c0,0-0.1-0.1-0.1-0.1c-0.1,0.1,0,0.1,0,0.2
			c0,0.2,0,0.4,0.3,0.3c0.1,0,0.3,0,0.3,0.2c0,0.1-0.1,0.2-0.2,0.3c-0.3,0.1-0.5,0.2-0.3,0.6c0.1,0.2-0.1,0.3-0.3,0.4
			c-0.2,0-0.2,0.1-0.1,0.2c0.1,0.2,0,0.4-0.3,0.4c-0.3,0-0.4,0.2-0.5,0.4c-0.1,0.6-0.7,0.8-0.9,1.3c-0.1,0.1-0.2-0.1-0.2,0
			c-0.1,0.2,0.2,0.1,0.1,0.4c-0.3-0.1-0.6-0.1-0.7,0.4c-0.2-0.1-0.5-0.2-0.7-0.2c-0.4,0.3-0.9,0.3-1.2,0.7c-0.1,0.1-0.1,0.7,0.3,0.9
			c0.1-0.2,0.3-0.2,0.5-0.2c0.5,0.1,0.8-0.1,1.2-0.4c0.3-0.2,0.7-0.3,1.1-0.4c0.4-0.1,1.2-0.3,1-1.2c0.5,0.2,0.8,0,1-0.4
			c0.1-0.2-0.3-0.3,0-0.7c0.3-0.3,0.5,0.3,0.6,0c0,0,0.1,0,0.1,0c0.1,0.5,0,1,0.7,1.2c0.3,0.1-0.2,0.5-0.2,0.7c0,0.1-0.1,0.1,0,0.2
			c0,0,0-0.1,0.1-0.1c0.1,0,0.1,0.1,0.1,0.3c-1-0.3-1.2,0.7-1.8,1.1c-0.2,0.1-0.3,0.5,0.1,0.6c-0.7,0.2-1.4,0.3-1.7,0.8
			c-0.3,0.5-0.8,0.8-0.8,1.5c0.3,0.4,0.4,0,0.7-0.2c0.2,0.4,0.4,0.2,0.7,0.1c0.5-0.1,0.8-0.6,1.3-0.8c0.2-0.1,0-0.3-0.1-0.5
			c0.2-0.1,0.3-0.1,0.4,0.1c0.3-0.1,0.3-0.5,0.8-0.3c0.2,0.1,0.4-0.6,0.4-0.7c-0.1-0.7,0.4-0.3,0.6-0.3c0.2-0.1,0.2-0.4,0.5-0.4
			c0.2,0.4-0.5,0.5-0.2,0.9c0.6-0.2,0.6,0.5,1,0.6c-0.5,0.7-0.8,1.5-1.5,2c-0.1-0.1-0.5-0.1-0.5,0.1c-0.1,0.5-0.8,0.5-1,1
			c-0.1,0.2-0.3,0.1-0.5,0.3c0.1,0,0.2,0,0.3,0.1c0,0.2-0.2,0.3-0.2,0.4c-0.1,0.3,0,0.4,0.1,0.6c0.1,0.1,0.4,0.2,0.5,0.1
			c0.4-0.3,1.1-0.3,1.3-0.9c0,0,0-0.1,0.1-0.1c0.9-0.2,1.1-1,1.6-1.5c0.1-0.1,0.2-0.1,0.3-0.2c0.2,0.6,0.6,1.1,0.6,1.7
			c0,0.2-0.2,0.2-0.2,0.5c0,0.7-0.7,1-1.2,1.3c-0.5,0.4-0.7,0.8-0.8,1.3c0.3,0.2,0.7-0.2,0.7,0.3c0.3-0.2,0.8-0.2,0.8-0.7
			c0.9,0.2,1-0.6,1.4-0.9c0-0.2-0.3,0.1-0.3-0.1c0.1-0.4,0.5-0.1,0.6-0.3c0.1,0.3,0.1,0.5-0.2,0.7c0.2,0.2,0.4,0.3,0.3,0.6
			c0.2,0.2,0.2-0.2,0.4,0c-0.1,0.3,0.3,0.4,0.3,0.7c0.1,0.3-0.1,0.6-0.2,0.8c-0.2,0.1-0.2-0.2-0.4-0.1c-0.2,0.6-1.1,0.7-1.2,1.4
			c-0.1,0.2-0.3,0.3-0.5,0.2c-0.8-0.1-1.3,0.5-1.9,0.8c-0.1,0-0.3,0.3,0.2,0.5c0.4,0.1,0.7,0.1,1,0.1c0.1-0.3-0.2-0.5-0.1-0.8
			c0.1,0.3,0.4,0.5,0.3,0.8c1.4-0.4,2.5-1.1,3.6-1.9c0.3,0.4,0.2,0.8,0.4,1.1c0.1,0.1-0.1,0.5-0.4,0.7c-0.6,0.3-1.2,0.8-1.7,1.3
			c-0.1,0.1-0.3,0.2-0.4,0.2c-0.3-0.2-0.5,0.1-0.8,0.2c-0.2,0.1-0.3,0.5-0.7,0.4c-0.1,0.4-0.4,0.7-0.3,1.2c0.8-0.5,1.8-0.2,2.6-0.8
			c0.6-0.5,1.7-0.5,2.2-1.3c0.3,0.4,0.3,0.8,0.4,1.1c0.1,0.3,0,0.7,0.4,0.9c0.1,0.1,0.1,0.3,0,0.3c-0.2,0.2-0.3,0.4-0.6,0.6
			c-0.4,0.3-1.1,0.3-1.3,0.9c0,0.1-0.4,0.3-0.7,0.2c-0.6-0.2-1.2,0.2-1.8,0.2c-0.5,0,0,0.6-0.3,0.7c0.2,0.2,0.4,0.5,0.7,0.4
			c0.3-0.1,0.7,0,0.9,0c1-0.1,2.1-0.1,2.9-1c0.3-0.4,0.8-0.5,1.2-0.9c0,0.3-0.1,0.6,0.1,0.8c0.1,0.2,0.3,0,0.5-0.1
			c0.3,0.3,0.2,0.7,0.5,1c0.3,0.2-0.1,0.4-0.2,0.6c-0.1,0.2-0.4,0.3-0.6,0.4c0.1,0.1,0.1,0.2,0.2,0.3c-0.1,0-0.1,0-0.2,0
			c-0.7,0-1.2,0.6-1.8,0.8c-0.5,0.2-0.9,0.4-1.5,0.4c-0.1,0-0.2,0.1-0.3,0.1c0.1,0.1,0.3,0,0.3,0.2c-0.3,0.1-0.5,0.1-0.8,0
			c-0.5,0.4-0.1,0.6,0.1,0.9c0.2,0,0-0.3,0.2-0.4c0.4-0.2,0.4,0.5,0.8,0.3c0.1,0.4,0.4,0.2,0.5,0.2c0.5-0.2,1-0.3,1.4-0.7
			c0,0,0.1-0.1,0.1-0.1c1,0.1,1.5-1,2.3-1.1l0,0c0.2,0.2,0,0.4-0.1,0.6c-0.1,0.2-0.1,0.4-0.1,0.6c0.3,0,0.1-0.4,0.3-0.4
			c0,0,0.1,0,0.1,0c-0.1,0.6,0,1,0.4,1.4c0.1,0.2,0.3,0.4-0.1,0.6c0.3,0.1,0.5,0.3,0.8,0c-0.2,0.7,0.2,1.2,0.7,1.7
			c0.5-0.5,1.3-0.4,2-0.8c0.4-0.3,1-0.3,1.5-0.5c1.1-0.4,2.2-0.4,3.3-0.9c0.4-0.2,0.8,0,1.3-0.1c1.1-0.5,2.4-0.3,3.6-0.5
			c1.3-0.2,2.5,0.1,3.8,0.2c0.7,0.1,1.4,0.1,2.1,0.1c0.4,0,0.6,0.2,0.9,0.5c0.5-0.4,1,0.2,1.5,0c0.2-1,1.1-1.7,1.3-2.7
			c0.5,0.5,0.3,1,0.5,1.5c-0.2-0.1-0.1-0.2-0.1-0.3c0.4-0.5,0.3-0.8,0-1.3c-0.2-0.3,0.2-0.7,0.4-1.1c0.2-0.2,0.5-0.3,0.4-0.7
			c0.2-0.1,0.2,0.1,0.3,0.1c0.6-0.3,0.4-0.9,0.6-1.3c0.4-0.8,0.9-1.6,1.5-2.3c0.3-0.3,0.6-0.7,0.8-1.1c0.5-1,1.1-1.8,1.7-2.8
			c0.4-0.7,0.8-1.5,1.4-2.2c0.8-1,1.3-2.1,2.1-3.1c0.2-0.2,0-0.8,0.7-0.6c0.2,0,0.1-0.4,0.2-0.7c0.2-0.4,0.4-0.8,0.8-1.2
			c0.3-0.3,0.4-0.8,0.6-1.1c0.4-0.7,0.9-1.4,1.4-2c0.4-0.5,0.5-0.9,0.8-1.4c0.4-0.7,1-1.4,1.5-2c0.1-0.1,0.1-0.2,0.1-0.3
			c0.1-0.3,0.2-0.7,0.6-0.8c0.1,0,0.1-0.1,0.1-0.1c0.7-1.3,1.6-2.5,2.3-3.7c0.7-1.3,1.6-2.6,2.1-3.9c0.3-0.7,0.6-1.3,1-1.9
			c0.3-0.5,0.9-0.6,1.3-0.4c0.7,0.3,1.4-0.1,2.1,0c0.7,0,1.4,0.1,2,0.5c0.4,0.2,0.9,0.4,1.4,0.4c0.1,0.4,0.3,0.7,0.9,0.6
			c0.3,0,0.3,0.6,0.8,0.4c0.2-0.1,0.4,0.3,0.4,0.7c0.5-0.1,0.8,0,1,0.4c0.1,0.2,0.4,0.3,0.6,0.4c0.5,0.2,1,0.3,0.8,1
			c0,0.1,0.1,0.2,0.2,0.2c0.2,0.1,0.2-0.2,0.4-0.2c0.2,0.1,0.3,0.2,0.3,0.3c0,0.2,0,0.5,0.4,0.5c0.1,0,0.3,0.3,0.2,0.4
			c-0.1,0.4,0,0.9,0.1,1.2c0.2,0.7-0.2,1.2-0.4,1.8c-0.1,0.2-0.1,0.6-0.5,0.6c-0.3,0-0.6,0.2-0.9-0.1c0.2,0.4-0.1,0.6-0.3,0.9
			c-0.3,0.5-0.7,0.8-1,1.3c-0.1,0.3-0.4,0.7-0.7,0.1c-0.1,0.1-0.3,0.2-0.2,0.3c0.5,0.5,0,0.8-0.3,0.9c-0.2,0.1-0.4,0.3-0.5,0.5
			c-0.3,0.4-0.6,0.7-1,1.1c0.1,0.2,0.2,0.4-0.1,0.5c-0.4,0.3-0.5,0.9-1.2,0.8c-0.3,0,0,0.5-0.3,0.7c0,0,0,0.2,0,0.2
			c-0.7,0.6-0.8,1.7-1.7,2.3c-0.1,0-0.1-0.3-0.3-0.3c-0.1,0.2,0.3,0.8-0.2,0.7c-0.4,0-0.3,0.2-0.5,0.3c-0.3,0.1-0.3,0.3-0.3,0.6
			c0,0.8-0.4,1.4-0.9,2c-0.1,0.1,0,0.2,0,0.3c0,0.1,0,0.3-0.2,0.3c-0.4,0-0.4,0.1-0.2,0.4c-0.7,0.6-1.3,1.3-1.5,2.3
			c0,0-0.1-0.1-0.1-0.1c0,0.2,0.1,0.3,0.1,0.6c0.8-0.4,1.6-0.8,2.3-1.2c0.7-0.4,1.5-0.6,2.2-0.8c0.5-0.2,1-0.4,1.5-0.6
			c0.9-0.5,1.9-0.8,2.8-1.4c1.5-1,3.2-1.5,4.9-2.1c0.8-0.2,1.5-0.5,2.4-0.6c0.7-0.1,1.4-0.3,2.1-0.5c1.4-0.4,2.8-0.6,4.3-0.6
			c0.6,0,1.2-0.3,1.8-0.2c0.4,0.1,0.9,0,1.4,0c0.4,0,0.9-0.1,1.3-0.2c1.3-0.2,2.7-0.4,4.1-0.3c0.7,0,1.3,0.2,2,0.1
			c0.1,0,0.2,0.1,0.2,0.1c0.2,0.1,0.4,0.3,0.7,0c0.1-0.1,0.4,0,0.6,0.1c0.4,0.2,0.8,0.3,1.2,0.1c0.4-0.1,0.6,0.2,1,0.2
			c0.4,0,0.8-0.1,1.3,0c0.4,0.1,0.8,0.3,1.2,0.4c0.4,0.1,0.9,0.1,1.3,0.3c1,0.4,2,0.6,3,0.9c0.2,0.1,0.1,0.3,0.3,0.3
			c0.1-0.1,0.2-0.3,0.4-0.2c0.5,0.2,1.1,0.3,1.7,0.4c0.2,0,0.3,0.1,0.2,0.3c0,0.1-0.2,0.1-0.1,0.2c0,0,0.1,0,0.1-0.1
			c0.5-0.1,1,0,1.4,0.5c0.3,0.3,0.6,0.4,0.9,0.6c0.3,0.1,0.6,0.1,0.7,0.6c0.9-0.5,1.1,0.6,1.7,0.6c0-0.2,0.2-0.3,0.4-0.3
			c0.2,0,0.2,0.2,0.2,0.4c0,0.6,0.1,1.1,0,1.6c0.2,0.2,0.2-0.1,0.4-0.1c0.1,0.9,0.2,1.8-0.4,2.5c-0.2,0.3,0,0.7-0.2,1
			c-0.3,0.4-0.3,0.9-0.7,1.3c-0.2,0.2-0.1,0.7-0.3,1c-0.1,0.4-0.1,0.8-0.7,0.9c0.1,0.2,0.1,0.4-0.1,0.6c-0.8,0.8-1.7,1.6-2.7,2
			c-0.5,0.2-1,0.2-1.5,0.1c-1.2-0.2-1.7-0.8-1.7-2c0,0,0-0.1-0.1-0.1c-0.4,0.1-0.6,0-1-0.2c-1-0.4-2-0.8-3-1.1
			c-0.8-0.2-1.6-0.6-2.5-0.8c-0.8-0.2-1.6-0.2-2.4-0.5c-0.2-0.1-0.7,0-1-0.1c-1.3-0.1-2.5-0.3-3.8-0.3c-0.9,0-2-0.1-2.8,0.2
			c-1.5,0.5-3,0.4-4.4,0.9c-0.7-0.3-1.2,0.4-1.9,0.4c-0.7,0-1.3,0.2-2,0.4c-0.5,0.1-1.1,0.2-1.6,0.5c-0.2,0.1-0.4,0.1-0.5-0.1
			c-0.2,0.1,0.1,0.3-0.2,0.3c-0.5,0.1-0.9,0.4-1.4,0.4c-0.4,0-0.8,0.2-1.1,0.4c-1,0.5-2,0.9-3,1.4c-1.1,0.5-2.3,1-3.4,1.7
			c-0.5,0.3-1,0.8-1.6,1.1c-0.7,0.4-1.4,0.8-2.1,1.2c-0.3,0.1-0.5,0.5-0.8,0.6c-1.1,0.4-1.8,1.4-2.7,2.1c-0.2,0-0.1-0.3-0.2-0.3
			c-0.1,0.1-0.3,0.3-0.3,0.5c-0.1,0.4-0.4,0.7-0.8,0.8c-0.1,0-0.2,0.1-0.2,0.2c-0.1,0.3-0.4,0.5-0.8,0.4c-0.6-0.1-0.4,0.5-0.5,0.6
			c-0.3,0.1-0.2-0.1-0.3-0.2c-0.2,0.3-0.7,0.4-0.7,0.9c0,0.2-0.5,0.5-0.6,0.4c-0.5-0.2-0.6,0.1-0.8,0.4c0.5,0.3,1.4-0.9,1.6,0.5
			c0.3-0.5,0.7-0.3,1-0.5c0.2,0.1,0.1,0.3,0.2,0.4c0.1-0.1,0.1-0.3,0.3-0.3c0.1,0,0.1,0.1,0.1,0.3c0,0.5,0.3,0.6,0.8,0.5
			c0.2-0.1,0.2,0,0.5,0.3c0.4-0.4,0.6-0.4,1.3,0.4c0.3-0.1,0.2-0.3,0.4-0.5c0.5,0.1,0.1,0.3,0.1,0.6c0.4,0.1,0.9,0.1,1.3,0.2
			c0.2,0,0.4,0.1,0.4,0.3c0.1,0.4,0.3,0,0.4,0.1c0.1,0.4,0.4,0.6,0.6,1c0.1-0.2,0.1-0.5,0.4-0.5c0.3,0,0.3,0.3,0.4,0.5
			c0.2,0.3,0.5,0.6,0.7,0.9c0.4,0.3,0.2-0.3,0.5-0.3c0.2,0.1-0.1,0.7,0.5,0.4c0.2-0.1,0.7,0.6,0.7,1c0,0.1-0.1,0.3,0,0.4
			c0.3,0,0.1-0.3,0.2-0.4c0.9,0,1.1,0.2,1.2,0.9c0,0.2-0.1,0.2-0.3,0.1c0,0,0,0,0,0l0,0c-0.1,0.4,0.6,0.3,0.3,0.8
			c0.5-0.3,0.7-0.2,1.1,0.5c0.2-0.1,0.5-0.2,0.7-0.2c0,0,0,0,0.1,0c0,0.2,0.1,0.4,0.3,0.6c0.4,0.4,0.3,0.9,0.2,1.4
			c0.1,0,0.2,0,0.3,0.1c0-0.3-0.3-0.6,0.1-0.8c0.8,0.4,1.2,1,0.8,1.9c0.2,0.2,0.5,0,0.7,0.1c0.3,0.1,0.1,0.5,0.3,0.7
			c0.2,0,0.2-0.3,0.5-0.2c0,0.5,0.1,1.1,0.4,1.6c0.2,0,0.4,0.1,0.7,0c0.4-0.1,0.5,0.2,0.4,0.4c-0.2,0.6,0.2,1.1,0.3,1.7
			c0.3-0.2,0.3-0.5,0.4-0.8c0.2,0,0.3-0.1,0.5,0c-0.3,0.4,0,0.8-0.2,1.3c0.2,0,0.3,0.2,0.6,0.1c0.4-0.2,0.4,0.1,0.3,0.3
			c-0.1,0-0.1,0.1-0.2,0.1c0,0.2-0.1,0.4-0.3,0.6c0.2,0.3,0.6,0,0.8,0.2c-0.1,0.4,0,0.8,0.1,1.2c0.4,0,0.7-0.6,1.1-0.1
			c0.2,0.2,0,0.4-0.1,0.6c0.1,0.1,0.4,0.2,0.2,0.5c-0.1,0.1,0,0.3,0,0.3c0.2,0.2,0.6,0.4-0.1,0.5c-0.1,0-0.1,0.3,0.1,0.5
			c0.2-0.5,0.8,0.3,1-0.4c0.4,0.2,0.2,0.5,0.4,0.7c-0.2,0.1-0.6-0.2-0.7,0.3c0.4-0.1,0.3,0.2,0.5,0.4c0.3,0-0.1-0.4,0.3-0.4
			c0.1,0.3,0.2,0.6-0.1,0.8c-0.3,0.2-0.1,0.6-0.3,0.9c0.4-0.1,0.5-0.4,0.7-0.6c0.3,0.3,0.6,0.5,0.3,1c-0.1,0.3,0.1,0.8,0.3,1.1
			c0.3,0.4,0.3,0.9,0.1,1.3c0.2,0.3,0.5,0.1,0.7,0.1c0,0.3-0.1,0.5-0.4,0.6c0.3,0.4,0.4,1,0.5,1.4c0.1,0.2,0.2,0.3,0.3,0.2
			c0.7-0.1,1.4-0.3,2.1-0.4c1.7-0.2,3.4-0.7,5.1-1.1c0.8-0.2,1.6-0.2,2.5-0.4c1.5-0.3,3-0.4,4.6-0.5c1.2-0.1,2.4-0.3,3.6-0.4
			c1.5-0.2,3.1-0.3,4.6-0.6c0.4-0.1,0.8-0.4,1.2,0c0,0,0.1,0,0.2,0c0.4-0.4,0.8-0.3,1.2,0c0.1,0.2-0.2,0.2-0.2,0.3c0,0,0.1,0,0.1,0
			c0.2-0.2,0.6,0,0.5-0.4c-0.1-0.9-0.1-1.7-0.1-2.6c0-1.1-0.3-2.2-0.3-3.3c0-0.6-0.1-1.2,0.1-1.8c0.1-0.2,0.1-0.4-0.1-0.5
			c-0.3-0.3,0.1-0.6,0.1-1c-0.1-1.4-0.2-2.9-0.3-4.3c-0.1-1.3-0.3-2.5-0.4-3.7c0-0.1,0-0.3,0-0.4c0-0.6-0.2-0.8-0.8-1
			c-0.1,0-0.2-0.1-0.2-0.2c-0.1-0.5-0.1-0.5-0.4-0.7c-0.1-0.2,0.3-0.1,0.2-0.3c-0.3-0.6,0.1-1.1,0.5-1.6c1.3-1.5,2.8-2.6,4.7-3.2
			c1.6-0.5,3.2-0.5,4.9-0.2c0.8,0.1,1.5,0.3,2.1,0.9c0.1,0.1,0.3-0.1,0.5,0.1c0.4,0.3,0.6,0.6,0.6,1.1c0,0.5,0.1,0.9-0.1,1.5
			c-0.1,0.4,0.2,0.8,0,1.3c0.3,0.1,0.2,0.3,0.3,0.4c0.2,0.3-0.1,0.4-0.1,0.6c1.1,1,1.5,2.1,0.9,2.8c0.1,0.2,0.8,0.3,0.2,0.7
			c0.1,0.2,0.5,0.2,0.5,0.5c0,0.2-0.4,0.2-0.3,0.5c0.1,0.2,0.3-0.1,0.5,0.2c-0.4,0.2-0.1,0.9-0.6,1.2c0,0.1,0.4,0.3-0.1,0.5
			c-0.5,0.2,0.2,0.6-0.1,0.8c0-0.1,0.2-0.1,0.3-0.2c0.1-0.1,0.1-0.3,0.3-0.2c0.2,0.1,0.1,0.4,0.1,0.5c-0.2,0.4-0.2,0.8-0.4,1.1
			c-0.1,0.2,0.1,0.4,0.2,0.4c0.5,0.2,0.5,0.3,0,0.7c0-0.1,0.1-0.2-0.1-0.2c0,0.1-0.1,0.2,0.1,0.2c0.5,0.4,0.2,1,0.2,1.5
			c0.1,0,0.3,0,0.4,0.1c-0.1,0.3-0.2,0.5,0.1,0.7c-0.1,0.2-0.3,0.4-0.4,0.7c0.2,0.1,0.3,0.3,0.4,0.5c-0.3,0.3-0.4,0.6-0.1,1
			c0.4-0.1,0-0.4,0.1-0.5c0.2-0.1,0.3,0,0.3,0.2c-0.1,0.6-0.2,1.3,0,1.9c0.1,0.4-0.2,0.3-0.5,0.2c0,0.7-0.6,1.3,0.1,1.9
			c-0.4,0-0.7,0-0.6,0.4c0,0.2,0,0.3,0.2,0.4c0.3,0.1,0.6,0,0.7-0.3c0.1,0.7-0.1,0.9-0.7,0.9c-0.1,0.5,1.2,0.6,0.4,1.2
			c0.4,0.8,0.3,1.6,0.5,2.4c-0.3,0.1-0.4-0.2-0.6-0.2c-0.3,0.5,0.1,1.2-0.5,1.6c0.4,0.3,0.4,0.3,1-0.1c0,0.4,0.1,0.7-0.4,0.9
			c-0.3,0.1-0.4,0.5-0.1,0.9c0.1,0.1,0,0.3,0,0.4c-0.1,0.2-0.1,0.5,0.2,0.7c0.1,0.1,0.2,0.2,0.1,0.3c-0.2,0.3,0.1,0.5,0.3,0.7
			c-0.6,0.1-0.8,0.5-0.7,1c0.1,0.3,0.1,0.4-0.1,0.6c-0.3,0.3-0.2,0.6,0.2,0.7c0,0.9-0.4,1.7-0.3,2.5l0,0c-0.3-0.2-0.3,0.2-0.6,0.2
			c0.5,0.2,0.6,0.4,0.3,0.9c-0.3,0.5,0.1,1,0,1.5c-0.1,0.3-0.1,0.4-0.4,0.3c-0.1-0.3,0.2-0.2,0.2-0.4c-0.1-0.1-0.2-0.3-0.3-0.4
			c-0.5,0.3,0.6,1.1-0.5,1.3c0.3,0.1,0.5-0.2,0.7,0.1c-0.3,0.4-0.4,0.8-0.3,1.4c0.1,0.3,0.1,0.9-0.4,1.1c-0.2,0.1-0.2,0.3-0.2,0.3
			c0.4,0.3,0,0.6,0,1c-0.2,0.1-0.3-0.3-0.5-0.1c-0.1,0.2,0.1,0.2,0.2,0.3c0.2,0.2-0.1,0.3-0.2,0.4c0-0.1-0.1-0.1-0.1-0.2
			c0,0,0,0,0-0.1c0,0,0,0-0.1-0.1c-0.2,0.3-0.5,0.6-0.3,1c0,0.1,0.1,0.3-0.1,0.3c0,0.1,0,0.1-0.1,0c0,0,0.1,0,0.1,0
			c0.4,0.2,0.2,0.5,0.1,0.8c-0.1,0.3-0.1,0.3-0.4,0.3c0.2,0,0.4,0.2,0.2,0.4c-0.4,0.5-0.5,1.2-0.9,1.7c-0.1,0.1-0.4,0.5,0.2,0.6
			c-0.3,0.2-1.1,1.8-1.5,2.7c-0.3,0,0.2-0.4-0.3-0.3c0,0.2-0.1,0.4,0,0.6c0.2,0.3,0.1,0.4-0.2,0.5c-0.1,0-0.1,0.1-0.1,0.1
			c-0.2,0.5-0.4,0.9-0.9,1.3c-0.4,0.3-0.3,0.9-0.6,1.3c-0.2,0.3-0.4,0.6-0.7,0.8c-0.8,0.5-1,1.3-1.5,2c-0.4,0.6-0.7,1.3-1.3,1.7
			c-0.6,0.4-1.1,0.9-1.7,1.3c-0.5,0.4-0.8,0.8-1.1,1.3c0,0-0.1-0.1-0.1-0.1c0-0.1,0-0.3-0.1-0.4c-0.2,0.3-0.5,0.5-0.4,0.8
			c0,0,0,0,0,0.1c-0.4,0.4-0.8,0.9-1.1,1.4c-0.2,0.2-0.7,0.3-0.8,0.7c-0.1,0.3-0.4,0-0.5,0.2c-0.1,0.4-0.7,0.4-0.7,0.9
			c-0.2,0-0.2,0.5-0.5,0.1c0,0-0.3,0.1-0.3,0.2c-0.3,0.5-0.8,0.7-1.2,1.1c0.5,0.3,1-0.3,1.3-0.2c0.6,0.4,0.8-0.1,1.2-0.2
			c0.2,0.1,0.2,0.3,0.3,0.5c0.4-0.2,0.7-0.5,1.3-0.3c0.3,0.1,0.8,0.1,1.3,0.1c0.6,0,0.9,0.5,1.5,0.5c0.1,0,0.4,0.1,0.6,0.1
			c0.5,0.1,0.8,0.1,0.7,0.8c0.1-0.6,0.3-0.5,0.7-0.3c0.2,0.1,0.4,0.2,0.7,0.1c0.3-0.2,0.6,0,0.5,0.4c0.4-0.2,1.3,0,1.9,0.3
			c0.1,0.2-0.3,0.3-0.1,0.5c0.2,0.2,0.4-0.1,0.4-0.1c0.4,0.1,0.8-0.1,1.1,0.1c0.6,0.4,1.2,0.7,1.5,1.4c0.6-0.3,1-0.2,1.3,0.3
			c0.2,0.4,0.8,0.3,1,0.6c0.2,0.2,0.5,0.2,0.6,0.1c0.4-0.5,0.6-0.2,0.8,0.1c0.1,0.1,0.2,0.2,0.2,0.2c0.7-0.4,0.7,0.2,1,0.5
			c0.2,0.3,0.5,0.1,0.7,0.2c0.6,0.2,0.7,0.9,1,1.3c0.1,0.1,0.1,0.3,0.2,0.5c0.8-0.5,1.1,0.1,1.4,0.7c0.2-0.1,0.1-0.4,0.4-0.4
			c0.2,0.3,0.3,0.6-0.1,1c0.3-0.2,0.6-0.3,0.5-0.6c0.5,0.1,1.1,0.2,0.9,0.9c0,0.1,0,0.3,0.2,0.3c0.4-0.1,0-0.4,0.2-0.5
			c0.6-0.1,0.6,1,1.4,0.7c0.2,0.1,0,0.3,0.1,0.4c0.2-0.6,0.5,0.2,0.8-0.2c-0.2,0.5-0.5,0.4-0.8,0.3c0.2,0.5,0.5,0.7,1,0.5
			c0.2,0.2,0,0.5,0.2,0.8c0.4,0.1,0.9,0.1,1.4,0.1c-0.1,0.4,0.2,0.9-0.1,1.3c-0.1,0.1,0,0.2,0.1,0.3c0.4,0.5,0.6,1,0.3,1.7
			c0,0.1-0.1,0.1-0.1,0.2c0.7,0.7-0.1,1.2-0.2,1.7c-0.2,0.6-0.3,1.2-0.5,1.8c-0.2,0.6-0.5,1.2-0.8,1.8c-0.4,0.8-1,1.6-1.6,2.2
			c-0.6,0.6-1.2,1.3-1.9,1.9c-0.6,0.5-1.3,0.9-2.2,1c-0.7,0.1-2.4-0.6-2.5-1.4c0-0.3-0.4-0.5-0.3-0.8c-1.1,0.2-2-0.1-2.8-0.6
			c-0.4-0.2-0.9-0.3-1.4-0.6c-0.7-0.4-1.5-0.4-2.1-1c-0.3-0.4-0.9-0.3-1.3-0.6c-0.2-0.1-0.4-0.2-0.6-0.3c-1-0.7-2.2-0.9-3.3-1.3
			c-1.2-0.4-2.5-0.9-3.8-1.1c-0.7-0.1-1.4-0.2-2.1-0.3c-0.7-0.1-1.6,0.1-2.4,0.2c-0.4,0-0.6,0.3-0.4,0.7c-0.2,0-0.4,0-0.6-0.1
			c0,0.4,0.3,0.7,0.1,1c-0.2-0.1,0-0.3-0.2-0.5c-0.2,0.2-0.3,0.5-0.5,0.6c0,0.2,0.2,0.3,0.3,0.4c0.1-0.2,0.3-0.3,0.6-0.4
			c-0.1,0.5-0.1,0.9-0.4,1.3c0.1,0.1,0.5,0.2,0.3,0.4c-0.2,0.2-0.6,0.1-0.9,0c0,0.1-0.1,0.2-0.1,0.2c0.3,0.5,0.3,1,0.3,1.6
			c0,0.1,0.1,0.2,0,0.3c-0.4,0.4-0.2,1.2-0.8,1.5c-0.1,0.1-0.2,0.2-0.2,0.3c0.2,0.7-0.2,1.1-0.5,1.6c-0.2-0.1-0.4-0.3-0.6-0.4
			c-0.3,0.3-0.2,0.7-0.1,1c0.1,0.4,0.2,0.6,0,1c-0.2,0.5-0.3,1-0.5,1.5l0,0c-0.2,0.1-0.5-0.1-0.8,0c0.5,0.1,0.5,0.5,0.7,0.8
			c-0.5,0.3-0.2,1-0.7,1.4c-0.1-0.5,0.2-1,0-1.7c-0.4,0.6-0.2,1.2-0.4,1.7l0,0c-0.4,0,0,0.6-0.6,0.5c0.7,0.6,0.5,1.3,0.3,1.8
			c-0.2,0.5-0.5,1-0.6,1.6c0,0.4-0.3,0.7-0.8,0.6c0.4,0.7,0.2,1.4-0.6,1.8c0.3,0.4-0.2,0.9,0.1,1.4c-0.6,0.3-0.5,1.1-0.9,1.5
			c-0.1,0.1-0.2,0.1-0.1,0.2c0.2,0.2,0.2,0.5-0.1,0.6c-0.3,0.1-0.4-0.2-0.5-0.4c-0.3,0.9-0.3,0.9,0.4,1c-0.2,0.1-0.7,0.2-0.3,0.6
			c-0.5,0.4-0.1,1.1-0.7,1.4c-0.1,0.1,0,0.1,0,0.2c-0.1,0.6-0.1,0.6-0.9,0.7c0.3,0.3,0.4,0.5,0.1,0.9c-0.3,0.4-0.5,0.9-0.6,1.4
			c-0.1,0.2-0.1,0.4-0.3,0.5c-0.2,0.1-0.2-0.3-0.4-0.2c0,0.3-0.1,0.5,0.1,0.8c-0.5,0-0.2,0.4-0.4,0.7c-0.3-0.3-0.5,0.1-0.8,0.2
			c0.2,0.1,0.4-0.1,0.5,0.1c0,0.2-0.1,0.3-0.3,0.3c-0.2,0-0.3,0.1-0.3,0.3c-0.1,0.8-0.5,1.5-0.8,2.2c-0.1,0.2-0.2,0.6-0.7,0.4
			c0.4,0.8-0.6,1.2-0.5,1.9c-0.1,0-0.2,0-0.3-0.1c0.4,0.6-0.1,1.1-0.2,1.6c-0.1,0.5-0.4,0.6-0.6,0.9c-0.2,0.2-0.1,0.3-0.1,0.4
			c0,0.3-0.2,0.5-0.3,0.6c-0.2,0.1-0.5,0.1-0.3,0.5c0.1,0.3-0.2,0.3-0.5,0.3c0.1,0.5,0,0.8-0.4,1.2c-0.2,0.2-0.4,0.5-0.5,0.8
			c-0.1,0.4-0.4,0.8-0.6,1.2c-0.6,1-1.1,2.1-1.7,3.2c-0.4,0.7-0.7,1.4-1.1,2.1c-0.3,0.8-0.7,1.5-1.2,2.2c0,0-0.1,0.1-0.1,0.1
			c-0.4,1.4-1.3,2.6-2,3.9c-0.8,1.6-1.7,3.2-2.7,4.6c-0.6,0.8-1.1,1.7-1.6,2.6c-1,1.6-2.1,3.1-3.1,4.6c-0.6,0.9-1.4,1.8-2,2.8
			c-0.6,1-1.6,1.8-2.2,2.8c-0.6,1-1.4,1.7-2.1,2.6c-0.6,0.9-1.5,1.5-2.1,2.4c-0.7,1-1.7,1.8-2.5,2.7c-1,1.1-2.2,2-3.2,3.1
			c-0.2,0.3-0.6,0.3-0.9,0.5c-0.2,0.2-0.4,0.3-0.1,0.6c-0.2,0-0.3,0.3-0.6,0.2c-0.2-0.1-0.1,0.2-0.2,0.3c-0.2,0.4-0.2,0.9-0.9,0.9
			c-0.4,0-0.7,0.5-1,0.8c-0.3,0.3-0.9,0.7-1.3,0.7c-0.4,0-0.2,0.3-0.3,0.5c0,0.1-0.5,0.1-0.1,0.3c-0.2,0.2-0.3-0.1-0.5,0
			c0.1,0.6-0.3,0.2-0.5,0.3c-0.1,0.3-0.2,0.6-0.6,0.3c-0.3,0.4-0.6,0.8-1.1,0.7c-0.3,0-0.5,0.3-0.7,0.4c-0.1,0.1-0.2,0.2-0.3,0.2
			c-0.9,0.1-1.5,0.7-2.3,1c-0.3,0.1-0.5,0-0.7,0c-0.9,0.2-1.7,0.6-2.7,0.7c-1,0.1-2,0.2-3,0.5c-0.3,0.1-0.6,0-1,0
			c-1,0.1-1.9,0.2-2.9,0.2c-0.8,0-1.6,0-2.4,0.3c-0.1,0-0.4,0.1-0.7-0.1c-0.2-0.2-0.5,0.2-0.8,0.1c-0.5-0.1-1.1-0.1-1.6-0.2
			c-0.1,0-0.2,0.1-0.3,0.2c-0.1-0.5-0.6-0.4-0.9-0.4c-0.6,0.1-1.2-0.2-1.8-0.2c-1.3-0.1-2.5-0.6-3.7-1c-0.9-0.4-1.9-0.5-2.8-1.1
			c-0.5-0.3-1.3-0.4-1.9-0.7c-1-0.4-2-0.7-2.8-1.5c-0.3-0.2-0.6-0.3-0.9-0.5c-0.4-0.2-0.8-0.4-1.1-0.7c-0.3-0.4-0.9-0.4-1.3-0.8
			c-0.6-0.5-1.3-0.9-1.9-1.5c-0.4-0.3-0.8-0.8-1.4-1c-0.5-0.3-0.9-0.8-1.3-1.3c-0.5-0.5-1.2-1-1.6-1.6c-0.4-0.6-0.8-1.2-1.4-1.7
			c-0.6-0.6-0.9-1.4-1.6-2c-0.3-0.3-0.6-0.7-0.5-1.3c-0.2-0.1-0.4,0.1-0.5-0.2c-0.2-0.6-0.8-0.9-1-1.4c-0.6-1.1-1.5-2-2-3.1
			c-0.1-0.3-0.5-0.3-0.6-0.6c-0.5-1.2-1.6-2-2.1-3.2c-0.7-1.5-1.8-2.9-2.5-4.4c-0.6-1.4-1.3-2.7-2-4c-0.9-1.7-1.8-3.5-2.7-5.2
			c-0.4-0.8-0.9-1.7-1.1-2.6c-0.2-0.5-0.6-0.9-0.7-1.5c-0.3-1.2-0.9-2.2-1.2-3.3c-0.2-0.9-0.8-1.7-1-2.6c-0.1-0.7-0.4-1.4-0.6-2
			c-0.2-0.7-0.5-1.4-0.8-2c-0.4-0.9-0.9-1.7-1.2-2.7c-0.1-0.4-0.3-0.8-0.5-1.2c-0.7-1.4-1.4-2.8-1.9-4.2c-0.1-0.2-0.2-0.4-0.4-0.6
			c-0.5-0.4-0.4-1-0.7-1.5c-1-1.5-1.4-3.2-2.2-4.7c-0.4-0.8-0.8-1.6-1.1-2.4c-0.4-0.9-0.8-1.9-1.2-2.8c-0.4-1-0.9-2-1.3-3
			c-0.3-0.8-0.9-1.6-1-2.5c-0.1-0.6-0.5-1.2-0.7-1.8c-0.5-1.6-1.1-3.2-1.8-4.7c-0.5-1-1.1-2.1-1.5-3.2c-0.6-1.6-1.3-3.2-1.6-4.9
			c-0.1-0.7-0.4-1.3-0.6-2c-0.3-1-0.6-2-0.9-3.1c-0.3-1.1-0.5-2.2-0.7-3.4c-0.1-0.8-0.2-1.7-0.4-2.5c-0.2-0.8-0.2-1.5-0.4-2.3
			c-0.1-0.6-0.2-1.3-0.2-1.9c0-0.9-0.2-1.9-0.3-2.8c-0.1-0.5-0.2-1.1-0.2-1.6c0-0.3-0.1-0.7-0.2-1.1c-0.2-0.6-0.3-1.2-0.2-1.8
			c0-0.5-0.1-1.1-0.1-1.6c0.1-1.3-0.1-2.5,0-3.8c0-0.4-0.1-0.9-0.2-1.3c0-0.1,0.1-1.2,0-1.4c-0.2-0.4-0.2-0.8-0.3-1.2
			c-0.1-0.6-0.1-1.3,0-1.9c0.1-0.7,0.1-1.4,0.2-2.1c0.1-0.9,0.2-1.9,0.3-2.8c0.1-1.3,0.5-2.6,0.7-3.9c0.1-0.9,0.3-1.8,0.5-2.7
			c0.2-0.8,0.3-1.6,0.5-2.3c0.3-1,0.5-2.1,0.8-3.1c0.2-0.5,0.6-1,0.6-1.5c0-0.9,0.5-1.5,0.8-2.3c0.2-0.8,0.5-1.6,0.8-2.4
			c0.4-1,0.8-2,1.3-2.9c0.4-0.9,0.9-1.9,1.3-2.8c0.8-1.6,1.7-3.2,2.6-4.7c0.2-0.3,0.3-0.8,0.9-0.7c0.1-0.2-0.2-0.1-0.1-0.3
			c0.5-0.4,0.8-1,1.1-1.5c0.7-1.1,1.5-2.2,2.4-3.2c0.5-0.6,1-1.2,1.6-1.7c0.8-0.7,1.4-1.7,2.2-2.4c1.2-0.9,2.3-1.9,3.4-2.9
			c0.3-0.3,0.7-0.5,1-0.6c0.6-0.3,1-1,1.6-1.3c0.8-0.3,1.2-1.2,2.1-1.3c0,0,0.2-0.3,0.3-0.4c0.6-0.6,1.4-0.8,2.1-1.3
			c0.2-0.1,0.3,0,0.5,0c0.1-0.3,0.3-0.6,0.6-0.8c0.8-0.5,1.6-1,2.4-1.5c0.3-0.2,0.6-0.5,1-0.6c0.4-0.1,0.7-0.3,1.1-0.5
			c0.2-0.1,0.3-0.2,0.5-0.1c0.2,0.1,0.2-0.1,0.3-0.2c0.4-0.4,0.8-0.4,1.2,0.1c0.2,0.2,0.5,0,0.5,0.2c-0.1,1-0.6,1.7-1.5,2.2
			c-0.1,0-0.1-0.1-0.2-0.1c0,0,0,0.1,0,0.1c0,0,0.1,0.1,0.1,0.1c-0.3,0.1-0.6,0.4-1,0.3c-0.1,0-0.2,0.1-0.2,0.2
			c-0.1,0.3-0.3,0.3-0.5,0.2c0,0.4,0,0.8-0.6,0.7c-0.3,0-0.3,0.4-0.6,0.5c-0.2,0.2-0.3,0.2-0.4,0c-0.2,0.1-0.1,0.3-0.2,0.4
			c-0.2,0.1-0.2-0.2-0.5,0c-0.1,0.1,0,0.7-0.6,0.2c-0.1,0.3-0.1,0.5-0.3,0.8c-0.2,0.4-0.5,0.3-0.8,0.2c-0.3,0.7-0.9,1.1-1.5,1.5
			c-0.1-0.3,0.1-0.6,0.2-0.8c-0.3,0.1-0.2,0.3-0.3,0.5c-0.3,0.5-0.8,0.8-1.3,1.1c-0.1,0.1-0.2,0.1-0.2,0.3c-0.1,0.4-0.4,0.5-0.8,0.3
			c-0.2,0.2-0.3,0.5-0.4,0.7c-0.1,0.2-0.1,0.3-0.4,0.2c-0.4-0.2-1.1,0.3-0.9,1c-0.4-0.2-0.6,0.2-0.7,0.4c-0.2,0.4-0.4,0.8-1,0.8
			c-0.2,0-0.6,0-0.6,0.5c0,0.2-0.4,0.2-0.6,0.3c-0.4,0.1-0.4,0.8-1,0.8c0,0,0,0.1,0,0.2c0.1,0.7-0.4,1.1-1,1.4
			c-0.4,0.2-0.3,0.5-0.5,0.8c-0.1,0.1-0.1,0.3-0.3,0.4c-0.2,0-0.2-0.3-0.5-0.3c0,0.2,0,0.4-0.1,0.7c-0.1,0.3-0.4,0.2-0.6,0.3
			c-0.1,0.4,0,0.8-0.6,0.9c-0.3,0-0.7,0.6-0.7,0.9c0.1,1.2-0.4,0.3-0.6,0.1c-0.3,0.4-0.2,0.8-0.3,1.3c-0.1,0.3-0.4,0.3-0.5,0.5
			c-0.2,0.1-0.4,0-0.3-0.4c-0.2,0.4-0.2,0.7-0.6,0.8c-0.2,0.1-0.2,0.5-0.1,0.8c0.1,0.2,0.1,0.4,0.2,0.5c-0.2,0.1-0.2-0.1-0.2-0.1
			c-0.5,0.4-0.4,1-0.6,1.5c-0.1,0.2-0.4,0.7-0.9,0.7c-0.4,0-0.5,0.5-0.7,0.8c-0.3,0.5-0.4,1.1-0.5,1.6c-0.1,0.3,0,0.6-0.4,0.7
			c-0.1,0-0.1,0.2-0.1,0.4c0.2,0.4,0.2,0.4,0.1,0.9c-0.1,0-0.2-0.1-0.3-0.1c-0.3,0.8-0.8,1.6-0.9,2.5c0,0.5-0.2,1.1-0.6,1.5
			c-0.2,0.2-0.5,0.4-0.3,0.8c0.2,0.3-0.3,0.4-0.5,0.6c-0.2,0.5-0.2,1-0.3,1.4c-0.1,0.5-0.6,0.6-0.6,1.1c0,0.1-0.2,0.2-0.1,0.4
			c0,0.1-0.1,0.4-0.4,0.3c0.1,0,0.2-0.1,0.3,0.2c-0.1,0.2-0.4,0.1-0.5,0.2c0.3,0.2,0.6,0.3,0.2,0.7c-0.1,0.1-0.1,0.3-0.1,0.5
			c-0.1,0.6-0.3,1.2-1,1.5c-0.2,0.1,0,0.1,0,0.1c0.1,0.7,0.1,1.3-0.2,1.9c-0.1,0.3-0.3,0.7,0.1,1.2c0.3,0.3,0.1,0.7-0.2,1
			c-0.3,0.3-0.7,0.6-0.8,1.1c0.4,0.1,0.3-0.2,0.5-0.3c0,0.2,0.1,0.3,0.1,0.5c-0.5,0.2-0.4,0.7-0.5,1.1c0,0.4-0.1,0.7-0.2,1.1
			C9.2,96,9.1,96,8.8,96.1c-0.2,0-0.1,0.2-0.1,0.3c0.2,0.1,0.1,0.4,0.4,0.4c-0.1-0.4,0.4-0.5,0.4-0.9c0.5,0.4-0.4,0.6-0.1,1
			c0.2,0.4-0.1,0.6-0.4,0.9c0.3,0.3,0.5,0.6-0.1,0.8c0,0-0.2,0.2-0.1,0.3c0,0,0.1,0,0.1,0.1c-0.7,0.4-0.1,0.6,0.1,0.9
			c-0.4,0.5-0.7,1.2-1,1.9c0.2-0.1,0.5-0.2,0.4,0.3c0,0.2,0,0.5,0.3,0.5c-0.1,0.3-0.5,0.1-0.7,0.4c-0.1,0.1,0.5,0.6-0.3,0.6
			c0.4,0.1,0.6,0.2,0.7,0.5c-0.1,0.1-0.2-0.1-0.3-0.1c-0.2,0.4,0.3,0.4,0.5,0.5c-0.2,0.3-0.5,0.7,0.1,0.9c-0.2,0.4-0.4-0.1-0.7,0
			c0.2,0.2-0.5,0.4-0.1,0.7c0.4,0.3,0.4-0.4,0.8-0.4c0.1,0.3,0.4,0.6-0.1,0.9c0.1,0.2,0.2,0.3,0.4,0.5c-0.5,0.2-0.5,0.6-0.5,1.1
			c0.2-0.1,0.4-0.2,0.6,0c-0.6,0.3-0.7,0.4-0.1,1.1c0.2,0.3,0.2,0.4-0.2,0.4c0,0-0.1,0-0.1,0c-0.1,0.1,0,0.1,0,0.2
			c0,0.4,0.2,0.9,0.2,1.3c-0.2,0.9,0.3,1.7,0.2,2.6c-0.1,0.6,0,1.2,0.3,1.7c0.2,0.3,0.3,0.9-0.1,1.4c-0.2,0.3-0.3,0.9-0.2,1.3
			c0.3,0.1,0.1-0.3,0.3-0.3c0.4,0.4-0.2,0.3-0.3,0.5c0.1,0.2,0.4-0.1,0.4,0.1c-0.1,0.4,0.3,0.9,0.2,1.2c-0.2,0.4,0,0.7,0.2,1
			c0,0,0,0-0.1,0.1c-0.1,0-0.2,0-0.3,0c0,0,0-0.1,0-0.1c0,0,0,0-0.1,0c0,0,0.1,0,0.1,0.1c-0.2,0.6,0.1,1.3,0,1.9
			c0,0.1-0.1,0.6,0.4,0.5c0.2,0,0.3,0.2,0.3,0.4c0,0.6,0.1,1.1,0,1.7c0,0-0.1,0.1-0.1,0.1c0.1,0.1,0.1,0,0.2,0
			c0.2,0,0.5,0.5,0.3,0.7c-0.3,0.4-0.1,0.8-0.2,1.2c0.3,0,0.3-0.3,0.7-0.3c1,4.8,2.6,9.4,4.9,13.8c0,0,0.1,0,0.1,0c0,0,0,0,0,0
			c0.2-0.4,0-0.8,0-1.1c0-0.6-0.1-1.1,0.1-1.7c0.1-0.2-0.1-0.6-0.1-0.9c-0.1-1.2-0.1-2.4-0.1-3.6c0-0.7-0.1-1.4-0.1-2.1
			c0-1.1,0.4-2.2,0.4-3.3c0-1.2,0.2-2.5,0.4-3.7c0.1-0.9,0.3-1.7,0.5-2.5c0.2-0.6,0.1-1.3,0.3-1.9c0.3-1.3,0.4-2.6,0.9-3.8
			c0.6-1.4,1-2.8,1.6-4.2c0.6-1.4,1.3-2.7,2-4c0.6-1.2,1.1-2.4,1.8-3.6c0.4-0.7,0.6-1.4,1.1-2c1.1-1.4,2-3,3.2-4.3
			c0.9-1,1.9-1.9,2.8-2.8c0.5-0.5,1.1-1.1,1.5-1.7c0.2-0.4,0.6-0.8,1-1c0.8-0.4,1.1-1.1,1.1-2c0-0.3,0-0.6-0.1-0.9
			c-0.2-0.7-0.1-1.5,0-2.2c0-0.6-0.2-1.1-0.3-1.6c-0.3-2,0-4,0.3-5.9c0.1-0.7,0.6-1.2,0.6-2c0-1.5,0.5-2.9,0.8-4.3
			c0.1-0.6,0.5-1.1,0.7-1.7c0.1-0.3,0.2-0.7,0.3-1.1c0.5-1.5,1.2-3,1.7-4.5c0.2-0.6,0.6-1.3,1.1-1.9c0.4-0.4,0.5-1.1,0.9-1.6
			c0.3-0.6,0.5-1.2,1.1-1.6c0.1-0.1,0.2-0.2,0.1-0.3c-0.1-0.2,0-0.3,0.1-0.3c0.8-0.6,1.3-1.5,1.8-2.4c0.3-0.5,0.6-1.1,1.1-1.5
			c0.1-0.1,0.2-0.2,0.4-0.3c0.3-0.1,0.6-0.1,0.5-0.5c0-0.3,0.4-0.3,0.6-0.5c-0.3-1-1.1-1.8-1.3-2.8c-0.1-0.5-0.6-0.9-0.8-1.4
			c-0.5-1.5-1.6-2.8-2.3-4.2c-0.2-0.5-0.6-1-1-1.4c0,0-0.1-0.1-0.1-0.1c-0.3-0.9-1.1-1.6-1.5-2.5c-0.2-0.5,0.1-1,0.3-1.4
			c0.3-0.7,0.9-1.3,1.1-2.2c0-0.2,0.1-0.4,0-0.6c-0.1-0.5-0.6-0.7-1-0.3c-0.5,0.4-0.6,1.2-0.3,1.8c-0.3,0.1-0.3,0.7-0.8,0.3
			c-0.1,0.3,0,0.5-0.1,0.7c0.2,0.1,0.3,0.1,0.5,0.2c-0.4,0.3-0.5,0-0.8-0.2c-0.5-0.5-0.7-1.2-0.8-1.9c0,0,0.2-0.3,0.4-0.5
			c0.5-0.5,0.5-1.3,0.6-2c0-0.1-0.1-0.3,0-0.4c0.2-0.2-0.2-1.3-0.4-1.4c-0.2-0.1-0.2-0.1-0.8,0.4c0.2,0.3,0.5-0.1,0.7,0
			c0.2,0.5-0.8,0-0.4,0.7c-0.2,0-0.3-0.1-0.5-0.1c0,0.2-0.2,0.5-0.1,0.7c0.2,0.6-0.3,1.1-0.3,1.7c0,0.2-0.2,0.3-0.4,0
			c-0.2-0.2-0.4-0.4-0.7-0.5c-0.4-0.1-0.3-1.2,0.1-1.3c0.6-0.2,0.5-0.6,0.3-1c-0.2-0.4-0.1-0.6,0.2-0.8c0.2,0,0,0.3,0.2,0.3
			c0.1,0,0.2-0.1,0.2-0.2c0.1-0.3,0.3-0.7-0.1-0.9c0,0,0-0.1,0.1-0.1c0.5,0,0.3-0.3,0.4-0.5c-0.4-0.1-0.6,0.3-0.9,0.3
			c0.1-0.2,0.1-0.4,0.2-0.7c0.1-0.3,0-0.6-0.4-0.5c-0.2,0-0.3-0.1-0.2-0.2c0.1-0.2,0.2,0,0.2,0c0.2,0,0.4-0.1,0.4-0.3
			c0.1-0.5-0.2-1.2-0.5-1.3c-0.3-0.1-0.4,0.2-0.5,0.4c-0.1,0.3-0.2,0.6-0.2,0.9c0.1,1.1-0.2,2.2-0.3,3.2c0,0.5-0.3,0.9-0.5,1.4
			c-0.6-0.4-1.2-0.7-1.6-1.3c0.3-0.1,0.2-0.3,0.2-0.5c0-0.4,0-0.9,0.5-1.3c0.5-0.4,0.5-0.9,0-1.3c0-0.1,0.4-0.1,0.3-0.2
			c-0.1-0.2,0.1-0.6-0.4-0.5c0.3-0.5,0.8-0.9,0.1-1.3c-0.2-0.1,0-0.4,0-0.5c0-0.3,0-0.4-0.4-0.4c0,0,0-0.1,0-0.1c0,0,0,0-0.1,0
			c0,0,0.1,0,0.1,0.1c0,0.3-0.1,0.4-0.3,0.1c-0.4,0.9-0.4,1.1,0,1.4c-0.4,0.2-0.5,0.6-0.6,1c-0.1,1-0.5,1.9-0.8,2.8
			c-0.5-0.2-1-0.4-1.5-0.7c0.2-0.3,0.1-0.6,0.2-0.9c0.1-0.5,0.7-0.8,0.7-1.4c0-0.5-0.1-0.8-0.3-1.3c0.5-0.8-0.2-2.1-1.2-2.3
			c-0.1,0.7-0.3,1.4-0.3,2.1c0,0.2-0.1,0.3,0.1,0.5c0.1,0.1,0.2,0.3-0.1,0.4c-0.1,0-0.2,0.2-0.2,0.4c0.1,0.7-0.3,1.3-0.3,1.9
			c-0.6,0.4-1-0.2-1.6-0.2c0-0.5,0.1-0.9,0.2-1.4c0,0,0.1-0.1,0.1-0.1c-0.6-0.7,0.5-1.4-0.1-2.1c0.3-0.5-0.1-1-0.2-1.5
			c-0.1-0.4-0.4-0.6-0.8-0.6c-0.3,0-0.5-0.1-0.5,0.4c0,0.6,0,1.2-0.3,1.8c-0.2,0.5-0.2,1.1-0.1,1.6c0,0.2,0,0.4,0,0.5
			c-0.2,1.2-0.6,1.4-1.7,0.7c0-0.2,0.2-0.1,0.3-0.3c-0.1-0.1-0.2-0.3-0.3-0.5c1-0.3,0.3-1.1,0.6-1.7c-0.3,0.1-0.5,0.3-0.7,0.1
			c0-0.2,0.1-0.3,0.2-0.3c0.7-0.2,0.4-0.7,0.4-1.2c0,0,0-0.1,0-0.1c-0.7,0-0.5-1-1-1.1c-0.1,0-0.2-0.3-0.3-0.2
			c-0.2,0.1-0.2,0.3-0.2,0.5c0,0.3,0.2,0.5-0.2,0.8c-0.2,0.1-0.2,2,0,2.3c0,0.1,0.1,0.1,0.2,0.1c-0.9,0.4-0.4,1.3-0.8,2
			c-0.4,0-0.9-0.3-1.4-0.1c-0.5,0.1-1,0.2-1.5,0.1c-0.3,0-0.6,0.2-1,0.1c-0.1,0-0.1,0.1-0.2,0c-0.7-0.6-1.7-0.2-2.4-0.8
			c-0.1-0.1-0.2,0.1-0.4,0c-0.6-0.3-1.1-1.5-1-2c0.1-0.7-0.1-1.4-0.1-2.1c0-1.1-0.1-2.3,0.1-3.4c0.1-0.6,0.3-1.3,0.4-1.9
			c0.2-1.1,0.6-1.9,1.7-2.3c0.1,0.5,0.8,0.2,0.9,0.6c0.4,0,0.2-0.4,0.5-0.6c0.2-0.1-0.3-0.5-0.7-0.5c0,0-0.1-0.1-0.1-0.1
			c-0.1-0.4-0.4,0.1-0.5-0.1c0.1-0.4,0.4-0.7,0.7-1c0.2-0.2,0.3,0.2,0.4,0.3c0.2-0.1,0.5-0.6,0.7,0c0,0.1,0.1,0.1,0.2,0.1
			c0.7-0.3,1.3,0.2,2,0.1c0.5-0.1,1.1,0.2,1.6,0c0.5-0.1,0.9,0.4,1.5,0.1c0.3-0.1,1,0.2,1.4,0.4c0.2,0.1,0.3,0.1,0.5,0
			c0.1-0.1,0.3-0.1,0.3,0c0.3,0.4,0.9,0.3,1.3,0.3c0.5,0,0.7,0.4,1.2,0.4c0.2,0,0.3,0.2,0.5,0c0.3-0.2,0.3,0.3,0.5,0.3
			c0.5-0.3,0.8,0,1.1,0.2c0.5,0.3,0.9,0.6,1.4,0.6c0.1,0,0.2,0.1,0.2,0.1c0.6,0.4,1.4,0.3,2,0.6c0.1,0,0.2-0.1,0.2-0.1
			c0.6,0.7,1.4,0.9,2.2,0.9c0.4-0.5-0.2-0.8-0.1-1.3c0.1-0.3,0-0.3,0.4-0.5c-0.8-0.5-1.3-1.3-1.5-2.2c0.5,0.1,0.5,0.1,0.4-0.7
			c-0.1,0-0.1,0.1-0.1,0.1c-0.2,0.1-0.2,0.5-0.6,0.4c-0.3-0.1,0-0.4,0-0.6c0-0.5-0.3-0.8-0.7-1.1l0,0c-0.1-0.1-0.1-0.4,0-0.4
			c0.5-0.1,0-0.4,0.1-0.5c-0.2,0.2-0.3,0.4-0.6,0.4c-0.2-0.2,0.3-0.7-0.4-0.7c0.8-0.5,0.1-0.9,0-1.2c-0.1-0.3-0.4-0.5-0.4-0.9
			c0-0.2,0.1-0.3,0.2-0.4c0.4-0.6,0.4-1.5,1.2-1.9c0.9-0.5,1.6-1.2,2.6-1.5c1-0.3,1.9-0.8,2.9-1C40.8,8.7,42.2,8,43.8,8
			c0.6,0,1.2,0.1,1.6,0.7c0.1,0.1,0.2,0.1,0.3,0.2c0.4,0.2,0.7,0.5,0.7,1c0,0.5,0.5,0.8,0.2,1.3c0.3,0.2,0.5-0.1,0.8,0
			c0.1,0.3,0.6,0.5,0.2,0.9c0.4,0.1,0.1,0.7,0.5,0.8C48.1,12.9,48.3,12.9,48.2,13.1L48.2,13.1z M17,19.8L17,19.8L17,19.8L17,19.8
			C17,19.7,17,19.8,17,19.8z M9.2,116.2c0.1,0.1,0.1,0.3,0.3,0.2c0,0,0.1-0.1,0.1-0.1C9.5,116.1,9.4,116.2,9.2,116.2
			c0.2-0.3,0.4-0.6,0-0.9C9.1,115.6,9,115.9,9.2,116.2z M78.8,193.8c0,0.5-0.2,0.4-0.5,0.2c-0.2,0.3,0.2,0.4,0.2,0.7
			c-0.3,0.3-0.4,1.4-0.2,1.8c0.1-0.2,0.2-0.5,0-0.7c-0.1-0.2-0.1-0.4,0.1-0.6c0.5-0.3,0.5-0.8,0.6-1.2
			C79.1,193.7,78.9,193.8,78.8,193.8c-0.1-0.3,0-0.4,0.3-0.2c0.1-0.4,0.1-0.9,0.1-1.3c0-0.3-0.1-0.3-0.3-0.2c0,0,0-0.1,0-0.1
			c0,0,0,0-0.1,0c0,0,0.1,0,0.1,0.1c0,0.1,0,0.3-0.1,0.3c-0.6,0.3-0.5,0.7-0.2,1.1c0.1,0.2-0.2,0.1-0.1,0.3
			C78.5,193.8,78.7,193.9,78.8,193.8z M35.1,111.7c-0.1,0-0.3,0-0.3,0.2c-0.2,0.6-0.5,1.2-0.5,1.9c0,0.3-0.2,0.3-0.2,0.5
			c0,0.4,0.4,0.3,0.5,0.5c0.4-0.4,0.4-0.4,0.5-0.9c-0.1-0.1-0.5,0-0.4-0.3c0-0.3,0.3-0.2,0.5-0.2c0.2,0,0.8-0.7,0.7-0.9
			c-0.1-0.4,0-0.6,0.5-0.8c-0.1-0.2-0.3-0.3-0.3-0.6c-0.2,0-0.4,0.1-0.7,0.1c0-0.2,0-0.4-0.3-0.3C34.9,111.3,35.2,111.5,35.1,111.7
			C35.2,111.7,35.2,111.7,35.1,111.7z M41.3,109.3c0.8,0.3,0.3-0.4,0.5-0.5c-0.2-0.2-0.3,0.1-0.5,0l0,0c0.3-0.4,0-1.1,0.7-1.3
			c-0.1-0.2-0.2-0.4-0.4-0.6c-1.4,1.4-2.6,3-3.3,4.8c0.1,0.2,0.4,0,0.4,0.2c-0.2,0.6-0.7,0.9-0.9,1.4c0.3,0.1,0.4,0.2,0.1,0.4
			c-0.2,0.1-0.3,0.4-0.3,0.7c0,0.2,0.2,0.3,0.4,0.3c0.4,0,0.9-0.2,1-0.6c0.1-0.6,0.8-1,0.6-1.8c0.7-0.6,0.8-1.4,1.3-2.1
			c0.2-0.2,0.4-0.5,0.2-0.9C41.2,109.3,41.2,109.3,41.3,109.3z M108.1,8.7c0,0,0.1,0.1,0.1,0.1c0,0.1-0.1,0.3,0.1,0.3
			c0.6-0.1,0.6,0.3,0.8,0.7c0.3-0.1,1.2,0.4,1.2,0.7c0,0.3,0.2,0.3,0.3,0.4c0.3,0.3,0.7,0.1,0.9,0.4c0.1,0.3,0.4,0.4,0.6,0.6
			c0.4,0.3,0.9,0.4,1.4,0.7c0.3,0.2,0.7,0.1,0.7-0.2c0.1-0.6,0.1-1.3-0.5-1.8c-0.2-0.2-0.5-0.2-0.7-0.4c-1.2-0.9-2.3-1.8-3.7-2.4
			c-0.7-0.3-1.4-0.2-2.1-0.3c0.2,0.3,0.3,0.6,0.6,0.7c0.1,0,0.1,0.1,0,0.2C107.9,8.6,107.9,8.6,108.1,8.7z M65.6,210.4
			c0,0-0.1-0.1-0.1-0.1c0.1-0.5-0.4-0.7-0.6-0.7c-0.5,0.1-0.6-0.1-0.6-0.5c0.1,0.5-0.4,0.6-0.6,0.8c0,0-0.1-0.1-0.1-0.1
			c0.1-0.5,0.3-1-0.3-1.2c-0.5-0.2-0.9-0.6-1.4-0.8c-0.2,0.1-0.3,0.3-0.4,0.5c0.4,0.1,0.4,0.1,0.3,0.6c0.3,0.2,0.4-0.1,0.6-0.3
			c0.1,0.1,0.2,0.3,0.1,0.4c-0.2,0-0.4,0-0.6,0.1c0.3,0.9,1.4,1.9,1.9,1.7c0.1,0.6,0.4,1.2,0.9,1.3c0.5,0.2,0.8,0.5,1.2,0.8
			c0.4,0.3,0.9,0.5,1.4,0.5c0.5,0,0.9,0.6,1.4,0.2c0.2,0.3,0.3,0.2,0.5,0c0.2-0.2,0.4-0.3,0.7-0.4c0.2-0.1,0.3-0.2,0.4-0.4
			c-0.1-0.2-0.4,0-0.5-0.2c0-0.3-0.1-0.6-0.2-0.9c-0.2,0-0.1,0.2-0.3,0.2c0-0.3-0.1-0.5-0.3-0.7c-0.3,0-0.4,0.3-0.5,0.4
			c-0.4-0.1-0.2-0.9-0.9-0.6c0,0.1,0.1,0.3-0.1,0.4c-0.1-0.7-0.7-0.5-1.2-0.6c0.1-0.2,0.4-0.1,0.3-0.4c-0.2-0.1-0.5,0.1-0.5-0.1
			C66,210,65.8,210.4,65.6,210.4z M114.5,145c0,0-0.1-0.1-0.1-0.1c-0.2-0.1-0.4-0.2-0.6,0c-0.8,0.6-1,1.5-1.7,2.2
			c-0.6,0.6-1.1,1.4-1.7,2.1c-0.3,0.3-0.6,0.6-0.4,1.1c-0.1-0.1-0.1-0.3-0.3-0.2c-0.2,0.2-0.4,0.5-0.3,0.7c0.2,0.3,0.1,0.9,0.6,1
			c0.7,0.3,1.2-0.2,1.6-0.6c0.3-0.2,0.7-0.5,0.7-0.9c0-0.3,0.2-0.4,0.4-0.4c0.2,0,0.3-0.1,0.4-0.2c0.6-0.8,1.2-1.5,1.8-2.3
			c0.2-0.2,0.2-0.4-0.1-0.6c0.3,0,0.6,0.1,0.7-0.2c0.3-0.8,0.5-1.5-0.6-1.8C114.7,144.8,114.6,144.9,114.5,145z M80.7,84.5
			c-0.5,0.1-0.5,0.5-0.6,0.7c0.2,0.2,0.3-0.3,0.5,0c0.2,0.3-0.3,0.3-0.2,0.5c0.1,0.1,0.2,0.3,0.4,0.3c0.9,0,1.6-0.4,2.3-0.7
			c0.5-0.2,0.7-0.6,1.1-1c0.6-0.5,1.4-0.8,1.8-1.6c0.1-0.2,0.3-0.6,0.6-0.7c0.6-0.1,0.5-0.5,0.7-0.9c0.2-0.5-0.5-0.8,0-1.2
			c-0.3-0.1-0.6-0.1-0.8-0.2c-0.5-0.2-0.9,0.1-1.3,0.4c-0.8,0.6-1.3,1.5-2.1,2c-0.8,0.6-1.3,1.5-2.2,2
			C80.8,84.2,80.8,84.3,80.7,84.5C80.8,84.4,80.7,84.4,80.7,84.5z M38.9,100.5c0.7-0.8,0.9-1,0.3-1.4c0.2-0.2,0.7-0.2,0.6-0.7
			c-1.5,0.4-3,2-2.8,2.8c-0.2,0.1-0.3-0.2-0.5-0.1c-0.3,0.1,0,0.5-0.3,0.6c-0.4,0.1-0.6,0.5-0.7,0.7c-0.6,0.8-1.2,1.7-1.8,2.6
			c-0.1,0.2-0.1,0.4-0.1,0.6c0.1,0.2,0.2,0.3,0,0.5c-0.1,0.1-0.2,0.1-0.3,0c-0.2-0.1-0.1-0.3-0.1-0.3c0,0.1-0.1,0.4-0.2,0.6
			c-0.2,0.4-0.2,0.9-0.6,1.1c-0.4,0.3-0.6,0.6,0,0.9c-0.2,0.2-0.4,0-0.5,0.1c0,0.1,0,0.2,0,0.3c-0.4,0.3-0.2,0.9-0.6,1.3
			c-0.3,0.4-0.1,1-0.1,1.5c0,0.6,0.3,0.6,0.7,0.5c0.1-0.3,0.5-0.5,0.1-0.8c0.9-1.3,1.8-2.5,1.3-4.2c0.3,0,0.2,0.3,0.3,0.3
			c0.2-0.1,0.3-0.2,0.4-0.4c-0.2-0.2-0.3-0.3-0.4-0.5c0.4-0.1,0.4-0.1,0.7,0c0.1-0.6,0.1-0.6,0.6-1c0,0,0.1-0.1,0.1-0.1
			c0-0.6,0.6-0.8,0.7-1.2c0.1-0.4,0.9-0.6,0.3-1c0.2-0.6,1.1-0.3,1.3-1c-0.1-0.1-0.2-0.2-0.3-0.3c0.2-0.1,0.3-0.3,0.5-0.3
			c0.1,0.1,0,0.3,0.2,0.2C38.3,101.3,38.6,100.9,38.9,100.5L38.9,100.5z M95.2,208.2C95.1,208.2,95.1,208.2,95.2,208.2
			c-0.1-0.3-0.1-0.5-0.1-0.7c-0.6,0.5-1.1,0.9-1.6,1.3c-0.1,0.1-0.2,0.2-0.2,0.2c0.2,0.4-0.2,0.3-0.3,0.3c-0.6,0.1-1,0.4-1.2,1.1
			c-0.8-0.3-1,0.2-1.1,0.7c-0.2,0.1-0.3-0.3-0.6-0.1c0,0.4-0.4,0.8-0.1,1.3c-0.4,0-0.5,0.3-0.4,0.8c0.2-0.5,0.5-0.1,0.7-0.3
			c0-0.2-0.5-0.1-0.3-0.5c0.9,0.3,1.2,0.2,1.5-0.4c0.4,0.1,0.7,0.2,0.9-0.3c0.1-0.3,0.8-0.1,0.9-0.6c0-0.1,0-0.2-0.1-0.3l0,0
			c0.4-0.1,0.8,0,0.9-0.5c0-0.1,0.2-0.1,0.3-0.1c0.8-0.2,1-0.4,1.1-1.2c0.2,0.4,0.4,0.2,0.7,0.1c0.5-0.3,0.8-0.9,1.3-1.1
			c0.8-0.3,1.1-1,1.6-1.5c0.2-0.2-0.1-0.3-0.1-0.4c0.5-0.2,0.5-0.8,0.8-1.2c-0.1-0.1,0-0.4,0-0.6c-0.7,0-0.3-0.4-0.2-0.7
			c-0.6,0.4-1,1-1.5,1.5c0,0.1,0.3,0.2,0.2,0.4c-0.5,0.2-0.5,0.9-1.1,1.1c-0.1-0.3,0.3-0.2,0.3-0.5c-0.4,0.1-0.9,0.2-1.1,0.6
			c-0.1,0.3-0.5,0.4-0.7,0.6c-0.2,0.1-0.4,0.1-0.1,0.3C95.3,207.7,95.6,208.1,95.2,208.2z M105.3,97.4L105.3,97.4
			c-0.2-0.3-0.2,0-0.3,0.1c-0.1,0.4-0.4,0.7-0.6,1.1c-0.5,0.7-1.1,1.3-1.6,2c-0.2,0.2-0.2,0.5-0.4,0.7c-0.4,0.7-0.9,1.3-0.9,2.2
			c0,0,0,0-0.1,0.1c-0.2,0-0.2,0.1-0.2,0.2c-0.4,1.2-0.9,2.4-1.2,3.7c-0.2,1-0.2,2,0.1,3c0.1,0.5-0.1,1.1,0.3,1.6
			c0.2,0.1,0.2-0.3,0.4-0.2c-0.3,0.9-0.3,0.9,0,1.4c0.2-0.7,0.7-1.3,0.7-2.1c0-0.8,0.4-1.5,0.3-2.3c-0.1-1.4,0.6-2.5,1-3.7
			c0.2-0.6,0.6-1.3,0.8-2c0.3-0.8,0.6-1.7,1.3-2.3c0.1-0.1,0.2-0.2,0.2-0.3c0.3-0.6,0.5-1.3,0.7-2C106.1,97.8,105.9,97.5,105.3,97.4
			z M105.2,113.4c0.2,0.1-0.1,0.3,0,0.4C105.3,113.6,105.3,113.5,105.2,113.4c0.5-1.1,0.6-2.2,0.7-3.3c0-0.4,0-0.8,0.1-1.2
			c0.1-0.5-0.1-0.9-0.3-1.2c0.3-0.3,0.5-0.8,0.4-1.3c0-0.1,0-0.2,0.1-0.3c0.6-0.4,0.5-1.1,0.7-1.7c0.2-0.5,0.6-1.1,0.4-1.7
			c0,0,0.1-0.1,0.1-0.2c0.7-0.5,0.9-1.3,1.3-2c0.1-0.1,0-0.2,0-0.4c0.5-0.2,0.7-0.7,0.9-1.2c-0.7-0.2-0.1-0.9-0.5-1.2
			c-0.1,0.1-0.2,0.2-0.3,0.4c0,0,0,0.1,0,0.1c-0.2,0.1-0.4,0.2-0.5,0.4c-0.2,0.3-0.4,0.7-0.6,0.9c-1.1,0.8-1.4,2.2-2,3.2
			c-0.3,0.5-0.4,1.1-0.7,1.6c-0.8,1.8-0.9,3.6-0.7,5.6c0.1,0.8,0.3,1.5,0.5,2.2C104.7,112.5,104.7,113,105.2,113.4z M92,214.9
			c0,0,0.1,0.1,0.1,0.1c0,0.1,0,0.1,0,0.2c0.3,0,0.8,0.2,0.9,0.2c0.5-0.2,1.1-0.2,1.3-0.8c0.2-0.1,0.3,0.2,0.4,0.1
			c0.1-0.2,0.1-0.5,0.1-0.8c0.2,0,0.3-0.1,0.4,0c0,0.2-0.2,0.2-0.1,0.4c0.3-0.1,2-1.2,2-1.2c-0.1-0.2-0.4,0.1-0.4-0.2
			c0.3-0.1,0.5-0.1,0.8,0.1c0.1-0.2,0.3-0.4,0.3-0.5c0.1-0.5,0.4-0.8,1-0.9c0.3-0.1,0.6-0.3,0.9-0.5c0.4-0.3,0.3-0.8,0.6-1.1
			c0.2-0.1,0.2,0.3,0.4,0.1c0.1-0.3,0-0.5,0.1-0.8c0.9-0.5,1.7-1.1,1.5-2.3c0.2,0.1,0,0.4,0.4,0.3c-0.1-0.6,0.8-1.2,0.3-1.9
			c0.6-0.4,0-0.5-0.3-0.8c0,0.5-0.7,0.4-0.5,0.9c-0.6,0-1.1,0.6-1.1,1.5c-0.1-0.1-0.3-0.3-0.4-0.2c-0.2,0.3-0.7,0.5-0.5,1
			c-0.5,0-0.5,0-1.7,1.4c0.1,0,0.2,0,0.3,0c0.1,0,0.2,0,0.2,0.1c-1.2,0.4-1.9,1.2-2.7,2.1c-0.3,0-3.9,2.6-4.1,3.1
			c-0.2,0,0-0.4-0.4-0.3c-0.3,0.3-0.9,0.3-0.9,1c-0.4-0.3-0.5-0.2-0.8,0c-0.4,0.4-0.7,1-1.5,0.9c-0.1,0-0.3,0.1-0.2,0.3
			c0.2,0.3,0.5,0.3,0.8,0c0-0.1,0.1-0.1,0.2-0.1c0.2,0.1,0.1,0.3,0.3,0.4c0.5-0.2,0.7-0.6,0.6-1.1c0.2,0,0.4,0.1,0.6,0.1
			c0.1,0.3-0.1,0.4,0,0.7c1.1-0.6,1.1-0.6,0.6-1C91.8,215.5,91.8,215.1,92,214.9z M104.2,150.8c0.2-0.1,0.3-0.1,0.4,0.2
			c-0.2-0.1-0.4,0-0.5,0.2c0.2,0.1,0.4,0.1,0.6-0.1c0.5,0.2,0.6-0.4,0.9-0.4c0.6-0.1,1.3-0.5,1.6-1c0.4-0.7,1.2-1.1,1.6-1.8
			c0.1-0.2,0.3-0.5,0.5-0.6c0.5-0.2,0.8-0.6,1-1c0.3-0.6,0.6-1.1,1.1-1.6c0.1-0.1,0.1-0.1,0.1-0.2c-0.3-0.3,0-0.5,0.2-0.7
			c0.1-0.1,0.2-0.3,0.2-0.4c0-0.1,0.5-1.4,0.5-1.5c-0.3-0.1-0.4,0.1-0.6,0.2c0-0.4-0.3-0.3-0.5-0.4c-0.4-0.2-0.8-0.2-1.3,0
			c-0.7,0.4-1,1-1.3,1.6c-0.5,0.9-0.9,1.8-1.6,2.5c-0.6,0.6-1,1.4-1.6,2.1c-0.6,0.6-1.2,1.3-1.8,1.9c-0.6,0.6-0.7,0.9,0,1.5
			C103.9,151,104.2,151.1,104.2,150.8L104.2,150.8z M81.1,180c0.2-0.1,0.2-0.4,0.2-0.6c0.2-0.5,0-1,0-1.5c0.1-0.7,0.2-1.5,0.3-2.2
			c0,0,0-0.1-0.1-0.1c-0.1,0-0.1,0.2-0.3,0.1c0-0.1,0-0.1,0-0.2c0.4-0.5,0.5-1.1,0.3-1.7c0-0.1-0.1-0.3,0-0.4
			c0.5-0.6,0.3-1.2-0.1-1.9c0.6,0.1,0.5-0.3,0.5-0.6c0-0.6,0-1.3,0-1.9c0-0.8,0-1.7,0.1-2.5c0-0.3,0-0.6-0.3-0.7
			c0.1-0.2,0.4-0.1,0.4-0.3c0-0.1-0.3-0.2-0.1-0.3c0.2-0.2,0.1-0.5,0-0.7c-0.1-0.2-0.1-0.4,0-0.6c0.3-1.3,0.1-2.6,0.5-3.8
			c0.1-0.2,0.1-0.6-0.3-0.7c-0.2,0.3-0.3,0.6-0.5,1c0,0-0.1,0-0.1,0c0.2-0.5,0.2-1,0.5-1.5c0.2-0.3,0.4-0.7,0.5-1.1
			c0.1-0.9,0.2-1.8,0.2-2.7c-0.1-0.2-0.2,0.1-0.3-0.1c-0.1-0.2,0-0.2,0.1-0.3c0.4-0.4,0.4-0.7,0-1.1c-0.1-0.1,0-0.2,0-0.3
			c-0.1-0.3,0.3-0.4,0.3-0.7c-0.3,0-0.3-0.1-0.3-0.4c0-0.5,0.3-1,0.2-1.5c-0.1-0.3-0.4-0.3-0.4-0.5c0.1-0.1,0.2-0.2,0.3-0.3
			c-0.6,0.2-0.3-0.4-0.5-0.6c-0.5,0.4,0.2,0.4,0.2,0.6c-0.1,0.6-0.8,1.1-0.1,1.7c-0.3,0.3-0.4,0.8-0.5,1.2c0,0.7-0.2,1.4-0.3,2.1
			c-0.1,0.6-0.3,1.2-0.1,1.8c0.4-0.3,0.4-0.6,0.3-1c0.3,0.2,0.3,0.5,0.6,0.5c0,0.2-0.1,0.3-0.2,0.3c-0.4,0-0.4,0.3-0.4,0.4
			c0.1,0.5-0.3,0.5-0.6,0.7c0.3,0.6,0.2,1.1,0,1.7c-0.1,0.4-0.4,0.7-0.3,1.1c0.1,0.4,0,0.9,0,1.3c0,0.2-0.2,0.5,0.2,0.6
			c-0.5,0.7-0.5,0.7-0.2,1.1c-0.2,0.2-0.5,0.3-0.1,0.6c-0.5,0.3-0.2,0.7-0.2,1c-0.1,1,0.1,2.1-0.2,3.1c-0.1,0.3,0.2,0.7,0.1,1.1
			c-0.1,0.9-0.3,1.7-0.3,2.6c0,0.8,0.1,1.5-0.1,2.3c-0.2,1.1-0.1,2.2-0.2,3.3c-0.1,0.6-0.2,1.3-0.2,2c0,1.2-0.3,2.4-0.3,3.7
			c0,0.7,0,1.4-0.1,2.1c-0.1,0.7-0.2,1.3-0.2,2c0,0.5,0.1,1-0.1,1.5c-0.3,0.7-0.2,1.5-0.2,2.3c0,0.3,0.1,0.5,0.4,0.4l0,0
			c0,0.1,0,0.1,0,0.2c-0.1,0-0.2-0.1-0.2,0.1c0,0,0.1,0.1,0.1,0.1c0.1,0,0.2-0.1,0.1-0.2c0.1,0,0.2,0,0.3,0c-0.2,0.2-0.3,0.4,0,0.6
			c0.2,0.1,0.3-0.2,0.3-0.4c0-0.3,0.3-0.7-0.1-1c0.3-0.3,0.4-0.6,0.4-1c0-0.3-0.1-0.6,0-0.9c0.3-1.1,0.6-2.2,0.5-3.4
			c0-0.3,0-0.8,0.1-1c0.5-0.6,0.3-1.2,0.4-1.8c0.1-0.6-0.2-1.2,0.2-1.8C81.3,180.5,81.2,180.2,81.1,180
			C81.1,180.1,81.1,180,81.1,180z M135.5,96c0,0-0.1-0.1-0.1-0.1c0.1-0.8-0.6-0.2-0.9-0.4c0.1-0.2,0.4-0.1,0.4-0.4
			c-0.6-0.2,0-0.5,0-0.7c-0.2-0.1-0.3,0.2-0.5,0c0.2-0.5-0.1-0.7-0.6-0.7c0.3-0.4,0.6-0.8,0.3-1.3c0,0-0.1,0-0.1,0
			c-0.1,0.1,0.1,0.3,0,0.5c-0.3-0.1-0.3-0.5-0.5-0.7c0.6,0,0.2-0.4,0.3-0.6c0.2-0.5,0.3-1.1,0-1.6c0,0-0.2,0-0.1-0.1
			c0.3-0.3,0.1-0.6,0-0.9c-0.2-0.1-0.4,0.2-0.7-0.1c1.1-0.2,0.7-1,0.9-1.6c-0.1,0.1-0.2-0.1-0.3,0.1c0,0.2-0.1,0.3-0.3,0.3
			c-0.2-0.1-0.1-0.2,0-0.4c0.1-0.4,0.2-0.8,0.3-1.2c-0.2-0.1-0.3,0.1-0.4,0.1c-0.2-0.1-0.1-0.5-0.3-0.6c-0.3,0-0.3,0.3-0.4,0.4
			c-0.2,0.4-0.3,0.9-0.5,1.2c-0.4,0.7-0.4,1.4-0.4,2c0.1,1-0.3,2.1,0.4,3c0,0,0,0.1,0,0.1c-0.3,0.6-0.2,1.2,0.3,1.7
			c0,0,0.2,0.2,0,0.2c-0.2,0.1-0.2,0.2-0.1,0.3c0.1,0.2,0.3,0,0.5,0c-0.3,0.6-0.5,1.1,0.3,1.4c-0.2,0.3-0.2,0.6,0,0.9
			c-0.8-0.1-1.6,0.3-2.3,0.2c-0.2,0-0.5,0.1-0.6-0.1c-0.2-0.4-0.5-0.5-0.9-0.6c0.2-0.5,0.1-0.8-0.3-1.1c0.4,0,0.4-0.3,0.3-0.4
			c-0.1-0.2-0.1-0.5-0.2-0.7c-0.3-0.6-0.3-1.3-0.5-1.9c-0.2-0.5,0-1.1-0.3-1.6c-0.1-0.2-0.2-0.5,0-0.8c0.3-0.4,0.2-1,0.4-1.4
			c-0.1-0.1-0.3,0-0.3-0.2c0,0,0.1-0.1,0.1-0.2c0.1-0.5,0.1-0.9-0.4-1.2c-0.5-0.3-0.8,0.2-1,0.5c-0.7,0.9-0.8,1.9-1,2.9
			c0,0.1,0,0.2,0.1,0.2c0.3,0.3,0.1,0.6,0,0.8c-0.1,0.4,0,0.9,0.1,1.3c0.1,0.3,0.1,0.5,0.2,0.8c0.1,0.4-0.1,0.9,0.5,1.1
			c-0.4,0.9,1,1.3,0.6,2.1c0.5,0.2,0.5,0.8,0.8,1.2c-0.6-0.4-0.8,0-1,0.3c-0.2-0.1-0.4-0.1-0.6,0c-0.5,0.1-0.5,0.7-0.9,0.8
			c-0.2,0.1-0.6,0.1-0.8,0.4c-0.3,0.4-0.8,0.6-1.3,0.9c-0.2,0.1-0.6,0.1-0.4,0.5c-0.3,0-0.3,0.5-0.4,0.4c-0.4-0.2-0.3,0-0.4,0.2
			c-0.1,0.5-0.5,0.7-0.9,0.8c-0.3,0.1-0.6,0.4-0.6,0.6c0,0.7-0.5,0.9-1,1.2c0.2,0.2,0.3,0.4-0.1,0.5c-0.1-0.1-0.1-0.2-0.2-0.3
			c0.1,0.3-0.3,0.4-0.3,0.7c0,0.3-0.1,0.6-0.5,0.6c-0.3,0-0.3,0.2-0.3,0.5c0.1,0.5,0,0.9-0.3,1.3c-0.2,0.4-0.4,0.7-0.5,1.1
			c0,0.2-0.2,0.4-0.5,0.5c0.7,0.4-0.1,1.2,0.5,1.6c1.3-0.2,2.5-0.4,3.7-0.7c1.8-0.4,3.6-0.5,5.4-0.8c0.9-0.2,1.8-0.4,2.6-0.6
			c0.8-0.2,1.5-0.5,2.3-0.8c0.9-0.3,1.9-0.7,2.8-1c0.6-0.2,1.1-0.4,1.6-0.8c0.7-0.5,1.5-0.6,2.1-1.1c0.9-0.6,1.8-1.3,2.8-1.7
			c1-0.5,2-1.1,2.9-1.8c1.2-1,2.4-2.2,3.2-3.6c0.4-0.8,1.1-1.4,1.6-2.2c0.2-0.4,0.4-0.8,0.6-1.2c0.4-0.6,0.6-1.3,0.7-2.1
			c-0.1,0-0.2,0.1-0.3,0c-0.3-0.1-0.7,0.4-0.9-0.1c-0.1-0.3-0.2-0.6-0.5-0.8c0.2-0.4,0-0.9,0.2-1.3c0.2-0.6-0.1-1.2-0.4-1.5
			c-0.3-0.3-0.3-0.6-0.5-1c0.3,0.1,0.5,0.2,0.5-0.1c0-0.2-0.1-0.3-0.3-0.3c-0.2-0.1-0.3-0.2-0.2-0.4c0.1,0.1,0.2,0.1,0.4,0.2
			c0.1-0.3,0.2-0.5,0-0.7c-0.2,0.1,0,0.4-0.2,0.5c-0.2-0.1-0.3-0.3-0.3-0.6c0.4,0,0.7-0.3,0.6-0.6c-0.1-0.3,0-0.7-0.1-1
			c-0.2-0.4-0.5-0.7-0.7-1.1c0,0-0.1,0-0.1,0c-0.2,0.1,0.2,0.3,0,0.4c-0.4-0.1,0-0.8-0.6-0.7c-0.6,1.5-0.6,2.9-0.2,4.5
			c-0.3,0-0.2,0.3-0.2,0.5c0.1,0.3,0.1,0.7,0.2,1c0.1,0.4-0.1,0.8,0.1,1.1c0.4,0.8,0.5,1.6,0.7,2.5c0.1,0.5-0.2,0.8-0.5,1
			c-0.4,0.3-0.8,0.2-1-0.2c-0.2,0-0.3,0.3-0.6,0.2c-0.1-0.3-0.2-0.5-0.3-0.8c-0.1-0.3,0-0.6-0.4-0.7c0.1-0.6-0.3-1-0.8-1.3
			c-0.1-0.1-0.1-0.3,0.1-0.4c0.6-0.5,0.6-0.9,0.1-1.4c0-0.2,0.2-0.3,0.1-0.5c-0.2-0.2,0-0.3,0-0.5c-0.8-0.2-0.1,0.7-0.7,0.7
			c0-0.5,0-0.9,0-1.4c0,0,0-0.1,0.1-0.1c0.5-0.3,0.3-0.7,0.3-1.1c0-0.1-0.1-0.1-0.2-0.2c-0.3-0.1,0,0.3-0.3,0.2
			c0.2-0.8,0.3-1.6-0.6-2c0.1-0.2,0.2-0.3,0.2-0.6c-0.3-0.1-0.7-0.3-0.8,0.1c-0.1,0.4-0.3,0.9-0.2,1.2c0.2,0.4,0.1,0.8-0.1,1.2
			c0.2,0,0.4,0,0.5,0c-0.4,0.3-0.6,1.3-0.4,1.8c0.1,0.1,0.6,0.4,0,0.6c-0.1,0-0.1,0.5,0.2,0.6l0,0c-0.1,1.2,0.6,2.3,0.7,3.5
			c0.1,0,0.3-0.2,0.4,0c-0.1,0-0.3,0.1-0.2,0.2c0.1,0.1,0.2,0.3,0.4,0.1c0.2-0.1,0.2,0,0.3,0.1c0.1,0,0,0.1,0,0.1
			c-0.4,0.1-0.1,0.4-0.2,0.5c-0.8,0.3-1.4,1.4-2.4,0.7c-0.3,0.5-0.8,0.7-1,0.5c-0.1-0.1,0.2-0.1,0-0.3c-0.2-0.1-0.5,0.1-0.8-0.2
			c0.3-0.7-0.3-1.2-0.4-1.9c0-0.5-0.1-1-0.3-1.5c-0.1-0.4,0.1-0.9-0.3-1c-0.4-0.2-0.3-0.5-0.2-0.7c0.2-0.4-0.1-0.8-0.3-0.8
			c-0.4-0.1-0.4-0.4-0.4-0.6c0.1-0.5-0.2-1-0.1-1.4c0-0.6,0.1-1.2-0.6-1.5c-0.1,0.3-0.1,0.3-0.3,0.4c0.1-0.2,0-0.4-0.3-0.6
			c-0.7,1.1-0.3,2.3-0.4,3.4c-0.1,0.7-0.1,1.7,0.6,2.3c-0.4,0.1-0.2,0.4-0.1,0.6c0.2,0.4,0.3,0.9,0.3,1.4c0,0.1,0.1,0.3,0.2,0.5
			c0.1,0.2,0.5,0.5,0.2,0.8c0,0,0,0.2,0,0.2c0.4,0.4,0.6,0.9,0.4,1.4c0.1,0.3,0.2-0.1,0.3,0.2C136.8,95.6,136.3,96,135.5,96z
			 M150.7,122.8C150.7,122.8,150.8,122.8,150.7,122.8c0.2,0.4,0.3,0.2,0.4,0c0.2-0.5,0-1.1,0.3-1.6c0,0,0-0.1-0.1-0.1
			c-0.6,0.1-1.2-0.3-1.9-0.3c-0.1,0.3-0.1,0.5-0.5,0.2c-0.1,0.5-0.8,0.8-0.3,1.3c-0.1,0.2-0.3,0-0.4,0.2c0,0.3,0.2,0.5,0,0.8
			c-0.2,0.1-0.2-0.2-0.3-0.2c-0.2,0.3-0.5,0.5-0.7,0.8c0.3,0.1,0.3,0.1,0.7,0c0.1,0.7,0.1,1-0.1,1.5c0,0.1,0.1,0.3-0.1,0.2
			c-0.5-0.3-0.3,0.3-0.6,0.3c0.1,0.2,0.4,0,0.5,0.3c0,0.2-0.1,0.4-0.1,0.6c-0.1,0.3-0.3,0.6-0.7,0.3c-0.2-0.2-0.3,0.1-0.5,0
			c-0.1,0.2,0.3,0.3,0,0.6c-0.2-0.1-0.4-0.5-0.6-0.1c-0.1-0.2-0.6,0-0.6-0.5c0-0.2,0.1-0.6-0.3-0.6c-0.1,0-0.1-0.2,0-0.3
			c0.2-0.5,0.3-1,0.6-1.4c0.2-0.2,0.2-0.3,0.2-0.5c-0.1,0-0.3,0.1-0.4-0.2c0,0,0.2,0,0.2-0.1c-0.1-0.7,0.3-1.2,0.4-1.8
			c0.1-0.3,0.2-0.5,0.5-0.5c0.5-0.1,0.1-0.7,0.5-0.9c-0.1-0.1-0.1-0.4-0.3-0.4c-0.3,0-0.6,0-0.9,0c-0.4,0-0.9,0.1-1.2,0
			c-0.7-0.3-1,0.4-1.6,0.3c0,0.5-0.6,0.5-0.9,0.7c-0.6,0.5-1.2,0.9-1.8,1.2c-0.8,0.4-1.6,0.6-2.5,0.3c-0.5-0.1-0.8-0.4-0.7-0.9
			c0.1-0.5,0.4-0.7,0.8-0.9c2-1.3,4-2.5,6-3.8c1-0.7,2-1.6,3-2.3c0.9-0.7,1.6-1.4,2.4-2.2c0.5-0.5,1.1-1,1.5-1.6
			c0.5-0.7,1.1-1.3,1.7-1.9c0.4-0.3,0.9-0.7,1.2-1.1c0.9-1.2,1.8-2.5,2.7-3.7c0.5-0.7,1-1.4,1.3-2.1c0.4-0.9,0.8-1.9,1.3-2.8
			c0.7-1.3,1.2-2.6,1.5-4c0.1-0.6,0.3-1.2,0.5-1.7c0.3-0.9,0.7-1.9,0.8-2.8c0-0.7,0.1-1.4,0.2-2c0.2-0.9,0.2-1.9,0.6-2.8
			c0.2-0.6,0.1-1.4,0.2-2.1c0.1-0.8,0-1.6,0.3-2.3c0.2-0.6,0.2-1.2,0.2-1.7c0-0.9,0.2-1.7-0.1-2.6c-0.2-0.5,0.2-0.9,0.1-1.4
			c-0.1-0.3-0.2-0.6-0.1-1c0.2-0.4,0.2-0.9,0.1-1.4c-0.1-0.3-0.2-0.6,0.1-0.9c0.1-0.1,0-0.2,0-0.2c-0.4-0.2-0.2-0.5-0.2-0.8
			c-0.1-1,0.4-2.1,0-3.1c0-0.1,0-0.2,0-0.3c0.4-0.6,0-1.2,0.1-1.8c0.1-0.4-0.1-0.8-0.1-1.2c0-0.4-0.5-0.8,0-1.3
			c-0.5-0.4-0.2-1.1-0.5-1.6c-0.1-0.2,0.2-0.2,0.3-0.3c-0.3-0.2-0.4-0.5-0.4-0.8c0-0.7,0.2-1.4-0.1-2.1c0-0.1,0-0.1,0.1-0.2
			c0.3-0.1,0.1-0.2,0.1-0.3c-0.5-0.7-0.4-1.3-0.1-2c-0.4-0.2-0.9-2.5-0.7-2.8c-0.6-0.3-1.1,0.4-1.8,0.1c-0.3,0.4-0.8,0.4-1.1,0.6
			c-1.2,0.5-2.5,0.4-3.7,0.4c-0.5,0-0.7,0.1-0.8,0.7c0,0.4,0.1,0.9-0.1,1.3c0.2-0.3,0.3-0.3,0.7,0.4c-0.2,0.2-0.4,0.3-0.3,0.7
			c0.1,0.2,0,0.3-0.1,0.4c0.3,0.2,0.2-0.3,0.5-0.3c0.1,0.3,0.2,0.6-0.4,0.5c0.1,0.6-0.2,1.1-0.1,1.6c0.8,0.3,1.1,1.2,0.5,1.9
			c0.1,0.3,0.3,0,0.5,0.1c0.2,0.6,0,1.2-0.1,1.8c0,0.3,0.1,0.7,0,0.9c-0.2,0.4-0.2,0.8,0,1.1c0.3,0.5,0.3,0.8-0.3,1.1
			c0.1,0.2,0.2,0.3,0.3,0.5c-0.6,0.3,0.3,0.7-0.1,1c0.2,0.1,0.4,0,0.4,0.3c-0.3,0.3-0.1,0.7-0.3,1.1c-0.4,0.6-0.5,1.2-0.2,1.8
			c0.1,0.3,0.7,0.6,0.1,0.9c0.1,0.5,0.1,1.1,0.4,1.5c0.2,0.2,0.2,0.3,0.1,0.5c-0.1,0-0.3,0-0.3,0.1c0,0.1,0.1,0.1,0.1,0.2
			c0.2,0.1,0.2-0.1,0.3-0.2c0.2,0.5,0.1,0.7-0.4,0.9c0.2,0.2,0.7,0.3,0.4,0.7c-0.1-0.1,0-0.3-0.2-0.3c-0.2,0.2,0,0.3,0.1,0.3
			c-0.2,0.4-0.3-0.2-0.4-0.1c-0.5,0.8,0.2,1.4-0.1,2.1c0.1,0.1,0.3,0,0.5,0.3c0.4,0.6,0.1,1.2-0.1,1.8c-0.1,0.4,0,0.6,0.2,0.9
			c-0.4,0.4-0.5,0.9-0.1,1.6c-0.3,0.1-0.6,0.7-0.5,1c0.1,0,0.2,0,0.4,0.1c-0.3,0.4-0.5,0.9-0.2,1.2c0.2,0.2,0.2,0.4,0.1,0.6
			c-0.2,0.4-0.2,0.9-0.4,1.4c-0.2,0-0.3-0.1-0.5-0.1c-0.3,0.5,0.2,1.1-0.3,1.5c0.5,0.7,0.5,0.8-0.2,1.3c0.2,0.2,0.1,1.2-0.1,1.2
			c-0.4,0-0.4,0.3-0.5,0.5c-0.3,0.5-0.2,1.2-0.8,1.6c-0.2,0.2-0.4,0.4-0.5,0.8c0.3-0.1,0.6-0.2,0.6,0.1c0,0.3-0.2,0.3-0.4,0.5
			c-0.1,0.1-0.3,0-0.4,0.3c-0.2,0.4-0.4,0.9-0.7,1.3c-0.1,0.2,0,0.4-0.2,0.6c-0.4,0.4-0.5,1-0.9,1.3c0,0,0,0.1,0,0.1
			c0.2,0.3-0.1,0.6-0.3,0.7c-0.3,0.3-0.6,0.6-0.8,1c-0.1,0.1-0.2,0.3-0.4,0.3c-0.6,0-0.8,0.4-1,0.8c-0.1,0.2-0.1,0.6-0.5,0.4
			c-0.5,0.7-1.2,1-1.8,1.5c-0.5,0.5-1.2,1-1.8,1.2c-0.4,0.2-0.7,0.5-1.1,0.6c-0.4,0.1-0.6,0.4-0.8,0.7c-0.1,0.1-0.2-0.2-0.4-0.1
			c-0.1,0.2-0.2,0.6-0.5,0.5c-0.4-0.1-0.5,0.1-0.7,0.3c-0.3,0.3-0.6,0.6-1.1,0.7c-0.2,0-0.6,0.1-0.7,0.2c-0.4,0.3-0.7,0.5-1.2,0.6
			c-1.3,0.5-2.6,0.9-3.9,1.4c-1.2,0.5-2.5,0.9-3.8,1.2c-1.4,0.3-2.9,0.7-4.4,0.8c-1.4,0.1-2.7,0.2-4,0.7c-1.1,0.4-2.3,0.4-3.5,0.4
			c-0.2,0.4,0.1,1-0.6,1.2c0.1,0.2,0.3-0.1,0.4,0.1c-0.3,0.8,0,1.5,0.5,2.2c-0.3-0.2-0.5,0.2-0.5,0.2c0.2,0.4-0.2,0.9,0.2,1.3
			c0.1-0.2,0.1-0.4,0.2-0.6c0.8,0.6,0.6,1.6,0.8,2.4c-0.4,0-0.2-0.4-0.4-0.4c0,0.7,0.4,1.2,0.7,1.7c0.2-0.2,0-0.4,0.3-0.5
			c0.2,0.7,0.6,1.2,1.3,1.5c-0.3,0.2-0.8-0.5-0.9,0.2c0.3,0,0.5,0.1,0.7,0.1c0,0.2,0,0.4,0,0.7c0.2-0.1,0.4-0.2,0.5,0
			c0,0.4,0.4,0.5,0.5,0.8c0.2,0.6,0.5,1,0.8,1.4c0.2-0.1,0.3-0.2,0.5-0.2c0.1,0.3-0.3,0.1-0.3,0.3c0.3,0.2,0.3,0.6,0.7,0.7
			c-0.1,0.1-0.3,0.1-0.3,0.3c0.4,0.4,0.8,0.6,0.9,1.2c0.2-0.1,0-0.4,0.1-0.4c1.2,0,1.9,0.8,2.7,1.4c-0.1,0.1-0.2,0.3,0,0.5
			c0.2-0.1,0.2-0.3,0.3-0.4c0.2,0.1,0.4,0.1,0.4,0.4c-0.2,0-0.4,0.1-0.4,0.2c0.1,0.7,0.6,0.4,1,0.3c-0.1,0.3,0.3,0.5,0.2,0.6
			c-0.4,0.4,0.1,0.5,0.2,0.8c0.5-0.8,0.6-0.7,1.4,0.3c-0.2,0.1-0.2-0.2-0.4-0.1c0,0.2,0.1,0.4,0.1,0.8c0.2-0.4,0.4-0.5,0.6-0.7
			c0,0.3,0.3,0.4,0.4,0.6c-0.2,0.4-0.2,0.4,0.1,0.7c0.1-0.3,0-0.7,0.2-0.9c0.4,0.5,1.5,0.4,1.3,1.5c0.7-0.7,0.7-0.5,1.1-0.4
			c0.4,0.1,0.9-0.1,1.1,0.4c0.8-0.5,0.8,0.2,1,0.6c0.2-0.2,0.3-0.7,0.6-0.5c0.2,0.1,0.4,0.1,0.5,0.2c0.4,0.2,0.7,0.2,1-0.1
			c0.1-0.1,0.2,0.1,0.3,0.1c0.4,0,0.1,0.5,0.4,0.6c0.3-0.1,0.2-0.6,0.6-0.5c0.3,0.1,0.4,0.3,0.4,0.6c0.2,0,0.3,0,0.5,0
			c-0.1-0.3,0-0.6,0.2-0.6c0.6,0,1.2,0,1.8,0.2c0.2,0.1,0.7,0.1,0.7,0c0.2-0.5,0.5-0.2,0.7-0.1c0.6,0.1,1.2,0,1.8,0
			c2.1-0.1,4.2-0.4,6.2,0.1c0.5,0.1,1,0.1,1.5,0.3c0.7,0.3,1.5,0.3,2.1,0.6c0.1,0.1,0.2,0.2,0.4,0.2c0.6,0,1,0.3,1.6,0.4
			c0.5,0.1,0.9,0.3,1.4,0.6c0.3,0.2,0.8,0.5,1.3,0.5c0.4,0,0.9,0.4,1,0.7c0.6,0,1,0.3,1.2,0.6c0.7,0.3,1.4,0.6,2.1,0.9
			c0.8,0.3,1.6,0.4,2.2,1.2c0.2-0.8,0.5-1.4,0.7-2.1c0.4-1.2,1-2.3,1.9-3.3c0.5-0.6,1.1-1.1,1.7-1.6c0.5-0.6,1-1.3,1.9-1.7
			c-1.5-0.8-2.7-2-4.3-2.7c-0.2,0.3-0.5,0.7-0.5,1c0.1,0.6,0,1-0.5,1.3c0.4,0.2,0.4,0.4,0.2,0.7c-0.3,0.5-0.2,1,0,1.5
			c-0.2,0.2-0.5,0.3-0.5,0.6c0,0.4-0.1,0.6-0.5,0.8c-0.6,0.3-1,0.4-1.5,0.1c-0.2-0.1-0.5-1.4-0.4-1.6c0,0,0.1-0.1,0.1-0.1
			c0.3-0.1,0-0.1,0-0.2c-0.1-0.9,0.1-1.8,0.6-2.6c0.1-0.2,0.3-0.4,0.2-0.7c-0.1-0.3,0-0.6,0.2-0.8c0.4-0.3,0.4-0.8,0.6-1.2
			c-1-0.8-1.9-1.7-3.3-1.4c0,1.2-0.1,2.5-1.1,2.8c0.2,0.1,0.5,0.2,0.6,0.4c-0.1,0.2-0.4,0.1-0.3,0.4c0.2,0.6,0,1.1-0.5,1.5
			c-0.1,0.1-0.1,0.2-0.1,0.2c0,0.3,0,0.3-0.5,0.6c-0.2,0.1-0.4,0.1-0.5,0c-0.2-0.4-0.4,0.1-0.6-0.1c-0.2-0.6-0.3-1.2-0.3-1.8
			c-0.1-0.6,0.2-1.1,0.2-1.7c0,0,0.1-0.1,0.2-0.1c0.3,0,0.3-0.2,0.1-0.3c-0.2-0.1-0.1-0.2-0.1-0.3c0.2-0.4,0.3-0.9,0.4-1.3
			c0.1-0.3,0.6-0.3,0.5-0.8c-0.1-0.3,0.1-0.4,0.5-0.4c-0.8-0.4-1.6-0.8-2.5-1.1c-0.2-0.1-0.3,0.1-0.4,0.2c-0.5,0.4-0.3,1.2-0.9,1.6
			c0.5,0.4-0.2,0.4-0.2,0.6c0.2,0.2,0.3,0.4,0.4,0.6c-0.1,0.1-0.3-0.1-0.3-0.1c0.2,0.9,0.2,1.6-0.6,2.1c-0.2-0.1-0.5-0.1-0.7-0.4
			c-0.1,0.2-0.1,0.4-0.2,0.6c-0.3,0-0.4-0.4-0.7-0.5c-0.1,0.1,0,0.3-0.2,0.4c0-0.5-0.2-0.8-0.3-1.3c0.3,0,0.7,0.1,0.4-0.4
			c-0.3-0.7-0.2-1.4,0.2-2c0-0.1,0.2-0.1,0.1-0.3c-0.2-0.8,0.1-1.4,0.7-2c-0.4-0.6-1.1-0.6-1.6-0.8c0,0-0.1,0-0.2,0
			c-0.3,0.2-1.1,1.5-1.1,1.9c0,0.3,0,0.8-0.1,0.9c-0.3,0.3-0.1,0.4,0.1,0.6c0,0,0,0.1,0,0.1c-0.1,0.1-0.2-0.1-0.3,0
			c0,0.2,0.2,0.4,0.3,0.6c-0.6,0-0.5,0.4-0.5,0.8c0.1,0.8-0.5,1.5-1.3,1.5c-0.4,0-0.8-0.4-0.8-0.5c0.2-0.5-0.2-1-0.1-1.4
			c0.1-0.3,0-0.7,0.5-0.6c-0.2-0.4-0.9-0.5-0.4-1.1c0.2-0.3-0.1-0.9,0.6-0.9C150.6,123.3,150.3,123.1,150.7,122.8z M59.1,65.8
			c0.1,0,0.3-0.2,0.4,0.1c0.1,0.3,0.3,0.1,0.5,0.1c-0.2,0.5,0,0.6,0.4,0.6c0.1,0.2-0.2,0.3-0.1,0.6c1.6-1,2.8-2.4,4.5-3.3
			c-0.2-0.3-0.4-0.5-0.4-0.8c0-0.1,0-0.2-0.2-0.3c-0.4-0.1-0.6-0.4-0.9-0.7c-0.5-0.6-0.9-1.3-1-2.2c0-0.1,0-0.3-0.2-0.4
			c-0.5-0.5-0.5-1,0.2-1.4c0.4,0.5,0.4,0.5,1.3,0.6c-0.1,0.2-0.1,0.5,0.2,0.4c0.4-0.1,0.5,0.2,0.8,0.4c0.6,0.5,0.8,1.4,1.4,1.9
			c-0.6,0.2-0.1,0.5-0.1,0.7c0.2-0.1,0.2-0.5,0.5-0.2c0.2,0.2,0.3,0.4,0.3,0.6c0.7-0.3,1.4-0.6,2-0.9c0.9-0.4,0.9-0.3,0.6-1.2
			c0-0.1-0.1-0.2-0.1-0.3c-0.1-0.6-0.2-1.2-0.4-1.7c-0.2-0.5,0.2-1.5,0.6-1.8c0.3-0.2,1.7,0.1,1.8,0.4c0.1,0.2,0.2,0.4,0,0.7
			c-0.2,0.2-0.3,0.5-0.4,0.8c0.3,0.3,0.3-0.2,0.5-0.1c0.1,0.3,0.1,0.7,0.5,0.9c0.4,0.2-0.2,0.8,0.2,1.1c0.4-0.3,0.9-0.3,1.4-0.4
			c1-0.4,2-0.5,3-0.6c1.3-0.2,2.7-0.4,4.1-0.3c1.2,0.1,2.3-0.2,3.5-0.2c0.4,0,0.7,0.2,1.1,0.2c0.9,0,1.8,0.1,2.6,0.1
			c1.5,0.1,3,0.2,4.5,0.7c0.4,0.1,0.8,0.4,1.2,0.3c0.2,0,0.3,0,0.5,0.1c0.7,0.3,1.4,0.6,2.1,0.9c0.7,0.2,1.4,0.3,1.9,0.7
			c0.1,0.1,0.3,0.1,0.3,0.1c0.4,0.3,0.9,0.2,1.4,0.5c0.4,0.3,0.8,0.7,1.3,0.9c0.3,0.1,0.5,0.3,0.7,0.5c0.3,0.5,0.8,0.5,1.2,0.1
			c0.6-0.6,1.3-1.1,1.8-1.8c0.2-0.4,0.7-0.6,0.8-1.1c0-0.1,0.2-0.2,0.4-0.2c0.2,0.1,0,0.3,0.2,0.4c0.2-0.6,0.2-0.6,0.7-0.3
			c0.1,0,0.1,0,0.2,0c0.5-0.1,0.4,0.3,0.4,0.5c0,0.3-0.1,0.7-0.5,0.7c0.2,0.6-0.4,0.7-0.6,1c-0.3,0.4-0.5,1-1.3,0.6
			c0,0.5,0.1,0.9-0.4,1.1c-0.3,0.1-0.6,0.2-0.7,0.6c0.2,0.1,0.5-0.1,0.5,0.2c0,0.4,0.4,0.4,0.4,0.4c0.4,0,0.5,0.3,0.5,0.5
			c0.1,0.6,0.5,0.5,0.9,0.4c0.7-0.3,1.2-0.7,1.7-1.2c0.8-0.7,1.3-2,2.7-1.8c0,0,0,0,0,0c0.4-0.4,0.6-0.1,0.7,0.2
			c0.2,0.5,0.3,1.1-0.3,1.3c-0.4,0.2-0.6,0.5-0.8,0.8c0,0.1-0.1,0.1-0.2,0.2c-0.7,0.8-1.7,1.4-2.6,2c-0.1,0.1-0.3,0.1-0.2,0.3
			c0.1,0.2,0.3,0.1,0.4,0.1c0.5,0,0.7,0.2,0.5,0.7c0,0.1-0.1,0.2,0.1,0.4c0.5-0.5,0.5,0.3,0.9,0.3c-0.1,0.2-0.3,0.4-0.2,0.7
			c0.4,0.1,0.6-0.2,0.8-0.4c0.7-0.6,1.6-1,2.1-1.8c0.3-0.5,0.8-0.7,1.4-0.8c0.6,0,0.8,0.3,0.9,0.7c0,0.2,0.2,0.7-0.2,0.8
			c-0.4,0.1-0.6,0.4-0.7,0.6c-0.6,0.8-1.4,1.3-2.2,1.8c-0.3,0.2-0.3,0.6-0.3,0.6c0.2,0.3,0.2,0.8,0.5,0.8c0.7-0.1,0.5,0.4,0.5,0.7
			c0.5,0.1,0.8,0.5,0.6,1.2c0.4-0.2,0.7-0.4,1.2-0.4c0,0,0,0,0,0.1c0,0,0,0,0,0c0,0,0,0,0,0c-0.1-0.5,0.3,0,0.5-0.2
			c0.4-0.4,0.8-0.8,1.1-1.2c0.4-0.5,0.7-0.8,1.4-0.9c0.4,0,0.6,0.2,0.7,0.4c0.1,0.2,0.2,0.6-0.4,0.7c0.5,0.2,0.4,0.3,0.2,0.6
			c-0.4,0.5-1,0.8-1.4,1.2c-0.4,0.4-0.8,0.8-1.4,1c-0.4,0.1-0.7,0.3-0.5,0.8c0.1,0.3-0.1,0.8-0.2,1.1c0,0.1,0,0.2,0.2,0.2
			c0-0.1,0.1-0.2,0.1-0.3c0.3,0.1,0.3,0.3,0.6,0.3c0.5,0,1.1,0,1.5-0.2c2-0.5,4-0.3,5.9-0.5c0.6-0.1,1.3,0,1.9-0.2
			c0-0.9-0.6-1.7-0.7-2.5c0-0.2,0.1-0.5-0.2-0.6c-0.5-0.3-0.6-0.8-0.8-1.3c-0.4-1.1-0.6-2.4-1.5-3.3c-0.1-0.1-0.1-0.1-0.1-0.2
			c0.2-0.3-0.1-0.5-0.2-0.6c-0.5-0.3-0.7-0.8-0.9-1.3c-0.1-0.3-0.2-0.9-0.4-1c-0.8-0.3-0.9-1.1-1.3-1.6c-0.4-0.4-0.7-1-1.1-1.5
			c-0.5-0.6-0.8-1.2-1.4-1.7c-0.8-0.6-1.6-1.3-2-2.2c-0.1-0.2-0.2-0.3-0.4-0.4c-0.7-0.2-0.9-0.9-1.4-1.2c-0.3-0.1-0.4-0.5-0.7-0.7
			c-0.4-0.5-1.1-0.6-1.4-0.9c-0.6-0.6-1.4-1.1-2.1-1.5c-0.8-0.5-1.5-1.1-2.4-1.4c-1-0.4-1.9-0.8-2.9-1.2c-1-0.4-2-0.6-3-0.6
			c-0.9,0-1.8-0.1-2.5,0.5c-0.1,0.1-0.2,0-0.4,0.1c0-0.3-0.2-0.4-0.3-0.5c0.1-0.2,0.2-0.3,0.2-0.5c0-0.6,0.2-1,0.7-1.3
			c0.1,0,0.1-0.1,0.1-0.2c0.1-0.7,0.8-1.1,1.2-1.7c0.5-0.8,1.4-1.2,2.1-1.8c0.9-0.8,2-1.3,2.9-2.1c0.8-0.7,1.6-1.2,2.4-1.9
			c1.8-1.4,3.7-2.7,5.8-3.8c0.7-0.4,1.4-0.7,2.1-1c1.3-0.7,2.7-1.2,4-1.7c1.8-0.8,3.7-1.2,5.6-1.7c1.7-0.4,3.5-0.8,5.2-1.2
			c1.5-0.3,3.1-0.6,4.6-0.7c1.9-0.2,3.7,0.1,5.6,0.3c1.6,0.1,3.2,0.5,4.8,0.7c0.8,0.1,1.4,0.5,2.1,0.7c1.1,0.3,2.1,0.8,3.2,1.1
			c0.1,0,0.1,0.1,0.2,0.2c0.2,0.4,0.3,0.3,0.5,0c0.4-0.9,0.8-1.8,1.2-2.7c0.4-1,0.6-2.1,1.5-2.9c-0.6-0.3-1-0.8-1.7-1
			c-1-0.3-2-0.8-3.1-1c-0.8-0.2-1.7-0.4-2.4-0.8c-0.7-0.3-1.5-0.6-2.3-0.7c-1.1-0.1-2.1-0.3-3.2-0.4c-1.1-0.1-2.2-0.3-3.3-0.4
			c-0.7,0-1.4,0-2.1,0.1c-0.8,0.1-1.6,0.1-2.3,0.2c-0.7,0.1-1.4,0.1-2.1,0.2c-1.1,0.1-2.2,0.1-3.2,0.3c-1.7,0.2-3.5,0.4-5.2,1
			c-1.7,0.5-3.3,1-4.9,1.8c-0.7,0.4-1.4,0.8-2.2,1.1c-1.2,0.6-2.5,1.1-3.8,1.6c-0.3,0.1-0.7,0.1-1,0.2c-1,0.6-2,1.1-3.1,1.6
			c-1.2,0.5-2.2,1.4-3.4,1.8c-0.1-0.1-0.2-0.2-0.3-0.4c-0.2,0.9-0.9-0.1-1.1,0.4c-0.3,0-0.1-0.4-0.4-0.4c-0.6,0-0.7-0.3-0.6-0.8
			c0.1-0.3,0.1-0.6,0.2-0.9c0.5-1.2,0.9-2.5,1.7-3.6c0.5-0.8,1.2-1.6,1.6-2.4c0.5-1,1.4-1.8,1.9-2.7c0.1-0.3,0.3-0.1,0.4-0.1
			c0.6-1.2,1.4-2.1,2.2-3c-0.2-0.2,0.6-1.5,1.3-1.9c0.2,0,0,0.2,0.1,0.3c0.1-0.4,0.3-0.9,0.7-1c0.5-0.2,0.7-0.6,0.9-0.9
			c0.3-0.5,0.8-0.8,1.1-1.3c0.3-0.4,0.7-0.8,1-1.3c-0.9-0.3-1.8-0.7-2.5-1.3c-0.8-0.6-1.6-1.1-2.3-1.8c-0.8-0.8-1.9-1.2-2.2-2.5
			c-0.6,1.7-1.6,3.1-2.9,4.3c0.3,0.4,0.1,0.6-0.2,0.8c0,0-0.1,0-0.1-0.1c0,0,0,0,0,0.1c0,0,0.1,0,0.1,0c0,0.7-1,1.7-1.5,1.5
			c0.1,0.9-0.5,1.4-1,1.6c-0.2,0.8-0.7,1.3-0.8,1.9c-0.5-0.1-0.2-0.4-0.2-0.6c-0.3,0.1-0.4,0.1-0.3,0.5c0.2,0.5-0.2,1.3-0.9,1.4
			c-0.2-0.1,0-0.4-0.2-0.6c-0.2,0.9-1,1.6-0.8,2.7c-0.6-0.2-0.9-0.1-0.9,0.6c0,0.4-0.3,0.2-0.5,0.1c-0.2,0.8-0.3,1.5-0.6,2.3
			c-0.1-0.1-0.2-0.2-0.3-0.3c-0.1,0.3,0,0.8-0.6,0.9c0,0-0.2,0.2-0.1,0.4c0.1,0.2,0,0.3-0.1,0.5c-0.3,0.4-0.6,0.5-1.1,0.4
			c0,0.4,0.3,0.2,0.4,0.3c0,0.4-0.7,0-0.5,0.4c0.2,0.6-0.3,0.9-0.4,1.3C92.7,30,92.2,30,92,30.3c-0.1,0.1,0,0.3-0.3,0.3
			c-0.4,0,0-0.3-0.3-0.4c0,0.5-0.2,0.9-0.5,1.3c0,0,0.1,0,0.2,0c0,0,0,0,0.1,0.1c-0.3,0.3-0.7,0.5-1.1,0.7c0.3,0.2,0.5,0,0.7,0.1
			c-0.5,0.8-0.7,1.7-1.8,1.9c0.4,0.4,0.1,0.7-0.1,1c-0.1,0.2-0.4,0.1-0.4,0.3c0.1,0.5-0.3,0.6-0.6,0.8c-0.4,0.2-0.5,0.6-0.7,0.9
			c-0.2,0.2-0.3,0.5-0.7,0.5c0.4,0.4,0.1,0.7-0.2,0.8c-0.4,0.1-0.5,0.4-0.5,0.6c-0.1,0.2-0.1,0.4-0.2,0.4c-0.3,0.2-0.3-0.2-0.5,0
			c-0.1,0.2,0.3,0.3,0.2,0.6c-0.3,0.1-1.5,1.7-2.1,2.9c0.1,0.1,0.3,0.1,0.3,0.3c-0.7,0.7-0.8,1.6-1.3,2.4c-0.2,0.1-0.3,0-0.5,0.1
			c-0.4,0.2-0.9,0.3-1.3-0.1c-0.1-0.1-0.3-0.2-0.5-0.2c-0.9-0.1-1.9-0.3-2.8-0.5c-0.5-0.1-0.9-0.3-1.4-0.2c-0.6,0.1-1.2,0-1.8,0.1
			c-0.4,0.1-0.8-0.1-1.2,0.1c-0.1,0.1-0.4,0-0.6,0.1c-0.3,0-0.8-0.1-1,0c-0.7,0.2-1.4,0.4-2.1,0.5c-0.8,0-1.5,0.3-2.3,0.5
			c-0.4,0.1-1,0.3-1.3,0.6C65.2,47,64.9,47,64.7,47c-0.8-0.1-1.3,0.3-1.8,0.9c-0.2-0.1-0.3-0.2-0.5-0.1c0.1,0.5-0.3,0.3-0.6,0.3
			c-0.2,0.2-0.1,0.5-0.4,0.7c-0.4,0.2-0.9,0.3-1.2,0.7c-0.1,0.2-0.5,0.4-0.8,0.1c-0.1-0.1-0.3-0.1-0.4,0.1c-0.1,0.3-0.4,0.3-0.6,0.3
			c-0.2,0-0.4,0.1-0.4,0.4c-0.1,0.4-0.4,0.7-0.9,0.6c0-0.1-0.1-0.2,0-0.4c-0.2,0.4-0.4,0.7-0.7,0.9c-0.4,0.2-0.6,0.5-0.9,0.6
			c-0.2-0.1-0.1-0.3-0.3-0.4c-0.1,0.5-0.3,0.8-0.7,1.1c-0.5,0.3-1.1,0.6-1.2,1.3c-0.1,0.5-0.5,0.8-0.9,1.1c-0.2,0-0.2-0.3-0.5-0.1
			c0,0.1,0.1,0.3,0.2,0.5c-0.4,0-0.5,0.3-0.7,0.5c-0.2-0.1-0.3-0.1-0.5-0.1c0,0.5-0.4,0.5-0.7,0.8c-0.3,0.2-0.4,0.6-0.6,0.9
			c-0.3-0.1,0.1-0.3-0.1-0.4c-0.5,0.9-0.6,1.1-1,1.3C48.3,58.7,48,58.7,48,59c0,0.4-0.3,0.6-0.6,0.6c-0.3,0-0.3,0.2-0.4,0.4
			c-0.1,0.3-0.1,0.8-0.6,0.7c-0.3,0-0.5,0-0.5,0.3c0,0.3-0.2-0.1-0.3,0.1c0.2,0.2,0.1,0.5,0.2,0.8c-0.4,0-0.7,0-0.9,0.4
			c-0.1,0.2,0,0.3,0.2,0.4c0.2-0.1,0-0.7,0.6-0.5c-0.2,0.2-0.2,0.4-0.3,0.6c-0.1,0.3-0.3,0.6-0.7,0.7c-0.2-0.2,0.1-0.4-0.1-0.6
			c-0.1,0-0.2,0-0.3,0c-0.1,0-0.1,0.1-0.2,0.1c0.3,0.1,0.3,0.1,0.2,0.4c0.1,0.1,0.3-0.1,0.4,0c0.1,0.3-0.2,0.5-0.3,0.4
			c-0.5-0.1-0.5,0.2-0.7,0.5c-0.3,0.6-0.3,1.3-0.5,2c-0.4-0.2-0.3-0.5-0.2-0.8c-0.4,0-0.5,0.2-0.4,0.4c0.3,0.3,0,0.4-0.1,0.6
			c0,0.1-0.3,0.2-0.2,0.3c0.3,0.5,0,0.8-0.4,1.1c-0.1,0-0.2-0.4-0.4-0.1c-0.1,0.2,0,0.2,0.1,0.3c0.1,0.1,0.3,0.3,0.2,0.5
			c-0.1,0-0.2,0.1-0.4,0.1c0,0.2,0.3,0.1,0.2,0.3c-0.1,0-0.2,0-0.3,0.1c0.4,0.5-0.3,0.8-0.3,1.2c-0.2,0-0.3-0.2-0.4-0.1
			c-0.3,0.4,0.2,0.7,0.2,1.1c-0.2,0.1-0.2-0.1-0.4-0.1c0,0.1-0.1,0.3,0,0.4c0.1,0.1,0.2,0.2,0.1,0.4c-0.5-0.2-0.6,0.1-0.5,1.1
			c-0.3,0.1-0.4,0.3-0.6,0.5c0.1,0.3,0.3,0.1,0.5,0.3c-0.3,0.1-0.2,0.4-0.2,0.6c-0.6,0.1-0.2-0.3-0.2-0.5c-0.6,0.1-0.5,0.6-0.7,0.9
			c0.1-0.1,0.3-0.2,0.4-0.4c0,0.2,0.3,0.2,0.3,0.4c-0.2,0.1-0.4,0.1-0.5,0.2c-0.1,0.3,0.5,0.5-0.1,0.7c0-0.1-0.1-0.1-0.1-0.2
			c-0.1-0.2-0.2-0.3-0.3-0.1c-0.2,0.4,0.4,0.3,0.6,0.5c-0.5,0.4,0.1,1.3-0.8,1.5c0.3,0.6-0.2,1-0.2,1.5c0,0.5-0.3,1.1-0.2,1.6
			c0,0.5,0,1-0.4,1.4l0,0c-0.4-0.2,0.1-0.7-0.2-0.9c-0.3,0.6-0.3,1.2,0.1,1.5c-0.3,0.3,0,0.8-0.3,1.2c-0.1,0.2,0.2,0.4,0.5,0.2
			c0.1,0.3-0.3,0.2-0.3,0.5c0.1,0.1,0.2,0.1,0.4,0.3c-0.5,0.5-0.6,1.1-0.6,1.7c0.2,0,0.3-0.2,0.5-0.1c-0.2,0.2,0,0.5-0.2,0.8
			c-0.3,0.3,0.1,0.5,0.2,0.8c1.1-0.8,2.3-1.5,3.3-2.4c0.7-0.6,1.5-0.9,2.3-1.3c0.8-0.5,1.6-0.9,2.5-1.3c0.8-0.3,1.5-0.7,2.2-1.1
			c0.8-0.3,1.6-0.8,2.4-1.1c0.3-0.1,0.8-0.2,0.7-0.6c-0.1-0.7,0.6-1.2,0.4-1.9c-0.2-0.3-0.5-0.4-0.7,0c-0.3-0.5-0.9-0.3-1.2-0.3
			c-0.8,0-1.4-0.4-2.1-0.7c-0.4-0.2-0.3-0.6-0.5-0.8c0.3-0.1,0.3-0.7,0.8-0.6c0.2,0,0.5,0,0.7-0.2c0.1,0.1,0.1,0.3,0.4,0.3
			c0.1-0.1,0.2-0.2,0.3-0.4c0,0.3,0.1,0.5,0.3,0.7c0.1,0.1,0.3,0.4,0.5,0.2c0.3-0.2,0.7-0.4,1,0.2c-0.1-0.5,0.1-0.6,0.5-0.6
			c0.3,0.1,0.7,0.1,1,0.2c0.1,0,0.3,0,0.3-0.1c0-0.4,0.4-0.7,0.4-1.1c0.1-0.3,0.3,0,0.3-0.2c0.2-0.8,0.7-1.5,1.3-2.2
			c-0.4-0.3-1-0.1-1.4-0.6c-0.1-0.1-0.5-0.3-0.7-0.3c-0.8,0-1.3-0.4-1.8-0.8c-0.2-0.1-0.5-0.2-0.6-0.5c-0.1-0.4-0.3-0.6-0.7-0.6
			c0-0.2,0.3,0,0.3-0.3c-0.3,0.3-0.5,0.1-0.6-0.1c-0.1-0.2,0-0.3,0.2-0.4c0,0.4,0.2,0.3,0.4,0.2c0.2-0.2,0.5-0.1,0.7-0.2
			c0.4-0.1,0.3,0.3,0.5,0.4c0.1-0.1,0-0.3,0.2-0.3c0.3,0.4,0.6,0.4,1,0.1c0.1,0.4,0.2,0.8,0.7,1c0.2-0.1,0.3-0.4,0.6-0.4
			c0.1,0.5,0.7,0.4,0.9,0.8c0.2-0.3,0.5-0.3,0.7-0.1c0,0.2-0.3,0.1-0.3,0.4c0.2,0.1,0.6-0.3,0.7,0.2c0,0,0.3,0,0.2,0
			c-0.1-0.6,0.2-0.3,0.5-0.3c0.3,0,0.5-0.3,0.6-0.5c0-0.1,0.1-0.2,0.1-0.3c0.6-0.6,1.3-1.1,1.7-1.9c-0.9-0.1-1.2-1-1.9-1.4
			c0.2-0.2-0.2-1-0.4-0.9c-0.5,0.1-0.3-0.6-0.7-0.5c0.1-0.5-0.2-0.8-0.6-1.1c-0.3-0.2-0.1-0.3,0-0.5c0.1-0.2,0.3-0.4,0.4-0.5
			c0.3,0.1,0.1,0.4,0.4,0.4c0.3,0-0.1-0.3,0.2-0.4c0.6-0.1,0.6,0.5,0.9,0.9c0-0.3-0.1-0.4-0.1-0.5c0.7,0.1,1.1,0.6,1.6,1
			c0,0.2-0.3,0.1-0.3,0.3c0,0,0.1,0.1,0.1,0.1C59,65.2,59,65.2,59.1,65.8c-0.3,0.1-0.3,0.2,0,0.5C59.2,66.1,58.9,66,59.1,65.8z
			 M52.9,170.5c-0.4,0-0.7,0.3-1.1,0.4c-0.7,0.3-1.3,0.5-2,0.7c-1.5,0.5-2.8,1.4-4,2.2c-0.7,0.5-1.4,0.9-1.9,1.6
			c-0.4,0.5-0.4,0.8,0,1.3c0.5,0.5,1,0.3,1.5,0.1c0.9-0.4,1.6-0.9,2.4-1.4c0.7-0.5,1.5-1,2.3-1.4c0.5-0.2,0.8-0.5,1.3-0.6
			c1.2-0.2,2.3-0.6,2.9-1.8c0.1-0.2,0.1-0.5,0-0.6C53.8,170.8,53.4,170.5,52.9,170.5z M60.7,115.5c0.3,0.2,0.3,0.4,0.1,0.7
			c-0.1,0.1-0.2,0.4,0,0.5c0.3,0.1,0.2,0.3,0.2,0.5c-0.1,0.7,0.1,1.3,0.4,2c0.2,0.5,0.6,1.1,0.8,1.6c0.2,0.5,0.5,1.1,0.8,1.4
			c0.4,0.5,0.8,1,1.3,1.4c0.4,0.3,0.9,0.8,1.6,0.7c0.4,0,0.4-0.4,0.6-0.4c0.4,0.1,0.6,0,0.7-0.4c0.1-0.3,0.2-0.6-0.1-0.9
			c0.4,0.5-0.2,0.5-0.3,0.8c0-0.2-0.1-0.3-0.1-0.4c-0.1-0.8-0.3-1.4-1.2-1.6c-0.2-0.1-0.4-0.2-0.5-0.5c0-0.3,0.1-0.6-0.2-0.8
			c-0.2,0-0.3,0.3-0.5,0.2c-0.1-0.3,0.3-0.7,0-1c-0.6-0.7-0.8-1.6-1.5-2.2c-0.1-0.1-0.3-0.3-0.3-0.5c-0.1-0.6-0.5-1-0.9-1.3
			c-0.2-0.2-0.5,0.1-0.6,0.1c0.1,0,0.1,0,0.1,0.3C60.9,115.5,60.8,115.3,60.7,115.5z M97.3,106.8c-0.1,0.1-0.3,0.1-0.2,0.3
			c0.2,0.4-0.1,0.8,0,1.2c0.1,0.2-0.1,0.5,0.2,0.5c0.3,0.1,0.4-0.2,0.5-0.4c0.3-0.9,0.7-1.8,0.8-2.7c0.1-0.9,0.3-1.9,0.7-2.7
			c0.7-1.4,1-3,1.8-4.4c0.1-0.2,0.3-0.6,0.3-0.9c0,0,0-0.1-0.1-0.2c-0.2,0.1-0.3,0.2-0.5,0.1c-0.1-0.1-0.1-0.4-0.4-0.5
			c-0.2,0.4-0.8,0.5-0.4,1.1c0.1,0.1,0,0.3-0.2,0.3c-0.3,0-0.4,0.2-0.5,0.4c-0.3,0.5-0.4,1.1-0.7,1.6c-0.4,0.7-0.3,1.3-0.3,2
			c-0.2,0.2-0.3-0.2-0.5,0c-0.4,1.3-0.5,2.6-0.6,4C97,106.7,97.2,106.7,97.3,106.8z M16.6,25.6c0.3,1.5,0.1,3-0.6,4.3
			c0.3,0,0.4,0.2,0.4,0.4c0.1-0.2,0.4-0.2,0.5-0.1c0.1,0.1,0.2,0.1,0.3,0c0.5-0.2,1.6-2,1.5-2.5c-0.2-0.7-0.1-1.3-0.2-2
			c-0.1-0.4-0.1-0.8,0.1-1.2c-0.3,0.1-0.4,0-0.4-0.3c-0.1-0.8-0.5-1.5-0.5-2.3c-0.9,0.6-1,1.5-1.5,2.3c0.6,0.4-0.1,0.5-0.3,0.7
			c0.3,0.3,0.3,0.8,0.3,1.2C16.2,25.5,16.2,25.5,16.6,25.6z M40.4,103c0-0.4-0.2-0.4-0.4-0.2c-0.2,0.2-0.4,0.3-0.6,0.5
			c-0.6,0.5-1.1,1.1-1.2,1.9c0,0.2-0.1,0.2-0.2,0.2c-0.5,0-0.6,0.3-0.7,0.6c-0.2,0.4-0.7,0.7-0.5,1.2c-0.4,0.1-0.5,0.5-0.6,0.7
			c-0.1,0.2,0.2,0.4,0,0.6c-0.3,0.6-0.7,1.2-0.8,1.9c0.2,0.1,0.3,0.1,0.4,0c0.1-0.1,0.1-0.3,0.4-0.2c0.3,0.1,0,0.4,0.2,0.5
			c0.5-0.2,1.1-1.5,1-1.7c0.7-1.8,2.1-3,2.9-4.6c0.2,0.4,0.4,0.1,0.5-0.1c0.2-0.3,0.2-0.6,0.4-0.9c0.3-0.6,0.3-0.9-0.4-1
			C40.6,102.6,40.5,102.7,40.4,103z M43.2,10.4c-0.5,0.1-1.1,0.1-1.5,0.3c-0.9,0.4-1.8,0.4-2.7,0.9c-0.2,0.1-0.5,0.2-0.7,0.4
			c-0.1,0.1-0.3,0.2-0.5,0.2c-0.5,0-0.9,0.1-1.1,0.6c-0.1,0.3-0.4,0.4-0.7,0.1c0.2,0.3,0,0.6-0.1,0.8c0.5,0,1,0.3,1.4-0.1
			c0.1-0.1,0.3,0,0.5,0c0.2,0.1,0.4,0.1,0.5,0.1c0.9-0.3,1.9-0.5,2.7-1.1C41.9,11.9,42.7,11.3,43.2,10.4z M154.3,52.7
			c2.5,0.9,4.4-0.5,6.5-1.4c-0.6-0.4-1.3-0.4-1.9-0.4c-0.3,0-0.6-0.2-0.9,0c-0.8,0.2-1.5,0.4-2.2,0.7
			C155.2,51.8,154.4,51.8,154.3,52.7z M30.9,112c-0.3,0.6-0.1,1.4-0.7,1.9c0.1,0.8-0.7,1.3-0.5,2.1c0.9,0.2,0.2-0.6,0.5-0.8
			c0.3,0.3,0.1,0.7,0.2,1c0.3-0.3,0.5-0.5,0.3-0.9c-0.1-0.2-0.1-0.5,0-0.8c0.1-0.5,0.3-0.6,0.7-0.3c0.2-0.3,0.1-0.6,0.2-0.9
			C31.9,112.5,31.7,112.1,30.9,112z M49.4,27.5c-0.1,0.2,0,0.4-0.3,0.4c-0.4,0-0.2,0.5-0.4,0.7c0,0.1,0.2,0.3,0.3,0.2
			c0.3-0.1,0.9,0.1,0.9-0.2c0-0.5,0.1-1-0.1-1.5c-0.2,0.2-0.2,0.4-0.2,0.6C49.6,27.7,49.6,27.7,49.4,27.5z M89.3,213.2
			c-0.4-0.8,0.5-1.2,0.4-1.8c-0.5,0-0.6,0.6-1.2,0.5c0.1,0.2,0.1,0.4,0.2,0.6c-0.2,0.1-0.4,0.2-0.3,0.5
			C88.6,213.2,88.9,213,89.3,213.2z M165.9,69c-0.7,0.5-0.3,1.2-0.5,1.6c0-0.3,0.5-0.4,0.7-0.7c-0.2-0.1-0.4,0.2-0.5-0.1
			C165.9,69.6,166,69.4,165.9,69z M137.6,86.3c-0.4,0.5,0,1,0,1.5C137.8,87.7,137.8,86.8,137.6,86.3z M151.4,123.8
			c0,0.5,0,0.5,0.3,0.6C152,124.1,151.7,124,151.4,123.8z M64.7,60.4c0.1-0.5,0-0.8-0.6-1c-0.1,0.1-0.1,0.2-0.2,0.4
			C64.4,59.7,64.4,60.2,64.7,60.4z M64.9,61.6c0.4,0,0.5-0.4,0.9-0.4c-0.2-0.2-0.3-0.3-0.6-0.3C65.4,61.2,65,61.3,64.9,61.6z
			 M154.5,119.1c-0.3,0.1-0.4-0.3-0.6,0.1C154.1,119,154.2,119.6,154.5,119.1z M164.7,58.2c-0.2,0.3-0.4,0.4-0.2,0.8
			C164.7,58.7,165.1,58.6,164.7,58.2z M155,66.5c0.4,0,0.5-0.1,0.2-0.4C155.1,66.2,155.1,66.3,155,66.5z M13.9,79.6
			c0-0.1-0.1-0.2-0.2-0.1c-0.1,0-0.1,0.1-0.1,0.2c0,0.1,0.1,0.1,0.2,0.1C13.8,79.7,13.9,79.7,13.9,79.6z M165.8,68.8
			C165.7,68.8,165.7,68.8,165.8,68.8C165.7,68.9,165.7,68.9,165.8,68.8C165.8,68.9,165.8,68.9,165.8,68.8
			C165.8,68.8,165.8,68.8,165.8,68.8z M36,111C36,111,36,111,36,111C36,111,35.9,111,36,111C35.9,111,35.9,111,36,111z M38.3,112
			L38.3,112L38.3,112L38.3,112z M155.1,65.6c0.1-0.1,0-0.1,0-0.1c0,0-0.1-0.1-0.1,0c0,0,0,0.1,0,0.2C155,65.6,155,65.6,155.1,65.6z
			 M125.6,74.7c0.1,0,0.1,0.1,0.2,0c0,0,0,0,0,0C125.7,74.6,125.7,74.6,125.6,74.7z M107.2,52c0.1,0,0.1,0.1,0.1,0.1
			c0,0,0.1,0,0.1,0c0,0,0-0.1,0-0.1C107.3,51.9,107.3,52,107.2,52z M60.6,43.7c0.1,0,0.1,0.1,0.2,0C60.7,43.7,60.6,43.6,60.6,43.7z
			 M151.5,55C151.5,55,151.4,55,151.5,55C151.4,55,151.4,55,151.5,55C151.4,55,151.4,55,151.5,55C151.5,55,151.5,55,151.5,55z
			 M150.7,54.5L150.7,54.5L150.7,54.5L150.7,54.5z M156.2,109C156.2,109.1,156.2,109.1,156.2,109C156.2,109.1,156.3,109.1,156.2,109
			C156.3,109,156.2,109,156.2,109C156.2,109,156.2,109,156.2,109z M163.9,93.6C163.9,93.7,163.9,93.7,163.9,93.6
			C164,93.7,164,93.7,163.9,93.6C164,93.6,164,93.6,163.9,93.6C163.9,93.6,163.9,93.6,163.9,93.6z M10.6,138.8
			C10.5,138.8,10.5,138.8,10.6,138.8C10.5,138.9,10.5,138.9,10.6,138.8C10.6,138.9,10.6,138.9,10.6,138.8
			C10.6,138.9,10.6,138.8,10.6,138.8z M36.7,33C36.7,33,36.7,33,36.7,33C36.7,33,36.7,33,36.7,33C36.7,33,36.7,33,36.7,33
			C36.7,33,36.7,33,36.7,33z"/>
		<path id="XMLID_1045_" class="st0" d="M19.6,89.7c-0.1,0-0.3,0-0.3-0.1c-0.1-0.6-0.7-1-0.6-1.5c0.1-1.1-0.6-2-0.6-3c0,0,0,0,0-0.1
			c-0.2-0.4,0.1-0.9,0-1.4c-0.1-0.4,0.1-1,0.6-1.3c0.2,0.1,0.3,0.2,0.5,0.3c0.5,0.1,0.9,0.4,0.5,1c0,0,0.1,0.2,0.1,0.2
			c-0.2,0.3,0.5,0.6,0,0.9c-0.1,0.1,0.2,0.5,0.4,0.7c0.7,0.7,0.9,1.3,0.6,1.9c0.2,0,0.4,0,0.5,0.1c-0.5,0.8,0.7,1.3,0.5,2.1
			c0.4-0.1,0.5,0.2,0.6,0.4c0.1,0.3,0,0.6-0.1,0.9c-0.1,0.7-0.7,0.8-1.3,0.9c-0.4,0.1-0.8-0.2-1-0.6c-0.2-0.3-0.4-0.7-0.5-1
			C19.4,90,19.4,89.9,19.6,89.7z M18.8,83.4c-0.2,0-0.3,0.1-0.3,0.3c0.1,0.2,0.2,0.4,0.5,0.2C19,83.7,18.9,83.5,18.8,83.4z
			 M21.7,89.6c0,0,0,0.1,0,0.1c0,0,0.1,0,0.1,0c0,0,0.1-0.1,0.1-0.1C21.8,89.6,21.7,89.6,21.7,89.6z"/>
		<path id="XMLID_1042_" class="st0" d="M22,78.2c0.4,0.3,0.6,0,0.9-0.5c0,0.8-0.2,1.4,0.2,2c-0.4,0.3-0.4,0.6,0,0.8
			c0.4,0.2,0.6,1.1,0.4,1.6c1.4,0.9,1.2,2.4,1.1,3.7c0.2,0,0.2-0.1,0.3-0.2c0-0.1,0.1-0.2,0.2-0.2c0-0.2-0.3,0-0.3-0.2
			c0,0,0-0.1,0-0.1c0.2-0.2,0.4-0.1,0.5,0c0.2,0.4,0.3,0.8,0.5,1.2c0,0.1,0.1,0.3,0.2,0.3c0.6,0.3,0.2,0.4-0.1,0.6
			c0,0.2,0.3,0.4,0,0.5c-0.3,0.1-0.7,0.4-1,0.1c-0.4-0.2-0.7-0.6-0.8-1c-0.2-0.6-0.6-1-0.8-1.6c-0.4-0.9-0.9-1.7-1.1-2.7
			c-0.1-0.7-0.3-1.4-0.5-2.1c-0.2-0.5,0-0.9,0-1.3c0.3-0.3,0.5,0.4,0.8,0c0.4,0.1,0.4-0.1,0.5-0.3l0,0l0,0c-0.1,0.2-0.4,0.1-0.5,0.4
			c-0.3-0.2-0.8-0.2-0.9-0.7C21.5,78.6,21.9,78.6,22,78.2L22,78.2z M22.4,83.7c0.5-0.2,0.4-0.7,0.6-1.1C22.7,83,22.6,83.4,22.4,83.7
			z"/>
		<path id="XMLID_1039_" class="st0" d="M21.6,76.4c0.1,0.1,0,0.2-0.1,0.3c-0.2,0.1-0.2-0.1-0.2-0.2c0.1-0.3-0.1-0.7,0.5-0.8
			c0.2,0.3,0.5,0.6,0.8,0.9c0.4,0.3-0.3,0.7,0,1c-0.6,0.3-0.6,0.3-0.5,0.6l0,0c-0.3,0-0.7,0-0.8,0.5c-0.4-0.5-0.2-1-0.2-1.5
			c0.4,0.1,0.2,0.4,0.4,0.5c0.1-0.2,0.1-0.5-0.1-0.6c-0.2-0.1-0.3-0.2-0.2-0.4c0.2-0.3,0.3,0.1,0.5,0.1
			C21.7,76.7,21.9,76.5,21.6,76.4c-0.1-0.1,0.1-0.1,0-0.2C21.6,76.3,21.6,76.3,21.6,76.4z M21.8,77c0.2,0.2,0.3,0.3,0.6,0.3
			C22.3,76.7,22.3,76.7,21.8,77z"/>
		<path id="XMLID_1038_" class="st0" d="M165.8,78.3c0.1-0.3,0.3-0.4,0.6-0.5c0.2,0.2-0.1,0.4,0,0.6
			C166.1,78.5,165.9,78.5,165.8,78.3z"/>
		<path id="XMLID_1037_" class="st0" d="M165.3,87.2c0.1,0.1,0.4,0.1,0.3,0.4C165.4,87.5,165.5,87.2,165.3,87.2L165.3,87.2z"/>
		<path id="XMLID_1036_" class="st0" d="M16.2,74.2c0.1-0.3-0.2-0.6,0.2-0.7C16.6,73.8,16.7,74,16.2,74.2z"/>
		<path id="XMLID_1035_" class="st0" d="M54.4,41.4c0,0-0.1-0.1-0.1-0.1c0-0.1,0-0.2,0.1-0.1c0,0,0.1,0.1,0.1,0.1
			C54.6,41.3,54.5,41.3,54.4,41.4z"/>
		<path id="XMLID_1034_" class="st0" d="M113.8,55.9c0.1,0.3,0.1,0.4-0.2,0.5C113.5,56.1,113.6,56,113.8,55.9z"/>
		<path id="XMLID_1033_" class="st0" d="M122.1,65.8c0,0.1-0.1,0.2-0.2,0.1c-0.1,0-0.2-0.1-0.2-0.2c0-0.1,0.1-0.1,0.2-0.1
			C122.1,65.5,122.1,65.6,122.1,65.8z"/>
		<path id="XMLID_1032_" class="st0" d="M10.6,90.1c-0.2-0.1-0.2-0.3,0-0.4c0,0,0.2,0,0.2,0C10.9,89.8,10.8,89.9,10.6,90.1z"/>
		<path id="XMLID_1031_" class="st0" d="M15.9,20.4C15.9,20.3,15.9,20.4,15.9,20.4c-0.2,0-0.2,0-0.2-0.1c0,0,0-0.1,0.1-0.1
			C15.8,20.1,15.9,20.2,15.9,20.4z"/>
		<path id="XMLID_1030_" class="st0" d="M48.2,13.1c0.1,0,0.1,0.1,0.1,0.2C48.3,13.2,48.2,13.2,48.2,13.1L48.2,13.1z"/>
		<path id="XMLID_1029_" class="st0" d="M34.5,22.7C34.5,22.8,34.5,22.8,34.5,22.7c-0.1,0.1-0.2,0.1-0.1,0
			C34.3,22.7,34.4,22.7,34.5,22.7C34.4,22.7,34.4,22.7,34.5,22.7z"/>
		<path id="XMLID_1028_" class="st0" d="M155.4,27.9c0.1,0.1,0.2,0.1,0.1,0.3c0,0-0.1,0-0.1,0C155.3,28.1,155.4,28,155.4,27.9z"/>
		<path id="XMLID_1027_" class="st0" d="M36.3,33.8c-0.1,0-0.1-0.1-0.2-0.1C36.2,33.6,36.3,33.6,36.3,33.8
			C36.3,33.8,36.3,33.8,36.3,33.8z"/>
		<path id="XMLID_1026_" class="st0" d="M59.4,40c0-0.1,0-0.1,0-0.2C59.6,39.9,59.6,39.9,59.4,40L59.4,40z"/>
		<path id="XMLID_1025_" class="st0" d="M163.5,95c0,0.1-0.1,0.2-0.2,0.1c-0.1-0.1,0-0.2,0.1-0.3C163.5,94.9,163.5,95,163.5,95z"/>
		<path id="XMLID_1024_" class="st0" d="M141.1,149.8C141.1,149.8,141.2,149.7,141.1,149.8C141.2,149.8,141.2,149.8,141.1,149.8
			C141.1,149.8,141.1,149.8,141.1,149.8C141.1,149.8,141.1,149.8,141.1,149.8z"/>
		<path id="XMLID_1023_" class="st0" d="M142.3,147.5C142.4,147.5,142.4,147.6,142.3,147.5c0.1,0.1,0,0.1,0,0.1
			C142.3,147.6,142.3,147.5,142.3,147.5L142.3,147.5z"/>
		<path id="XMLID_1022_" class="st0" d="M33.5,17.5C33.5,17.5,33.5,17.5,33.5,17.5C33.4,17.5,33.4,17.5,33.5,17.5
			C33.5,17.5,33.5,17.5,33.5,17.5L33.5,17.5z"/>
		<path id="XMLID_1021_" class="st0" d="M33.5,17.5c-0.1-0.1,0-0.2,0.1-0.1l0,0C33.6,17.5,33.6,17.5,33.5,17.5L33.5,17.5z"/>
		<path id="XMLID_1020_" class="st0" d="M121.7,65.1c0,0.1,0.2,0.2,0,0.3c-0.1,0.1-0.2,0-0.2-0.1C121.6,65.2,121.6,65.2,121.7,65.1z
			"/>
		<path id="XMLID_1019_" class="st0" d="M121.5,65.3C121.5,65.3,121.5,65.2,121.5,65.3c0-0.1,0.1-0.2,0.1-0.2c0,0,0,0,0.1,0
			C121.6,65.2,121.6,65.2,121.5,65.3z"/>
		<path id="XMLID_1018_" class="st0" d="M20.7,67C20.8,66.9,20.8,66.9,20.7,67C20.8,66.9,20.8,66.9,20.7,67
			C20.8,66.9,20.8,67,20.7,67C20.8,67,20.8,67,20.7,67z"/>
		<path id="XMLID_1017_" class="st0" d="M10.1,92.7C10.1,92.7,10,92.7,10.1,92.7C10,92.7,10,92.7,10.1,92.7
			C10,92.6,10,92.6,10.1,92.7C10,92.6,10.1,92.6,10.1,92.7z"/>
		<path id="XMLID_1016_" class="st0" d="M16.4,19.9c-0.1,0-0.1,0.1-0.2,0c0,0,0.1-0.1,0.1-0.1C16.3,19.8,16.4,19.8,16.4,19.9z"/>
		<path id="XMLID_1015_" class="st0" d="M10.3,120.8c0.1,0,0.1,0.1,0,0.2C10.3,120.9,10.2,120.9,10.3,120.8
			C10.2,120.8,10.3,120.8,10.3,120.8z"/>
		<path id="XMLID_1014_" class="st0" d="M10.2,120.7c0,0,0.1,0.1,0.1,0.1c0,0-0.1,0.1-0.1,0.1C10.2,120.8,10.1,120.8,10.2,120.7
			C10.1,120.7,10.1,120.7,10.2,120.7z"/>
		<path id="XMLID_1013_" class="st0" d="M152.5,113.1c0,0-0.1,0.1-0.2,0C152.3,113.2,152.3,113.1,152.5,113.1
			C152.4,113.1,152.4,113.1,152.5,113.1z"/>
		<path id="XMLID_1012_" class="st0" d="M10.5,89.5C10.5,89.5,10.5,89.6,10.5,89.5C10.5,89.5,10.5,89.5,10.5,89.5
			C10.5,89.5,10.5,89.5,10.5,89.5C10.5,89.5,10.5,89.5,10.5,89.5z"/>
		<path id="XMLID_1011_" class="st0" d="M91.1,31.5c0.1-0.2,0.2-0.4,0.5-0.4C91.5,31.4,91.4,31.5,91.1,31.5
			C91.1,31.6,91.1,31.6,91.1,31.5z"/>
		<path id="XMLID_1010_" class="st0" d="M96.9,23c-0.3-0.1-0.3-0.2-0.2-0.4c0-0.1,0.1-0.1,0.2-0.1C97.1,22.7,97,22.8,96.9,23z"/>
		<path id="XMLID_1009_" class="st0" d="M91.6,31.1c-0.1-0.2,0-0.3,0.2-0.4C91.8,30.9,91.8,31,91.6,31.1z"/>
		<path id="XMLID_1008_" class="st0" d="M39.4,75.9c-0.1,0-0.1,0-0.2,0c0,0,0-0.1,0.1-0.1C39.3,75.8,39.3,75.9,39.4,75.9z"/>
		<polygon id="XMLID_1007_" class="st0" points="37.9,82.2 37.9,82.3 37.9,82.3 		"/>
		<path id="XMLID_1006_" class="st0" d="M155.2,70.8c0.3,0.1,0.6,0.1,0.4,0.5c-0.1,0.2,0,0.2,0.1,0.3c0.2,0.2,0.2,0.4,0.1,0.6
			c-0.1,0.2-0.1,0.3-0.4,0.3c-0.2,0-0.3-0.1-0.3-0.3C155.2,71.7,155.2,71.3,155.2,70.8z"/>
		<path id="XMLID_1005_" class="st0" d="M123.3,126c0.1,0.1,0.4-0.1,0.5,0.2c-0.1,0.1-0.3,0.3-0.5,0.2
			C123.2,126.3,123.2,126.1,123.3,126z"/>
		<path id="XMLID_1004_" class="st0" d="M148.5,100.7c0,0.1-0.1,0.2-0.2,0.2c-0.1,0-0.2-0.1-0.2-0.2c0-0.1,0.1-0.2,0.2-0.2
			C148.4,100.5,148.5,100.6,148.5,100.7z"/>
		<path id="XMLID_1003_" class="st0" d="M150.7,122.8c0-0.1,0.1-0.1,0.1,0C150.8,122.7,150.8,122.8,150.7,122.8
			C150.8,122.8,150.7,122.8,150.7,122.8z"/>
		<path id="XMLID_1002_" class="st0" d="M117.7,116.7C117.7,116.7,117.7,116.6,117.7,116.7C117.7,116.6,117.7,116.7,117.7,116.7
			C117.7,116.7,117.7,116.7,117.7,116.7C117.7,116.7,117.7,116.7,117.7,116.7z"/>
		<path id="XMLID_1001_" class="st0" d="M128.7,95.4c0.7,0.1,0.1,0.5,0.3,0.7C128.7,95.9,128.7,95.7,128.7,95.4z"/>
		<path id="XMLID_1000_" class="st0" d="M141.9,88.9c-0.1,0-0.1-0.1-0.1-0.2c0-0.1,0.1-0.1,0.1,0C142,88.8,142,88.8,141.9,88.9
			L141.9,88.9z"/>
		<path id="XMLID_999_" class="st0" d="M135.5,96c0,0.1,0,0.2-0.1,0.2c-0.1,0-0.1-0.2,0-0.2C135.5,95.9,135.5,96,135.5,96z"/>
		<path id="XMLID_998_" class="st0" d="M129.1,96.2C129.1,96.3,129,96.3,129.1,96.2c-0.1,0-0.1,0-0.1,0
			C129,96.2,129,96.2,129.1,96.2C129.1,96.2,129.1,96.2,129.1,96.2z"/>
		<path id="XMLID_997_" class="st0" d="M79,191.2c0.1-0.3,0-0.5,0-0.8l0,0C79.3,190.6,79.3,190.9,79,191.2
			C78.9,191.1,79,191.2,79,191.2z"/>
		<path id="XMLID_996_" class="st0" d="M82.1,151.5c0-0.2,0-0.4,0-0.6C82.3,151.1,82.4,151.3,82.1,151.5z"/>
		<path id="XMLID_995_" class="st0" d="M81.9,171.2c-0.1,0.1-0.1,0.1-0.1,0.1c0,0-0.1,0-0.1,0c0,0,0-0.1,0-0.1
			C81.7,171.2,81.8,171.2,81.9,171.2z"/>
		<path id="XMLID_994_" class="st0" d="M81.5,174.7c-0.1-0.1-0.1-0.2,0-0.3c0,0,0.1,0,0.1,0C81.5,174.5,81.5,174.6,81.5,174.7z"/>
		<path id="XMLID_993_" class="st0" d="M81.1,180.1c-0.2,0-0.2-0.1-0.2-0.3C81,179.8,81.1,179.9,81.1,180.1
			C81.1,180,81.1,180.1,81.1,180.1z"/>
		<path id="XMLID_992_" class="st0" d="M78.9,190.4c0,0.1-0.1,0.1-0.1,0c0,0,0,0,0,0C78.8,190.4,78.9,190.4,78.9,190.4
			C78.9,190.4,78.9,190.4,78.9,190.4z"/>
		<path id="XMLID_991_" class="st0" d="M79.6,179.2C79.6,179.2,79.6,179.2,79.6,179.2C79.6,179.2,79.6,179.2,79.6,179.2
			C79.6,179.3,79.6,179.3,79.6,179.2C79.5,179.2,79.6,179.2,79.6,179.2z"/>
		<path id="XMLID_990_" class="st0" d="M104.2,150.8C104.2,150.8,104.2,150.8,104.2,150.8C104.2,150.8,104.2,150.8,104.2,150.8
			C104.2,150.8,104.2,150.8,104.2,150.8z"/>
		<path id="XMLID_989_" class="st0" d="M92,214.9c0-0.1,0.1-0.1,0.2-0.1c0.1,0.1,0,0.1-0.1,0.2C92.1,215,92,215,92,214.9z"/>
		<path id="XMLID_988_" class="st0" d="M108.7,98c0.1,0,0.1-0.1,0.2-0.1c0.1,0.1,0.1,0.1,0,0.2C108.8,98.2,108.7,98.1,108.7,98
			C108.7,98,108.7,98,108.7,98z"/>
		<path id="XMLID_987_" class="st0" d="M105.3,97.4c0.1,0.1,0.1,0.1,0,0.2c0,0-0.1,0-0.1,0C105.2,97.6,105.2,97.5,105.3,97.4
			L105.3,97.4z"/>
		<path id="XMLID_986_" class="st0" d="M101.6,103.5c0.1,0,0.1,0.1,0,0.2C101.5,103.7,101.5,103.6,101.6,103.5
			C101.5,103.5,101.5,103.5,101.6,103.5z"/>
		<path id="XMLID_985_" class="st0" d="M60.9,116.5c-0.1-0.3,0-0.5,0.4-0.7C61.1,116,61.3,116.3,60.9,116.5z"/>
		<path id="XMLID_984_" class="st0" d="M66.8,123.5C66.8,123.5,66.8,123.5,66.8,123.5C66.7,123.5,66.7,123.5,66.8,123.5
			C66.7,123.5,66.7,123.4,66.8,123.5C66.8,123.4,66.8,123.5,66.8,123.5z"/>
		<path id="XMLID_983_" class="st0" d="M92.9,210.2c0.1,0.2,0.2,0.3,0.3,0.5c0,0,0,0,0,0C92.9,210.7,92.9,210.4,92.9,210.2
			C92.8,210.2,92.8,210.2,92.9,210.2z"/>
		<path id="XMLID_982_" class="st0" d="M92.8,210.2c-0.3-0.1,0-0.3-0.1-0.5C92.8,209.9,92.7,210.1,92.8,210.2
			C92.8,210.2,92.8,210.2,92.8,210.2z"/>
		<path id="XMLID_981_" class="st0" d="M95.2,208.2c-0.1,0.1-0.2,0.1-0.3,0C95,208.2,95,208.2,95.2,208.2
			C95.1,208.2,95.1,208.2,95.2,208.2z"/>
		<path id="XMLID_980_" class="st0" d="M93.6,209.3c-0.1,0.1-0.1,0.2-0.3,0.1c0,0,0-0.1,0-0.1C93.4,209.2,93.5,209.3,93.6,209.3z"/>
		<path id="XMLID_979_" class="st0" d="M95.8,207.2C95.9,207.2,95.9,207.3,95.8,207.2c0,0.1,0,0.1,0,0.1
			C95.8,207.3,95.8,207.3,95.8,207.2C95.8,207.2,95.8,207.2,95.8,207.2z"/>
		<path id="XMLID_978_" class="st0" d="M31.9,109.8c0.3,0.1,0.5,0.3,0.4,0.6c-0.2,0.3-0.5,0.3-0.7,0.1c0.1-0.3,0.4,0,0.5-0.1
			C32.2,110.1,31.8,110.1,31.9,109.8z"/>
		<path id="XMLID_977_" class="st0" d="M38.9,100.4c-0.4-0.1-0.5-0.6-0.2-1.1C38.8,99.7,38.6,100.1,38.9,100.4L38.9,100.4z"/>
		<path id="XMLID_976_" class="st0" d="M35.3,103.5c0.3,0.2,0.3,0.4,0.2,0.6C35.3,104,35.2,103.8,35.3,103.5z"/>
		<path id="XMLID_975_" class="st0" d="M35.9,102.3c0.3,0,0.5,0.1,0.6,0C36.3,102.4,36.2,102.7,35.9,102.3z"/>
		<path id="XMLID_974_" class="st0" d="M80.8,84.4c0,0,0.1,0.1,0,0.1C80.8,84.6,80.7,84.5,80.8,84.4C80.7,84.4,80.8,84.4,80.8,84.4z
			"/>
		<path id="XMLID_973_" class="st0" d="M114.5,145c-0.1,0-0.1,0.1-0.2,0c-0.1-0.1,0-0.1,0.1-0.2C114.5,144.9,114.5,145,114.5,145z"
			/>
		<path id="XMLID_972_" class="st0" d="M63.7,209.9c0,0-0.1,0-0.1,0c-0.1,0,0-0.1,0-0.1C63.6,209.8,63.6,209.9,63.7,209.9z"/>
		<path id="XMLID_971_" class="st0" d="M65.6,210.4c-0.1,0.1-0.2,0-0.1-0.1C65.5,210.3,65.5,210.4,65.6,210.4z"/>
		<path id="XMLID_970_" class="st0" d="M99.1,99.9c0,0.1,0.3,0.3,0,0.5C99,100.2,98.9,100.1,99.1,99.9L99.1,99.9z"/>
		<path id="XMLID_969_" class="st0" d="M99.1,99.9c0-0.1-0.1-0.3,0.2-0.4C99.4,99.8,99.3,99.9,99.1,99.9L99.1,99.9z"/>
		<path id="XMLID_968_" class="st0" d="M37,108c0-0.1,0-0.2,0-0.3c0.2-0.1,0.2,0.2,0.5,0.1C37.4,108,37.1,107.8,37,108L37,108z"/>
		<path id="XMLID_967_" class="st0" d="M37,108C37,108,37,108,37,108C36.9,107.9,37,107.9,37,108C37,108,37,108,37,108z"/>
		<path id="XMLID_966_" class="st0" d="M108.1,8.7c0,0,0.1,0,0.1-0.1c0,0.1,0,0.1,0,0.2C108.2,8.8,108.2,8.7,108.1,8.7z"/>
		<path id="XMLID_965_" class="st0" d="M41.3,108.8c0,0.1,0,0.1,0,0.2C41.2,108.9,41.2,108.9,41.3,108.8L41.3,108.8z"/>
		<path id="XMLID_964_" class="st0" d="M40.9,109.8C40.9,109.8,40.9,109.9,40.9,109.8C40.9,109.9,40.8,109.8,40.9,109.8
			C40.8,109.8,40.8,109.8,40.9,109.8C40.9,109.8,40.9,109.8,40.9,109.8z"/>
		<path id="XMLID_963_" class="st0" d="M41.2,109.4c0-0.1-0.1-0.1,0-0.2c0.1-0.1,0.1,0,0.1,0.1C41.2,109.3,41.2,109.3,41.2,109.4z"
			/>
		<path id="XMLID_962_" class="st0" d="M31.5,112.7c0,0.1,0.1,0.1,0.1,0.2c0,0-0.1,0.1-0.1,0.1c0-0.1-0.1-0.1-0.1-0.2
			C31.4,112.9,31.5,112.8,31.5,112.7z"/>
		<path id="XMLID_961_" class="st0" d="M31.4,112.6C31.4,112.6,31.4,112.6,31.4,112.6C31.4,112.6,31.5,112.6,31.4,112.6
			C31.4,112.7,31.4,112.7,31.4,112.6C31.4,112.6,31.4,112.6,31.4,112.6z"/>
		<path id="XMLID_960_" class="st0" d="M35.3,111.7c0.3,0.1,0.2,0.3,0.1,0.4c-0.1-0.1-0.1-0.2-0.1-0.3
			C35.3,111.8,35.3,111.8,35.3,111.7z"/>
		<path id="XMLID_959_" class="st0" d="M34.3,114.6c-0.1-0.2-0.1-0.3,0.1-0.3c0,0,0.1,0,0.1,0.1C34.5,114.5,34.4,114.5,34.3,114.6z"
			/>
		<path id="XMLID_958_" class="st0" d="M35.2,111.9c0,0-0.1-0.1-0.1-0.1c0,0,0,0,0.1-0.1c0,0,0.1,0,0.1,0.1
			C35.3,111.8,35.3,111.8,35.2,111.9z"/>
	</g>
</g>
</svg>
