<svg id="1a30ec68-ac90-4db8-932b-57e81ba890f4" data-name="Layer 1" xmlns="http://www.w3.org/2000/svg" viewBox="0 0 411.29 167.82" width="150" ><title>logo</title><g id="8b0a0f93-46df-42e2-9d9e-c20b2bc93062" data-name="&lt;Group&gt;"><path id="5996b00c-69e0-4294-a784-b98c9ae5326a" data-name="&lt;Path&gt;" d="M297,123.79a4.56,4.56,0,0,0-1,1c-.29.38-.7.16-1,.28.05,1,.05,1-.63,1.16-1,.23-1.74,1-2.83.8-.25-.06-.51-.19-.18-.51a.88.88,0,0,0,.2-.39c-.31-.19-.53-.6-.91-.65a2.24,2.24,0,0,1-2.12,1.86,2.29,2.29,0,0,1-1.78-.54l-.27.24a3.36,3.36,0,0,1-.8.39,29.78,29.78,0,0,1-11.2,5.67,2.26,2.26,0,0,1-2.1,1.7,2.63,2.63,0,0,1-1-.11,2,2,0,0,1-.17.13,52.88,52.88,0,0,1-10.85,4,2.62,2.62,0,0,1-2.76-1,1.12,1.12,0,0,0-.21,0,2.22,2.22,0,0,1-2,1.47,2.31,2.31,0,0,1-1.86-.6l-.51.59a14.85,14.85,0,0,1-2.71.2c-1-.12-1.63.73-2.56.85-.68.08-1.15.9-2,.71-.09,0-.28.23-.37.39s-.21.21-.42,0a1,1,0,0,0-.71-.27c-.32.11-.55.44-.87.59-.53.24-.78-.44-1.23-.42s-1.29,0-1.6.28a2.16,2.16,0,0,1-1.52.53c-1,.1-2.08.2-3.12.27-.58,0-1.12.08-1.45.66a.57.57,0,0,1-.52.07c-.61-.7-1.38-.4-2.1-.36a12.43,12.43,0,0,0-1.7.16c-.6.13-1,.69-1.71.73-2.56.14-5.12.42-7.68.63-.37,0-.89.2-1.1,0-1.06-.87-2.18-.12-3.26-.18-.26,0-.74.51-.78.46-.68-.64-1.14-.38-1.61.24a.57.57,0,0,1-.53.07c-.52-.57-1.16-.47-1.82-.39s-1.52.14-2.27.21-1.52.12-2.27.2-1.45-.7-2.38-.39a9.68,9.68,0,0,1-2.26.23c-.18,0-.44.08-.54,0-.93-.84-2-.17-3-.23-.55,0-1.12,0-1.67.06-.51-.65-1.2-.3-1.83-.32-.89,0-1.86.52-2.67-.27l-2.83.19a.32.32,0,0,1-.23-.12c-.55-.8-1.76.22-2.24-.77-.76.06-1.52.11-2.27.21-.42.06-.7-.23-1-.29-.71-.12-1.25-.6-2-.62a3.36,3.36,0,0,1-2.2-.81c-.05,0-.18,0-.27,0l-2.22,0c-.74-.74-1.61-.15-2.42-.18-.52,0-.59-.27-.66-.66a.47.47,0,0,0-.62-.37c-.28.05-.72.16-.82,0-.39-.48-1.06-.3-1.46-.65s-1-.21-1.48-.62-1.07.23-1.56-.27c-.15-.15-.55-.07-.75-.2-.69-.47-1.33-1-2-1.48-.57,0-1.13.25-1.6-.3a1.55,1.55,0,0,0-1.18-.61c-.71,0-1-1.12-1.91-.94-.18,0-.43-.32-.65-.49-.52-.4-.51,1.22-1,.84a10.3,10.3,0,0,1-3.62-2.83l-.5-.22a14.12,14.12,0,0,1-2.76-1.41,2.1,2.1,0,0,1-.87-1.29l-.35,0a.91.91,0,0,1-.41.4c.11.21.07.37-.1.62a7.42,7.42,0,0,1-.54.64c-.07,0-.17,0-.2-.05a1.25,1.25,0,0,0-1.56-.25c-.56.2-.19.79-.25,1.21a1.55,1.55,0,0,1-.24.46l-2.25.2L145,133c-.3.6-.87.61-1.44.66a.36.36,0,0,0-.28.16,3.52,3.52,0,0,0,0,1c.1.55-1.07,2.21-1.31,2.9a39.67,39.67,0,0,0-1,4.13c-.37,1.59-1.43,1.27-1.84,2.57-.66,2.09-1.85,2.61-2.1,4.81a5.57,5.57,0,0,0,.23,3.11c.39.82,2.3,1.65,2.36,2.4l.17,2c.93,1.29,2.57,1.32,3.46,2.42.44.55,1,.28,1.66.27.52.44,1.08.93,1.66,1.4.28.23.72.63.89.55.86-.4,1.35.54,2.11.43.38-.06.68,1.37,1,1.07a1.06,1.06,0,0,1,1.49-.15c.61.64,1.57-.22,2,.58a10.24,10.24,0,0,0,1.94,0c.91-.19.73.6,1.13,1,1.8-.16,3.67-.33,5.56-.47.15,0,.31.15.45.22.17.42-.17,1,.35,1.27.7.33.94-.37,1.31-.73.14-.13.25-.28.4-.46a1.11,1.11,0,0,0,1.2.48,1.78,1.78,0,0,1,1.72.31c.41-.38.8-.78,1.23-1.12.09-.07.35,0,.51.07s.16.22,0,.4-.25.33-.2.39a1,1,0,0,0,1.58.38,1.76,1.76,0,0,1,1.28-.41.44.44,0,0,1,.53.47,2.08,2.08,0,0,0,.09.82c.21.4.65.19,1,.24.79.12,1.51.6,2.38.36.2-.06.51.11.73.25a8.72,8.72,0,0,1,.86.69c1,.08,2-.58,3,.3.13.12.55,0,.83-.05a.47.47,0,0,0,.49-.53.5.5,0,0,0-.44-.58c-.63-.08-1.29.38-2-.14.89-.21,1.34-.9,1.94-1.57a2.86,2.86,0,0,0,.43.9c.38.36.76.92,1.43.63s1.45.14,2.08.41c1.27.54,2.41.72,3.57-.26.39-.34,1.08,0,1.51-.52s1.23-.29,1.86-.39a21.6,21.6,0,0,1,2.27-.2,3.34,3.34,0,0,1,1.35.08c.25.1.3.6.51.86a1.11,1.11,0,0,0,1.22.46c.43-.12,1,.1,1.29-.31,0-.29.07-.55.12-.92l1.1-.09c.76-.07,1.51-.16,2.27-.19s1.32-.37,1.83.3a2.45,2.45,0,0,1,2-.63c.72,0,1.51-.42,2.1.34l6.24-.52c.91-1.16,2.27-.61,3.42-.83a26.37,26.37,0,0,1,2.83-.27c.42-.49.93-.91.73-1.67-.12-.46-.24-.62-.74-.55-.27,0-.68,0-.8.16-.36.48-.58.25-1,.12a4.28,4.28,0,0,1-1.43-.72,1.4,1.4,0,0,0-.71-.31,2.25,2.25,0,0,1-1.32-.26,4,4,0,0,0-1.58-.21c.56-1.22,1.57-1.16,2.55-1.11l1.14.93c.18-.2.35-.54.56-.56.58-.06.88-.22.79-.83,0-.1.18-.24.28-.36.09.15.26.29.27.44,0,.32.2.6.46.55.7-.15,1.22.26,1.82.38a10.8,10.8,0,0,0,2-.12c.8,0,1.68-.49,2.39.28l3.39-.24c1-1.11,2.46-.59,3.7-.88.35-.08.77.09,1-.26.05-.51.1-1,.19-1.83l.57,1.23c.08,0,.16.13.23.12l2.19-.19c.44-.39.62-.94,1.17-1.11a4.54,4.54,0,0,0,1.12.86c.19.07.36-.58.83-.58.77,0,.29-.75.61-1s.62-.25.73-.16c.62.58,1,.48,1.63-.09s.87-.25,1.58.61a.69.69,0,0,0,.48.19,1.47,1.47,0,0,0,.49-.18c-.06-.13-.08-.3-.18-.37-.27-.2-.33-.52,0-.55a2.61,2.61,0,0,0,1.73-.71.49.49,0,0,1,.78.42c0,.33.19.57.47.54.66-.07.79.25.81.79a.94.94,0,0,0,.28.7c.16.1.51,0,.74-.09s.1-.22-.1-.38-.44-.52-.37-.64c.49-.86.91-1.79,2.2-1.79.51,0,.6-.52.22-1a3,3,0,0,0-.42-.36c.69-.6,1.34-.51,2.13.23a4.26,4.26,0,0,1,.6-.91c.32-.28.85-.39,1.08-.72.48-.69,1.59,0,1.9-.93a3.94,3.94,0,0,1,2.69,0c.12.06.36.14.4.09a5.43,5.43,0,0,1,1.67-1.35,5.36,5.36,0,0,0,1.12-1.24c-.4-1,.77-.76,1.07-1.24a3,3,0,0,1,1.81-1.53c.26-.08.63-.08.75-.25.32-.48.8-.38,1.24-.5s.79-.63,1.14-.59c.78.08,1.08-.63,1.7-.77s.28-1.17.92-1.48c-.19-.55.2-.87.54-1.17a1.27,1.27,0,0,1,.73-.29c.29,0,.47.51.31.88a6.89,6.89,0,0,0-.4.69.52.52,0,0,0,.16.47,2.46,2.46,0,0,0,2.08-.26.56.56,0,0,0,0-.52c-.15-.22-.48-.35-.57-.57a1,1,0,0,1,.11-.74c0-.1.35-.17.5-.13a4.2,4.2,0,0,1,.78.44c.26-.3.54-.64.84-1s.45-.31,1-.06c.2.1.31.41.63.07s.61-.32.91-.5a.61.61,0,0,0-.07-.93,9.18,9.18,0,0,0-1-.25l.5-.68a1.32,1.32,0,0,0-1.57.1,1.17,1.17,0,0,1-1,.44c-.58-.09-.75.49-1.15.63s-1.16,0-1.49.58c0,0-.34,0-.38-.12a1.1,1.1,0,0,1-.06-.54.28.28,0,0,1,.17-.2c1.19-.11,1.26-1.12,1.63-1.88a1.39,1.39,0,0,0,2,.16,2.57,2.57,0,0,1,.68-.39c.51-.17,1.21.15,1.56-.41s1.34-.06,1.69-.71c-.21-.19-.5-.34-.58-.57a.76.76,0,0,1,.16-.72c.44-.28,1.09,0,1.51-.54s1.06-.2,1.58-.36a3.77,3.77,0,0,0,.49-.23,5.41,5.41,0,0,1-.54-.8c-.06-.13,0-.33.08-.5.14,0,.31,0,.4.08.31.28.71.4,1,.11.71-.78,1.33-.71,2.19-.16.54.35,1.52-.2,1.84-.84,0-.06-.14-.29-.25-.32a7.67,7.67,0,0,0-1.12-.12c.51-.24.72-.32.92-.43.58-.33,1.09-1.15,1.83-.23a5.71,5.71,0,0,0,1.67-.12,1.59,1.59,0,0,0,.85-1,1.54,1.54,0,0,1,1.67-1.43c.15,0,.44-.2.43-.25-.25-.94.75-.82,1.09-1.24a3.76,3.76,0,0,0,.52-.65c.07-.14,0-.45-.06-.52S297.17,123.7,297,123.79Z" fill="#19181c"/><path id="c3673c40-ddf6-436d-a205-eb6f157e85ab" data-name="&lt;Path&gt;" d="M216.71,88.67h0v0Z" fill="#19181c"/><path id="714f07ff-907a-4df4-aefe-504713123db0" data-name="&lt;Path&gt;" d="M216.75,87.8v0h0Z" fill="#19181c"/><path id="2dd50833-7f74-4749-9d32-26185bc05d63" data-name="&lt;Compound Path&gt;" d="M177.31,120.58c-.09.33.25,0,.39,0s.3-.18.31-.16c.76.91,1.56.3,2.32,0a4.34,4.34,0,0,0,1-.71c1.46-1.08,3.25-1.73,4.32-3.32,0,0,.18,0,.19,0a.76.76,0,0,1,0,.34c-.07.28-.19.62.18.68.16,0,.43-.27.57-.48a1.63,1.63,0,0,0,.15-.62,4.71,4.71,0,0,1,1.36-2.36c.3-.33.48-.12.66.14a6.17,6.17,0,0,0,.38.51s.15.09.19.07c.32-.17.24-1.11,1-.48a2.89,2.89,0,0,0,.2-.31.53.53,0,0,0,0-.21c0-.36,0-.71,0-1.07,0-.1.1-.19.15-.28.05.13.1.25.16.38s.12.24.18.37c.15-.09.38-.15.45-.28.25-.51.44-1,.65-1.58a2.28,2.28,0,0,1,1.38-1.51,1.19,1.19,0,0,0,.73-1.39c-.15-.65,0-.9.6-1.09.15-.05.25-.25.37-.4.34.06.69,0,.9.41a.47.47,0,0,0,.72.17.65.65,0,0,0,.31-.72,4.45,4.45,0,0,0-.15-.8c-.08-.2-.3-.27-.48,0s-.24.39-.5.24a.49.49,0,0,1-.18-.72c.13-.24.37-.45.41-.7.08-.43.34-.41.62-.31a.58.58,0,0,0,.72-.27,8.42,8.42,0,0,0,.61-1.08c.1-.19.17-.38.43-.31a.54.54,0,0,0,.74-.51,3.83,3.83,0,0,1,.74-1.74c.13-.22.07-.4-.15-.47s-.27.07-.36.16-.36.39-.54.59a3.14,3.14,0,0,0-.39-.87c-.15-.18-.63-.15-.69-.31-.17-.45.32-.53.58-.72s.26-.45.31-.73a6.46,6.46,0,0,1,.73-2.4c.39-.61.12-1.2-.54-1.61-.46-.28-.88-.13-.95.36,0,.28,0,.57-.07.85a3.61,3.61,0,0,1-.09.41,2.64,2.64,0,0,1-.07-.4c0-.92.44-1.83.44-2.75.35.14.19.24.59.25a1.46,1.46,0,0,0,.69-.14.55.55,0,0,0,.3,0c.54-.16-.41-.3.12-.49a.43.43,0,0,0,.26-.65c-.08-.18-.19-.34-.28-.51-1.58-1,.12,1.44,1.28,0a9.37,9.37,0,0,1,1.54-1.1c.32-.26-.06-.29-.2-.37s-.25-.12-.37-.18c.55-.58.54-1.7,1.57-1.79s1.6-1.11,2.45-1.57a.53.53,0,0,0-.13-.27c-.35-.2-.21-.43-.1-.7a.43.43,0,0,0-.22-.62c.74-.73,2-.25,2.68-1.11,0,0,.39.26.59.39.33-.83,1.36-1.1,1.84-1.74.27-.36.63-.57,1-.11.06.06.46,0,.51-.16a1.46,1.46,0,0,1,1.34-.87,2.07,2.07,0,0,0,.91-.44c.5-.39,1-.83,1.44-1.24.1-.08.45.06.43.17-.16.82-.61,2.21-.68,2.77,0,.11.43.35.55.31.46-.16.72-.74,1.31-.61a.56.56,0,0,1,.2.07s.06.11,0,.12c-.64.55-1.29,1.1-2,1.63,0,0-.18-.18-.3-.23a.49.49,0,0,0-.3,0c0,.27-.17.62-.06.83.57,1.1.88.19.51,1.44-.11.37.31.51.69.51a1.4,1.4,0,0,0,.06,1.7l.42,0a6.54,6.54,0,0,1,.29.7,1,1,0,0,1,0,.38c-.11,0-.22,0-.33-.08l-.33-.14c-.09.61-.15,1.73-.3,2.32a1.23,1.23,0,0,0,.13,1.2,2.4,2.4,0,0,1,.51,2.4,3.48,3.48,0,0,0,.64,3.52,4.1,4.1,0,0,1,.33,1,4.06,4.06,0,0,0,.4,1.2,12.18,12.18,0,0,1,1.74,4.71c0,.16.23.29.37.43.89,3.53,3,6.35,5.18,9.17a.52.52,0,0,0,.38.16c.12,0,.34-.09.35-.16a4.19,4.19,0,0,0-.06-.61,4,4,0,0,1,.06-.52l.35.25c.29.23.52.49.32.9a1.6,1.6,0,0,0,.4,1.95,9.9,9.9,0,0,0,.79.71c.39.32.72.6.6,1.23-.05.29.72.5,1,.22a1.23,1.23,0,0,1,1.21-.51,4.79,4.79,0,0,0-.08,1,17.29,17.29,0,0,0,.37,1.82c.05.23.53.36.73.23s.07-.35,0-.53-.34-.49.05-.68c.91-.44.9-.44.4-1.11a1.84,1.84,0,0,1-.3-.55c0-.08.14-.31.16-.3a7.49,7.49,0,0,1,1,.37c.18.08.31,0,.44-.11a5,5,0,0,0,.8.72,1.23,1.23,0,0,0,.28.15,2.09,2.09,0,0,0,.63,2.13c.13.12.36.28.49.24,1.42-.43,3-.31,4.32-1a5.64,5.64,0,0,1,1.82-.51,1.67,1.67,0,0,0,1.4-.81,2,2,0,0,1,1.57-1c.24,0,.65-.25.66-.41.07-1,1-1.32,1.32-2.09.26,0,.62.2.73.09a15.33,15.33,0,0,0,1.66-1.9,1.77,1.77,0,0,1,1-.64,4.75,4.75,0,0,0,2-1.17c.93-1,1.79-2,1.59-3.54,0,0,.14-.12.22-.18a2.84,2.84,0,0,0,.18.37c.07.1.19.26.25.25a.56.56,0,0,0,.32-.26,1.18,1.18,0,0,0,.21-.59c0-.54-.32-1.13.6-1.28.19,0,.33-.58.41-.91a10.74,10.74,0,0,1,.55-2.45c.28-.54.67-1.07,1-1.62a7.34,7.34,0,0,1,.88-1.69c.48-.5-.09-1.21.43-1.53s.77-1,1.13-1.51a3.47,3.47,0,0,0,.71-2.18,6.23,6.23,0,0,1,.24-1.25c.2-1.11.46-2.22.58-3.34.09-.91,0-1.85.65-2.61a.44.44,0,0,0,0-.39c-.27-.61.06-1.09.28-1.61s.22-.82.36-1.22c.27-.76-.49-1.39-.3-2a3.34,3.34,0,0,0,.26-2c-.19.06-.4.18-.57.15s-.21-.28-.26-.44a5.71,5.71,0,0,1-.22-1c0-.39.37-.31.56-.46a.39.39,0,0,1,.66.16,7.05,7.05,0,0,1,.28,1.15c.2,0,.43,0,.55-.13a.63.63,0,0,0,.14-.56A2.47,2.47,0,0,1,264,78a1.4,1.4,0,0,0-.12-.82c-.18-.35-.52.07-.75-.05s-.41-.28-.39-.41a1.43,1.43,0,0,0-.65-1.47.63.63,0,0,1-.22-.56c.42-.84-.06-1.67,0-2.5A23.56,23.56,0,0,0,261.6,69c0-.5-.12-1-.13-1.49s-.6-.92-.25-1.59c.22-.42-.44-.39-.69-.58s-.36.08-.44.26-.21.63-.54.55-.3-.43-.19-.7a1.38,1.38,0,0,0,.06-1.22,4,4,0,0,1-.19-1.26c0-.06.17-.14.27-.19s.13.07.14.13,0,.29.07.42a1.22,1.22,0,0,0,.2.28c.09-.1.22-.19.26-.31.28-.9-.16-1.47-1.08-1.31a.52.52,0,0,1-.65-.36c-.07-.19,0-.43,0-.63a1.89,1.89,0,0,0-.34-.47c-.19.18-.49.33-.54.55a13.3,13.3,0,0,0-.18,1.48c0,.1-.14.19-.21.28-.13-.14-.26-.27-.38-.43s0-.14,0-.21c-.23-.71.69-1.46.15-2s-1.37-.58-2-1c-.45-.32-1.09-.39-1.51-.73s-.47-.52-.55.11a4,4,0,0,1-.08.63c-.16.52-.39.55-1,.2a.47.47,0,0,0-.38-.06c-.1.06-.14.23-.18.36a.37.37,0,0,0,0,.21c.55,1.92,1.11,3.83,1.65,5.76.3,1.09.62,2.19.82,3.3s.31,2.53.48,3.8a2.26,2.26,0,0,0,.3,1,3.65,3.65,0,0,1,.62,2.22,1.36,1.36,0,0,0,.15.62,2.06,2.06,0,0,0,.45.41,1.24,1.24,0,0,0,.22-.36c0-.21,0-.43,0-.63s.16-.27.22-.26a.49.49,0,0,1,.34.23,4.34,4.34,0,0,1,.06,2.32c0,.1-.2.22-.32.24s-.19-.14-.27-.23,0-.14-.08-.2a3.59,3.59,0,0,0-.27-.29c-.07.11-.19.21-.19.32a17.88,17.88,0,0,0,.13,2.57,17.71,17.71,0,0,1-.22,4.89,28.89,28.89,0,0,1-1.58,6.64c-.65,1.81-1.34,3.61-2.14,5.36a46.42,46.42,0,0,1-2.45,4.49,32.17,32.17,0,0,1-2.11,3,4.27,4.27,0,0,1-2.54,1.46,4.5,4.5,0,0,1-2.52-.15,6.68,6.68,0,0,1-3.23-1.59,24.64,24.64,0,0,1-2.25-2.82c-.74-1.12-.35-2.34-1-3.53-.13-.25,0-.5.29-.65,0-.15,0-.3,0-.45l0,0c-.49-.66-.49-.66,0-1.35l0,0c-.06-.27-1.21-.56-1.16-.81.14-.7.38-1.37.55-2.06.1-.42.17-.93-.19-1.21-.53-.4-.18-.69,0-1.06s0-.7-.55-.81c-.35-.07-.5-.29-.31-.48s.55-.43.79-.68a.75.75,0,0,0,.2-1,1.62,1.62,0,0,1,.18-2,6.43,6.43,0,0,0,.48-.94,1.25,1.25,0,0,0,.15-1.21,10.39,10.39,0,0,0,1-.75c.2-.19-.17-.46,0-.71a24.51,24.51,0,0,0,1.88-6,3.45,3.45,0,0,1,.49-.94,3.79,3.79,0,0,0,.65-1.95.71.71,0,0,0-.17,0,1.85,1.85,0,0,1-.39.14s-.16-.2-.13-.28.28-.38.27-.56c-.08-1,1.06-1.68,1.64-2.41.88-1.11,1.3-3.19,2-4.42a10.84,10.84,0,0,1,2.62-3.33.93.93,0,0,0,.35-1.28s1.13.18,1.16,0c.16-.93-.27-1.42.48-1.94,1.13-.77,2,.22,1.72-1.36,0-.18.17-.39.2-.59a.41.41,0,0,0-.15-.36c-.1,0-.26,0-.39.1s-.33.18-.5.27a1,1,0,0,1,0-.38,5.42,5.42,0,0,1,2.85-1.93c.58-.17.05-.27-.07-.43s-.25-.47-.18-.55a21,21,0,0,0,1.41-2.06c.65-.86,1-1.45,0-2.39-.08-1.14-1-1.32-1.81-1.46-2.23-.36-6.86-3.72-9.16-3.73a6.33,6.33,0,0,1-1.95-1.24c-.23-.27-.5-.06-.62.25s-.14.4-.24.6-.27.47-.64.31c-.51-.22-1-.91-1.57-1.09-.18-.06-.43-.14-.56-.06-.46.29-1.14.43-1.23,1.09s-.58.44-1,.78c-.26.21-.39.62-.84.49-.25-.07-.26-.48,0-1.14l-1-.55c-.39-.16-.75,0-.94.52-.11.28.09.36.29.44l.38.16c-.07.07-.14.19-.22.21a2.94,2.94,0,0,0-2,1.29h0c-.63.26-.9,1.05-1.69,1.14a.72.72,0,0,0-.53.82c.13,1.25-.85,2.35-1.54,3.11a.62.62,0,0,1-.59,0c-.26-.18,0-.41.13-.44.79-.25.81-.85.76-1.49-.77.54-1.78.85-1.89,2-.76.94,0,4.87-.77,5.81-.17.22-.49.58-.43.69.56.95-.49,1.19-.71,1.78-.1.26-.16.54-.24.81l0,0c.45.52.45.52,0,.92l0,0c-.57,1.37-2.59,9.84-4.06,9.74-1.12-.07-2.28.22-3.4.13s-2.08.21-3.14.19c-1.57,0-3.14.6-4.71.69-.57,0-1.13.18-1.69.21-1.36.08-1.56-.09-1.54-1.37s.13-2.27.2-3.41a7.25,7.25,0,0,0,0-.85c-.08-1.42.77-11.35.78-12.77A12.29,12.29,0,0,0,202,46.42a8.58,8.58,0,0,1-.56-.91,8.39,8.39,0,0,0-2.61-3c-.52-.34-.92.12-1.32-.38a15.81,15.81,0,0,0-3.43-2.32c-1.54-.93-3.28-.7-4.93-.94-.13,0-.28-.28-.44-.18s-.34.26-.5.25-.56-.27-.77-.2c-1.21.39-2.53-.37-3.15,1a.81.81,0,0,1-.68.37,5.07,5.07,0,0,0-2.05,0,2.25,2.25,0,0,1-.74.85c.72.4.79,1.17,1,1.84,0,.1-.2.43-.35.46a3.8,3.8,0,0,0-.74.24,1.78,1.78,0,0,1,.35,1l0,0a6.9,6.9,0,0,1,2.12,3.36,2.33,2.33,0,0,1,.67,1c.17.46.17,1,.3,1.46a.61.61,0,0,0,.79.49c.45-.1.66.23.67.61.06,1.57.09,3.14.13,4.71l0,0c.7.82.24,1.76.17,2.62a6.05,6.05,0,0,0-.11,2.06,2.8,2.8,0,0,1-.61,2.36c-.13.17-.45.2-.7.29,0,1.1.41,2.21,0,3.32a1,1,0,0,0,0,.64,4.63,4.63,0,0,1,0,2.09c-.17,1.55-.29,3.11-.44,4.67-.1,1.05,1,2.15.28,3.07-.12.15-.09.41-.15.61-.57,1.95-.29,4-.48,5.94,0,.32.15.55.51.46s-.34,0-.29.48a17.1,17.1,0,0,1-.46,3.81,3.06,3.06,0,0,0,0,.8c.86.2.47.46.07.76a.65.65,0,0,0-.22.35c-.23,1.18-.44,2.37-.67,3.55a6.75,6.75,0,0,0,.28,3.26,1.94,1.94,0,0,1,.19,1.23c-.13.62-.19,1.25-.28,1.87l0,0c.21.2.38.43.11.67s-.39.14-.55.25c-.39.27-.29.57.27.81a.46.46,0,0,0,.15,0c-.06.37-.93.54-.26,1.08-.07.42-.11.84-.2,1.25a9.79,9.79,0,0,0-.48,2.07,8.18,8.18,0,0,1-.21,2.51c-.26.85,0,1.86-.86,2.52-.11.09-.1.42-.05.62a1.83,1.83,0,0,1-.46,1.72.84.84,0,0,0-.23.57c.2,1.13-.56,2-.72,3.07,0,0-.18.08-.27.09s-.09-.11-.1-.17c0-.21,0-.43,0-.64s-.14-.23-.21-.34a1.09,1.09,0,0,0-.16.36c0,.28.08.57,0,.85a3.24,3.24,0,0,1-.27,1c-.08.17-.56-.44-.64-1,0-.28,0-.57-.07-.85,0-.06-.08-.12-.12-.17s-.2.15-.21.23C177.1,118.08,177.65,119.3,177.31,120.58ZM217.2,84.34c0-.07.15-.09.23-.14a.57.57,0,0,1,.07.19,2.4,2.4,0,0,1-.09.82c-.17.36-.1-1.39,0-1s0,.94-.19.8a2.07,2.07,0,0,1-.48-.63c-.06-.11,0,1.73,0,1.36S217,84.85,217.2,84.34Zm.49,2.43c-.11,0-.29.09-.34,0-.22-.23-.41-.48-.61-.73.18-.21.38-.46.65-.19a2.46,2.46,0,0,1,.39.73A.18.18,0,0,1,217.69,86.76ZM260,66.7c.16,0,.46.06.48.16a2.67,2.67,0,0,1,0,.8c0,.06-.08.11-.12.16l-1-.77A2.43,2.43,0,0,1,260,66.7ZM258,68.62s.17.07.16.11a5.05,5.05,0,0,1-.09.51,3.12,3.12,0,0,1,.09.67c0,.07-.19.13-.3.18s-.15-.06-.15-.09c0-.41,0-.82,0-1.22C257.73,68.72,257.92,68.65,258,68.62Zm-34.12,35c.15.12.4.22.42.35a1.7,1.7,0,0,1-.1.76c0,.08-.21.12-.44.23a5.05,5.05,0,0,1-.19-.92C223.61,103.9,223.81,103.76,223.91,103.62Zm-2.22-4.49c.34.24.34.25.28,1.27,0,.07.05.32.08.58,0,0-.09.1-.14.11a.25.25,0,0,1-.19-.06c-.1-.09-.25-.2-.27-.31-.06-.51-.08-1-.1-1.53C221.35,99.16,221.62,99.08,221.69,99.13ZM186.46,53.31a2.34,2.34,0,0,1,.19.37c.2.66.62,1.27.4,1.94,0,.28,0,.49,0,.7a1.05,1.05,0,0,1-.05.2,1,1,0,0,1-.12-.23c-.18-.81-.38-1.62-.53-2.44C186.26,53.69,186.4,53.49,186.46,53.31Zm-.93,27c.21-.07.64.3.56.49a3.82,3.82,0,0,1-.53.69c-.2-.24-.4-.37-.43-.54A.53.53,0,0,1,185.53,80.33Zm-.81,7.06a.35.35,0,0,1,.18-.28.45.45,0,0,1,.35.14,1.23,1.23,0,0,1,0,1.51c0,.1-.26.23-.29.21s-.32-.25-.34-.4a1.75,1.75,0,0,1,.19-.62A2.61,2.61,0,0,1,184.72,87.39Z" fill="#19181c"/><path id="93996bde-48c8-4085-9bc7-4cab5ba7b443" data-name="&lt;Path&gt;" d="M200.05,90.92v0l0,0Z" fill="#19181c"/><path id="f9bb3155-e955-4292-9a20-ab473319f08e" data-name="&lt;Path&gt;" d="M226,49.64s0,0,0,.06l0,0Z" fill="#19181c"/><path id="d599de1e-1104-4ecb-b574-1ccb8728436b" data-name="&lt;Path&gt;" d="M184.51,63.41h0v0Z" fill="#19181c"/><path id="dc868fe7-f66e-4914-9f21-edd54623d6fd" data-name="&lt;Path&gt;" d="M239.83,73.46s0,0,0,0h0Z" fill="#19181c"/><path id="cf90a518-b41f-40f0-8b9e-c4604efdab5b" data-name="&lt;Path&gt;" d="M263.56,80.15v0h0Z" fill="#19181c"/><path id="24245a58-f670-4c49-89ab-acd89d045e60" data-name="&lt;Path&gt;" d="M263.11,80.55s0,0,0,0h0Z" fill="#19181c"/><path id="c18401c8-75a2-4526-a6c8-87c6c87433eb" data-name="&lt;Path&gt;" d="M235.74,97.75l0,0,0,0Z" fill="#19181c"/><path id="43de66dd-f5f5-4d86-b95c-f6582528238e" data-name="&lt;Compound Path&gt;" d="M411.13,78.15c.33-1,.2-1.27-.95-1.91-.05,0-.19,0-.2,0-.31-.55-.78-1.06-.58-1.75.14-.47.36-.88.06-1.39-.12-.22.19-.22.39-.26.36-.07.28-.39.29-.65a1.82,1.82,0,0,1-.59-.43c-.25-.4-.4-.87-.62-1.3s-.24-.47-.88,0l0,0c.11.16.35.38.31.45-.42.71.07,1.58-.43,2.29-.1.14.1.49.16.74l0,0a1.22,1.22,0,0,1,.05,1.84c-.32.42-.31.75.32.86.33.06.18.17,0,.31a17.87,17.87,0,0,0-1.51,1.41c-.3.32-.09.59.24.75a1.64,1.64,0,0,0,0,2.1,1.46,1.46,0,0,1,.2.6s-.07.12-.12.16S407,82,407,82a3,3,0,0,0-.36-.49c-.26-.21-.64-.57-.83-.5-.46.18-.1.55,0,.86s.26.88.15,1c-.66.42.22.67.07,1.06s0,.67,0,1a.6.6,0,0,1-.19.36,2.11,2.11,0,0,0-.47,1.77,1.11,1.11,0,0,1-.39,1.09c-.36,1.14-.76,2.27-1.09,3.43a16,16,0,0,1-.83,2.62,2.64,2.64,0,0,0-.19,1.23,4.36,4.36,0,0,1-.75,2.59,45.61,45.61,0,0,0-2.31,4.78c-.65,1.3-.93,2.81-2.14,3.8-.26.07-.72.1-.55.42.37.73-.61.82-.55,1.41,0,.25-.3.61-.56.81-.44.34-1,.58-1.43.89-.23.15-.63.39-.6.51.14.62-.38.68-.68.91s-.8.52-.9,1.1-1.08.7-1.07,1.48a.48.48,0,0,1-.36.12c-.44-.18-1,.09-1.36-.44-.08-.12-.47-.2-.51-.14-.56.78-1.41.78-2.24.93a.92.92,0,0,0-.79.89,3.4,3.4,0,0,1,0,.64c0,.17-.14.43-.26.46a1.16,1.16,0,0,1-.56-.1c.05-.12.11-.23.16-.35.15-.41,0-.76-.34-.78s-.54.07-.81.08c-.63,0-1.26.08-1.89.06-.31,0-.61-.67-.5-1.06s.43-.16.67-.18A1.16,1.16,0,0,0,383,114c-.07-.11-.12-.28-.22-.31-.4-.14-.81-.24-1.22-.35a9.71,9.71,0,0,1-1.63-.48,21.68,21.68,0,0,1-2.2-1.28c-.9-.57-1.27-1.64-2.07-2.33-.35-.3-.46-.87-.72-1.29a.57.57,0,0,1,0-.75,2.12,2.12,0,0,0,.35-.53c.12-.29.1-.53-.29-.62-.17,0-.3-.24-.45-.38h0c.11-.16.27-.34.25-.47a5.74,5.74,0,0,0-.4-1.21,8.1,8.1,0,0,1-.65-4.39,8.7,8.7,0,0,0,.11-2.75c-.15-.74.56-1.35.1-2a15.38,15.38,0,0,1,.66-2.23,2.16,2.16,0,0,0,.09-1.84,2.23,2.23,0,0,1-.05-1.45c.18-.58.34-1.07-.14-1.57-.06-.07,0-.36.15-.5a5,5,0,0,0,.65-1.52l0-.09h0s0,0,0,0a3.71,3.71,0,0,1,.07-2.77c-.14-.39-.26-.79-.41-1.17a24.29,24.29,0,0,0-1-2.3c-.08-.17-.41-.21-.66-.29.34-.38.85-.65.81-1.27-.62-.21-.88-.53-.7-.94a3.48,3.48,0,0,1,.43-.72,1.1,1.1,0,0,0-.2-1.55c-.27-.2-.52-.42-.78-.63a10.81,10.81,0,0,1-1.57-1.68c-.56-.91-1.47-.29-2.12-.66a4.16,4.16,0,0,0-.6-.21,12.5,12.5,0,0,0-3.65-1,24.66,24.66,0,0,1-3.92-1,.75.75,0,0,0-.41,0c-.12,0-.31.16-.31.25A1.23,1.23,0,0,1,359,70.82a2.43,2.43,0,0,0-1.23.71,3.67,3.67,0,0,0-1.34,2.17,4.46,4.46,0,0,1-1.07,1.95,5.16,5.16,0,0,0-.91,1.73c-.66,1.73-1.11,3.54-1.91,5.22a6.24,6.24,0,0,0-.46,1.4c-.39,2.38-.85,4.75-1.13,7.14a8.21,8.21,0,0,1-1.36,3.54,26.84,26.84,0,0,0-1.53,2.51c-.28.56-.41,1.33-1.22,1.59-.44.14-.26.78-.43,1.09a3.94,3.94,0,0,1-1.63,1.62,4.49,4.49,0,0,0-1.69,1.6,5.09,5.09,0,0,1-.66.84c-1.2,1.18-1.19,1.18-2,3.32a5.46,5.46,0,0,1-.69,1c-.55.53-1.07,1.1-1.66,1.58-.28.23-.64.5-1,0-.18-.24-.77-.19-1.17-.27a12.12,12.12,0,0,0-2.61-2.32,2.82,2.82,0,0,1-1.19-2.13,12.3,12.3,0,0,1,0-1.91c0-.06.15-.12.22-.18a2,2,0,0,0,.25.32,2.06,2.06,0,0,0,.32.19,7.29,7.29,0,0,0-.1-3.35c-.25-.74.44-1.54-.17-2.25-.05-.06,0-.27.08-.39a9.06,9.06,0,0,0,.63-4.19c-.08-1.09.56-1.84.77-2.76.11-.46.71-.84,1.14-1.19a1.73,1.73,0,0,0,.65-1.29c0-.11-.1-.23-.15-.35-.11.08-.22.16-.31.25s-.06.14-.11.17-.26.18-.35.15a.37.37,0,0,1-.16-.33,4.54,4.54,0,0,1,1.34-2.13,2.28,2.28,0,0,0,.87-1.39c.06-.57.71-1,.92-1.63.43-1.18.74-2.41,1.12-3.61a2.13,2.13,0,0,1,.42-.75c1.25-1.44,2.53-2.86,3.77-4.3a13.14,13.14,0,0,0,.85-1.23c.28-.41.53-.84.84-1.23A34.81,34.81,0,0,1,350.14,67c1-.85,2.1-1.7,3.16-2.52a10.72,10.72,0,0,1,3.94-2.07,3.3,3.3,0,0,1,2.5-.08,2.29,2.29,0,0,0,1.05.09,18.26,18.26,0,0,1,6.32,1.48,6.93,6.93,0,0,0,2.89.63,18.33,18.33,0,0,0,2.08-.36,4.58,4.58,0,0,0,3-1.48c1.46-1.38,2.4-5.92-1.29-7a3.18,3.18,0,0,1-1.92-1.53,16.05,16.05,0,0,0-1.23-1.75,1.87,1.87,0,0,0-1-.73c-.83-.08-3.39-1.2-4.15-1.36l0,0a.73.73,0,0,1-1.11.18,3.93,3.93,0,0,0-2.25-1.08c-.24,0-.49-.26-.73-.42-.51-.33-.9-.93-1.67-.48-.13.08-.49-.19-.73-.32-2-1.12-3.93-2.26-5.91-3.37a.62.62,0,0,0-.91.23c-.19.34-.38.36-.63.09-.53-.6-1.61-.42-1.92-1.36,0-.08-.38-.07-.58-.07-.74,0-1.49-.55-2.23,0,0,0-.25-.11-.35-.21-.27-.27-.55-.23-.92-.24a11,11,0,0,0-3,.69.8.8,0,0,0-.61.79c0,.48-.3.65-.64.95-.65.58-1.58.75-2.09,1.52a.8.8,0,0,1-.94.19c-.78-.24-1.08-.07-1.34.55s.19.85.63,1.07a3.34,3.34,0,0,1-.67.74c-.28.18-.46-.11-.65-.34a.56.56,0,0,0-.53,0c-1.26.88-2.54,1.76-2.83,3.44l.78.05a1.31,1.31,0,0,1-1.1.83c-.53.11-.18.3-.06.52s-.1.35-.18.51c-.26.54-.91.21-1.24.54a7,7,0,0,0-.93,1.41c-.29.49-1,.72-1.43,1.15-.2.19-.1.49.22.59-.44.63-.87,1.26-1.32,1.88a8.14,8.14,0,0,0-1,2.32c-.25.74-1.06,1.29-1.57,2a6.69,6.69,0,0,0-.57,1.15,7.78,7.78,0,0,1-.58,1.14c-.43.61-1.25,1-.74,2,.06.11-.15.39-.28.55-.27.32-.59.61-.88.93s-.14.34.1.47c.6.34.6.35.22.58s-.74.42-1.11.65-.31.46.12.83a1,1,0,0,0,.34.13,13,13,0,0,0-.57,2.2,1.36,1.36,0,0,1-.56,1.06c-.31.25-.57.64-.92.75s-.45.25-.44.56a.55.55,0,0,0,.52.55c.39.07.67.25.63.7,0,.07,0,.2,0,.2a.54.54,0,0,1-.28,0c-.37-.18-.73-.12-.77.15a4.67,4.67,0,0,0,0,2.1.52.52,0,0,1-.06.4l-.09-.2c-.48.29-.87.61-.74,1.26a.71.71,0,0,1,0,.45c-.26.46-.89.66-.86,1.36,0,.24-.37.48-.56.73-.32.42-.9.7-.78,1.36-.78.58-.87,1.63-1.59,2.27a6.85,6.85,0,0,0-1.28,1.43,6.84,6.84,0,0,1-1,1.55c-.25.23-.1.86-.54.92a3.52,3.52,0,0,0-2.86,3c-.22,1.2-1.48,1-1.93,1.9a.47.47,0,0,1-.39.17c-.79-.12-1.19.64-1.84.8-.13,0-.23.26-.36.27-.63.06-1.28.07-1.92.11s-1,.75-1.7.59a5.65,5.65,0,0,0-1.68.05c-.56.05-.87-.62-1.51-.44a3.47,3.47,0,0,1-2.09-.69c-.39-.43-.93-.5-1.41-.79a8.17,8.17,0,0,0-.1-1.65c-.16-.63.48-1,.4-1.51-.12-.78.47-1.26.64-1.91.07-.27.51-.45.59-.73s-.28-.45-.38-.7a.51.51,0,0,1,.09-.42c.25-.31.54-.59.79-.87-.06-1.15-.11-2.27-.16-3.38l-.49-.49.66-.72.53.44c.43-.51.08-1.08.15-1.64L295.54,83c1.26.3,1.19-.36,1.16-1,0-.3.58-.95,1.28-1.62.17-.17.49-.4.46-.53-.2-.76.51-1.28.45-2a1.08,1.08,0,0,1,.84-1.23c.57-.13.54-.44.51-.84s0-.63,0-.92c.59-.43.78-1.25,1.65-1.33.23,0,.64-.48.61-.67-.13-.68.33-1.17.42-1.75a5.25,5.25,0,0,1,1.51-2.25c.21-.24.43-.45.37-.82s-.59-.61-.32-.86.66-.7,1-1.06.21-.36-.09-.81c-.42-.66-.42-.7.06-1.16a1.19,1.19,0,0,1,.57-.34.46.46,0,0,0,.45-.44c.19-1.15.19-1.15,1.17-2.14.06-.06.15-.11.16-.18.05-.45-.17-.9.26-1.34.27-.28.25-.82.52-1.17,0,0-.22-.2-.43-.39a17.7,17.7,0,0,0,1.2-1.34,10.59,10.59,0,0,0,.56-1.22c.24-.44-.27-1.11.17-1.58s1.17-1.06,1.18-1.59a1.5,1.5,0,0,1,.4-1.07c.23-.25,0-1.07-.25-1.3-.07-.07.35-.28.39-.32.24-.24.86-.48.82-.84-.06-.6-.74-.29.22-.35.05,0,.16-.14.15-.17-.39-.77.49-1.27.41-2s.46-1.76.4-2.64a1.59,1.59,0,0,1,.3-1.08,1.12,1.12,0,0,0,0-1.07c-.42-.39,0-.82,0-1.28s-.47-.79-.54-1.22c0-.19.15-.41.25-.61.21-.44.22-.44,0-.82-.12-.19-.34-.38-.34-.57,0-.76-.22-1.57.44-2.23a.29.29,0,0,0-.07-.44c-.48-.3-.46-.77-.48-1.24,0-.87-.63-1.74-.67-2.54l-1-.91a6.58,6.58,0,0,1,0-1.38c.09-.58-.54-.75-.55-1.22s-1.19-.65-1.14-1.21c0-.21-.53-.35-.46-.74.14-.83-.74-1.52-1.15-2.12a8.16,8.16,0,0,0-1.95-1.81c-.52-.36-.94-.87-1.44-1.27a6,6,0,0,0-1.67-1.26,3.61,3.61,0,0,1-1.46-1.16c-.47-.6-1.29-.51-1.76-1-.54.2-.74-.51-1.27-.44-.37,0-1.08-.39-1.51-.47s-.74-.55-1.1-.85c-.54.22-.77-.52-1.26-.42s-.88-.32-1.27-.37c-.57-.07-1.2-1.09-1.79,0a.21.21,0,0,1-.16,0c-.51-.63-1.19-.23-1.79-.29-.65.84-2.09,0-2.92.09s-1.44,1.1-2.16,1.1c-.39,0-.48.5-.73.47s-.41-.44-.8-.4c-.55.06-1.11.07-1.58.09-.5.37-.63,1.06-1.33,1-.1,0-.3.2-.3.29.06.52-.15.24-.66.2-.33.58-1.15.45-1.47,1.06-.19.37-.6.42-.95.59s-.54.58-.83.85a.62.62,0,0,1-.44.08c-.63-.07-.74.25-.84.81s-1,.63-1.43,1.09c-1,1.07-1.92,2.12-2.89,3.18l-.2.58c0,.45.11.87-.53.89-.25,0-.38.18-.38.48s.22.68-.12.89c-.65.41-.64,1.21-1.09,1.75s-1.74,1.14-2.13,1.71a3,3,0,0,0-.24,2.37c.07.29.13.76,0,.91-.42.4-.26.87-.37,1.31s-.45-.07-.67.41a1.08,1.08,0,0,0-.15.64c.2.68-.23,1.18-.4,1.75s-.67.9-.42,1.5-.54,1.08-.42,1.75a14,14,0,0,1,.11,1.84c1,.65,1.21,1.92,2.3,2.44.1-.1.24-.34.42-.38.52-.13,1.21,0,1.57-.3.59-.49,2.2-.28,2.8-.37a1.24,1.24,0,0,0,1.15-1.21c0-.22.06-.45.1-.67,0,0,.12-.08.15-.06s.17.1.17.15c0,.44.09.79.66.71.35-.06.73.08.85-.54s1.55-1.08,1.38-1.75a.9.9,0,0,1,.18-.63c.14-.2.25-.33,0-.52-.46-.34.12-.46.15-.69s-.2-.2-.26-.33-.27-.5-.2-.62a21.39,21.39,0,0,0,1.3-2.84c.15-.35.5-.6.69-.94s.49.07.6-.43-.13-.84,0-1.18-.6-.59-.58-1c.07-1.25,1.11-2.08,1.58-3.17,0,0,.17,0,.23,0,.24-.19.62-.35.69-.59.33-1.22,1.39-1.86,2.11-2.78a13.75,13.75,0,0,0,2.39-3.68.75.75,0,0,1,.51-.44c.49,0,1.17-.89,1.42-1.16a5.92,5.92,0,0,1,1.07-.85c.45-.32,1,0,1.52-.13a30.66,30.66,0,0,1,3.18-.56c0,.5.74.86,1.11,1.17.86.73,1.17,1.5,2,2.26a5.49,5.49,0,0,1,0,.71c0,.4.41.47.51.74s-.14.82.25,1.1.35.7.32,1.07-.38.56-.31.73.41.42.42.79c0,1.12.1,2.24.15,3.36a3.46,3.46,0,0,1,0,1.42,3.55,3.55,0,0,0-.41,1.52c0,.32-.56.56-.4,1-.77.48-.1,1.56-.85,2.07a1.07,1.07,0,0,0,.25.58c.33.33.4.63,0,1a.89.89,0,0,0-.19-.16,1.53,1.53,0,0,0-.61-.26c-.46,0-.38.37-.4.68s.12.87-.21,1.35a9.93,9.93,0,0,0-.79,1.83,11.65,11.65,0,0,1-.81,1.82,16.73,16.73,0,0,0-1.07,1.75c-.2.4-.22.86-.6,1.21s-1.1.92-.89,1.81c0,.19-.32.51-.54.72-.42.41-.45-.26,0,.19s-.14.86-.45,1.28-.13,1.22-.47,1.57-.16.93-.62,1.2-.39.81-.64,1.18a1.71,1.71,0,0,1-.9.67c-.32.11-.44.72-.68,1.08a.78.78,0,0,1-.55.39c-.7.11-.89.85-1.36,1.26-.07.06,0,.47.17.6.31.32.56.63.16,1s-.18.89-.59,1.23c-.16.13,0,.61-.09.89a13.57,13.57,0,0,1-.69,1.38c-1,.16-1.15.86-1.08,1.72,0,.56,0,.61-.81.75-.55.1-.75.51-1,.86C279.2,67.1,278.39,68,278,69c-.22.51.29.43.32.66l-.89,1.1c.35.76-.52,1.27-.39,2,.11.56-.52.87-.46,1.51a2.83,2.83,0,0,1-.68,1.62c-.27.39.17.33.22.51s.2.56.12.62c-.44.36-.39.82-.38,1.3s.19,1-.28,1.56a.94.94,0,0,0,.21,1.26c.39.33.31.66,0,1s-.44.46-.65.68c0,.83.08,1.63.12,2.43-.61.7-1.55,1.32-.45,2.36.13.13.1.44.12.67,0,.56,0,1.12.1,1.68,0,.2.27.36.51.66l-.95.74a8.6,8.6,0,0,1,.06,1.63c-.1.58.56.72.58,1.22s-.2,1,.27,1.33.16,1,.53,1.49c.49.64.45,1.64,1.33,2.07,0,0,0,.15,0,.23a1.29,1.29,0,0,0,.53,1.23c.17.14-.07.57-.36.7-.07,0-.17,0-.24,0-.33.15-.46.7-.16.82a4,4,0,0,1,2.47,2.06c.26.72.72.68,1.12.84s.73.81,1.11.82c.53,0,.75.5,1.26.51s.79.37,1.22.52c.7.24,1.28.9,2.09.72s1.4.79,2.23.39l6.46-.31.64-1.11a1.12,1.12,0,0,0,1.4.52c.35-.06.5-.64,1-.51s.75-.49,1.22-.55.82-.72,1.47-.57c.14,0,.37-.22.55-.37s.42-.5.69-.62c1.36-.61,2.57-1.48,3.91-2.11.24-.11.43-.18.42-.45s.13-.57.53-.58a1.09,1.09,0,0,0,.87-.24c.19-.2.54-.23.79-.4.43-.3.58-1,1.28-1,.17,0,.33-.31.5-.48l1-1c.81.05.59-.52.6-1s0-.5.48-.28c.68.34.89.26.93-.36a2.17,2.17,0,0,1,0-.7c.17-.36.56-.22.85-.24s.47-.26.5-.62c0-.08,0-.15,0-.23,0,.21.15.39.2.6l0,0c.13.16.36.32.36.49a14.9,14.9,0,0,0,.34,3.37c.09.35-.27.42-.55.49a.42.42,0,0,0-.34.63c.1.24.2.59.58.44a1.42,1.42,0,0,1,1.38.29c.22.17.11.75.21,1.13s.34.45.35.68-.2.67-.19,1a6.5,6.5,0,0,0,.26,1c.08.4.12.81.17,1.21l-.74,0c0,.27,0,.55,0,.82a.23.23,0,0,0,.1.18c.71.3.74,1,.88,1.59.2.84.59,1.4,1.53,1.41a.21.21,0,0,1,.16.12,1.45,1.45,0,0,1,0,.39c-.84,0,0,.88-.33,1.25,0,0,0,0,0,.07a5.09,5.09,0,0,1,.86-.45.89.89,0,0,1,.77.09c.89,1.12,2.06,1.94,3,3,.51.54.75,1.14,1.66.89a1.14,1.14,0,0,1,.9.45,1.51,1.51,0,0,0,1.05.58c1.12.22,2.22.53,3.33.79.2,0,.54.06.61,0,.51-.81,1.57-.86,2.12-1.61.15-.13.32-.38.44-.36.5.1,1.06-.59,1.51.1.3-.24.67-.41.76-.81a.59.59,0,0,1,.74-.49c.94.31,1.58-.32,2.36-.5a1.71,1.71,0,0,0,1.39-1.15c.36-1.08,1.44-1.21,2.18-1.79.86.2,1-.53,1.36-1l1.26-.45,0-.42h0c-.39-.43-.39-.43,0-.88l0,0c0-.06.08-.15.13-.16a3.8,3.8,0,0,0,1.38-.91c.62-.53.9.48,1.46.47.07,0,.17,0,.2,0,.59-.94,1.52-.53,2.32-.61.49,0,1.09-.41,1.42-.23s.58.93,1,1.31a9.49,9.49,0,0,0,1.24.77.55.55,0,0,1,.12.51c-.1.24-.46.43-.46.64,0,.5.47.36.79.44a1,1,0,0,1,.53.32,2.51,2.51,0,0,1,.86,2.06.78.78,0,0,0,.36.88,4.44,4.44,0,0,1,.67.49,1,1,0,0,1,.18,1.17c.37.17.76.32,1.12.51.11.06.26.25.23.32-.31.84.69,1.21.67,1.93a1,1,0,0,1,.43.86.74.74,0,0,1,.59.72c0,.2-.14.41-.13.62a.82.82,0,0,0,.22.55c.08.06.36-.07.51-.17s.27-.36.46-.06.33.6.49.91l1.29.48h0c.83.61,1.65,1.23,2.49,1.82a5.12,5.12,0,0,0,1.12.6c.13,0,.37-.12.52-.24s0-.24-.05-.37-.63-.36,0-.46a1.12,1.12,0,0,1,1.4.68l.2.2c.65.08.65.08.34.58s-.27.43.44.59l0,0a2.31,2.31,0,0,1,.49-.34c.61-.23.59-.18,1.26.29.41.28.33.54.17.89a.39.39,0,0,0,0,.35c.37.3,1,.06,1.24.66a7.39,7.39,0,0,0,.65-.49c.25-.23.46-.5.7-.74a.21.21,0,0,1,.19,0,.22.22,0,0,1,.1.17c-.1.48-.21,1-.31,1.45,0,0,.09.12.15.14s.16,0,.19,0a4.05,4.05,0,0,1,1.27-1.11c.23-.1.36-.41.54-.62a4.66,4.66,0,0,1,.54.84c.1.25,0,.56.07.83s.24.43.31.42c.74-.16,1.57.27,2.23-.22.47-.34.81-.74,1.38-.19a.58.58,0,0,0,.58,0,2.85,2.85,0,0,1,2.25-.82c.23,0,.23-.58.63-.28a1.23,1.23,0,0,0,1.83-.31c.36-.55.61-.86,1.26-.66a15.55,15.55,0,0,1,2.69-1.53,1.87,1.87,0,0,0,1-1.3c.08-.64.35-.59.85-.43s.64.05.63-.63c0-.19,0-.47.1-.57a10,10,0,0,1,1.66-1.28.57.57,0,0,0,.31-.82.27.27,0,0,1,0-.21l1.37-1.87c.07.12.14.24.22.36s.33.3.49.1a20.6,20.6,0,0,0,1.26-1.72c.09-.15,0-.41,0-.63a1.3,1.3,0,0,0,.5-1,1.3,1.3,0,0,1,.76-1.07,6.88,6.88,0,0,0,0,.77c0,.06.26.15.27.14.36-.57,1.16-.93.9-1.79-.1-.35.17-.31.34-.39a.87.87,0,0,0,.66-1c.19-.17.43-.32.51-.54a12.4,12.4,0,0,1,1.17-2.46c.27-.41.41-.9.64-1.34a1.42,1.42,0,0,0,0-1.42,1.25,1.25,0,0,1-.1-.61.44.44,0,0,1,.22-.32.43.43,0,0,1,.39.06,6.64,6.64,0,0,1,.52.65c.24.3.36.27.54-.13.09-.19.3-.44.24-.56-.31-.65,0-1.06.43-1.47a.83.83,0,0,0,.24-.57,13.69,13.69,0,0,1,1-3.64,2.38,2.38,0,0,0-.23-2c-.15-.24-.38-.42-.54-.66,0-.07,0-.31.07-.32,1.31-.29,1.1-1.21,1-2.16-.06-.4-.06-1,.17-1.2.69-.63.34-1.24.17-1.89.34,0,.67-.12.74-.54.17-1.1.13-2.26,1-3.17.09-.1,0-.4,0-.61-.27-.14-.26-.29,0-.43a32.44,32.44,0,0,1,.23-3.28,1.58,1.58,0,0,0-.72-1.72.4.4,0,0,1-.1-.68c.21-.23.2-.65.6-.72,0,.46-.26,1,.24,1.33a.73.73,0,0,0,.55.15.55.55,0,0,0,.19-.49c-.06-.22-.42-.33-.06-.65A2,2,0,0,0,411.13,78.15Zm-85.24,35.34c-.37-.21-.38-.53,0-.87.11-.11.31-.42.48-.1a10.85,10.85,0,0,1,.48,1.31A4.86,4.86,0,0,1,325.89,113.49Zm3.82,1.42a4.49,4.49,0,0,1-1,.08.63.63,0,0,1-.58-.73,3.75,3.75,0,0,1,.06-.39c.29-.14.58-.39.93-.15a1.31,1.31,0,0,1,.65,1C329.76,114.8,329.73,114.91,329.71,114.91ZM330,100c0-.12,0-.37,0-.4.48-.22.8-.79,1.53-.7,0,.11.2.3.16.42a8.39,8.39,0,0,1-.54,1.14c0,.07-.17.09-.25.13,0-.13-.08-.27-.13-.4s-.12-.42-.41-.24C330.24,100,330.14,100.45,330,100Zm2.16,15.81c-.15-.08-.41-.13-.43-.24-.13-.59-.39-.91-1-.67,0,0-.22-.2-.19-.26a.44.44,0,0,1,.27-.27c1-.13,1.12,0,1.4,1.1Zm3.14-5.48c-1.08-.07-1.1-.05-1.49-1.18l2.09.41C335.81,109.94,335.93,110.39,335.27,110.35Zm42.64,14.28c-.31.2-.63.31-1,0a2,2,0,0,0-.35-.21c.07,0,.13-.13.2-.14s.42,0,.63,0h0a1.68,1.68,0,0,1,.42,0c.08,0,.13.13.18.22S378,124.6,377.91,124.63Zm2.53-9.7s-.1.11-.13.1a2.13,2.13,0,0,1-.33-.14.74.74,0,0,0,0-.77s.15-.22.2-.21a.52.52,0,0,1,.28.23,1.2,1.2,0,0,1,.05.4A3.07,3.07,0,0,1,380.44,114.93Zm4.46,2c-.67.61-1,.51-1.3-.42h1.64A2.78,2.78,0,0,1,384.9,116.89Zm21.81-19.7a6.24,6.24,0,0,1,0,.72c0,.11,0,.31-.06.5s-.08.11-.13.16-.09-.12-.09-.18c0-.41,0-.82,0-1.23,0-.06.06-.12.09-.18S406.69,97.11,406.7,97.19Zm2.07-13.86c0,.24-.09.29-.18.1a7.2,7.2,0,0,1-.38-1s.18-.16.29-.22a.18.18,0,0,1,.17.06c.07.2.11.4.14.48C408.79,83,408.78,83.18,408.78,83.33Z" fill="#19181c"/><path id="73fe1091-b2ee-4443-b7e8-756fe8552af5" data-name="&lt;Path&gt;" d="M319,111.93l-.26.15A1,1,0,0,0,319,111.93Z" fill="#19181c"/><path id="417bc80f-fe14-4ca0-a901-94b62fbb140c" data-name="&lt;Path&gt;" d="M404.46,85.09h0l0,0Z" fill="#19181c"/><path id="8c83e9fa-d1f5-4878-9078-2666efa32188" data-name="&lt;Path&gt;" d="M404.5,85.55l0,0h0Z" fill="#19181c"/><path id="fcd39371-eca1-42be-81d1-399865b15afd" data-name="&lt;Path&gt;" d="M172.87,86.82c.1.57,0,0,0,0Z" fill="#19181c"/><path id="a93c3ef0-09d2-4a21-95a1-ce8a70efe4bc" data-name="&lt;Path&gt;" d="M147.41,87.06l0-.1Z" fill="#19181c"/><path id="9759a73c-2b11-4a59-86c0-9c7454e34ee6" data-name="&lt;Compound Path&gt;" d="M138.52,106.25c.59.66,1,1.6,1.86,2a27.45,27.45,0,0,0,4.73,3.68,13.7,13.7,0,0,0,10.82,2,3.7,3.7,0,0,0,1.06-.44c2.86-.59,8.12-4,9.56-6.18a25.24,25.24,0,0,0,3.85-7.84,14.6,14.6,0,0,0,.73-1.67,15.86,15.86,0,0,0,.64-2.42q.14-.75.21-1.51a2.46,2.46,0,0,0,.62-1.4,13.44,13.44,0,0,0,.26-5.66s-.13-3-.82-2.94.4,2.32.06,2.61c-.42-.51-1-.45-1.35-1a11.9,11.9,0,0,1-.78-1.09c.24-.15.53-.37.45-.7-.23-1-1-1.34-.79-2.47a2.51,2.51,0,0,0-.78-2.34c-.15.67.55,1.33.26,2-.4-.46-.93-2.81-1.44-2.83s-.53,1.11-.76,0c-.15-.7-.12-.33-.45-1a4.08,4.08,0,0,1-.44-1.75c0-.73.38-1.33,0-2-.52.31-.32.89-.72,1.3-.66.67-.62-.95-.57-1.23.09-.49.16-1-.45-1.14s-.91-.9-1.24-1.35-.32-1.14-.74-1.55-1.15.14-1.34-.49c-.36-1.34-1.57-1.37-2.68-1.67-.9-.24-2.07-2-2.35-.63.34,0,.84.83.23,1.07s-1.06-1.27-1.45-1-.93,1-1.25,0c-.22-.66-2.7-1.09-3.12-1.78s0-.53.27-1.11a14,14,0,0,0,.71-1.89,23.89,23.89,0,0,1,1.54-3.41c.22-.43.52-.82.74-1.25a4.54,4.54,0,0,1-.51-1.3c0-.38.26-.59.2-.93.29,1.71,1.15-.88,1.42-1.92.7-1.14,1.19-1.61,1.89-2.87A3.38,3.38,0,0,1,158,48.74l1.31-.74c-.07-.33-.45-.59-.47-1s.67.56.81.32c.25-.45.35-1,.85-1.19l.58,0c.34-.26.4-1,.52-1.41s1.1,0,1.36-.27c.4-.45.82-1.4,1.19-1.89.08-.1,1-2.51,1.41-2.12a.23.23,0,0,1-.06.2,5.9,5.9,0,0,0,2.6-2.15c.66-1.13.45-2,.47-3.29,0-1.53-1.19-2.06-1.88-3.19-.2-.42-.65-.39-.86-.8s-.1-.93-.32-1.24-.93-2.14-1.44-1.25c-.5.59-.7.22-1.08,0s-.69-.16-1.05-.37c-.56-.33-.58-.47-1.19-.58-.45-.08-.37-.78-.75-1-.17-.1-.55.3-.93.18-.16.34-.4.72-.62.16s-.32-.29-.62-.6-.29-.46-.73-.42a.44.44,0,0,1-.31-.12c-.51-.36-.51-.08-1.1,0s-.69-.05-1.28-.35-.87-.09-1.25-.27-.35.27-.65.22-.3-.56-.58-.64c-.43-.13-1-.63-1.63-.28-1,.51-2.12-.36-3.11-.47-.47-.05-.81.33-1.25,0a4.36,4.36,0,0,0-1.45-.78c-.35,0-.61-.23-1-.17s-1,1.25-1.24,1.6a10.54,10.54,0,0,0-1.87,2.61c-.17.46-.25.94-.4,1.41s-.66.75-.85,1.25c-.19.74,0,1.44-.28,2.16-.4.88-1.79.91-1.78,1.89a12.37,12.37,0,0,1-.5,3.19,2.63,2.63,0,0,1-.5,1.22c-.27.34-.76.85-.46,1.32a2.27,2.27,0,0,1-.14,1.88,11.29,11.29,0,0,1-1,1.19s0-.08,0-.12c-.06,1.12-1.55.53-1.07,1.77A12.25,12.25,0,0,1,134,47.3c0,.36.09,0-.3.12s-1.05-.47-1.2-.23c-.2.89-.29,1.81-.44,2.71-.28,1.76-1.66,3.39-1.81,5.19-.11,1.33,1.28,3.38-.19,4.06-.26.12-.16.41.12.86.4.64-.17.66-.24,1.48-.1,1.13-.18,2.11-.29,3.22a4.09,4.09,0,0,0,.11,1.71,4,4,0,0,1,.16,1.88s0-.08,0-.13c0,.8-.2,2.65-.64,2.81,0,0,0-.06-.06-.15,0,.64-.3,1.25.23,1.73.33.31.1,1.64.1,1.75a4.24,4.24,0,0,1-.56,1.3c-.16.35.06.77-.06,1.11a.64.64,0,0,0,0-.2c0,.1,0,.89,0,.87,0,.23,0,.45,0,.68a2.8,2.8,0,0,0,0-.58,8.82,8.82,0,0,1,0,2.63c0,.12,0,.47,0,.54,0,.54.55.84.57,1.43a5.82,5.82,0,0,1-.4,1.68,4,4,0,0,0,.64,2.77c1,1.42-.13,2.78.1,4.22s1.17,2.08,1.41,3.32a8,8,0,0,0,.56,1.8c.26.88-.13,1.5.64,2.18a3.64,3.64,0,0,1,1,1.76c.2.63.52.44.74,1.27a.71.71,0,0,1-.06.57c-.08.32.51.76.65,1s.15.28.41.27.35.49.44.65c.31.56.3.62.77.28s.53.89.71,1.1C137.51,105.42,138.08,105.77,138.52,106.25Zm8.89-19.2c-.09-.43,0-.24,0-.1-.11-.6-.57-3.31-.16-3.37s.68,1.57.69,1.8c0,.53,0,1.06,0,1.59C147.9,87.23,147.47,87.34,147.41,87.06Zm-.49-8.35c.18-.75.33-1.92,1.24-2.13.75-.18.59-.85.37-1.4s-.16-.69.26-.94-.2-.74-.21-.77c-.36-.87.38-1.38.62-2.12.14-.43.21-1.62.89-1.49s4.16,1.32,4.47,1.76c5.11,7.28,8.6,14,8.6,23.16,0,1.87-1.43,5.76-4.61,5.76-4.48,0-6.5-4-8.24-6.54-.25-.37-.13.38-1-1.72-.26-.6,0-1.22-.21-1.81-.15-.41-2.16-1.3-1.12-2.14s.75-2.15.65-3.38.58-3.07-.62-3.86c-.12.74-.66.84-1.06.09A4,4,0,0,1,146.91,78.7Z" fill="#19181c"/><path id="6d1b8f35-78a6-4d99-9750-a9c97657afb8" data-name="&lt;Path&gt;" d="M129,80.21s0-.08,0-.12S129,80,129,80.21Z" fill="#19181c"/><path id="7867e425-8a07-4046-acaa-9db2e0ca5ba7" data-name="&lt;Path&gt;" d="M129.23,70.82a1.71,1.71,0,0,0,0-.28S129.22,70.71,129.23,70.82Z" fill="#19181c"/><path id="2a8d85bc-b4f4-4ee2-b41a-1e9483d40907" data-name="&lt;Path&gt;" d="M129.93,68.16a1.73,1.73,0,0,0,0-.33C129.92,67.94,129.93,68.05,129.93,68.16Z" fill="#19181c"/><path id="75c6a7a4-9ff4-4e39-afea-dfa6a5adb3ec" data-name="&lt;Path&gt;" d="M149,81,149,81l0,0Z" fill="#19181c"/><path id="81a729f2-01c9-4beb-ac72-a411a4744154" data-name="&lt;Path&gt;" d="M155.2,66.75l0,.05,0,.07Z" fill="#19181c"/><path id="e5f6452f-0143-47cd-bc66-2178c85fd1ef" data-name="&lt;Compound Path&gt;" d="M119.7,36.72l.65-.16c.26-.07.44-.2.39-.5a.7.7,0,0,0-.17-.41c-.11-.08-.35,0-.45-.1a3.12,3.12,0,0,1-.75-.9c-.15-.34.25-.53.44-.78s.22-.59.42-.8c.4-.44-.22-.47-.23-.74.66-.74.72-1.19.21-1.83-.2-.25-.42-.48-.57-.66,0-.28,0-.44,0-.6.11-1.91.11-1.91-1.08-3.72-.08-.12-.18-.31-.14-.42.25-.7-.55-1.13-.43-1.79-.56-.42-.74-1.32-1.63-1.32-.22-.32-.47-.63-.66-1a4.36,4.36,0,0,1-.43-1.05c-.12-.52-.42-1-.88-1-1.15-.08-1.58-.62-1.44-1.73,0-.12-.18-.37-.24-.36-1,.17-.56-.79-.93-1.13-.66-.61-1.21-1.33-1.82-2l-.93-.05c-.89-.72-1.32-1.89-2.5-2.24a4.47,4.47,0,0,0-1.64-1.31c-.64-.43-1.43-.13-2.12-.31a4.91,4.91,0,0,0-.83-.9c-.24-.16-.62-.09-.93-.17s-.54-.49-1-.59-.7-1.1-1.51-1c0,0-.14-.11-.16-.18a3.72,3.72,0,0,0-.05-.46,1.42,1.42,0,0,0-.25-.33,3.16,3.16,0,0,0-.23.39c-.24.59-.25.6-.5.28s-.44-.42-.49-.8-.15-.46-.7,0l-1-1a5,5,0,0,1-1-.07c-.46-.13-.66.31-1,.38-.28-.54-.8-.46-1.27-.5-.23,0-.58,0-.67-.15-.62-1-2.63-.94-3.51-.63a1.67,1.67,0,0,0-.63-1.36c-.28-.3-.69-.14-.85.34-.07.22-.08.52-.37.35a9.62,9.62,0,0,0-1.33-.9,9.74,9.74,0,0,0-1.7-.16,1.25,1.25,0,0,1-.58-.36c-.35-.32-.77-.14-1.15-.2-.9,1.25-7.48-2-7.81-1.45s-.7.23-1.05,0c0,0-.12.1-.18.16a.55.55,0,0,1-.84.07A1.1,1.1,0,0,0,70.41,0c-.56,0-1.15-.17-1.55.41-.41,0-.82-.07-1.23-.06S67,.15,66.72.48c-.48.61-.58-.2-.89-.22C64.77.19,63.69.2,62.64,0a38.57,38.57,0,0,0-5.56.18,1.48,1.48,0,0,1-1.55.4c-.27.48-.92.29-1.21.64-.45.54-1.15-.1-1.56.42.26-.33-5.88-.13-6.2-.16s-.33-.27-.5-.41c-.34.5-.87.28-1.32.38a4.57,4.57,0,0,0-1.44.69c-.49.32-.42-.32-.54-.32a3.1,3.1,0,0,1-1,.4c-.9,0-1.79-.09-2.65-.14-.41.36-.79.68-1.14,1a1.09,1.09,0,0,1-1.68,0c-.17-.15-.21-.21-.36,0-1.13,1.15-5.56.29-6.32,1.45-.51.77-1.6.09-2.12.86-2.14.37-5.8.58-7.51,2-.23.19.71,1,.3,1-.8,0,.2.48-1,1.58-.06.05-.11.16-.17.17a11.23,11.23,0,0,0-5.45,1.14c-.57.32.33,1-.51,1.41-.44.19-1.44-.17-1.75.11s1.86.57,1.46.93l-2.52-.15c-.33.89-.33.86-.93.88-1,0-4.76,1.28-5.27,2-.08.11.06.45.18.63s.31,0,.47.06c.73.11.83.24.72.89s-2.12.11-2.6,0a4.41,4.41,0,0,0-3,.59,10.76,10.76,0,0,0,1,1.07c.41.34,1,.42,1.34,1.05a6.51,6.51,0,0,1-.87.65c-.77.41-.91.91-.38,1.56.19.23.4.45.56.63a4.82,4.82,0,0,0-.38.58,1.18,1.18,0,0,1,.33,1.11c-.09,1.12,0,1.08.65,2.19a2.76,2.76,0,0,1,.61,1.71.86.86,0,0,0,.16.65,6.16,6.16,0,0,1,1,1.6,10.3,10.3,0,0,0,1.28,1.49c1,1.17,2.1,2.31,3.09,3.51.37.46-1.65.67-1.18.94a5.27,5.27,0,0,1,1.64,1.31c.6.77,1.27,1.49,1.86,2.18a9.93,9.93,0,0,1,1.34.1c.2,0,.36.35.56.38a17.33,17.33,0,0,0,1.91.24,3.89,3.89,0,0,0,2.62-.77,3.79,3.79,0,0,1,.79-.49,2.49,2.49,0,0,0,1.56-1.36A1.29,1.29,0,0,1,20.92,38a.66.66,0,0,0,.45-.07c.51-.41,0-1.35.48-1.78a4.51,4.51,0,0,0,2.58-1c.22-.15.26-.74.42-.76,1-.11,1.41-1,2.18-1.46a.45.45,0,0,1,.17,0s0-.12.15-.3c.33-.42,1-.6.94-1.31.62-.08,1.05-.62,1.71-.66.2,0,.43-.24.56-.44.71-1,1.95-.89,2.94-1.27.35-.13.8,0,1.06-.4s.91-.36,1.2-.65c.51-.5.63.17.88.16s.43-.46.82-.39.44.43.36.74c-.15.6.15,1.25-.4,1.84s-.16,1.4-.34,2.1c0,.13-.26.2-.35.33-.23.35.1.32.29.39.55.23.63.41.41.83s-.29.68,0,.87a9.35,9.35,0,0,1,1,.6,1,1,0,0,1,.48.79c0,.8-.38,1.64.05,2.38s.07,1.75.11,2.61S39,42.78,38.9,43.6c0,.16,0,.33,0,.49s0,.19,0,.22c.69.6.32,1.37.3,2.06-.1,6.06.67,12.52.39,18.4,0,.66-.08,1.31-.12,2s-.09,1.48-.13,2.21c.92.92.27,2,.29,3,.13,5.49.22,11.17.5,16.52,0,.49,1.45,1,1.42,1.47s-.07,1.15-.1,1.72-.06,1-.09,1.48c.87.49-.1.87-.09,1.31s0,.79.35,1.09c1.32,1.08-.07,2.23-.21,3.41-.21,1.84.38,3.36.72,5.14.27,1.42-.18,2.9-.1,4.32.06,1,1.2,3,1.17,3.59,0,.35,0,.75-.07,1.15a8,8,0,0,1-.11,1.47c-.16.63.32,1,.4,1.55a1,1,0,0,1-.36,1.08c-.27.16-.53.35-.67.44a4,4,0,0,1,.39,1c0,.66-.12,1.31-.08,2,0,.36.91.72.87,1.05s-.74.66-.05,1.08c.3.18.41,6.71.44,7.23a50.89,50.89,0,0,0,.62,7.64,15.86,15.86,0,0,1-.26,5.29c-.1.43-.33,1,.08,1.39s0,1,.29,1.33c.5.51.34,1,.33,1.59a4,4,0,0,1-.1,1.8c-.27.65.26,1,.66,1.29.26-.21.66-.38.74-.64a6.47,6.47,0,0,0,.13-1.46c.63-.33.5-.94.57-1.49.11-.85-.17-1.8.63-2.47.07-.7-.08-1.47.61-2,0-.74.09-1.47.13-2.21.05-.9.09-1.8.17-2.7a1,1,0,0,1,.31-.6c.59-.53.1-.85-.2-1.21l1-1c.13-.65-.2-1.38.51-1.82a3,3,0,0,1,.67-1.71c.06-.06-.1-.44-.23-.61s-.22-.28,0-.36c.51-.22.31-.85.75-1.17s.12-.93.26-1.38a2.6,2.6,0,0,1,.39-.57c.24-.35-.46-.52-.23-.69.49-.36.42-.83.47-1.3s0-1,.2-1.15c.94-.76-.12-2.18,1-2.81a1,1,0,0,1-.16-.19c-.36-.79-.3-.74.1-1.2s.94-.14,1-.46c.27-1,1.13-1.32,1.72-1.95a1.54,1.54,0,0,1,.4-.23l1.28.08c.88.73,1.4,1.92,2.61,2.35L60,120l.69.77c.37,0,.77.06,1.18.07s.62.48.9.73c0,0-.11.26-.21.29a4.7,4.7,0,0,1-.75.11c.2.26.35.43.48.61s.55.45.82.22a1.4,1.4,0,0,1,1.1-.34c.5,0,.69.41.91.71.36.5,1.07.79,1,1.57,0,.1.2.31.29.31.73,0,.85.69,1.41,1.12l2.49.15a1.6,1.6,0,0,0,1.15,1.7,1.76,1.76,0,0,0,1.12-.11l.73.82-1.54.9c.4.4.92.21,1.39.27s1.23-.09,1.69.16a2.45,2.45,0,0,0,1.27.53h0a17.64,17.64,0,0,0,2.56,1.76l.07.13a1.72,1.72,0,0,0,1.12.77c.55.59,1.13,1.17,1.7,1.75a1.45,1.45,0,0,0,1.6.4,3.4,3.4,0,0,0,2.1.66,5.06,5.06,0,0,1,.74,0c.79.17.44-.72.92-.94.75,0,1.56.08,2.38.15.08,0,.16.2.2.31s-.11.15-.17.15c-.24,0-.49,0-.73,0s-.49,0-.74,0c-.06,0-.19.12-.18.15s.12.33.17.32c.37,0,.56.23.82.42s.55-.5,1-.29a2.25,2.25,0,0,1,1.79-.4c.51,0,1.08.34,1.69-.31-.83-.16-1.56-.12-2.26-.23-.11,0-.22-.37-.24-.59s.15-.35.25-.35c.41,0,.83.09,1.23,0s.7-.35,1.06-.4c.93-.11,1.92.42,2.79-.32.08-.07.44.11.6.26.61.56,1.29.53,1.66-.1.47-.81,1.23-.23,1.86-.64,0-.33.07-.72.06-1.12,0-.57-.19-.63.28-.62.17,0,.36-.27.68-.53l.68,1.13c.54,0,.87.08,1.2.07a1.25,1.25,0,0,0,1.16-1c.08-.3-.07-.66.32-.9.37,0,.78.06,1.18.07s-.26-.84-.52-1.27l-.15-.22a12.12,12.12,0,0,0,2.27-.83h0a.41.41,0,0,0,.36.52,8,8,0,0,1,1.22.1c.77.25,1.36-.31,2-.41.14,0,.3-.33.34-.53a.36.36,0,0,0-.42-.44c-.3,0-.5-.15-.48-.4s-.13-.82.23-1c.3.18.64.52.82.45.7-.28,1.51-.4,2-1.14-.58-.42-1.27-.13-1.87-.31l-.13-.05a14.34,14.34,0,0,0,1.29-.94.46.46,0,0,0,.21.09,2.63,2.63,0,0,0,1.22,0,3.74,3.74,0,0,0,1.23-.56,4.19,4.19,0,0,0,.68-1.16c.09-.2-.17-.56-.33-1,.27-.16,1.17-.41,1.64-.69-.32-.16-.59-.33-.86-.49a10,10,0,0,0,1.13-2.84.21.21,0,0,0,.13,0c.25-.3,1-.48.26-1,.08-.1.14-.26.25-.29a4.53,4.53,0,0,1,.74-.12l-.48-.61s.1-.14.16-.15c.23,0,.47,0,.7-.05a4.06,4.06,0,0,0,.63-.23c-.28-.5.71-.65.33-1.16-.16-.21-.24-.35,0-.54.09-.06.17-.29.15-.32-.28-.26-.69-.25-1-.57s.81-.25.58-.58-.05-.39,0-.7c.2-.62,1,.05,1.1-.61l-.84-.94,1-1c-.54-.54-.7-1.11-.13-1.7.21-.21.24-.35,0-.53-.72-.55-.7-1.59-1.43-2.16-.29-.23-.16-.56.1-.83s.66-.4.71-.61c-.19-.54-.21-1-.45-1.23-.5-.48-.06-.63.19-.88a1.07,1.07,0,0,0-1.52-.05,1,1,0,0,1-.65.16c-.2,0-.56-1.25-.41-1.5s.2-.21.1-.36c-.45-.62-.52-1.47-1.3-1.91.25-.1.39-.22.53-.21.5,0,.74-.35,1-.63s-.12-.68-.28-1a3.28,3.28,0,0,0-1.6-1.86c-.12-.08-.31-.27-.29-.32.32-.71-.45-1.2-.38-1.79s-.31-1-.74-1.4c-.57.6.16,1.7-.8,2.13a9.61,9.61,0,0,1,.88,1.15c.07.12-.1.51-.26.59a.81.81,0,0,1-.61-.15c0-.64-.47-1-.82-1.41s-.26-.61.17-1a8.34,8.34,0,0,1,.82-.58,5.73,5.73,0,0,1-1.12-.68c-.74-.77-1.44-1.58-2.13-2.39-.25-.29-.15-.56.1-.84s.91-.47.84-1.24a21.86,21.86,0,0,0-1.72-1.9,3.23,3.23,0,0,0-2-1c-.65,0-1.52.22-1.55-.92,0-.06-.26-.15-.4-.17-.4,0-.81-.05-1.12-.07a8.29,8.29,0,0,0-1.64-1.54c-.77-.39-1.09-1.18-1.75-1.6a.7.7,0,0,0-.64.16c-.18.17,0,.63-.43.69a2.44,2.44,0,0,0-1.44-1.15c-.15,0-.11-.25.11-.32s.63-.06.65-.15c.12-.55-.41-.24-.59-.39s-.53-.63-.83-.9a.56.56,0,0,0-.84.07c-.23.23-.49.44-.79.7-.6,0-1.25,0-1.89-.13-.22,0-.39-.25-.07-.46s.33-.42,0-.49c-.85-.2-1.44-1.1-2.23-1.08-1,0-1.7-.94-2.72-.72-.54.12-.67-.65-1.24-.58a7.56,7.56,0,0,1-1.47-.08.31.31,0,0,1-.18-.13,3.24,3.24,0,0,1-.47-.73c-.07-.2.43-.19.82.08.13.09.23.3.35.31a1.19,1.19,0,0,0,.65-.18c.08-.06.1-.32.06-.46a.52.52,0,0,0-.32-.3c-.7-.14-1.45.08-2-.3a10.14,10.14,0,0,1,.73-1.22,7.62,7.62,0,0,1,.85-.85l.29-.05.11.14a1.09,1.09,0,0,0,1.31.31c.38-.1.23-.56.25-.86a.48.48,0,0,1,.17-.39l.06,0a1,1,0,0,1,.41-.07,1.25,1.25,0,0,1,1,.48.65.65,0,0,0,.63,0c.57-.45,1.06-1,1.92-.77,0,0,.24-.21.26-.35.12-.8.66-1,1.36-1.09.08,0,.17-.24.22-.38a.41.41,0,0,0-.32-.54c-.47-.13-1,.12-1.49-.28l.28-.21a3.41,3.41,0,0,0,1-.16c.28-.11.44-.43.72,0a.61.61,0,0,0,.4.2c.62.08,1.31-.08,1.76.59.08.12.47,0,.71.06s.43-.12.48-.4a.45.45,0,0,0-.3-.57c-.37-.12-.83.1-1.12-.31.31-.42.78-.07,1.09-.22a7.64,7.64,0,0,0,1.15-.86.33.33,0,0,1,.23,0c1,.18,1.42-.38,1.72-1.22a6.49,6.49,0,0,1,.45-.79,1.16,1.16,0,0,1,1.36-.75,1.88,1.88,0,0,0,.49,0c.68,0,.82-.25.48-.9-.09-.18-.41-.33,0-.52.13-.07.4-.08.46,0a1.42,1.42,0,0,0,1.25.57c.57,0,1.15.06,1.72.09l.76-.67-.43-.53c.59-.33.54-.92.6-1.47,0,0,.31-.11.33-.08.25.42.66.4,1.06.44s.49-.08.54-.33,0-.65-.45-.66c-.14,0-.27-.13-.41-.19.08-.1.16-.28.25-.29.72-.08,1.19-.39,1.25-1.16a3.4,3.4,0,0,0,1.59-.95c.09-.1.27-.12.42-.18l.54-.21-1.4-1.57a4.09,4.09,0,0,1,2.69-.59,6.64,6.64,0,0,0,1.47.09c.09,0,.19-.17.26-.28s-.1-.17-.15-.17a1.59,1.59,0,0,1-1.64-.8c-.18-.33-.55-.27-.8-.42a.66.66,0,0,1-.15-.63c.06-.14.49-.31.56-.24a2.38,2.38,0,0,0,2.26.49,3,3,0,0,0,0-1.81c-.44-.07-.89-.06-.8-.67,0-.27.27-.41.41-.21a1,1,0,0,0,1.09.37,1.06,1.06,0,0,0,1-.88c0-.25-.23-.55-.35-.83l.35-.19c.2-.09.58-.18.57-.26,0-1,.71-1.64,1.09-2.5a3.18,3.18,0,0,0-1.7-.11c-.25.38-.39.81-.57.83a1.43,1.43,0,0,0-.85.38s-.29-.1-.3-.18c-.15-.8.14-1.25,1-1.65a2.67,2.67,0,0,1,.44-.12l-.12-.36-.13-.35a2.55,2.55,0,0,1,.67-.07c.23,0,.23.63.69.27a11.19,11.19,0,0,1,1-.5.49.49,0,0,0,0-.46,1.33,1.33,0,0,1-.42-1.07c0-.53.24-.68.76-.65.26,0,.26-.23.07-.48C120.93,37.52,120,37.52,119.7,36.72Zm-13.78,4.42-.49-.47c-.32.31-.91.45-.81,1s-.49.79-.57,1.25.1,1-.12,1.19c-.43.4-.43,1-.86,1.38s-.26.36,0,.82c.09.18.22.24.07.55a7.61,7.61,0,0,1-2.1,2.26c-.15.12,0,0-.2.05-.44,0-.44,0-.27.6a1.16,1.16,0,0,1-.19,1.32c-1,.93-2.09,1.85-3.12,2.78a2.11,2.11,0,0,1-1,.5c-.45.1-.2.7-.32,1.07a.6.6,0,0,1-.32.3c-.21.09-.49.07-.65.2a12.29,12.29,0,0,1-2.24,1.89,10.54,10.54,0,0,0-2.12,1.5c-.31.25-.54.63-1,.5-.48.5-1.26.74-1.4,1.57,0,.12-.36.23-.56.27s-.6-.08-.7,0c-.63.77-1.74.8-2.36,1.58a1.91,1.91,0,0,0-.48.78c-.29,1.17-.47,1.28-1.62,1.25l-.66,0a11.25,11.25,0,0,0-1.16,1c-.4.48-.89.28-1.49.29-.34.32-.76.7-1.15,1.12a.88.88,0,0,1-.89.22c-.38-.08-.57.21-.85.35-.44.22-.2.83-.58,1s-.88,0-1.14.15c-.5.4-1.3.23-1.63.92-.06.13-.27.3-.37.28-1-.21-1.36.15-1.28,1.13,0,.07-.38.17-.58.26l-.42.22,1.33,1.46c-.08.12-.15.23-.21.34s-.28.43-.25.62c.05.42.45.32.75.39.49.12.7-.32,1.06-.44a.48.48,0,0,1,.6.52c0,.3.11.65-.21.91a10.36,10.36,0,0,0-.81.82c.87.56-.07,1.59.56,2.21.34.34.09,1.2,1,1.07l1.34,1.52c.45,0,.94,0,1.41.09.69.11,1.51-.23,2,.59a5.38,5.38,0,0,1,1.93.18,2.92,2.92,0,0,0,1.27.52c.47,0,.66.66,1.25.58.36,0,.83-.15,1.12.27s.93.26,1.14.76c.84-.12,1.38.7,2.19.7a10.07,10.07,0,0,1,1.41.21c.29.69,1,.21,1.48.6.69.61,1.68.78,2.28,1.54a1.19,1.19,0,0,0,.78.48,5.47,5.47,0,0,1,2,1.08,9.79,9.79,0,0,0,.83.91,4.65,4.65,0,0,0,.81.41c.33.18.65.39,1,.58-.05,1,.88,1.29,1.29,2a.43.43,0,0,1,.06.22c0,.48-.17,1.1.06,1.4a1.85,1.85,0,0,1,.27,1.37c0,.49,0,1-.1,1.48,0,.13-.26.22-.3.35-.18.59-.8,1-.81,1.63a6.84,6.84,0,0,1-.65.59,11.19,11.19,0,0,1-2.59,3.09l.12.18-.36,0a17.72,17.72,0,0,1-2.31,1.56A16.56,16.56,0,0,1,89.34,107a1.22,1.22,0,0,1-.48.24l-.12,0q-1.2.78-2.46,1.45s0,0,0,.08-.25.21-.39.21h-.16a27.34,27.34,0,0,1-8.46,2.71A35,35,0,0,1,71.86,113a.94.94,0,0,1-.46.08l-1.17.15-.13.07-.31,0a57,57,0,0,1-8.43.28,1.06,1.06,0,0,1-.54-.18h-.09c-.55,0-2.15-.24-2.56.36-.56,0-1.1-.06-1.68-.05.1-.58.61-.8.52-1.35s.15-1.16,0-1.71.59-.89.64-1.49.16-.72.83-.76h-.76c.31,0,.64-.5.45-.66-.53-.44.65-1.21.09-1.64s-.38-1.31-.26-2c0-.08.27-.13.41-.15.54-.07-.08-.65.55-.42a.34.34,0,0,0,.46-.39,2.6,2.6,0,0,1,.82-1.87c.17-.21-.27-.42-.23-.63a1.23,1.23,0,0,1-.31-.56c.29,0,.65-.08.54-.14s-.1-.29-.08-.44-.62-.31-.91-.36c.2,0,.41,0,.62,0l.09-.1c.16-.3.79-.65,1-.86s-1-1-.16-1c.3,0,.63-.4.93-.61l-.41-.6c.64-.34.49-1,.54-1.51s0-.94.48-1.3c.26-.2.64-.6.35-.82s-.22-.25-.05-.36c.74-.47-.17-.92-.54-1.37l1-.85a3.35,3.35,0,0,1-.37-.74c-.09-.39,0-.47.8-.57.08-.13-.28-.26-.27-.39.1-1.47.7-2.95.76-4.42,0-.51.06-1,.57-1.24-.56-.4-1.42-1-1.41-1.54a1,1,0,0,1,.42-.82c.1-.08,1.68-.3,1.64-.42-.11-.36-.32-.7-.4-1.06s1.09-.64.78-.89-.12-.49.09-.46c1,.14-.9-1-.26-1.18l-.43-.55a2.48,2.48,0,0,0,1.07-2c.05-.36.31-.54.43-.81s-.28-.49-.3-.75,0-.78.17-.9c.45-.3-.24-.95.24-1.17.23-.11-.27-.2-.48-.35s.74-.54.72-.87c-.06-.78.51-1.61-.22-2.33,0,0,.07-.23.13-.33.43-.74.11-1.44-.54-2.2-.22-.26,1-.62,1.27-.81s.24-.22.07-.35a.88.88,0,0,1-.3-.86c.12-1.64,1.21-3.27,1.3-4.91.34-.33.89-.58.36-1.18a1.32,1.32,0,0,1-.19-.34c.46-.28.43-.58,0-.88.68-.61.47-1.45.58-2.21.07-.51-.6-.72-.44-1.31s0-1.37.59-2c.35-.41-.16-1.3.53-1.75.08-.8.22-1.6.24-2.41,0-1.06,0-1.07.4-1.42l.26-.23-.7-.67a2.05,2.05,0,0,1,0-2,1.71,1.71,0,0,0,.32-.6c.13-.33-.74-.48-.16-.93s.22-.9.3-1.37.06-.82.09-1.44c-.35-.35-.79-.84-1.28-1.27-.74-.65-.14-1.51-.43-2.4a1.69,1.69,0,0,0-.84-1.07A20.08,20.08,0,0,1,65.73,30c-.39-.28-.81-.07-1.15-.24s-.35-1.57-.76-1.51-.89.77-1.24.43c-.85.16-1.49-.38-2.23-.61s-1.52-.89-2.46-.66a1.57,1.57,0,0,0-1.49-.58,1.31,1.31,0,0,0-1.48-.57c-.73.13-1.16-.5-1.74-.58-.86-.12-1.51-1-2.47-.67-.55-.5-1.44.42-1.74-.39a3.2,3.2,0,0,1,.42-.16c.47-.11.51-.13.28-.48a.69.69,0,0,1-.06-.86c.45-.75.43-.76,0-1.36.43-.34,1.09-.27,1.4-.79s.91-.19,1.25-.61.77-.09,1.16-.09c.57,0,1.15.11,1.72.08s.92-.55,1.56-.42c.31.06.68-.32,1-.38a3.47,3.47,0,0,1,1.22.07,2.38,2.38,0,0,0,1.55-.4,2.62,2.62,0,0,1,2-.37c.73.29,1.13-.52,1.8-.42s1.31.09,2,.13c.39-.55.66-.21,1.09,0a1,1,0,0,0,1.32-.27c.27-.33.64-.82,1-.08,1.14.08,2.28.21,3.42.21a1,1,0,0,0,.77-.75c-.36-.33-.8-.13-1.18-.23a1.88,1.88,0,0,1-.64-.24,1.2,1.2,0,0,0-1.7,0c-.29.25-.76.1-.79-.2-.08-1.05-.72-1.32-1.62-1.32a1.31,1.31,0,0,1-.48,0c-.1,0-.16-.2-.2-.32s.12-.16.17-.15a1.57,1.57,0,0,0,1.72-.6c.32-.43.46,0,.7.13a8.18,8.18,0,0,0,1.35.36l-.56.56a5.23,5.23,0,0,1,1,.61c.22.21.56.27.65.18.93-1,2.05,0,3.23-.55L76.62,15c0-.28,0-.53,0-.77s.18-.47.44-.43.54.24.53.32c-.09.61.44.83.7,1.21.67-.08,1,.75,1.74.62a9,9,0,0,1,1.7,0c.06,0,.12-.1.19-.16a3.92,3.92,0,0,0-.25-.36c-.23-.27-.24-.26-.87,0-.14,0-.38.09-.46,0a1.07,1.07,0,0,1-.28-.57c0-.11.15-.37.23-.36.9,0,1.8.08,2.69.11a.47.47,0,0,1,.5.39c.07.28-.13.5-.54.6-.15,0-.29.1-.43.15.25.51.52,1,1.21.89.33,0,.67,0,.67-.45s.48-.63.76-.88c.1-.09.48,0,.63.11a1.37,1.37,0,0,1,.63,1.22c.43.33.94.18,1.4.24s1.27-.1,1.68.17a4.1,4.1,0,0,0,1.27.54,14.49,14.49,0,0,1,1.39.77c.57.23,1,.71,1.6.88.35.09.51.66,1,.53s.74.57,1.24.58.81,0,1.21.07c1.64,1.86,3.27,3.71,4.92,5.53a4.49,4.49,0,0,1,1.1,1.79c.18.63.08,1.09.43,1.61a8.82,8.82,0,0,1,.64,1.69.51.51,0,0,0,.39.2c.52,0,.54.59,1,.71a5.55,5.55,0,0,0-.06,1.5c.13.55-.7.8-.4,1.17s.23.92.21,1.38a.94.94,0,0,0,.32.86c.06,0,.13.15.11.2a1.77,1.77,0,0,1-.26.63c-.16.19-.31.31-.05.53.44.39-.13.46-.26.74C105.8,39.53,106.66,40.1,105.92,41.13Z" fill="#19181c"/></g></svg>
