<?xml version="1.0" encoding="utf-8"?>
<!-- Generator: Adobe Illustrator 19.2.1, SVG Export Plug-In . SVG Version: 6.00 Build 0)  -->
<svg version="1.1" id="Layer_1" xmlns="http://www.w3.org/2000/svg" xmlns:xlink="http://www.w3.org/1999/xlink" x="0px" y="0px"
	 viewBox="0 0 143 128" style="enable-background:new 0 0 143 128;" xml:space="preserve">
<path class="st0" d="M132.2,105.3L96.1,69l36.2-36.1v72.4H132.2z M14.9,112.1l36.4-36.4l8,7.9c3,3,6.6,5,11,5s8-2,11-5l8-7.9
	l36.4,36.4H14.9L14.9,112.1z M125.9,25.3L74,77.4c-1,1-1.9,1.6-3.7,1.6s-2.7-0.6-3.7-1.6L14.7,25.3H125.9L125.9,25.3z M8.4,32.9
	L44.6,69L8.4,105.3V32.9L8.4,32.9z"/>
</svg>
