<svg id="1b98650e-0b2c-4b01-b728-4ee1789d091f" data-name="Layer 1" xmlns="http://www.w3.org/2000/svg" viewBox="0 0 245.1 117.16"><title>mouth</title><g id="b7b65bc7-55a4-4611-9534-2a8521cdf32e" data-name="&lt;Group&gt;"><g id="ea4d138d-b8d0-446d-a7c7-1d29c607ffa5" data-name="&lt;Group&gt;"><path id="efc4118f-d198-45fb-9d19-59b8dff563f3" data-name="&lt;Compound Path&gt;" d="M110.5,4.4a1.64,1.64,0,0,1,1,.1c.4.1.8.4.3.9,1.1-.4,1.4.2,1.8.4s.5.6,1.1.7c.2,0,.1.2.1.3.1.3.3.3.6.1.2.1.1.2-.1.4.5-.1.9-.1.9.3s.3.4.6.3c.1.5.2,1,1.2,1a.55.55,0,0,1,.5.4c-.2.8.7,1,1.6,1.3a.76.76,0,0,1-.4.1.35.35,0,0,0-.2.1c.1,0,.1.1.2.1s.2,0,.2-.1c1,.3,1.2.5.6,1,.3.1.8,0,.6.4-.1.1.1.2.3.3.7.3.9.8.7,1.3-.1.3-.1.6.4.7.3,0,0-.2.3-.3s.2.2.4.3c.1-.1.2-.2.3-.2.3,0,.1.2.3.3.3-.1.5-.2.5-.4,0-.4-.2-.9.3-1.3.1-.1.1-.2.3-.2s.6-.2.5-.5.3-.2.6-.3c-.5-.5-.3-.8.7-1,0,.1.1.1.2.1s.1-.1.2-.1a.35.35,0,0,1-.2-.1c-.1,0-.2-.1-.3-.1.5,0,.7-.4,1.1-.4s.3-.5.4-.7.1-.6.8-.5c.2,0,.3,0,.4-.1.5-.3.7-.8,1.1-1.2a.69.69,0,0,1,.8-.3c0-.1-.2-.3,0-.4.3.2.6.2.6-.2,0-.1-.1-.2.1-.2.9-.2,1.3-.9,2.1-1.2a.82.82,0,0,1,.7.1c.3-.8.4-.8,1.7-.9a.1.1,0,0,1,.1.1V4.7h-.1a1.38,1.38,0,0,1,1.1-1.1c.3-.1.7-.2.7-.7a1.39,1.39,0,0,0,.7.8,1,1,0,0,1,.4-.5c-.1-.1-.4,0-.5-.2.3-.1.4-.3.8-.2.1.1.1.1.3.1l.1-.1a.37.37,0,0,1-.3-.1.37.37,0,0,1,.4-.4c.6.1.9-.4,1.5-.2.2.1.4-.1.6-.2a.52.52,0,0,1,.4-.2,7.51,7.51,0,0,0,2.6-.5c.4-.1.3.2.5.2.4-.3.8-.1,1.3,0V.9c.5.1,1-.2,1.4.2l.3-.3c.1.2.2.4.7.3-.1-.2.1-.3.1-.5a5,5,0,0,1,1.2.2,2.1,2.1,0,0,0,1.4-.2.9.9,0,0,1,1,0,.19.19,0,0,0,.3,0c.8-.4,1.4,0,2,.2.8-.6,1.5.2,2.2,0,.1.2-.2.3.1.5s.4-.2.7-.2a2.18,2.18,0,0,1,.5.4.55.55,0,0,0,.3-.5c.3.1.5.3.8.1.1,0,.6-.1.5.3a.35.35,0,0,0-.2.1.19.19,0,0,0,.3,0,1.69,1.69,0,0,1,1.4.1c.3.2.9,0,1.3.2.2.1.2.2.2.3.4.1.4-.1.5-.3.1.7,1.1.3,1.5.7.1.2.8.1,1.2.3,1.5.6,3.1,1,4.7,1.5a22.07,22.07,0,0,1,2.7,1.2c.6.3,1.2.6,1.9.9a9.21,9.21,0,0,1,2.4,1.3,76.94,76.94,0,0,1,6.7,5.7,83.06,83.06,0,0,1,10.4,11.1,92.43,92.43,0,0,0,6.7,7.5,21.86,21.86,0,0,1,2.7,3.5,75,75,0,0,0,6.9,8.2,65.87,65.87,0,0,0,7.3,6.6,77.6,77.6,0,0,0,12.2,7.9,57.75,57.75,0,0,0,7.6,3.2,25.49,25.49,0,0,0,3.9,1.3c.7.2,1.4.4,2,.6.4.2.4.3.1.6-.4-.2-.7-.4-1.1.1-.2.3-.9.1-1.4.4l-.5-.5c-.2.5-.5.7-1,.2-.7.6-1.2-.1-1.8,0a1.5,1.5,0,0,1-1.9.2,3.71,3.71,0,0,1-1.5.4,12.61,12.61,0,0,0-2.8.5,17,17,0,0,0-2.4.5,19.09,19.09,0,0,1-3.3.6c-2.1.3-3.9,1-5.9,1.3a8.6,8.6,0,0,0-2.7.9,7,7,0,0,0-1.9.6,5.4,5.4,0,0,1-1.7.9c-.7.2-1.2.6-1.9.8-.3.1-.4.3-.7.5a18.63,18.63,0,0,0-3.4,1.9,41.92,41.92,0,0,1-3.3,2.6c-1.4,1-2.6,2-4.1,2.9a3.72,3.72,0,0,0-1.8,1.7c-1.6.7-1.9,2.1-3.1,3-.5.4-.7.9-1.5,1.1.7.5,0,.8-.4,1.1s-.6.9-1,1.3a3.11,3.11,0,0,0-.9.7,25.25,25.25,0,0,1-2.1,2.5c-.2.2-.6.4-.8.6-.5.4-1.1.8-1.3,1.3-.1.3-.5.3-.9.4,0,.1.4.2.2.2-.5.1-.3.7-1,.6a.32.32,0,0,0-.3.3c0,.7-.6,1.1-1.2,1.6a14,14,0,0,0-2.6,2.1c-.1.1-.1.1-.7.1.1.3.2.6-.5.7a.1.1,0,0,0-.1.1,5.31,5.31,0,0,1-2.3,1.8c-.4.2-.5.7-1.1.8-.1,0-.1.1.1.2h0c-.7-.2-.7.4-1.1.6a1.72,1.72,0,0,0-.6.6c-.4-.2-.6-.2-.9.1a7.87,7.87,0,0,1-2.9,2,3.11,3.11,0,0,0-.9.7c0-.1-.1-.1-.1-.2a5.28,5.28,0,0,1-2.3,1.4c-.1,0-.3,0-.3.1.1.6-.8.7-1.3,1l-.6.3a.8.8,0,0,1-1,.3,1.06,1.06,0,0,0-.5.2,5.8,5.8,0,0,1-2.8,1.5h-.1c-.3.5-1.3.5-1.8.9a3.69,3.69,0,0,1-1.4.7c-.7.1-1,.5-1.7.5-.2,0-.1.2-.2.2-.4.2-.6.5-1.1.5a4.25,4.25,0,0,0-1.7.5,12.21,12.21,0,0,1-2.6.6c-.6.2-.8.5-1.5.6-1.5.1-2.8.6-4.3.8-.8.1-1.4.5-2.2.6a12.5,12.5,0,0,1-1.9.3,12,12,0,0,0-2,.3,6.88,6.88,0,0,1-2.5.3c-.3,0-.4.1-.6.1a26,26,0,0,0-3.9.5h-.4c-.1-.1-.1-.1-.2-.1v-.1h-.1a.1.1,0,0,1,.1.1l.1.1a3.93,3.93,0,0,1-2.4,0,.44.44,0,0,0-.5-.1,4.76,4.76,0,0,1-2.9.2c-.8-.1-.8-.1-.9-.4a.22.22,0,0,0-.1.3c-3.2-.2-6.1-.2-9.3-.1,0,0,.2-.2-.1-.3,0,.4-.2.4-.7.4-.7-.1-1.4.3-2,0-.9-.4-1.8,0-2.7-.1a2,2,0,0,1-1.1-.2c.1,0,.1-.1.2-.1a.1.1,0,0,0,.1-.1h-.1v.1c-.1-.1-.2,0-.2.1a6.45,6.45,0,0,1-2-.3,15.17,15.17,0,0,1-2.1-.3c-.9-.2-1.9-.2-2.9-.4-.2,0-.4-.2-.6-.3a4.68,4.68,0,0,0-1.7-.2,7,7,0,0,1-3-.6c-1.2-.6-2.7-.6-3.9-1.1a5,5,0,0,0-1.2-.2c-.7,0-1.1-.5-1.7-.6a11.66,11.66,0,0,1-3.3-1.1c-.4-.2-1.3-.1-1.7-.5s-.9-.4-1.3-.7c-.1-.1-.6-.1-.8-.2a14,14,0,0,1-3-1.5,1.82,1.82,0,0,0-1.1-.4,1.87,1.87,0,0,1-.9-.4c-.2-.4-1-.4-1.1-.9l-.1-.1c-.9,0-1.3-.5-2-.8-.5-.2-1.2-.4-1.3-1,0-.2-.8-.4-1.3-.6a2.41,2.41,0,0,1-1.2-1,.31.31,0,0,0-.1.2,3.6,3.6,0,0,0-1.2-.8c-.7-.2-.9-.7-1.4-1a4,4,0,0,1-1.2-1c-.2-.3-.3-.3-.8-.1a11.41,11.41,0,0,1-1.1-1.1c-.2-.2-.3-.2-.6-.1h0c.1,0,.2-.1.1-.2-.8-.4-1.3-1-2-1.4a2.58,2.58,0,0,1-1.2-1.1.22.22,0,0,0-.2-.2c-.6-.1-.7-.3-.4-.8-1,.3-.8-.3-1.1-.5-.6-.4-1-.9-1.6-1.3-.8-.5-1.6-1.1-1.6-2,0-.1,0-.3-.5-.3-.3,0-.4-.4-.8-.6-.2-.1.2-.1.2-.2-.6-.1-.8-.2-.9-.7,0-.3-.6-.7-1-1a6.73,6.73,0,0,1-1.5-1.4,11.18,11.18,0,0,0-1.7-2.1c-.9-.7-1.1-1.6-2.1-2.2-.2-.2-.3-.4.2-.6-1.5-.4-1.7-1.4-2.4-2.1a5.08,5.08,0,0,1-.9-1.3c-.2-.3-.5-.3-.8-.5a6.47,6.47,0,0,1-.8-.9c-.8-.8-1.9-1.4-2.8-2.2-1.2-.9-2.4-1.8-3.6-2.8A18.41,18.41,0,0,0,34.2,70a21,21,0,0,0-2.6-1.3A25.47,25.47,0,0,1,28.3,67c-.7-.5-1.8-.5-2.7-.9-1.8-.8-3.9-1-5.8-1.7a21.39,21.39,0,0,0-3.8-.7,6.22,6.22,0,0,1-1.6-.4c-.9-.3-1.9-.3-2.8-.6a7.73,7.73,0,0,1-2.9.3,1.69,1.69,0,0,1-1-.3,1.65,1.65,0,0,1-1.9-.3c-.6,0-1.1.7-1.8,0-.4.5-.7.2-1,0a1.85,1.85,0,0,1-1.9-.2c-.2-.2-.3-.2-1,0-.2-.5-.1-.6.7-.8,1-.3,2-.5,3-.8q4.5-1.5,8.7-3.3a64,64,0,0,0,8.6-4.8,66,66,0,0,0,9.3-6.9,84.15,84.15,0,0,0,7.9-7.9c1.4-1.6,2.7-3.4,4-5s3.1-3.3,4.6-4.9c1.7-1.7,3.2-3.5,4.7-5.3A90.09,90.09,0,0,1,62.3,11.8a55.3,55.3,0,0,1,5.9-4.7,7.14,7.14,0,0,1,3.1-1.7,5.36,5.36,0,0,0,1.1-.5A21,21,0,0,1,77,3.1,20.36,20.36,0,0,0,80.5,2a4.19,4.19,0,0,1,1.6-.4c.5,0,.5-.1.6-.3.2.1.2.4.5.3.1-.4,2-.8,3-.6a.19.19,0,0,0,.3,0c.1-.1-.1-.1-.2-.1-.1-.4.5-.3.5-.3.3.2.5-.1.8-.1.1.2.1.4.4.5a2.18,2.18,0,0,0,.5-.4c.3,0,.4.3.7.2s0-.3,0-.4c.5-.2,1.1,0,1.5-.3s.5.1.6.3c.7-.3,1.3-.7,2.1-.2.4.2.3-.2.6-.1.5.2,1.1.2,1.6.4.2.1.4,0,.5,0A2.54,2.54,0,0,1,97.3.3c0,.2.3.4.1.6.4.1.7,0,.7-.3.2.1.2.2.4.3.3-.4.9-.1,1.2-.2.3.1,0,.3.2.5.4-.1.8-.3,1.2,0a.68.68,0,0,1,.8-.1,5.85,5.85,0,0,0,1.9.4c.2,0,.5,0,.6.1a8.43,8.43,0,0,0,2.4.7c.3.1.4.2.3.4a.37.37,0,0,0-.3.1.1.1,0,0,0,.1.1c.1.1.2,0,.3-.1.4-.1.5.2.8.2-.1.2-.4.1-.5.2a.66.66,0,0,1,.4.5c.4-.2.7-.4.8-.7.5.4,1.9.5,1.8,1.4,0,.1-.1,0,0,0h0C110.4,4.5,110.5,4.5,110.5,4.4ZM120.1,58c.1,0,.3,0,.3-.1a.1.1,0,0,0-.1-.1c-.2,0-.3,0-.4.1s-.2.1-.1.2S120,58.1,120.1,58ZM90.4,49.9c-.2,0-.4,0-.4-.1a.49.49,0,0,0-.6-.3c-.4.1-.3.3-.3.5-.1,0-.1.1-.2.1a.76.76,0,0,0-.5.2c-.2-.1-.1-.3-.5-.4a1,1,0,0,1-.9.4c-.5-.2-.1-.6-.6-.9-.4.6-.9.9-1.2.6,0,.2,0,.4-.3.3-.6-.1-.5-.4-.5-.8-.3.1-.7.2-.7.4l-.1.1c-.4,0-.4-.6-.9-.3-.2.1-.7.2-.7.5s-.4.5-.9.4a3.3,3.3,0,0,0-1.4,0c-.1-.2.5-.4,0-.7,0,.6-.7.3-1,.4-.4.3-.1.6-.4,1-.6-.5-1.2-.4-2-.1.3.2.1.3-.1.4a1.74,1.74,0,0,1-1.4.3c-.3,0-.5-.1-.5.3,0,.1-.1.6-.8.4-.2.3.3.7-.3.8.7.7,1.7.4,2.6.5,0-.1,0-.2.3-.2s.4.1.6-.1c.7-.4,1.8-.3,2.5-.8.2-.1.6,0,.8,0a4.42,4.42,0,0,0,2-.2,1.27,1.27,0,0,1,.6-.1c.8.1,1.6-.2,2.3.1h.3c.5,0,1.1-.2,1.5-.2a5.7,5.7,0,0,0,1.3.1h0c.2.1.6.2.7.1.2-.3.4-.1.5-.1a8.76,8.76,0,0,0,2.8,0c.2-.1.5,0,.7,0a7,7,0,0,0,2.5.1c.7,0,1.3.2,2,.2s1.1.5,1.7.1c0,.4.5.4.8.4a2.15,2.15,0,0,1,1.1.2c.9.4,1.6,1,2.9.5a.49.49,0,0,0,.4.6c.8,0,1.1.5,1.7.7a8,8,0,0,1,1.5.3,20.36,20.36,0,0,0,2.2.9,15.87,15.87,0,0,0,2,.7c.8.3,1.4.8,2.2,1.1a8.41,8.41,0,0,1,2.9,1.8,15.89,15.89,0,0,1,3.7,3.6,11.73,11.73,0,0,1,.5,1.1,2.1,2.1,0,0,0,1.8.6c.2,0,.6-.3.6-.4a.1.1,0,0,1-.1-.1,1.76,1.76,0,0,0,1.2-1c.1-.3.1-.6.3-.8a16,16,0,0,1,2.6-2.6c.7-.6,1.6-1,2.3-1.7a8.36,8.36,0,0,1,2.3-1.2,7.49,7.49,0,0,0,2-1.1c0,.1,0,.4.3.2a6.94,6.94,0,0,1,1.3-.5,10.21,10.21,0,0,1,2.9-1.1,12.62,12.62,0,0,0,3.4-1.3c.4.4.8.1,1.3,0,.7-.2,1.2-.7,2-.7s1.5-.4,2.3-.3c.4,0,.8-.2,1.2-.1v.1h.1a.1.1,0,0,1-.1-.1,1.81,1.81,0,0,1,1.4-.2,16.2,16.2,0,0,0,2.2.1,4.3,4.3,0,0,1,1.6,0c1,.3,2.1-.2,3.2.1a2.33,2.33,0,0,0,1.8-.2c.3.1.4.3.8.3h3.7a2.19,2.19,0,0,0,1.9.3c1.4-.1,2.2.6,3.4.8.2,0,.3.1.5.1s.6.3,1,.1c.6.6,1.2-.2,1.8,0-.4-.2.5-.3.2-.4-.6-.2-.1-.4-.2-.6v-.2c-.2,0-.4.2-.6.1.1-.4-.2-.7-.8-.8-.9-.1-1.4-.4-1.4-.9a1.86,1.86,0,0,0-1.9.1c-.3-.3,0-.7-.4-.9s-1,.1-1-.4c-.4.2-.1.4-.3.5h-.9a1,1,0,0,1-1.1-.3c-.7-.7-.7-.8-1.6-.3-.1,0-.1-.1-.2-.1.1-.3-.3-.3-.8-.5.2.4.3.7-.3.7-.4,0-.9.1-1.1-.4-.1-.2-.4-.3-.7-.6a1.49,1.49,0,0,1-.4.9,1.1,1.1,0,0,1-1-.5,3.17,3.17,0,0,0-.5.6c.1-.6-.4-.3-.6-.5,0-.2.2-.5-.2-.6a.62.62,0,0,0-.7.2,3.33,3.33,0,0,1-.6.3c-.3-.1.1-.3-.1-.4-.8-.2-.4.5-1,.6-1-1-2.4-.9-3.7.2-.5-.1-.5-.1-.6-1-.2.1-.4.1-.6.2s-.4,0-.7,0c.1.2-.2.3-.2.4s.3.1.4.1c-.4,0-.2.4-.6.4-.4-.3.1-.6-.1-1-.3.5-1,.1-1.5.4.3.3.2.5-.1.8-.5-.3-.7,0-1,.2a.34.34,0,0,0-.6-.1c-.2.4-.4.2-.8.1a6.12,6.12,0,0,1-1.2-.5.94.94,0,0,1-.9,1.2c0-.2-.4-.1-.4-.4l1.1-.3q0-.15-.3-.3a1.54,1.54,0,0,1-1.6.1c-.5-.3-.7-.1-.8.2s-.5.5-1,.3c-.2-.1-.5-.1-.3.2a.1.1,0,0,1,.1.1c-.1.4-1,.4-1,.8-.1-.3.1-.5-.1-.7-1.2,0-1,.7-1.2,1-1.2.4-2.4-.1-3.4.5a.3.3,0,0,1,0,.4c-.9.1-.6.5-.5.8-.3.1-.7.1-.7-.1s-.2-.3-.4-.5c-.4.1-.6.3-.4.6s-.1.2-.3.1h0c-.8-.1-1.4.3-1.1.8-.3.1-.5-.2-.8,0,0,.3-.2.4-.7.6s-1.2.1-1.6.5c-.2.2-.1.6-.9.6.5.1.6.5,1.1.4h0c-.4.6-1.2-.3-1.7.2.2.2.2.4.5.5a3,3,0,0,0-.5.7c-.8-.4-.8-.4-1.4.2-.3.2-.4.5-.7.9-.3-.3-.3-.7-.9-.8-.2.1-.5.3-.7.4a2.19,2.19,0,0,0-.3-.5.86.86,0,0,0,.6-.3c-.3-.1,0-.5-.6-.6-.4.2-.1.5-.2.7.2-.6-.8-.4-1-.8a.4.4,0,0,0,.5-.3c-.3-.2-.3-.5-.5-.7a11,11,0,0,1-1.4-.9.31.31,0,0,1-.2-.1c-.1.1.1.3-.1.4a.62.62,0,0,1-.5-.3c-.2-.3-.1-.3-.6-.3l-.1-.1a.84.84,0,0,0-1-.7c-.4.1-.6.1-.5-.3.1-.2-.1-.4-.3-.4-.4-.1-.5.1-.5.3s-.3.3-.7.2c.7-.6-.6-.7-.6-1.2a1.6,1.6,0,0,0-1,.5c.5-1.1-1.3-.5-1.3-1.3-.2.3-.6.2-.9.3-.2-.5,0-1.2-1.2-1.2a1.7,1.7,0,0,0-.1.7c.1-.5-1.3-.4-.9-1.1a.37.37,0,0,1-.3-.1h0c-.1.1,0,.3-.3.2s-.7-.1-.7-.5a.47.47,0,0,0-.6-.4,1.85,1.85,0,0,1-1.9,0c-.1.6.8.4,1,.7-.2.1-.3.2-.5.3-.5-.3-1.3-.6-.7-1.2-.4.2-1,0-1.3.4a.44.44,0,0,1-.8-.1c0-.1-.2-.2-.4-.2s-.2.2-.2.3c-.3-.5-1.4-.2-1.7-.8a.85.85,0,0,0,.6-.2c-.4-.3-1.1,0-1.5-.5-.3.4.3.7-.3,1.1,0-.3-.2-.4-.4-.5.2,0,.3-.1.4-.1-.2-.5-1.1-.3-1.5-.7a.48.48,0,0,0-.6.1c0,.1.4,0,.3.2-.2,0-.4.1-.4.3s.4.2.6.3c-.2,0-.4.2-.7.1.1-.3-.4-.3-.6-.5a2.44,2.44,0,0,0-2.6.1c-.1.1-.1.3-.4.2s0-.2-.1-.3c-.2-.3-.4-.5-.8-.1C90.5,49.9,90.5,49.9,90.4,49.9Zm34.9-16.8c0-.3-.5,0-.5-.2a4.35,4.35,0,0,1,.7-.6c-.2-.1-.6.1-.7-.3.8.2.9-.2.9-.6a1.1,1.1,0,0,1,0-.8c.1-.3-.3-.5-.4-.8,0-.1-.5-.1-.7-.2-.6-.2-1.1.3-1.6.1-.2.2.1.4-.2.5s-.3-.2-.4-.2c-.8.5-.4,1.1-.3,1.6-.2.1-.6-.1-.5.2.2.6-.5,1.1.1,1.7-.4.2-.1,1.2.6,1.8-.3.1-.6.2-.9-.1-.4.5.6.4.6.7-.7-.1-.9,0-.9.4a19.22,19.22,0,0,0,0,2.4c.1,1.2.2,2.4.4,3.6.1.6-.1,1.4,1,1.8.4-.1.4-.4.4-.7s-.1-.4,0-.6a2.22,2.22,0,0,0,.5-1.1c0-.4.5-.7.3-1.1s.3-.6-.1-.9a.19.19,0,0,1,.1-.3c.6-.3.4-.8.4-1.2,0-.1-.1-.2,0-.3s.3-.2.1-.3-.4.1-.6,0c0-.4.1-.7.9-.7-.5-.5.1-.9,0-1.3s-.6-.6-.6-1c1,.1.2-.5.6-.7h.4c-.1-.2,0-.5-.5-.5C124.7,33.1,125.1,33.2,125.3,33.1Zm18.2,5.4c1.3-.8.9-2.1,1.9-3.1.7-.6,1-1.4,1.6-2,.4-.4.3-.8.7-1.1.1-.1,0-.3-.2-.3-.5-.2-.7-.5-.6-.8s-.1-.3-.3-.4a.44.44,0,0,0-.5.1.37.37,0,0,1-.3.1c-.8.1-1.5.3-1.4,1a.35.35,0,0,1-.2.1c-.4.1-.4.3-.4.5a7.1,7.1,0,0,1-.8,1.8c-.1.3,0,.6-.3.9a6.42,6.42,0,0,0-1,1.3c-.4.6-.7,1.3-1.1,1.9-.6,1-1.1,2-1.6,3-.2.4-.2.7-.4,1.1a.76.76,0,0,0,.4,1,1.34,1.34,0,0,0,1.6-.4c.3-.4.3-1,.8-1.4.3-.2.6-.5.5-.8-.2-.5.3-.9.7-1.1.7-.4.9-.7.7-1.3a.1.1,0,0,1,.1-.1C143.4,38.4,143.5,38.5,143.5,38.5Zm-39.8.1c0-.4-.3-.7-.4-1a5.54,5.54,0,0,0-.2-1.8,2.93,2.93,0,0,1-.3-1c0-.3-.2-.7-1-.6.5-.1,0-.8.9-.6a9.7,9.7,0,0,1-.1-1.7,1.49,1.49,0,0,0-.7.3c-.1-.1-.2-.2-.2-.3-.1-.6-.8-.3-1.2-.3a1.17,1.17,0,0,0-1,.6,2.82,2.82,0,0,0,.4,2c.2.3-.2.5,0,.7.6.5.5,1.2.7,1.7.4,1.1.8,2.1,1.1,3.2a.92.92,0,0,0,.6.4c-.1.2-.4.1-.5.3a2.32,2.32,0,0,1,.9,1.9c0,.3.3.5.4.8s.3.3.7.2c.2-.2-.2-.4,0-.7a.51.51,0,0,0,.5-.1,4.14,4.14,0,0,1-.2-1.6c-.2-.1-.5,0-.7-.2.2-.1.7,0,.5-.4a5.17,5.17,0,0,0-.6-1.3C102.8,38.7,103.2,38.7,103.7,38.6Zm-2.7,12c-.4-.1-.6-.2-.7-.4-.4.1-.4.3-.6.4C100.5,50.9,100.5,50.9,101,50.6Zm44.4-.7c-.2.2-.8.1-.7.5,0,.1.2.2.3.2a1.45,1.45,0,0,0,.7-.2C145.6,50.1,145.6,50,145.4,49.9Zm-1.8.7c-.2-.1-.3-.1-.4,0C143.3,50.7,143.4,50.6,143.6,50.6Zm-41.8.4a.35.35,0,0,1-.2-.1.1.1,0,0,0-.1.1l.1.1A.31.31,0,0,0,101.8,51Zm18.1,6.6h-.1c-.1,0,0,.1.1,0Z" transform="translate(-0.01 0.04)"/><path id="fc327405-affb-4da3-95cb-4fb7b31ecc19" data-name="&lt;Path&gt;" d="M65.4,100l-.1.1Z" transform="translate(-0.01 0.04)"/><path id="345724d6-4ea4-47e4-985b-bc98deea04e6" data-name="&lt;Path&gt;" d="M134.1,54c-.6.3-.6.3-1.1,0C133.4,54.1,133.7,53.9,134.1,54Z" transform="translate(-0.01 0.04)"/><path id="296c2ef1-a975-47f0-a11e-883f1bb0b89a" data-name="&lt;Path&gt;" d="M169.6,54c.2-.1.3-.2.5-.2l.1.1C170,54.2,169.9,54,169.6,54Z" transform="translate(-0.01 0.04)"/><path id="bc957f42-362d-4636-afc3-4aa7a81a4571" data-name="&lt;Path&gt;" d="M75.5,54c0,.1-.1.1-.2.1l-.1-.1c0-.1.1-.1.2-.1A.1.1,0,0,1,75.5,54Z" transform="translate(-0.01 0.04)"/><path id="caec26ae-4dc3-47af-a9ac-68113bc8ca47" data-name="&lt;Path&gt;" d="M130.2,54.5c.1.1.1.2-.1.2a.1.1,0,0,1-.1-.1c0-.1.1-.1.2-.1Z" transform="translate(-0.01 0.04)"/><path id="d86861ba-268f-4f55-8033-58096deac92a" data-name="&lt;Path&gt;" d="M88.2,52.8c0-.1.1-.1.2-.1s.1.1,0,.1Z" transform="translate(-0.01 0.04)"/><path id="b9f50980-084d-491e-9de1-0bcaebabb824" data-name="&lt;Path&gt;" d="M90.6,49.8c.1.1.2.1,0,.2s-.2-.1-.2-.1S90.5,49.9,90.6,49.8Z" transform="translate(-0.01 0.04)"/><path id="d3790c68-ecab-4a96-942d-2095ebd1a3b3" data-name="&lt;Path&gt;" d="M123.3,65.3c0,.1-.1.1-.2.1v-.1C123.2,65.2,123.3,65.2,123.3,65.3Z" transform="translate(-0.01 0.04)"/><path id="b9487847-5f18-4b65-841d-f15e1c41a328" data-name="&lt;Path&gt;" d="M116.5,55.9h-.2c-.1-.1,0-.1.1-.1Z" transform="translate(-0.01 0.04)"/><path id="3a80fb4c-feeb-4309-9b02-7aa2d3655ae5" data-name="&lt;Path&gt;" d="M138.3,51.4Z" transform="translate(-0.01 0.04)"/><path id="7d695d8f-133b-4aaa-b3ea-4f29b06be0cf" data-name="&lt;Path&gt;" d="M83.7,50.1c.1,0,.2.1.1.1s-.2,0-.3,0C83.6,50.2,83.7,50.2,83.7,50.1Z" transform="translate(-0.01 0.04)"/><path id="00ef5607-d095-4a48-9618-e47f42c18a45" data-name="&lt;Path&gt;" d="M89.1,50v.1h-.2C89,50.1,89.1,50.1,89.1,50Z" transform="translate(-0.01 0.04)"/><path id="21cb5f95-6fa1-4bb2-b4cc-0e482bd15f6a" data-name="&lt;Path&gt;" d="M161.8,50.1c-.1.1-.1.1-.2,0a.1.1,0,0,1,.1-.1A.1.1,0,0,0,161.8,50.1Z" transform="translate(-0.01 0.04)"/><path id="138bbc32-5742-42d1-804c-106b502e11ef" data-name="&lt;Path&gt;" d="M121.7,37.1a1,1,0,0,1,.4-.7C122.2,37.1,122.2,37.1,121.7,37.1Z" transform="translate(-0.01 0.04)"/><path id="2cc70746-de7c-4df0-a8d1-4186b717acd8" data-name="&lt;Path&gt;" d="M122.6,42c.2.1.3.3.2.4s0,.3-.3.2c-.5-.1,0-.2,0-.3S122.2,42.2,122.6,42Z" transform="translate(-0.01 0.04)"/><path id="ecdd2cb0-bffb-4597-ad20-6beebe03b7ff" data-name="&lt;Path&gt;" d="M121.8,41.8c.1,0,.2,0,.2.1l-.1.1c-.1,0-.2,0-.2-.1Z" transform="translate(-0.01 0.04)"/><path id="90790125-61ff-4d08-be7d-d7dd9580395d" data-name="&lt;Path&gt;" d="M124.6,33.8h0c-.1.1-.1,0-.1,0Z" transform="translate(-0.01 0.04)"/><path id="052723d9-4661-4ed3-947d-7de8e627ac7e" data-name="&lt;Path&gt;" d="M142,39.4c.2-.3.7-.5.4-1,.5.5.5.7-.4,1Z" transform="translate(-0.01 0.04)"/><path id="e0b31e43-f728-4202-8566-9dc5c42df684" data-name="&lt;Path&gt;" d="M142,39.4Z" transform="translate(-0.01 0.04)"/><path id="ba224aad-878e-4462-b19f-f83833a7fd4a" data-name="&lt;Path&gt;" d="M101.6,38.1c-.6-.4-.4-.7,0-1C102.1,37.4,102.1,37.7,101.6,38.1Z" transform="translate(-0.01 0.04)"/><path id="f9db5c23-3a11-41c6-8379-887818e02a59" data-name="&lt;Path&gt;" d="M102.6,40c-.8-.1-.6-.5-.4-.8C102.8,39.4,103.3,39.6,102.6,40Z" transform="translate(-0.01 0.04)"/><path id="81677ae6-6024-40aa-8bac-df5d4c397197" data-name="&lt;Path&gt;" d="M102.9,36.4c-.3-.2-.6-.1-.9-.1C102.3,36.2,102.6,35.9,102.9,36.4Z" transform="translate(-0.01 0.04)"/><path id="07b4feca-d57e-4f13-8f77-50d0fc7e7e60" data-name="&lt;Path&gt;" d="M101.7,36.1a2.77,2.77,0,0,0-.9.1c.1-.1.1-.3.2-.4C101.4,35.8,101.4,36.1,101.7,36.1Z" transform="translate(-0.01 0.04)"/><path id="adc8c8d1-41de-4144-bb09-732362993256" data-name="&lt;Path&gt;" d="M103.6,40.7c-.3.2-.4,0-.6.1C103.2,40.6,103.3,40.7,103.6,40.7Z" transform="translate(-0.01 0.04)"/><path id="9caf905d-b1bb-4a45-9f26-8e2db0d02e0a" data-name="&lt;Path&gt;" d="M102.3,40.7h0c-.1-.1,0-.1,0-.1s.1,0,.1.1Z" transform="translate(-0.01 0.04)"/><path id="065cf513-6d03-4dfa-98ea-af49ca5d82ce" data-name="&lt;Path&gt;" d="M102.4,32.5h0c-.1.1-.1,0-.1,0Z" transform="translate(-0.01 0.04)"/></g></g></svg>